<?xml version="1.0" standalone="no"?>
<svg version="1.1" id="Layer_1" xmlns="http://www.w3.org/2000/svg" xmlns:xlink="http://www.w3.org/1999/xlink" x="0px" y="0px" width="595.28px" height="595.28px" viewBox="0 0 595.28 595.28" enable-background="new 0 0 595.28 595.28" xml:space="preserve">
<path id="color_x5F_2" fill="#fbbf24" d="M321.249,372.455l-42.5,1l2.5,10.5c0,0-2.5,6-6.5,6.5s-10.5-2-12.5-5s1.5-13.5,1.5-13.5
	h-37.5v-24.5l2-1c0,0,7.5,3.5,12.5,2s6-7.5,6-7.5s0.5-5-4-9s-15.5,1-15.5,1v-33.5l37.5-0.5c0,0-3-1.5-3.5-7.5s2-8.5,11-10.5
	s8,8.5,8,8.5l-1,9h8l0.5,5.5l1.5,2.5l3,2l3,2.5h3.5l1,2l3.5-3l2.5,0.5l6-5.5l3-6h4l1,33l-2-1c0,0-10.5-2.5-13-2.5s-5.5,6.5-5.5,6.5
	s2,9,7,12.5s13.5-2.5,13.5-2.5L321.249,372.455z M514.249,441.455c0,0-0.5,2-3,3.5s-4.5,0.5-8.5-2s3-11,3-11l-15.343-13.087
	l-1.657-1.413l-3,8.5l-7,7.5l-0.5-4c0,0-4-2.5-6.5-2.5s-11,2-12,10.5s8.5,12.5,8.5,12.5l-10.5,14.5l16,9c0,0,0,0,1.5-2.5
	s7.5-2,11-0.5s-2,12.5-2,12.5l16,8l8.5-11.5c0,0-6.5,0-9-1.5s-8.5-7-8.5-7l2-3.5l-1.5-3l2-1.5l2-1.5l2.5-1.5l2-1l5-1.5l8.5,6.5l6,2
	l12.5-13L514.249,441.455z M140.249,387.455c-3.5-3-14,0.5-14,0.5l-10.5-20.5l-17.5,13l5.5,4.5l-2,8.5c0,0-5,6-10.5,8s-11-11-11-11
	l-22,13.5l18,29.5l10.5-10l-1.5-3c0,0-0.5-8,2-10.5s4,8.5,4,8.5l2.5-6.5l4-8l5,3l2,1.5l2.5,2.5l2,2l1,4l1.5,2l1,5.5l-11.5,8.5
	l-3,5.5l-12.5,16l0.5,2l2,2l17.5-11l3.5,6c0,0,7,0.5,10.5-3s-0.5-11.5-0.5-11.5l25-15.5l-11-16.5l4-1c0,0,6-2.5,7-7.5
	S143.749,390.455,140.249,387.455z M430.749,154.455c1-3.5,0-6.5-5.5-10s-8,3-8,3l-9.5-23.5l-62,24l9,23c0,0-7,4-7,6s6,9,6,9l7.5-1
	l10.5,24l19-7.5l2.5,0.5c0,0,2.5,6.5,4.5,8s8,1,8,1s0-5,0-7s-2.5-9.5-2.5-9.5l6,1.5l1-2.5l2.5-0.5l3-1l3.5-1l13-6l-8.5-24
	C423.749,160.955,429.749,157.955,430.749,154.455z M219.748,115.956l-8.667,30.667l8.667,1.333l6,6.667
	c0,0-1.333,7.333-6.667,12.667s-12-0.667-12-0.667l-7.333,14l4,0.667h4l-0.667,9.333l-2,7.333l19.333,8c0,0,4.667-6.667,6.667-8
	s9.333-2,13.333-0.667s1.333,13.333,1.333,13.333l42.667,13.333l8.667-28.667l-6.667-3.333l-2.667-9.333c0,0,4-8,9.333-9.333
	s12.667,5.333,12.667,5.333l12.667-29.333l-98-34.667L219.748,115.956z"></path>
<path id="color_x5F_1" d="M493.889,373.13c-0.859,1.26-1.939,2.417-2.623,3.789c-0.824,1.652-0.22,2.54,1.6,2.74
	c0.662,0.073-0.215,0.588-0.38,0.66c-0.611,0.27-1.346,0.469-2.019,0.395c-1.484-0.163-3.025-0.802-2.355-2.557
	c0.64-1.674,1.932-3.018,2.929-4.48c0.322-0.472,1.2-0.646,1.711-0.744C492.826,372.918,494.155,372.739,493.889,373.13z
	 M499.961,385.292c3.263,0.446,6.12-1.569,6.746-4.798c0.294-1.522-2.679-1.197-2.946,0.183c-0.281,1.453-1.273,2.598-2.83,2.386
	c-0.704-0.096-1.579,0.223-1.88,0.913C498.757,384.648,499.319,385.205,499.961,385.292z M489.786,371.89
	c0.446-0.084,1.477-0.273,1.709-0.752c0.496-1.023,0.838-2.116,1.197-3.192c0.151-0.454-0.97-0.245-1.142-0.212
	c-0.384,0.073-1.553,0.285-1.709,0.752c-0.359,1.076-0.701,2.169-1.197,3.192C488.434,372.113,489.662,371.914,489.786,371.89z
	 M501.648,371.458c-0.753,0.775-1.294,1.673-1.774,2.634c-0.314,0.629,0.27,1.02,0.843,1.066c0.647,0.052,1.582-0.216,1.897-0.848
	c0.394-0.787,0.8-1.52,1.417-2.155c0.454-0.467,0.285-1.065-0.334-1.247C503.011,370.708,502.144,370.947,501.648,371.458z
	 M500.656,366.553c1.361,0.02,2.85,0.274,4.022,1.005c0.557,0.347,1.324,0.185,1.898-0.044c0.18-0.072,1.349-0.698,0.808-1.035
	c-1.657-1.033-3.625-1.362-5.554-1.39c-0.632-0.009-1.509,0.24-1.922,0.754C499.475,366.383,500.278,366.548,500.656,366.553z
	 M551.824,458.54c-0.037,0.009-0.073,0.02-0.11,0.026c-1.276,0.219-2.565,0.349-3.859,0.443c0.871,10.446,6.131,27.8-4.863,34.172
	c-5.047,2.925-12.024,2.155-16.507-1.389c-3.234-2.557-5.829-5.739-8.847-8.526c-2.33-2.151-4.108-3.116-6.989-3.479
	c-0.018,0.03-0.027,0.057-0.049,0.088c-2.448,3.428-5.167,6.659-7.183,10.375c-0.087,0.16-0.234,0.294-0.413,0.408
	c-0.637,0.497-1.949,0.781-2.498,0.27c-0.525-0.489-2.792-1.363-3.8-1.857c-2.225-1.091-4.452-2.179-6.665-3.294
	c-1.018-0.513-7.758-3.057-7.415-4.688c0.048-0.231,0.209-0.431,0.428-0.595c2.359-2.244,4.108-5.98,1.638-8.854
	c-1.8-2.094-4.258-3.628-6.763-1.496c-1.319,1.123-2.418,2.428-3.486,3.785c-0.207,0.263-0.813,0.471-1.407,0.565
	c-0.608,0.403-1.564,0.604-2.053,0.25c-4.925-3.568-10.448-6.377-14.568-10.946c-0.565-0.627,0.334-1.301,1.273-1.488
	c2.578-4.349,5.34-8.586,7.898-12.95c-1.976-0.155-3.644-0.956-4.959-2.17c-0.123,0.193-0.259,0.425-0.406,0.708
	c-0.538,1.034-1.064,2.073-1.562,3.126c-1.431,3.027-2.784,6.093-4.017,9.206c-3.51,8.863-6.389,17.935-8.221,27.298
	c-0.147,0.751-2.155,1.219-2.736,0.791c-0.86,0.446-2.261,0.414-2.261-0.545c0-14.677,0-29.354,0-44.03c-5.248,0-10.496,0-15.744,0
	c-1.815,0-1.412-1.702-0.076-1.972c2.689-5.037,4.09-13.289-2.378-15.738c-5.578-2.112-11.392,1.366-11.979,7.258
	c-0.341,3.423,0.572,6.504,2.528,9.313c0.917,0.304-0.765,1.533-1.689,1.533c-3.618,0-7.235,0-10.853,0
	c-0.399,0.363-1.28,0.759-1.763,0.759c-1.108,0-2.215,0-3.323,0c0,5.536,0,11.072,0,16.607c0,0.273-0.244,0.504-0.587,0.683
	c0.049,0.732-2.213,1.506-2.808,0.863c-2.302-2.49-5.241-2.749-7.413,0.111c-1.39,1.83-2.551,4.415-1.924,6.767
	c0.802,3.014,5.94,9.739,8.442,4.819c0.091-0.18,0.308-0.336,0.579-0.46c0.461-0.77,2.813-1.098,2.813-0.512
	c0,5.586,0,11.173,0,16.76c0,0.954-2.897,1.426-2.897,0.776c0-4.679,0-9.359,0-14.038c-4.514,2.853-11.924-1.841-11.971-7.51
	c-0.054-6.559,7.108-12.637,12.869-9.554c0-5.104,0-10.208,0-15.313c-10.188,0-20.377,0-30.565,0
	c4.725,8.244,0.57,19.806-9.943,19.954c-10.765,0.152-12.984-11.946-8.892-19.954c-7.695,0-15.391,0-23.086,0
	c-0.693,0.625-2.656,0.852-2.656,0.325c0-0.132,0-0.264,0-0.396c-0.282-0.1-0.226-0.296,0-0.506c0-4.488,0-8.977,0-13.464
	c0-4.389,0-8.779,0-13.168c0-0.947,2.897-1.416,2.897-0.776c0,0.034,0,0.067,0,0.101c0.64-0.259,1.393-0.426,1.713-0.2
	c3.424,2.399,8.692,4.034,12.178,0.741c2.619-2.475,3.844-6.244,3.141-9.818c-1.545-7.859-9.893-8.066-15.58-4.175
	c-0.449,0.307-2.877,0.678-2.427,0.134c-0.841,0.293-1.922,0.318-1.922-0.073c0-9.978,0-19.955,0-29.932
	c-12.457,0-24.915,0-37.372,0c3.738,7.053,2.528,16.284-6.904,17.394c-4.378,0.514-9.423-0.549-11.804-4.67
	c-2.535-4.39-1.858-9.443,0.897-13.527c-11.114,0-22.229,0-33.343,0c-0.187,0.421-0.682,0.796-1.355,0.822c0,0.036,0,0.072,0,0.108
	c0,0.18-0.106,0.343-0.276,0.484c0,10.114,0,20.229,0,30.342c0,0.852-2.34,1.314-2.81,0.933c-0.656,0.279-1.461,0.474-1.801,0.242
	c-2.739-1.873-6.266-3.476-9.678-3.089c-4.28,0.484-6.144,4.934-5.763,8.797c0.782,7.923,8.811,12.375,15.702,7.545
	c0.337-0.237,1.812-0.513,2.318-0.394c0.854-0.331,2.031-0.375,2.031,0.033c0,8.274,0,16.547,0,24.821c0.164,0,0.327,0,0.49,0
	c1.971,0,1.329,2.012-0.286,2.012c-0.068,0-0.136,0-0.204,0c0,0.234,0,0.468,0,0.702c0,0.947-2.897,1.416-2.897,0.776
	c0-0.493,0-0.985,0-1.478c-14.33,0-28.659,0-42.988,0c-1.815,0-1.412-1.702-0.076-1.972c2.689-5.037,4.089-13.289-2.378-15.738
	c-5.577-2.112-11.392,1.366-11.979,7.258c-0.341,3.423,0.573,6.504,2.527,9.312c0.917,0.304-0.765,1.533-1.689,1.533
	c-11.653,0-23.306,0-34.958,0c-0.622,0.793-2.743,1.018-2.743-0.163c0-4.557,0-9.113,0-13.67c-3.496,1.834-6.995,3.667-10.353,5.759
	c5.371,3.479,3.713,10.172-1.097,13.623c-2.215,1.589-5.211,2.814-7.992,2.427c-3.057-0.426-4.979-2.438-6.219-5.074
	c-5.063,3.051-10.352,5.708-15.351,8.866c-0.096,0.061-0.26,0.117-0.455,0.166c-0.169,0.774-2.209,1.412-2.808,0.721
	c-0.515-0.594-0.793-1.52-1.057-2.244c-0.093-0.255-0.192-0.521-0.287-0.792c-1.24,0.822-2.521,1.541-3.841,2.127
	c0.038,5.196,0.427,10.354,1.19,15.496c0.165,1.112-2.747,1.795-2.897,0.776c-0.75-5.055-1.115-10.122-1.179-15.226
	c-2.412,0.679-4.929,0.903-7.532,0.521c-7.854-1.151-11.069-6.779-13.283-13.888c-2.146-6.892-3.797-14.425-3.545-21.687
	c0.002-0.054,0.015-0.106,0.038-0.156c-0.423,0.074-0.847,0.147-1.269,0.243c-2.028,0.457-0.509-0.706,0.571-0.949
	c4.587-1.033,9.198-0.926,13.858-0.88c-3.49-5.647-6.96-11.304-9.606-17.41c-0.254-0.585,0.767-1.151,1.678-1.237
	c-0.128-0.129-0.021-0.332,0.51-0.622c6.687-3.653,12.565-8.556,19.154-12.369c0.125-0.072,0.304-0.131,0.503-0.177
	c0.797-0.438,1.997-0.408,2.202,0.459c0.85,3.604,2.475,8.382,6.559,9.411c3.116,0.785,6.382-0.876,8.695-2.862
	c4.305-3.696,8.559-11.754,1.223-14.732c-0.708-0.287-0.763-0.764-0.502-1.191c-0.685,0.024-1.197-0.15-0.81-0.618
	c4.457-5.378,10.754-8.278,16.341-12.236c-0.028-0.046-0.058-0.091-0.087-0.137c-0.221-0.356,1.881-1.271,2.668-0.952
	c0.823-0.014,1.484,0.207,0.731,0.768c-0.028,0.021-0.058,0.042-0.086,0.063c4.07,6.479,8.642,12.689,11.685,19.732
	c0.773-0.665,1.671-1.212,2.656-1.633c0.025-1.635,0.146-3.906,0.045-5.351c-0.042-0.074-0.092-0.141-0.109-0.245
	c-0.021-0.12-0.031-0.243-0.047-0.364c-0.023,0.002-0.025-0.035-0.013-0.095c-0.27-2.121,0.019-4.488,0.019-6.582
	c0-0.869,1.723-1.387,2.52-0.951c0.171-0.055,0.337-0.089,0.485-0.092c-4.484-2.841-8.651-6.185-13.943-7.46
	c-10.697-2.58-18.904,2.497-28.007,7.16c-0.078,0.04-0.221,0.083-0.395,0.124c-0.044,0.543-0.015,1.127,0.105,1.765
	c0.425,2.254,1.101,4.433,1.628,6.663c0.174,0.087,0.265,0.226,0.206,0.432c-2.639,9.091-16.569,7.633-20.811,0.597
	c-0.242,0.125-0.491,0.233-0.737,0.349c0.134,0.208,0.097,0.488-0.242,0.839c-4.499,4.648-11.896,8.525-14.147,14.865
	c-2.673,7.528-0.886,15.935-1.953,23.726c-0.17,1.244-3.123,1.668-2.929,0.248c1.079-7.881-1.552-18.312,2.693-25.447
	c3.132-5.264,8.175-8.68,12.537-12.816c-5.872,1.458-12.477,0.917-18.337,0.485c-0.664,0.622-2.407,0.918-2.664,0.133
	c-6.089-18.605-10.848-45.875,4.999-61.25c13.997-13.58,34.602-7.825,45.082,7.021c0.38,0.539-0.316,1.077-1.108,1.313
	c-0.069,0.263-0.306,0.524-0.787,0.728c-0.894,0.378-1.751,0.824-2.59,1.305c4.836,6.31,11.12,16.475,9.081,24.708
	c-0.915,3.693-3.465,5.984-6.188,8.498c-1.594,1.471-3.058,2.836-3.618,4.673c7.943-4.145,15.398-8.251,24.734-8.07
	c7.992,0.154,13.957,4.597,20.405,8.639c0.158,0.099-0.475,0.5-1.189,0.774c3.99,0,7.979,0,11.969,0
	c2.971-6.627,1.156-16.815-1.577-23.198c-1.586-3.704-8.519-12.886-4.143-16.505c2.407-1.99,4.915-0.093,6.889,2.258
	c-0.633-4.602-1.317-10.4,3.868-10.572c0.623-0.021,1.131,0.221,1.549,0.619c0.613-1.204,1.478-2.201,2.941-2.562
	c1.909-0.471,2.811,0.498,3.441,2.222c0.044,0.121,0.082,0.253,0.125,0.375c0.345-0.901,0.873-1.676,1.791-2.022
	c1.791-0.676,2.678,0.19,3.21,1.825c0.369,1.13,0.669,2.286,0.927,3.457c7.434-4.636,7.559,8.478,7.426,12.961
	c-0.128,4.302-0.533,7.952-2.447,11.885c-0.482,0.991-0.949,1.95-1.397,2.893c1.924-1.112,4.137-1.723,6.482-1.954
	c10.954-1.081,12.331,10.058,8.029,17.515c13.49,0,26.979,0,40.468,0c0-0.034,0-0.068,0-0.103c0-0.18,0.106-0.343,0.276-0.484
	c0-8.02,0-16.038,0-24.057c0-0.947,2.897-1.416,2.897-0.776c0,0.034,0,0.067,0,0.101c0.64-0.259,1.393-0.426,1.714-0.2
	c3.424,2.4,8.692,4.035,12.178,0.741c2.619-2.475,3.844-6.243,3.141-9.818c-1.545-7.858-9.893-8.066-15.58-4.175
	c-0.449,0.307-2.878,0.678-2.427,0.134c-0.842,0.293-1.923,0.318-1.923-0.073c0-11.273,0-22.545,0-33.818
	c0-0.122,0.049-0.235,0.132-0.339c-0.062,0.009-0.12,0.014-0.173,0.014c-12.262,0-24.524,0-36.786,0
	c4.724,8.244,0.57,19.806-9.943,19.954c-10.765,0.152-12.983-11.946-8.891-19.954c-10.387,0-20.774,0-31.161,0
	c-0.001,0-0.002,0-0.004,0c-0.711,0.586-2.637,0.799-2.637,0.326c0-6.385,0-12.77,0-19.154c0-0.906,2.897-1.356,2.897-0.776
	c0,6.173,0,12.347,0,18.52c0.343-0.153,0.7-0.261,0.95-0.261c10.244,0,20.488,0,30.732,0c0.054-0.083,0.103-0.169,0.158-0.251
	c0.469-0.697,3.04-0.797,2.854-0.522c-0.163,0.242-0.315,0.509-0.468,0.773c0.077,0,0.154,0,0.231,0c1.75,0,0.088,1.092-0.908,1.307
	c-2.648,5.778-2.958,14.905,3.424,17.905c5.46,2.567,10.576-1.147,11.625-6.654c0.781-4.101-0.038-8.056-2.414-11.485
	c-0.119-0.171,0.687-0.626,1.489-0.856c0.312-0.129,0.625-0.217,0.851-0.217c12.879,0,25.759,0,38.638,0c0-8.82,0-17.641,0-26.461
	c0-0.947,2.897-1.416,2.897-0.776c0,0.034,0,0.067,0,0.101c0.64-0.259,1.393-0.426,1.714-0.2c3.424,2.4,8.692,4.035,12.178,0.741
	c2.619-2.475,3.844-6.243,3.141-9.818c-1.545-7.859-9.893-8.066-15.58-4.175c-0.449,0.307-2.874,0.677-2.428,0.135
	c-0.842,0.293-1.922,0.318-1.922-0.073c0-12.2,0-24.4,0-36.6c-9.302-0.031-18.604-0.174-27.905-0.188
	c-4.907,9.729-12.302,18.36-18.12,27.581c-4.593,7.278-9.106,14.574-15.396,20.522c-8.857,8.377-24.996,17.802-33.693,4.615
	c-5.959-6.017-8.611-16.077-11.489-23.566c-4.158-10.823-9.465-22.827-10.34-34.515c-0.769-10.279,4.05-16.211,12.25-21.752
	c8.154-5.509,16.983-9.934,26.02-13.797c0.2-0.085,0.572-0.15,0.956-0.183c0.105-0.241,0.386-0.466,0.743-0.633
	c-0.327-1.401-0.541-2.854-0.7-4.322c-0.602,0.282-1.363,0.493-1.73,0.391c-10.66-2.96-20.21-12.599-24.41-22.725
	c-2.816-6.789-5.046-16.207,3.488-19.502c0.035-0.013,0.07-0.022,0.105-0.034c-0.316-0.103-0.555-0.323-0.613-0.69
	c-1.169-7.478,4.046-10.917,10.571-12.796c5.381-1.551,10.63-3.184,15.192-6.586c3.542-2.642,6.662-5.793,10.23-8.402
	c5.458-3.991,13.3-7.432,17.852-0.228c2.228,3.526-1.037,7.335-4.253,10.531c3.655-1.851,7.78-3.132,11.529-2.38
	c6.01,1.206,8.395,6.583,3.772,11.19c-3.089,3.079-6.895,5.217-10.936,6.842c2.263,5.59,4.7,11.296,5.712,17.259
	c0.666,3.923,1.475,8.602-0.555,12.299c-3.396,6.186-10.621,9.77-9.021,17.436c0.399-0.311,0.94-0.557,1.382-0.552
	c8.046,0.103,16.6,1.887,24.546,0.054c1.841-4.137,4.313-8.851,5.006-9.736c0.504-0.644,1.841-0.986,2.62-0.814
	c0.004,0,0.008,0.001,0.012,0.002c0.153,0.033,0.227,0.104,0.226,0.231c0.113,0.041,0.218,0.093,0.302,0.167
	c6.28,5.542,13.327,1.165,14.915-6.3c1.854-8.719-4.767-12.816-12.814-12.09c-0.945,0.085-1.265-0.311-1.179-0.764
	c-0.367-0.03-0.598-0.146-0.5-0.367c4.383-9.921,6.463-20.631,10.375-30.727c0.008-0.022,0.025-0.042,0.037-0.063
	c0.086-0.645,1.031-1.359,1.91-1.183c5.402,1.081,10.787,3.42,16.013,5.118c11.329,3.68,22.653,7.372,33.976,11.07
	c11.197,3.657,22.394,7.316,33.584,10.992c3.667,1.204,7.335,2.408,11,3.624c1.02,0.338,2.962,0.578,3.805,1.325
	c0.189,0.168,0.282,0.342,0.313,0.514c0.923-0.355,2.287-0.381,2.097,0.15c-3.651,10.193-9.07,19.658-12.252,30.027
	c-0.081,0.264-0.423,0.485-0.844,0.639c-0.64,0.513-1.961,0.782-2.491,0.232c-2.651-2.752-6.84-6.266-11.018-4.957
	c-2.995,0.938-5.091,3.771-6.14,6.618c-2.481,6.734,0.279,14.31,8.313,14.217c0.536-0.006,0.869,0.132,1.045,0.334
	c0.492-0.049,0.862,0.021,0.805,0.29c-1.42,6.658-4.443,13.359-6.759,19.743c-1.026,2.828-2.421,11.61-6.907,10.982
	c-0.372-0.052,0.02-0.337,0.597-0.607c-0.217,0.058-0.434,0.116-0.651,0.174c0.199-0.146,0.377-0.369,0.547-0.619
	c-1.041-0.093-2.161-0.486-2.949-0.684c-3.738-0.94-7.441-2.024-11.129-3.144c-4.576-1.39-9.15-2.816-13.697-4.321
	c-0.006,0.076-0.036,0.162-0.113,0.265c-6.904,9.235-16.493,26.685-30.343,18.897c0,6.906,0,13.813,0,20.719
	c0,0.072-0.022,0.141-0.053,0.207c7.154-4.343,21.301-5.459,20.104,6.677c-0.979,9.926-12.243,13.243-20.052,8.702
	c0,8.88,0,17.76,0,26.639c0.226-0.086,0.45-0.14,0.641-0.14c11.008,0,22.016,0,33.024,0c-2.296-3.829-3.095-8.999-0.441-12.877
	c2.403-3.512,6.152-5.034,10.277-5.44c10.928-1.078,12.324,10.003,8.061,17.46c1.791,0,3.583,0,5.374,0
	c0.003-0.015,0.006-0.03,0.009-0.044c0.965-3.922,4.391-6.014,8.352-5.188c0.934,0.195-1.62,1.366-2.357,1.212
	c-1.935-0.404-3.112,1.881-3.355,4.505c0.161,0.272,0.131,0.615-0.044,0.917c-0.019,2.01,0.501,4.057,1.642,5.14
	c-0.007-0.373-0.002-0.745,0.026-1.109c0.431-5.514,3.627-11.446,9.984-10.558c1.171,0.163,1.113,0.996,0.562,1.591
	c2.645-1.677,5.712-1.232,8.453,0.494c0.115,0.072,0.192,0.15,0.254,0.229c1.968-0.937,3.931-1.211,5.802-0.846
	c2.525-5.699,6.834-8.435,11.775-10.247c-6.323-1.082-10.765-6.056-11.654-12.958c-1.157-8.978,4.611-15.706,11.281-20.889
	c1.537-8.477,7.995-16.282,11.917-23.648c-1.542-1.558-2.772-3.487-3.544-5.85c-1.502-4.601,1.375-8.532,6.053-9.594
	c4.072-0.925,6.51,0.471,9.103,2.73c0.239-0.154,0.54-0.254,0.899-0.248c11.709,0.181,26.917,4.608,33.113,15.531
	c4.002,7.056,1.982,13.122,2.027,20.757c0.049,8.25,6.309,13.654,9.56,20.689c0.127,0.048,0.208,0.12,0.208,0.223
	c0,0.034,0,0.067,0,0.101c0.64-0.259,1.393-0.426,1.714-0.2c3.424,2.4,8.692,4.035,12.178,0.741
	c2.619-2.475,3.844-6.243,3.141-9.818c-1.544-7.859-9.893-8.066-15.58-4.175c-0.449,0.307-2.874,0.677-2.428,0.135
	c-0.842,0.293-1.922,0.318-1.922-0.073c0-12.47,0-24.94,0-37.41c0-0.508,0.834-0.876,1.607-1.012
	c0.475-0.583,2.129-1.068,2.706-0.547c-0.418-0.378,1.984-0.017,2.719,0.007c0.965,0.031,1.931,0.044,2.896,0.066
	c0.779-2.143,1.785-4.365,2.437-6.62c-5.611,1.312-11.427-3.667-13.523-9.195c-0.04,0.016-0.073,0.032-0.117,0.047
	c-6.233,2.209-11.813,5.902-18.336,7.308c-1.491,0.321-1.957-0.557-0.918-1.044c-0.765,0.395-1.951,0.397-2.293-0.383
	c-3.252-7.426-6.011-15.058-9.577-22.346c-0.031-0.063-0.048-0.125-0.06-0.187c-4.464,2.89-10.36,1.745-13.253-3.271
	c-1.341-2.327-2.116-5.108-0.979-7.681c1.291-2.918,4.628-4.049,7.554-4.436c0.063-0.008,0.114-0.009,0.171-0.014
	c-3.172-7.293-5.896-14.773-9.396-21.923c-0.02-0.041-0.026-0.079-0.038-0.119c-1.306,0.063-1.46-0.959,0.125-1.288
	c4.225-0.877,8.364-2.766,12.376-4.303c6.5-2.49,12.97-5.061,19.432-7.648c10.245-4.102,20.412-8.7,30.861-12.264
	c1.114-0.38,2.687,0.198,1.527,0.801c0.022,0.034,0.049,0.064,0.067,0.102c3.246,6.632,5.827,13.549,8.715,20.337
	c1.607-1.376,3.566-2.219,5.854-1.931c3.041,0.382,5.309,2.887,6.679,5.448c1.393,2.602,2.195,5.963,1.13,8.822
	c-1.068,2.868-3.819,4.214-6.693,4.501c0.113,0.089,0.21,0.197,0.277,0.334c3.566,7.288,6.325,14.919,9.577,22.346
	c0.264,0.602-0.293,1.108-0.995,1.317c-0.131,0.115-0.357,0.234-0.71,0.35c-4.81,1.59-9.097,4.35-13.775,6.242
	c0.146,0.085,0.284,0.188,0.424,0.286c0.104-0.021,0.211-0.045,0.304-0.045c0.091,0,0.183,0,0.274,0c0.174,0,0.32,0.021,0.455,0.05
	c2.535-0.608,5.601,0.525,7.492,2.117c2.414,2.031,3.151,5.72,3.091,8.718c-0.037,1.846-0.253,3.627-0.747,5.408
	c0.027-0.098,1.667,1.099,2.084,1.669c1.703,2.325-0.924,6.159-2.469,8.335c5.076-0.208,10.526,0.099,13.029,3.493
	c3.517,4.77,2.322,13.163,2.309,18.598c-0.022,9.418-0.074,18.837-0.139,28.255c-0.049,7.196-0.12,14.392-0.119,21.588
	c0,1.212-0.7,7.645,0.129,8.394c-0.001,0-0.003,0-0.004,0c0.187,0.163,0.194,0.418-0.143,0.789
	c-0.011,0.011-0.021,0.022-0.031,0.034c-0.483,0.53-1.734,0.823-2.388,0.398c-4.649,0-9.298,0-13.947,0
	c3.737,7.053,2.527,16.284-6.904,17.393c-4.377,0.514-9.423-0.548-11.804-4.669c-2.535-4.389-1.858-9.442,0.897-13.527
	c-3.511,0-7.023,0-10.535,0c-0.282,0.11-0.56,0.184-0.765,0.184c-1.108,0-2.215,0-3.323,0c0,10.724,0,21.447,0,32.171
	c0,0.852-2.34,1.314-2.81,0.933c-0.656,0.279-1.461,0.474-1.801,0.242c-2.739-1.873-6.266-3.476-9.679-3.089
	c-4.28,0.484-6.144,4.934-5.763,8.797c0.782,7.923,8.811,12.375,15.703,7.545c0.337-0.237,1.812-0.513,2.318-0.394
	c0.854-0.331,2.031-0.375,2.031,0.033c0,8.579,0,17.158,0,25.737c0,4.489,0,8.979,0,13.468c0,7.981,0,15.961,0,23.942
	c0,0.852-2.337,1.313-2.809,0.933c-0.656,0.28-1.462,0.475-1.802,0.242c-2.739-1.873-6.266-3.476-9.679-3.089
	c-4.28,0.484-6.144,4.934-5.763,8.797c0.782,7.923,8.812,12.375,15.703,7.544c0.337-0.237,1.812-0.513,2.318-0.394
	c0.854-0.331,2.031-0.375,2.031,0.033c0,6.889,0,13.778,0,20.667c0.39-0.243,0.858-0.428,1.216-0.428c4.324,0,8.648,0,12.972,0
	c-2.296-3.829-3.095-9-0.441-12.878c1.207-1.764,2.754-3.024,4.517-3.895c-2.449-1.385-4.79-2.967-7.026-4.672
	c-1.785-1.361-4.404-3.004-4.937-5.38c-0.379-1.69,0.538-2.57,2.085-3.058c0.104-0.033,0.207-0.04,0.31-0.062
	c-0.861-1.395-1.076-2.837,0.095-4.112c0.963-1.049,2.129-1.497,3.316-1.506c-0.374-1.326-0.17-2.595,1.058-3.67
	c1.365-1.194,2.686-1.37,3.926-0.954c0.047-1.306,0.713-2.376,2.356-2.983c3.063-1.13,5.461,0.903,7.361,3.146
	c1.402,1.655,3.006,3.599,4.057,5.666c1.108-2.233,2.403-4.289,4.307-5.542c1.906-1.256,6.576-1.631,6.439,1.712
	c-0.241,5.906-4.369,10.134-3.373,16.52c0.745,4.777,3.215,7.31,6.095,10.914c0.36,0.451,0.694,0.892,1.007,1.334
	c1.558-1.87,2.899-3.906,4.466-5.771c-1.231-1.016-2.471-2.021-3.742-2.987c-0.148-0.112,0.306-0.424,0.892-0.681
	c-0.046-0.119-0.021-0.269,0.117-0.458c11.424-15.709,31.029-34.276,51.171-23.28c0.315-3.236-0.703-5.63-4.365-7.364
	c-2.716-1.286-5.1-2.582-6.542-5.332c-1.443-2.753-1.659-6.037-1.191-9.463c-9.539,2.509-3.731-19.076-1.58-23.255
	c0.047-0.091,0.116-0.171,0.195-0.248c-3.599,1.312-10.585,3.202-9.115-1.905c1.669-5.797,9.342-7.101,14.889-8.412
	c-4.335-0.517-10.898-2.296-7.029-6.125c3.968-3.926,11.115-3.74,16.995-3.504c-1.624-0.891-2.983-2.164-3.112-4.118
	c-0.156-2.354,2.392-3.814,4.256-4.509c6.454-2.407,13.71,0.466,18.975,4.76c-0.042-3.133,1.197-6.165,4.961-5.789
	c4.809,0.48,6.933,6.046,7.522,10.64c3.557-2.798,9.195-4.282,11.808,0.25c1.133,1.966,1.185,4.712,1.334,6.909
	c0.146,2.156,0.194,4.314,0.209,6.474c2.469-1.105,5.216-0.84,6.354,2.592c1.667,5.032-1.419,9.693-5.129,13.09
	c-0.004,0.007-0.008,0.013-0.012,0.019c1.867-0.208,3.395,0.374,2.929,2.937c-0.669,3.687-3.765,6.52-7.165,7.89
	c4.257,0.354,10.011,2.052,6.287,6.786c-2.568,3.265-6.036,3.941-9.691,4.214c0.989,0.563,1.677,1.453,1.639,2.888
	c-0.057,2.128-2.105,4.261-3.805,5.3c-6.259,3.827-12.191,1.463-18.28-0.941c-0.478,2.614-0.801,5.27-1.306,7.865
	c0.203,0.06,0.307,0.167,0.231,0.333c-0.016,0.035-0.04,0.071-0.056,0.106c11.027,0.839,23.94,5.012,29.25,15.373
	c6.245,12.186,9.755,26.551,10.321,40.216C554.19,458.145,552.671,458.525,551.824,458.54z M258.183,215.953
	c-4.563-1.526-9.094-3.145-13.57-4.896c-0.838,0.065-1.666-0.237-1.398-0.87c-0.102-0.449,0.391-0.965,1.008-1.237
	c1.825-2.207,3.416-5.179,2.081-7.994c-1.343-2.831-4.302-4.315-7.35-4.536c-6.657-0.482-9.685,3.255-12.471,8.715
	c-0.395,0.774-2.074,1.031-2.659,0.558c-0.271,0.042-0.515,0.042-0.679-0.024c-5.675-2.295-11.251-4.824-16.914-7.147
	c-0.021,0.641-0.043,1.28-0.071,1.916c-0.318,7.212-1.519,13.517-7.888,17.729c8.12,0.012,16.24,0.123,24.36,0.172
	c-1.497-3.388-3.129-6.859-6.062-9.204c-0.655-0.523,1.985-1.65,2.708-1.072c3.243,2.592,4.959,6.564,6.6,10.29
	c0.854,0.003,1.709,0.011,2.564,0.012c1.666,0.002,1.464,1.44,0.385,1.885c0,4.617,0,9.233,0,13.85
	c0.624-0.298,1.461-0.456,1.831-0.234c11.918,7.168,19.933-9.397,25.83-17.285C256.735,216.248,257.51,216.01,258.183,215.953z
	 M184.252,210.795c-0.003,0.056-0.018,0.111-0.042,0.165c4.085,2.302,7.887,5.201,12.23,6.966
	c9.515-6.678,5.265-19.184,8.323-28.842c0.632-1.997,1.517-4.191,1.589-6.3c0.1-2.893-1.872-0.971-2.616,0.661
	c-1.856,4.074-2.974,8.71-3.119,13.194c-0.024,0.77-2.908,1.105-2.897,0.776c0.124-3.864,0.896-11.142,3.819-14.792
	c-0.3-0.043-0.587-0.064-0.858-0.057c-0.512,0.192-1.083,0.321-1.399,0.275c-3.061,1.28-3.608,6.483-3.851,9.62
	c-0.077,0.995-2.994,1.559-2.9,0.354c0.25-3.238,0.749-6.766,2.857-9.369c0.22-0.271,0.46-0.509,0.708-0.734
	c-1.309-0.862-2.204-1.276-3.224,0.134c-0.745,1.031-1.277,2.2-1.714,3.392c-0.793,2.164-1.297,4.426-2.125,6.576
	c-0.319,0.828-3.152,1.167-2.875,0.447c0.082-0.211,0.151-0.432,0.227-0.647c-0.374-0.021-0.643-0.142-0.637-0.385
	c0.024-1.136,0.114-2.431-0.271-3.529c-0.041-0.181-0.11-0.348-0.186-0.51c-1.2,2.256-1.481,5.112-1.461,7.589
	C183.871,200.79,184.556,205.781,184.252,210.795z M207.734,168.202c-1.06,2.083-2.525,5.205-3.766,7.928
	c0.222,0.332,0.082,0.816-0.52,1.147c-0.676,1.5-1.241,2.786-1.574,3.58c0.497,0.022,0.992,0.074,1.481,0.162
	c2.474-1.417,6.623-2.789,5.805,1.716c-0.442,2.436-1.302,4.73-1.955,7.109c-0.626,2.283-0.812,4.654-0.913,7.024
	c0.474-0.149,0.952-0.214,1.221-0.105c5.626,2.276,11.156,4.781,16.77,7.088c3.638-6.56,9.037-10.921,17.151-9.197
	c8.217,1.746,10,8.712,5.438,14.708c7.968,3.093,16.108,5.767,24.271,8.289c3.858,1.192,7.724,2.371,11.622,3.429
	c1.212,0.328,2.424,0.662,3.647,0.944c1.088,0.251,2.11-0.067,1.108,0.516c0.169-0.098,0.34-0.162,0.508-0.199
	c0.323-0.948,0.582-1.902,0.807-2.494c1.282-3.369,2.497-6.764,3.685-10.167c1.546-4.429,3.579-9.017,4.669-13.615
	c-3.992-0.125-7.985-1.466-9.846-5.328c-1.781-3.695-1.389-8.258,0.359-11.901c1.763-3.678,4.83-6.657,8.923-7.472
	c4.52-0.899,8.555,1.342,11.798,4.283c3.161-9.3,7.895-17.966,11.272-27.189c-0.543,0.211-1.169,0.234-1.539-0.093
	c-0.134-0.119-3.43-1.119-4.479-1.466c-3.727-1.232-7.456-2.458-11.186-3.682c-11.035-3.622-22.073-7.231-33.113-10.835
	c-11.008-3.594-22.017-7.184-33.03-10.761c-4.14-1.344-10-3.622-13.97-4.652c-3.492,9.493-5.595,19.452-9.634,28.747
	c4.65-0.277,10.34,0.37,13.021,4.629c2.168,3.443,2.132,7.708,0.646,11.422C223.178,169.854,214.729,173.284,207.734,168.202z
	 M176.262,130.778c-2.044,0.7-4.12,1.3-6.169,1.844c-6.716,1.783-13.606,3.039-20.557,3.049c4.082,6.023,2.389,13.331-0.453,19.642
	c-0.016,0.035-0.04,0.066-0.06,0.099c0.27,0.306-1.714,1.157-2.263,1.133c-4.048-0.175-7.966,2.231-6.298,6.574
	c1.259,3.278,4.085,4.984,7.109,2.074c0.289-0.278,2.654-1.262,2.766-0.477c0.688,4.829,0.499,10.46,2.153,15.173
	c4.092,4.062,8.134,8.511,14.333,8.742c6.19,0.229,5.888-4.759,6.145-9.422c0.004-0.083,0.027-0.162,0.058-0.238
	c-0.226-0.044-0.393-0.141-0.445-0.31c-2.374-7.704,3.212-10.991,7.249-16.548C186.315,153.185,180.071,140.028,176.262,130.778z
	 M181.913,239.874c4.373-6.801,9.819-12.949,13.449-20.202c-6.33-2.173-11.401-6.981-17.592-9.426
	c-11.772,11.191-27.817,18.319-36.704,32.324c-0.533,0.841-3.461,1.079-2.71-0.105c3.181-5.014,7.265-9.148,11.73-12.912
	c-0.328,0.014-0.582-0.043-0.65-0.215c-2.876-7.224-7.5-13.526-10.375-20.75c-0.193-0.485,2.641-1.421,2.897-0.776
	c2.791,7.009,7.214,13.159,10.102,20.117c7.845-6.289,16.613-11.673,23.777-18.601c0.215-0.461,1.949-1.152,2.555-0.966
	c1.043,0.32,2.048,0.721,3.03,1.169c0.088-4.707-0.57-9.4-0.462-14.112c0.063-2.749,0.458-5.987,2.286-8.178
	c0.826-0.99,2.339-1.458,3.577-1.186c0.593,0.13,0.994,0.51,1.27,1.016c0.513-1.484,1.147-2.905,2.125-4.127
	c2.085-2.606,5.317-3.082,8.101-1.571c0.299-0.112,0.601-0.212,0.913-0.287c0.23-0.806,0.611-1.834,1.082-2.978
	c-8.12,1.573-16.643-0.038-24.83-0.143c0.003,0.079-0.019,0.157-0.07,0.233c0.297,0.126,0.496,0.36,0.475,0.733
	c-0.285,5.17-0.777,11.331-7.325,11.619c-7.679,0.338-12.311-3.4-17.253-8.059c-0.504,0.077-0.949,0.032-1.077-0.24
	c-0.198-0.42-0.372-0.854-0.534-1.292c-0.387-0.37-0.779-0.743-1.176-1.118c-9.119,3.912-18.292,8.317-26.316,14.2
	c-4.019,2.947-8.521,6.303-9.758,11.425c-1.176,4.868-0.689,9.807,0.449,14.637c2.419,10.265,6.089,20.355,9.983,30.144
	c2.558,6.427,4.826,14.706,9.477,20.344c0.295,0.049,0.551,0.18,0.7,0.424c0.258,0.424,0.526,0.816,0.798,1.193
	c0.638,0.625,1.306,1.216,2.031,1.739c0.112,0.081,0.021,0.22-0.182,0.372c9.741,9.096,25.75-4.524,32.296-13.245
	C173.082,254.306,177.343,246.982,181.913,239.874z M90.293,381.837c-0.05-0.078-0.092-0.163-0.116-0.264
	c-0.792-3.358-3.172-8.482-1.079-11.844c1.989-3.194,5.355-5.075,7.609-8.039c5.193-6.829-0.271-17.445-5.099-24.408
	c-0.313,0.431-1.203,0.633-1.66,0.701c-0.762,0.112-1.35,0.997-1.686,1.634c-0.255,0.485-1.237,0.672-1.707,0.76
	c-0.115,0.021-1.375,0.211-1.145-0.226c0.991-1.884,3.065-2.854,5.099-3.155c0.061-0.009,0.543-0.079,0.871-0.043
	c-0.537-0.766-1.064-1.484-1.565-2.145c-1.308,0.857-2.599,1.745-3.927,2.556c-1.085,0.663-2.226-0.099-1.986-0.95
	c-2.184-2.227-4.309-4.492-6.741-6.412c0.529,3.319,1.882,6.549,2.944,9.692c0.335,0.992-1.347,1.694-2.312,1.34
	c-0.177,0.159-0.403,0.309-0.726,0.418c-2.945,0.993-5.762,2.178-8.264,4.034c1.853,10.875,4.199,21.646,8.309,31.918
	c0.087,0.218,0.064,0.422-0.029,0.606c0.065,0.147,0.006,0.346-0.26,0.61c-0.601,0.596-1.238,1.116-1.892,1.603
	C77.521,385.692,87.931,389.041,90.293,381.837z M393.25,330.588c0-6.695,0-13.392,0-20.087c-0.195-0.043-0.323-0.125-0.323-0.257
	c0-3.799,0-7.599,0-11.398c-10.081,0-20.162,0-30.243,0c4.725,8.244,0.57,19.806-9.943,19.954
	c-10.765,0.152-12.983-11.946-8.892-19.954c-7.507,0-15.015,0-22.523,0c0,10.723,0,21.448,0,32.171c0,0.852-2.34,1.314-2.81,0.933
	c-0.656,0.279-1.461,0.474-1.801,0.242c-2.739-1.873-6.266-3.476-9.679-3.089c-4.28,0.484-6.144,4.933-5.763,8.797
	c0.782,7.922,8.811,12.375,15.703,7.545c0.337-0.237,1.812-0.513,2.318-0.394c0.854-0.331,2.031-0.375,2.031,0.033
	c0,8.68,0,17.359,0,26.039c7.768,0,15.535,0,23.302,0c0.053-0.083,0.103-0.168,0.158-0.25c0.469-0.697,3.04-0.797,2.855-0.522
	c-0.163,0.242-0.314,0.508-0.468,0.772c0.077,0,0.154,0,0.23,0c1.75,0,0.088,1.091-0.908,1.307
	c-2.649,5.778-2.958,14.906,3.423,17.905c5.46,2.567,10.577-1.146,11.625-6.653c0.78-4.102-0.038-8.057-2.414-11.486
	c-0.119-0.171,0.687-0.627,1.49-0.857c0.311-0.129,0.625-0.216,0.85-0.216c10.593,0,21.185,0,31.778,0c0-8.375,0-16.75,0-25.126
	c-8.636,5.357-21.357,2.043-19.931-10.091C374.455,326.25,386.774,326.939,393.25,330.588z M350.249,276.5
	c0.135,0.039,0.245,0.102,0.312,0.195c4.847,6.811,13.329,8.118,20.192,3.469c-1.249-0.854-2.186-1.887-2.851-3.045
	c-3.574-4.066-5.007-9.189-2.12-15.2c0.195-0.405,0.7-0.667,1.233-0.772c3.166-2.926,7.977-7.708,1.01-8.979
	c-2.179-0.398-3.992-1.101-5.191-3.111c-3.181-5.33-3.886-12.485-1.918-18.375c0.021-0.064,0.053-0.125,0.09-0.184
	c-6.682,1.629-14.955,1.228-20.584-2.761c-3.671,6.313-9.692,13.839-11.183,21.348c0.341,0.229,0.397,0.608-0.181,1.081
	c-0.26,1.88-0.221,3.755,0.238,5.606c0.052,0.208,0.113,0.404,0.173,0.601c0.748,1.644,1.935,3.507,3.777,5.007
	c4.003,2.51,10.027,2.328,14.923,3.256c0.763-0.664,2.302-0.767,2.487,0.238c0.679,3.693-0.273,7.227-0.749,10.876
	C350.208,275.929,350.368,276.191,350.249,276.5z M367.922,263.73c0.044-0.12,0.089-0.238,0.135-0.356
	C368.011,263.493,367.965,263.612,367.922,263.73z M405.679,209.915c0.388-1.924,0.418-3.863-0.276-5.786
	c-0.756-2.093-5.421-8.062-3.038-10.206c1.505-1.355,3.151-1.386,4.753-0.679c0.129-0.77,0.534-1.404,1.529-1.748
	c1.583-0.548,2.878-0.386,4.229,0.6c0.122,0.089,0.241,0.188,0.361,0.28c-0.009-0.05-0.027-0.097-0.034-0.148
	c-0.099-0.716,0.619-1.119,1.204-1.301c1.001-0.312,1.903-0.355,2.732-0.214c4.934-1.873,9.388-4.809,14.409-6.492
	c-3.248-7.418-6.004-15.041-9.566-22.32c-0.262-0.535,0.178-1,0.794-1.236c-0.74-0.473-0.021-1.664,1.215-1.69
	c5.503-0.119,5.579-5.844,3.726-9.82c-0.91-1.952-2.352-4.029-4.385-4.936c-2.049-0.913-3.602,0.341-4.793,1.901
	c0.116,0.56-0.459,1.014-1.145,1.186c-1.048,0.45-2.776,0.32-2.115-0.663c0.056-0.083,0.115-0.164,0.173-0.246
	c-3.169-7.275-5.888-14.738-9.369-21.875c-9.98,3.554-19.732,7.925-29.558,11.851c-9.35,3.735-19.148,8.71-29.047,11.21
	c3.56,7.279,6.316,14.901,9.564,22.319c0.432,0.986-1.333,1.716-2.337,1.3c-0.268,0.33-0.749,0.634-1.298,0.707
	c-10.659,1.408-0.816,19.401,6.608,11.699c0.68-0.705,3.52-0.731,2.331,0.502c-0.121,0.125-0.25,0.231-0.375,0.348
	c0.602-0.058,1.208,0.104,1.456,0.609c3.566,7.288,6.326,14.919,9.577,22.346c0.205,0.469-0.087,0.879-0.557,1.137
	c0.151-0.066,0.328-0.125,0.539-0.17c6.243-1.345,11.607-4.941,17.578-7.057c0.271-0.096,0.569-0.133,0.85-0.127
	c-0.057-0.195-0.11-0.391-0.157-0.587c-0.21-0.889,2.695-1.634,2.897-0.776C395.063,203.683,400.777,212.234,405.679,209.915z
	 M408.991,192.376c-0.615-0.246-0.411-0.044,0.014,0.007C409,192.381,408.996,192.378,408.991,192.376z M405.492,218.137
	c0.125,0.002,0.251,0.006,0.377,0.008c5.481,0.085,10.963,0.126,16.444,0.153c1.279,0.006,2.845-0.103,4.536-0.213
	c0.039-0.096,0.09-0.196,0.166-0.305c1.374-1.964,5.021-6.765,0.759-8.237c-0.532-0.184-0.705-0.575-0.535-1.088
	c0.828-2.495,1.163-5.51,0.656-8.096c-0.307-1.57-0.723-3.295-1.845-4.509c-0.794-0.859-3.158-2.619-4.766-2.41
	c1.554,1.876,2.75,4.322,3.877,6.162c0.748,1.221-2.037,2.258-2.664,1.234c-1.171-1.912-3.274-7.116-6.016-8.042
	c0.172,0.472,0.347,0.943,0.417,1.449c0.053,0.383-0.165,0.712-0.499,0.958c1.524,1.57,2.914,3.301,4.089,5.028
	c0.174,0.255-2.446,1.44-2.897,0.776c-1.522-2.237-3.405-4.337-5.37-6.19c-0.681-0.643-1.423-1.365-2.244-1.906
	c-0.007,0.58,0.044,1.153,0.136,1.733c0.023,0.148-0.112,0.293-0.33,0.425c2.639,2.417,4.815,6.128,5.517,7.955
	c0.18,0.469-2.661,1.393-2.897,0.776c-1.261-3.282-3.371-6.521-6.379-8.463c-0.471-0.304-0.958-0.631-1.481-0.853
	c0.04,0.084,0.072,0.177,0.09,0.286c0.222,1.399,0.819,2.626,1.49,3.865c1.665,3.071,3.362,6.497,2.569,10.092
	c-0.007,0.034-0.018,0.067-0.025,0.101c0.58,0.035,0.917,0.244,0.339,0.727c-0.214,0.179-0.431,0.345-0.648,0.5
	C407.59,212.797,406.399,215.435,405.492,218.137z M396.121,271.95c-0.067,0.132-0.17,0.252-0.296,0.355c0,7.015,0,14.029,0,21.043
	c0.196,0.043,0.323,0.125,0.323,0.257c0,1.294,0,2.589,0,3.883c0.39-0.243,0.858-0.428,1.216-0.428c5.287,0,10.575,0,15.862,0
	c0.978,0,0.958,0.4,0.561,0.8c0.005,0.012,0.007,0.024-0.003,0.038c-4.12,5.879-3.424,16.232,5.123,17.72
	c10.746,1.87,9.971-9.909,6.31-16.204c-1.375-0.301-0.718-1.96,0.751-1.96c5.299,0,10.597,0,15.896,0
	c-0.084-1.669,0.21-3.848,0.208-4.651c-0.02-6.059,0.032-12.118,0.073-18.177c0.065-9.516,0.133-19.032,0.164-28.548
	c0.022-6.719,1.841-16.614-1.692-22.838c-2.305-4.061-6.737-3.226-10.682-3.235c-4.898-0.011-9.796-0.029-14.694-0.067
	c-5.043-0.039-10.088-0.068-15.13-0.213c-0.953-0.027-2.881,0.202-4.284-0.055c0,12.176,0,24.351,0,36.527
	c0,0.072-0.021,0.141-0.053,0.207c7.154-4.342,21.302-5.46,20.105,6.677C414.91,272.88,403.916,276.239,396.121,271.95z
	 M317.585,294.663c1.015,0.543,1.984,1.293,2.891,2.246c0.477-0.026,0.851,0.059,0.851,0.288c0,0.101,0,0.201,0,0.302
	c7.767,0,15.534,0,23.302,0c0.054-0.083,0.103-0.169,0.158-0.251c0.469-0.697,3.04-0.797,2.855-0.522
	c-0.163,0.242-0.315,0.509-0.468,0.773c0.077,0,0.154,0,0.231,0c1.75,0,0.088,1.092-0.908,1.307
	c-2.648,5.778-2.958,14.905,3.424,17.905c5.46,2.567,10.577-1.147,11.625-6.654c0.78-4.101-0.038-8.056-2.414-11.485
	c-0.119-0.171,0.687-0.626,1.489-0.856c0.312-0.129,0.625-0.217,0.851-0.217c10.485,0,20.97,0,31.456,0c0-3.225,0-6.451,0-9.676
	c-5.997-0.228-14.145-2.54-20.23-6.603c-0.152-0.065-0.312-0.125-0.457-0.195c-7.786,4.892-18.217,4.939-24.112-2.911
	C337.885,284.139,322.693,282.149,317.585,294.663z M310.286,295.444c-1.487,1.105-2.68,2.602-3.381,4.326
	c-0.847,2.083-1.49,4.917-1.167,7.438c0.085,0.119,0.119,0.267,0.064,0.452c0.155,0.866,0.433,1.686,0.869,2.414
	c0.566,0.944,0.242,0.816,0.545,0.49c0.418-0.45,0.816-0.91,1.154-1.427c0.672-1.026,1.283-2.092,1.793-3.208
	c1.033-2.261,1.896-4.625,2.239-7.096c-1.394-0.137,0.658-1.333,1.496-1.333c1.15,0,2.3,0,3.45,0
	c-0.618-0.622-1.355-1.275-2.161-1.794c-0.153-0.052-0.282-0.129-0.379-0.23C313.377,294.657,311.775,294.336,310.286,295.444z
	 M301.131,296.387c-1.386,2.144-1.955,4.75-2.077,7.276c-0.095,1.959-0.138,4.69,1.071,6.375c0.352,0.49,0.619,0.431,0.409,0.575
	c1.063-0.729,1.762-1.902,2.404-2.991c0.003-0.005,0.008-0.01,0.012-0.015c-0.474-4.15,0.841-8.845,4.011-11.524
	c-0.063-0.023-0.123-0.049-0.178-0.083C304.787,294.742,302.604,294.109,301.131,296.387z M295.561,308.252
	c0.207-0.144,0.446-0.227,0.693-0.266c-0.195-1.314-0.195-2.668-0.143-3.76c0.155-3.219,0.911-7.307,3.45-9.571
	c0.124-0.11,0.25-0.208,0.375-0.308c-0.278,0.125-0.587,0.189-0.899,0.146c-4.134-0.577-5.766,4.388-6.024,7.698
	C292.917,303.426,292.978,310.055,295.561,308.252z M165.711,372.503c0.336,0,0.673,0,1.009,0c-0.357-0.595-0.674-1.223-0.951-1.873
	C165.733,371.241,165.71,371.862,165.711,372.503z M156.498,323.748C156.161,323.472,156.209,323.665,156.498,323.748
	L156.498,323.748z M150.329,372.503c4.157,0,8.313,0,12.47,0c0.015-4.837,0.725-9.418,2.97-13.757
	c1.833-3.544,4.436-7.303,4.867-11.345c0.212-1.992,0.44-19.833-2.774-17.584c-0.278,0.194-0.654,0.285-1.026,0.295
	c0.58,3.175,0.889,6.429,1.26,9.583c0.116,0.981-2.8,1.607-2.897,0.776c-0.455-3.863-0.911-7.75-1.712-11.559
	c-0.152-0.722-0.291-1.521-0.493-2.296c-0.097,0.451-0.188,0.903-0.271,1.358c-0.063,0.347-0.551,0.634-1.108,0.798
	c0.856,3.691,1.225,7.759,0.795,11.222c-0.109,0.883-2.943,1.146-2.897,0.776c0.478-3.856-0.237-8.217-1.06-11.977
	c-0.279-1.275-0.562-3.243-1.407-4.448c-0.513,1.034-0.893,2.113-1.24,3.213c-0.04,0.126-0.159,0.24-0.321,0.341
	c0.233,0.83,0.377,1.64,0.478,2.203c0.477,2.662,0.895,5.604,0.461,8.304c-0.159,0.99-3.081,1.5-2.897,0.361
	c0.324-2.021,0.096-4.207-0.193-6.22c-0.25-1.738-0.467-4.501-1.698-5.949c-0.064,0.142-0.119,0.289-0.156,0.444
	c-0.122,0.49-0.228,0.978-0.26,1.483c-0.086,1.323-0.021,2.642,0.118,3.958c0.218,2.059,0.656,4.146,0.599,6.222
	c-0.005,0.194-0.132,0.373-0.324,0.526c0.042,0.061,0.083,0.122,0.121,0.178c1.688,2.439,4.289,3.196,6.285,5.236
	c2.105,2.152,2.382,4.67,2.312,7.578c-0.029,1.211-2.96,1.7-2.926,0.259c0.092-3.772-0.835-6.006-4.037-7.983
	c-1.831-1.131-3.101-2.05-4.297-3.852c-0.816-1.229-1.589-2.519-2.511-3.672c0.169,0.211-3.814-3.796-3.23-1.264
	c0.608,2.635,1.782,5.059,2.96,7.48C150.277,351.396,154.273,363.456,150.329,372.503z M78.431,457.622
	c0.171-0.555,1.247-0.951,2.034-0.883c1.479-0.744,2.93-1.699,4.333-2.815c0.033-0.548,0.677-0.963,1.354-1.138
	c5.968-5.265,10.943-13.046,13.421-18.08c0.179-0.362,0.908-0.601,1.588-0.697c-0.105-0.13-0.047-0.317,0.282-0.568
	c3.259-2.494,14.362-9.319,8.869-13.654c-0.658,1.808-1.563,3.483-2.394,4.645c-0.456,0.637-3.313,1.017-2.655,0.099
	c1.935-2.702,4.529-8.925,2.189-11.924c-0.27,3.246-1.878,6.175-3.062,9.272c-0.482,1.263-3.394,1.217-2.783-0.38
	c0.912-2.388,2.366-4.815,2.794-7.355c0.22-1.304,0.372-2.69-0.12-3.963c-0.324-0.839-1.862-0.599-0.709-1.357
	c-0.15,0.099-0.318,0.168-0.494,0.212c-0.203,3.439-1.556,7.566-2.231,8.847c-0.433,0.82-3.218,1.075-2.879,0.432
	c1.22-2.312,4.059-10.95,1.162-12.805c-1.098-0.704-3.052,7.64-3.208,8.306c-0.495,2.117-0.947,4.289-1.923,6.237
	c0.026,0.157,0.05,0.31,0.074,0.451c0.108,0.638-1.662,1.178-2.487,1.046c-0.567,0.003-0.964-0.172-0.692-0.624
	c0.058-0.096,0.111-0.198,0.165-0.298c-0.306-1.732-0.669-3.462-1.187-5.141c-0.435-1.412-1.254-4.691-2.882-5.553
	c0.048,0.135-0.201,0.367-0.289,0.917c-0.1,0.625-0.159,1.254-0.153,1.889c0.011,1.228,0.088,2.453,0.247,3.672
	c0.283,2.177,0.631,4.386,1.292,6.485c0.041,0.13-0.024,0.264-0.158,0.392c0.631-0.057,1.111,0.009,0.818,0.283
	c-6.209,5.795-12.445,11.549-19.356,16.51c-0.499,0.357-3.395,0.774-2.216-0.072c2.544-1.826,4.994-3.768,7.383-5.78
	c-0.056-0.052-0.105-0.11-0.142-0.179c-2.066-3.874-4.371-7.617-6.682-11.355c-0.486,0.19-0.995,0.341-1.202,0.34
	c-3.206-0.018-6.399-0.144-9.573,0.121c-0.146,5.224,0.754,10.599,1.967,15.658c1.25,5.215,2.797,12.461,6.997,16.224
	C69.992,458.679,74.288,459.091,78.431,457.622z M117.201,438.561c-0.295-0.167,0.5-0.673,1.338-0.943
	c3.966-2.442,8.133-4.529,12.246-6.705c0.096-0.625,1.08-1.043,1.879-1.009c3.365-1.827,6.661-3.767,9.729-6.097
	c0.145-0.11,0.444-0.21,0.791-0.29c-2.798-6.022-6.559-11.443-10.408-16.835c-0.538-0.753,1.268-1.534,2.226-1.363
	c0.188-0.072,0.386-0.129,0.581-0.156c6.332-0.864,10.483-8,7.254-13.797c-1.272-2.284-2.81-4.016-5.467-4.603
	c-1.232-0.272-2.507-0.377-3.703-0.221c-0.145,0.798-1.741,1.251-2.501,0.835c-0.794,0.483-1.481,1.178-1.997,2.139
	c-0.176,0.328-0.797,0.55-1.417,0.658c-0.77,0.269-1.708,0.373-1.862-0.022c-2.884-7.382-7.573-13.783-11.805-20.427
	c-4.977,3.301-10.409,6.036-14.326,10.632c0.025,0.008,0.052,0.012,0.077,0.021c9.157,3.717,4.588,13.955-1.373,18.484
	c-3.177,2.414-7.337,4.27-11.39,3.249c-4.793-1.207-7.002-5.777-8.131-10.208c-5.887,3.629-11.302,7.976-17.387,11.3
	c-0.272,0.148-0.782,0.238-1.25,0.253c0.107,0.072,0.194,0.164,0.247,0.285c4.371,10.084,10.977,18.959,16.229,28.575
	c3.111-2.713,6.138-5.528,9.157-8.347c-0.38,0.007-0.68-0.076-0.75-0.298c-1.002-3.184-1.613-6.819-1.539-10.157
	c0.056-2.516,0.521-4.373,3.209-4.946c3.305-0.704,5.025,2.483,6.005,5.916c0.998-4.968,1.996-10.27,7.262-10.563
	c1.829-0.102,2.652,1.16,2.896,2.97c1.877-0.266,3.835,1.054,4.3,2.997c0.014,0.002,0.03,0.002,0.042,0.005
	c3.875,0.934,4.358,4.372,3.559,7.838c0.326-0.047,0.624-0.032,0.813,0.076c8.684,4.971-3.905,12.951-7.981,16.07
	c-0.257,0.197-0.805,0.323-1.336,0.357c-3.092,6.273-8.212,14.147-14.677,19.408c0.108,0.657,0.368,1.32,0.593,1.923
	c0.133,0.358,0.264,0.775,0.435,1.161c5.227-3.191,10.716-5.929,15.896-9.201c0.144-0.091,0.432-0.173,0.764-0.234
	c0.797-0.367,2.009-0.552,2.208-0.056c0.949,2.368,2.698,5.157,5.54,5.387c2.144,0.173,4.086-1.193,5.438-2.756
	C121.905,446.066,121.821,441.164,117.201,438.561z M225.054,404.211c0-10.166,0-20.333,0-30.5c-14.33,0-28.659,0-42.988,0
	c-1.815,0-1.412-1.702-0.076-1.972c2.689-5.037,4.089-13.289-2.378-15.738c-5.577-2.112-11.392,1.366-11.979,7.258
	c-0.341,3.423,0.573,6.504,2.528,9.312c0.916,0.304-0.766,1.533-1.69,1.533c-11.631,0-23.263,0-34.894,0
	c-0.035,1.603-0.136,3.686-0.041,5.038c0.042,0.074,0.092,0.141,0.109,0.245c0.021,0.12,0.031,0.243,0.047,0.364
	c0.023-0.002,0.025,0.035,0.013,0.095c0.223,1.756,0.067,3.677,0.004,5.476c3.945-0.68,8.301,0.284,10.614,3.03
	c6.459,7.666-0.352,16.204-8.439,17.798c3.9,5.474,7.685,10.997,10.461,17.145c0.314,0.696-1.625,1.447-2.519,1.102
	c-3.235,2.323-6.668,4.297-10.164,6.167c0.01,0.051,0.022,0.101,0.022,0.158c0,4.537,0,9.074,0,13.61c0.003,0,0.006,0,0.009,0
	c11.008,0,22.016,0,33.024,0c-2.296-3.829-3.094-9-0.44-12.878c2.402-3.512,6.152-5.034,10.277-5.441
	c10.955-1.081,12.331,10.058,8.03,17.515c13.489,0,26.978,0,40.467,0c0-7.969,0-15.938,0-23.908
	c-8.637,5.357-21.356,2.043-19.93-10.091C206.258,399.874,218.578,400.563,225.054,404.211z M277.37,373.636
	c-1.374-0.302-0.717-1.96,0.752-1.96c13.329,0,26.657,0,39.985,0c0-0.625,0-1.25,0-1.875c0-0.195,0.127-0.368,0.322-0.517
	c0-7.763,0-15.526,0-23.289c-8.637,5.357-21.357,2.043-19.931-10.091c1.135-9.654,13.455-8.965,19.931-5.317
	c0-10.581,0-21.162,0-31.743c-1.08,0-2.16,0-3.24,0c-0.625,4-2.452,8.814-5.335,11.556c-1.618,1.539-5.004,2.913-6.169,0.264
	c-1.478,1.62-3.412,2.854-5.319,1.516c-0.722-0.507-1.207-1.252-1.553-2.095c-3.727,2.111-5.941-0.686-6.598-4.128
	c-0.239,0.058-0.451,0.084-0.588,0.062c-3.056-0.508-4.187-3.6-4.129-6.476c-2.549,0-5.098,0-7.646,0
	c-1.837,0-1.462-1.85-0.055-2.094c2.666-5.042,4.025-13.232-2.415-15.671c-5.577-2.112-11.392,1.366-11.978,7.258
	c-0.341,3.423,0.573,6.503,2.528,9.311c0.916,0.304-0.766,1.533-1.69,1.533c-11.805,0-23.61,0-35.416,0c0,3.195,0,6.391,0,9.586
	c0,0.276-0.25,0.51-0.599,0.689c0,7.352,0,14.704,0,22.056c0,0.073-0.022,0.142-0.054,0.208c7.153-4.343,21.304-5.461,20.106,6.676
	c-0.979,9.926-12.243,13.243-20.052,8.702c0,7.967,0,15.934,0,23.9c0.014,0,0.028,0,0.042,0c0.386-0.237,0.846-0.417,1.197-0.417
	c11.971,0,23.942,0,35.914,0c0.977,0,0.958,0.398,0.563,0.798c0.006,0.012,0.007,0.025-0.003,0.04
	c-4.122,5.879-3.425,16.232,5.121,17.72C281.807,391.712,281.031,379.931,277.37,373.636z M393.25,443.548c0-6.78,0-13.559,0-20.339
	c-8.636,5.357-21.357,2.044-19.931-10.09c1.135-9.654,13.455-8.965,19.931-5.317c0-7.58,0-15.159,0-22.739c0-4.199,0-8.397,0-12.596
	c-10.188,0-20.377,0-30.565,0c4.724,8.245,0.57,19.806-9.943,19.954c-10.765,0.152-12.984-11.946-8.891-19.954
	c-6.139,0-12.279,0-18.418,0c0.019,0.563-0.584,1.219-1.507,1.219c-0.866,0-1.732,0-2.598,0c0,3.533,0,7.066,0,10.6
	c0,0.195-0.127,0.368-0.322,0.517c0,6.013,0,12.025,0,18.039c0,0.073-0.022,0.141-0.053,0.208c7.153-4.343,21.302-5.46,20.104,6.676
	c-0.979,9.925-12.242,13.244-20.051,8.703c0,3.882,0,7.765,0,11.647c0,4.49,0,8.98,0,13.471c7.875,0,15.749,0,23.624,0
	c0.054-0.083,0.103-0.169,0.158-0.251c0.469-0.697,3.04-0.797,2.855-0.522c-0.163,0.242-0.315,0.509-0.468,0.773
	c0.077,0,0.154,0,0.231,0c1.75,0,0.087,1.092-0.908,1.307c-2.649,5.778-2.957,14.905,3.424,17.905
	c5.46,2.567,10.577-1.147,11.625-6.654c0.78-4.101-0.038-8.056-2.414-11.485c-0.119-0.171,0.687-0.626,1.489-0.856
	c0.312-0.129,0.625-0.217,0.851-0.217C372.064,443.548,382.657,443.548,393.25,443.548z M481.424,346.153
	c-1.402,0.433-2.73,0.984-3.867,1.756C478.767,347.307,480.099,346.71,481.424,346.153z M495.902,393.363
	c2.293,2.758,1.674,6.216,0.818,9.439c-0.01,0.037-0.03,0.071-0.044,0.106c0.029,0.059,0.043,0.125,0.021,0.206
	c-1.179,4.386,0.292,8.067,5.397,6.508c3.44-1.051,7.43-3.293,9.307-6.553c-0.056-0.102-0.073-0.228-0.041-0.379
	c0.698-3.293,1.035-6.706,1.731-10.019c-0.111-0.095-0.065-0.219,0.071-0.35c0.266-1.218,0.583-2.422,0.992-3.599
	c0.107-0.309,0.437-0.556,0.836-0.728c0.003-0.188,0.064-0.383,0.232-0.553c0.516-0.522,1.348-0.701,2.049-0.549
	c1.244,0.27,2.404,0.422,3.01-0.688c0.543-0.993,0.571-2.219,0.332-3.306c-0.207-0.937-0.627-2.242-1.425-2.788
	c-0.007-0.004-0.013-0.007-0.02-0.012c-0.218,0.277-0.436,0.649-0.597,0.976c-0.346,0.704-1.934,1.003-2.566,0.617
	c-1.9,0.323-3.376-1.387-3.566-4.076c-0.248-3.497,0.542-7.703,2.875-10.521c-1.723-0.173-3.429-0.87-4.054-2.574
	c-0.507-1.384-0.093-2.654,0.726-3.688c-4.229,0.562-9.336,2.273-12.399-1.041c-0.693-0.75-0.937-1.454-0.892-2.105
	c-0.357,0.192-0.736,0.394-1.137,0.603c-2.056,1.305-4.276,2.244-6.73,2.687c-0.305,0.69-0.64,1.451-0.989,2.262
	c0.057-0.038,0.114-0.072,0.168-0.101c0.497-0.262,1.479-0.609,2.037-0.33c0.935,0.469,1.821,0.958,2.577,1.692
	c0.595,0.578-2.097,1.647-2.714,1.048c-0.655-0.636-1.401-1.095-2.214-1.501c-0.066-0.033-0.116-0.069-0.155-0.105
	c-3.452,8.117-7.945,20.814-0.505,25.34C491.213,390.606,494.221,391.341,495.902,393.363z M445.381,423.742
	c2.82,2.173,5.506,4.513,8.257,6.772c1.154,0.948,2.81,2.717,4.451,3.693c0.407-0.992,0.959-1.929,1.667-2.766
	c2.387-2.823,6.49-4.939,10.494-5.451c-0.108-0.406,0.083-0.758,0.421-1.009c0.105-0.119,0.284-0.303,0.354-0.403
	c0.253-0.357,0.501-0.716,0.749-1.078c0.657-0.959,1.305-1.924,1.976-2.873c0.487-0.689,0.963-1.456,1.61-2.011
	c0.591-0.508,2.429-0.884,2.591,0.289c0.07,0.501-0.237,0.914-0.672,1.185c-0.061,0.073-0.122,0.146-0.18,0.222
	c-0.224,0.292-0.443,0.588-0.656,0.889c-0.583,0.819-1.15,1.65-1.716,2.481c-0.478,0.7-0.942,1.579-1.563,2.231
	c3.07,0.269,5.785,1.716,7.232,4.788c2.985-3.798,5.192-8.117,7.494-12.357c0.181-0.332,0.581-0.564,1.027-0.688
	c0.681-0.324,1.629-0.42,2.085,0.021c5.297,5.121,12.074,8.595,16.561,14.564c0.657,0.874-0.851,1.719-1.91,1.606
	c-1.764,1.216-3.498,2.892-3.601,5.114c-0.079,1.696,0.869,3.245,2.188,4.251c1.354,1.032,3.213,1.733,4.931,1.408
	c1.879-0.355,2.906-2.335,3.395-3.992c0.278-0.941,3.063-1.358,2.901-0.431c0.121,0.022,0.227,0.062,0.303,0.125
	c1.683,1.389,3.44,2.671,5.233,3.901c-0.012-1.364,0.259-2.951,0.307-3.607c0.133-1.827-0.084-4.723,2.057-5.396
	c1.749-0.55,2.168,1.121,0.445,1.662c1.261-0.396,0.974-0.93,0.786,0.11c-0.07,0.387-0.131,0.776-0.177,1.167
	c-0.112,0.965-0.195,1.934-0.246,2.904c-0.049,0.922-0.091,1.847-0.084,2.771c0.002,0.316-0.002,0.637,0.032,0.952
	c0.048,0.446,0.201,0.345-0.193,0.087c0.573,0.375,0.337,0.842-0.171,1.185c3.291,2.126,6.665,4.13,9.968,6.234
	c0.317,0.202-0.413,0.686-1.223,0.957c0.076,0.052,0.081,0.129-0.024,0.239c-0.818,0.857-1.53,1.79-2.199,2.754
	c6.827,0.896,14.042,1.901,20.923,0.913c-0.668-12.396-3.708-25.522-9.102-36.669c-2.775-5.736-6.098-9.81-11.981-12.541
	c-5.12-2.377-10.624-4.104-16.255-4.711c-5.015,6.903-23.625,13.616-20.048,0.313c0.003-0.012,0.012-0.022,0.016-0.034
	c-0.066-0.12-0.089-0.269-0.04-0.454c0.052-0.197,0.097-0.387,0.144-0.579c-0.007-0.004-0.017-0.006-0.024-0.011
	c-19.142-12.144-37.246,6.123-47.976,20.877C445.824,423.504,445.624,423.637,445.381,423.742z M450.403,464.051
	c-1.881,1.081-4.14,1.762-6.062,1.449c0,6.209,0,12.418,0,18.627C445.875,477.31,447.928,470.597,450.403,464.051z M459.178,445.487
	c-1.781-2.656-2.409-6.268-1.637-9.552c-0.055,0.003-0.104,0.002-0.145-0.004c-2.328-0.323-4.791-3.054-6.499-4.466
	c-1.006-0.833-2.007-1.673-3.008-2.513c-1.391,1.738-2.64,3.583-4.078,5.285c-0.302,0.358-0.808,0.526-1.303,0.542
	c0.592,1.166,0.951,2.413,0.934,3.909c-0.012,1.077-2.927,1.642-2.911,0.313c0.064-5.606-6.355-8.318-8.042-13.256
	c-1.409-4.122-1.771-9.282-0.11-13.409c0.627-1.558,1.404-3.074,1.894-4.683c0.226-0.739,0.518-1.538,0.549-2.32
	c0.085-2.077-1.861-1.78-2.771-0.396c-2.296,3.492-3.724,7.489-6.06,10.942c-0.59,0.872-3.532,1.035-2.725-0.158
	c0.848-1.253,1.556-2.765,2.261-4.329c-0.292-0.016-0.505-0.099-0.553-0.273c-0.607-2.229-2.228-4.436-3.624-6.225
	c-0.818-1.049-1.669-2.106-2.67-2.99c-0.481-0.425-0.975-0.872-1.539-1.187c-0.286-0.182-0.591-0.322-0.916-0.42
	c0.075,0.03,0.149,0.061,0.223,0.091c-0.938,1.947,0.47,4.526,1.629,6.37c0.822,1.146,1.533,2.279,2.101,3.097
	c0.001,0.001,0.001,0.002,0.002,0.003c0.833,1.146,1.695,2.269,2.555,3.399c0.478,0.628-2.287,1.583-2.726,1.006
	c-1.018-1.338-3.447-4.138-5.103-6.99c-0.184-0.242-0.363-0.486-0.56-0.719c-0.467-0.553-3.917-3.871-3.306-1.033
	c0.267,1.242,0.877,2.349,1.646,3.382c0.45,0.428,0.852,0.903,1.176,1.419c1.273,1.403,2.712,2.706,3.79,4.079
	c0.877,1.119-1.893,2.225-2.661,1.245c-0.597-0.76-1.641-1.779-2.739-2.932c-0.329-0.017-0.585-0.115-0.661-0.333
	c-0.087-0.251-0.203-0.497-0.33-0.739c-0.594-0.662-1.166-1.353-1.66-2.052c-0.315-0.27-0.648-0.511-0.99-0.712
	c-0.323-0.19-0.667-0.38-1.033-0.477c-0.088,0.146-0.176,0.293-0.264,0.439c-0.279,0.687-0.26,1.343,0.047,2.024
	c1.261,2.794,4.266,4.823,6.782,6.413c0.567,0.358-1.951,1.529-2.714,1.047c-0.831-0.524-2.259-1.449-3.634-2.579
	c-0.265,0-0.498-0.049-0.652-0.171c-0.533-0.423-1.188-1.003-1.889-1.308c0,0.225,0.023,0.448,0.093,0.665
	c0.581,1.654,1.84,2.792,3.183,3.849c2.761,2.172,5.619,4.228,8.7,5.924c0.011,0.006,0.016,0.013,0.025,0.019
	c0.942-0.242,1.918-0.409,2.917-0.508c10.955-1.08,12.331,10.058,8.028,17.515c4.638,0,9.274,0,13.911,0
	c0.75-0.373,1.875-0.384,2.158,0.241c0.308,0.165,0.504,0.464,0.276,0.844c-0.018,0.03-0.05,0.048-0.07,0.076
	c-0.033,0.081-0.077,0.16-0.133,0.236c0,6.62,0,13.241,0,19.861c1.901,2.227,4.874,0.937,6.388-1.151
	c0.18-0.248,0.449-0.42,0.745-0.546c0.918-2.299,1.876-4.58,2.895-6.83C455.231,452.558,456.72,447.285,459.178,445.487z
	 M459.761,446.388c0.034,0,0.062,0,0.095,0c-0.001-0.002-0.003-0.004-0.005-0.006C459.821,446.383,459.789,446.388,459.761,446.388z
	 M507.838,479.637c-0.24,0.136-0.52,0.24-0.817,0.274c-4.403,0.51-9.352-2.292-12.693-4.896c-2.629-2.049-5.153-5.286-1.752-7.167
	c-1.609-2.273-0.158-3.751,2.041-4.688c-0.152-0.466-0.234-0.951-0.188-1.464c0.261-2.907,2.648-3.033,5.077-2.284
	c-0.414-1.582,0.312-2.958,3.143-3.758c3.104-0.877,6.257,1.798,8.338,3.706c2.101,1.926,5.789,6.94,8.936,6.937
	c0.09,0,0.168,0.009,0.248,0.017c3.695-3.888,5.968-8.682,9.692-12.584c0.165-0.173,0.612-0.328,1.095-0.433
	c-5.56-3.538-11.32-6.794-16.525-10.848c-2.477,3.787-7.791,5.125-11.889,2.573c-1.91-1.19-3.508-3.075-3.398-5.451
	c0.143-3.066,2.724-5.29,5.152-6.849c-4.051-4.988-9.712-8.265-14.508-12.48c-2.381,4.41-4.784,8.825-8.09,12.625
	c-0.146,0.168-0.354,0.292-0.587,0.379c-0.342,0.919-2.64,1.395-2.868,0.4c-1.865-8.159-13.221-7.507-16.654-0.754
	c-2.585,5.085-1.394,15.634,6.307,14.641c1.317-0.17,1.379,0.575,0.85,1.156c-2.828,4.895-5.961,9.605-8.813,14.482
	c-0.013,0.022-0.019,0.041-0.035,0.064c-0.006,0.008-0.012,0.017-0.019,0.025c-0.016,0.022-0.041,0.044-0.062,0.066
	c3.765,3.84,8.557,6.409,12.923,9.502c3.09-3.582,7.497-6.997,12.26-4.354c2.124,1.179,3.994,3.642,3.783,6.173
	c-0.202,2.414-1.547,4.294-3.23,5.922c0.008,0.07,0.006,0.146-0.012,0.231c0.105-0.499,0.447,0.07,1.068,0.426
	c0.735,0.421,1.479,0.828,2.229,1.222c1.978,1.037,3.973,2.038,5.975,3.027c1.944,0.961,4.621,1.814,6.702,3.043
	C503.408,485.411,505.722,482.599,507.838,479.637z M544.91,459.138c-5.247,0.069-10.56-0.604-15.701-1.279
	c-0.661,1.025-1.311,2.061-2.013,3.061c-0.8,1.139-1.652,2.212-2.552,3.242c0.448,0.108,0.796,0.395,0.813,0.912
	c0.159,5.012,4.161,5.392,8.171,6.263c3.118,0.677,5.694,1.968,6.974,5.031c0.521,1.248-2.354,2.077-2.897,0.776
	c-1.696-4.06-6.466-3.628-10.018-4.782c-3.127-1.015-4.708-3.005-5.077-6.042c-0.514,0.496-1.048,0.977-1.6,1.446
	c-0.235,0.383-0.704,0.691-1.333,0.692c-0.389,0-0.766-0.042-1.138-0.104c-0.126-0.008-0.222-0.027-0.278-0.058
	c-4.479-0.934-7.776-6.074-11.181-8.674c-1.015-0.775-2.315-1.891-3.665-1.928c-2.623-0.073-0.162,2.891,0.429,3.511
	c2.101,2.204,4.586,3.956,6.895,5.926c1.287,1.099-1.229,2.546-2.229,1.692c-1.119-0.955-3.707-2.848-5.84-4.938
	c-0.198-0.034-0.383-0.104-0.538-0.228c-1.216-0.979-2.644-1.859-4.165-2.266c-0.179-0.048-0.387-0.091-0.588-0.106
	c-0.004,0.05-0.008,0.119-0.005,0.225c0.023,0.778,0.299,1.344,0.773,1.943c2.241,2.827,5.448,5.297,8.595,7.045
	c1.459,0.811-1.039,2.393-2.216,1.738c-2.435-1.353-4.732-3.146-6.75-5.059c-0.878-0.833-1.955-1.81-2.65-2.938
	c-2.544,2.248,6.909,7.761,8.277,8.813c0.51,0.393-2.054,1.531-2.723,1.018c-2.22-1.709-4.869-2.937-6.913-4.879
	c-0.88,1.597,3.098,4.641,4.08,5.31c1.907,1.299,4.71,3.124,7.341,3.719c0.62-0.353,1.569-0.653,2.007-0.531
	c3.39,0.952,6.824,0.022,9.976,1.795c2.574,1.448,4.733,4.224,6.766,6.322c4.612,4.759,14.54,12.788,20.099,4.156
	C549.678,481.201,545.538,468.807,544.91,459.138z M90.066,352.589c-0.51,0.349-0.737,1.1-0.155,1.5
	c0.624,0.429,1.5,0.221,2.078-0.174c3.84-2.625,0.01-6.071-2.638-7.685c-1.09-0.665-3.632,0.821-2.233,1.674
	C88.312,348.632,92.229,351.111,90.066,352.589z M92.953,344.036c-0.236-0.355-0.631-0.821-0.657-1.271
	c-0.042-0.719-0.666-0.993-1.337-0.941c-0.531,0.041-1.639,0.457-1.598,1.166c0.053,0.897,0.448,1.583,0.938,2.32
	C91.022,346.396,93.787,345.289,92.953,344.036z M81.035,357.84c-0.54-0.161-1.161-0.003-1.696,0.206
	c-0.033-0.005-0.06-0.007-0.118-0.022c-0.262-0.066-0.48-0.212-0.696-0.367c-0.485-0.348-0.791-0.861-1.012-1.402
	c-0.322-0.789-3.161,0.133-2.897,0.776c1.071,2.623,3.788,2.704,6.091,1.663C80.999,358.563,81.671,358.03,81.035,357.84z
	 M82.188,349.891c-0.587-0.462-0.956-1.162-1.283-1.816c-0.308-0.617-1.081-0.627-1.678-0.467c-0.382,0.102-1.521,0.64-1.219,1.244
	c0.504,1.009,1.012,1.868,1.91,2.574C80.785,352.108,83.409,350.852,82.188,349.891z M75.242,346.377
	c0.563-0.081,1.423-0.327,1.665-0.916c0.323-0.787,0.881-1.429,1.762-1.448c0.643-0.014,1.5-0.226,1.922-0.756
	c0.425-0.533-0.36-0.727-0.75-0.718c-2.333,0.051-4.879,1.052-5.819,3.339C73.783,346.464,74.999,346.413,75.242,346.377z
	 M146.734,464.539c0.084-0.132-0.113-0.207-0.437-0.227c-0.534-3.352-1.111-6.694-1.757-10.023
	c-0.387-1.993-1.061-10.167-4.964-7.634c-1.651,1.071,0.794,1.829,1.871,1.131c-1.809,1.173-1.913-0.521-1.248,1.33
	c0.378,1.051,0.616,2.159,0.871,3.245c0.747,3.184,1.274,6.423,1.81,9.647c0.198,1.196,0.374,2.395,0.562,3.592
	c-5.989,8.49-20.048,9.652-29.402,10.387c-10.347,0.813-21.262,0.56-31.406-1.818c-0.676-0.158-2.992,0.848-2.481,1.139
	c-0.096,0.125-0.156,0.262-0.156,0.409c0,6.518,0,13.036,0,19.554c0,1.323,2.91,0.748,2.91-0.316c0-6.344,0-12.689,0-19.034
	c11.442,2.285,23.72,2.25,35.196,0.827c8.201-1.017,19.162-2.704,25.712-8.761c1.221,8.084,2.24,16.203,3.229,24.316
	c0.145,1.188,3.053,0.496,2.897-0.776c-1.079-8.844-2.152-17.714-3.538-26.527C146.511,464.842,146.633,464.699,146.734,464.539z
	 M173.38,144.587c-0.752-0.679-3.466,0.43-2.692,1.128c1.55,1.398,7.526,10.69,2.71,10.595c-1.077-0.021-3.093,1.584-1.133,1.623
	c3.027,0.06,5.97-1.131,5.814-4.552C177.938,150.296,175.624,146.611,173.38,144.587z M165.383,160.892
	c-1.092-0.019-2.034-0.457-2.675-1.364c-0.527-0.748-3.165,0.398-2.897,0.776c0.89,1.26,2.186,1.804,3.709,1.83
	c0.698,0.012,1.461-0.157,2.049-0.549C166.016,161.286,165.96,160.901,165.383,160.892z M163.107,149.951
	c-0.838-1.325-1.173-2.834-1.197-4.39c-0.009-0.57-2.912-0.107-2.897,0.776c0.024,1.555,0.358,3.065,1.197,4.39
	C160.695,151.493,163.388,150.393,163.107,149.951z M158.201,139.615c0.234-0.079,1.278-0.592,0.823-0.977
	c-0.472-0.398-1.397-0.089-1.89,0.077c-1.412,0.478-2.772,1.186-3.299,2.667c-0.202,0.568,0.959,0.472,1.201,0.435
	c0.503-0.078,1.474-0.313,1.675-0.878c0.064-0.18,0.128-0.374,0.231-0.535c0.118-0.186,0.258-0.328,0.362-0.409
	c0.043-0.029,0.055-0.039,0.069-0.049c0.046-0.024,0.111-0.057,0.145-0.076C157.742,139.775,157.972,139.692,158.201,139.615z
	 M169.513,137.023c0.434,0.596,1.39,0.54,1.977,0.247c0.338-0.169,0.678-0.335,1.026-0.482c0.165-0.069,0.324-0.101,0.598-0.11
	c0.653-0.022,1.512-0.48,1.588-1.202c0.079-0.753-0.756-1.026-1.354-1.005c-1.132,0.04-2.168,0.507-3.165,1.005
	C169.646,135.744,169.074,136.419,169.513,137.023z M174.575,142.747c0.732,1.443,1.595,2.801,2.492,4.146
	c0.482,0.722,3.297-0.199,2.703-1.089c-0.83-1.244-1.62-2.5-2.297-3.834C177.01,141.058,174.208,142.022,174.575,142.747z
	 M342.136,244.602c-0.665-0.093-1.528,0.117-2.049,0.549c-1.503,1.247-2.649,2.71-3.525,4.454c-0.363,0.724-1.082,1.834-0.528,2.591
	c0.466,0.636,1.009,0.323,1.632,0.543c0.641,0.227,1.47,0.005,2.042-0.311c0.318-0.176,0.944-0.75,0.294-0.979
	c-0.377-0.133-0.738-0.185-1.126-0.185c-0.117-0.338-0.093-0.659,0.083-0.963c0.143-0.381,0.313-0.751,0.485-1.12
	c0.675-1.448,1.701-2.697,2.924-3.712C342.813,245.102,342.731,244.685,342.136,244.602z M335.752,241.86L335.752,241.86
	c-0.002,0.003-0.005,0.006-0.009,0.009C335.748,241.865,335.749,241.864,335.752,241.86z M335.752,241.86
	C335.921,241.695,335.604,241.924,335.752,241.86L335.752,241.86z M337.039,243.217c0.676-0.361,1.196-0.779,1.642-1.406
	c0.385-0.542,0.6-1.219,0.811-1.842c0.228-0.671-0.911-0.792-1.287-0.753c-0.659,0.07-1.4,0.392-1.626,1.06
	c-0.135,0.398-0.285,0.779-0.489,1.147c-0.028,0.049-0.255,0.366-0.18,0.278c-0.05,0.056-0.103,0.108-0.157,0.159
	c0.02-0.009,0.046-0.021,0.086-0.042c-0.399,0.213-1.205,0.75-0.738,1.295C335.526,243.609,336.532,243.488,337.039,243.217z
	 M349.505,248.359c0.699,0.085,1.558-0.228,1.887-0.888c0.486-0.975,0.859-1.967,0.881-3.069c0.03-1.521-2.91-1.087-2.936,0.221
	c-0.019,0.939-0.303,1.688-0.716,2.517C348.296,247.792,348.908,248.288,349.505,248.359z M350.667,239.134
	c1.516,0.023,2.663,0.659,3.078,2.176c0.187,0.685,3.083-0.098,2.897-0.776c-0.527-1.93-2.245-2.585-4.104-2.613
	c-0.696-0.01-1.46,0.167-2.049,0.549C350.037,238.763,350.097,239.126,350.667,239.134z M342.356,232.944
	c-0.652-0.336-1.479-0.211-2.07,0.206c-0.424,0.298-0.834,1.048-0.187,1.382c0.677,0.349,1.035,0.724,1.392,1.418
	c0.313,0.607,1.501,0.365,1.952,0.157c0.572-0.264,1.033-0.766,0.713-1.388C343.747,233.924,343.15,233.354,342.356,232.944z
	 M351.75,254.718c-0.677-0.012-1.473,0.188-2.049,0.549c-0.464,0.291-0.89,0.249-1.542,0.249c-0.692,0-1.454,0.191-2.049,0.549
	c-0.461,0.278-0.396,0.589,0.158,0.589c1.979-0.001,3.932-0.278,5.641-1.347C352.367,255.02,352.306,254.729,351.75,254.718z" fill="#1f2937"></path>
</svg>