<?xml version="1.0" standalone="no"?>
<svg version="1.1" id="Layer_1" xmlns="http://www.w3.org/2000/svg" xmlns:xlink="http://www.w3.org/1999/xlink" x="0px" y="0px" width="595.28px" height="595.28px" viewBox="0 0 595.28 595.28" enable-background="new 0 0 595.28 595.28" xml:space="preserve">
<path id="color_x5F_2" fill="#fbbf24" d="M275.537,280.569c-0.043,0.166-0.091,0.332-0.128,0.497l-0.053-0.175L275.537,280.569z
	 M329.238,224.657c0.796-0.108,1.593-0.208,2.393-0.297l-1.274,0.03C330.356,224.39,329.946,224.484,329.238,224.657z
	 M352.173,245.111c0.453-0.225,0.884-0.484,1.316-0.741c-0.395,0.204-0.778,0.387-1.133,0.52c-0.701,0.263-1.338,0.398-1.916,0.45
	C350.892,245.504,351.456,245.466,352.173,245.111z M377.626,242.5c-1.449,0.445-2.807,0.615-3.951,0.652
	c0.002,0,0.004,0.002,0.006,0.002C375.065,243.552,376.398,243.222,377.626,242.5z M380.706,242.126
	c-6.106,4.89-11.583,1.708-16.619-2.74c-4.039,3.209-12.98,11.45-16.742,6.997c-3.159-3.74-2.049-10.282-0.755-14.502
	c0.789-2.573,1.991-4.98,3.271-7.358c-0.414,0.366-1.077,0.698-1.564,0.699c-11.338,0.026-23.728,0.332-34.307,4.883
	c-5.97,2.568-9.905,6.365-13.48,11.035c-2.617,4.127-6.214,9.44-9.353,13.999c-2.655,4.334-5.157,8.763-7.423,13.301
	c-2.126,4.26-6.928,12.052-5.504,17.251c0.266,0.007,0.535,0.021,0.804,0.033c4.374-0.212,14.385-0.045,21.044,5.088
	c7.177,3.495,13.092,8.911,15.229,16.69c0.065,0.239-0.115,0.471-0.41,0.664c0.295,0.454,0.461,0.724,0.461,0.724h0.072
	c2.377-14.516,2.553-29.26,4.476-43.831c0.137-1.038,3.064-1.553,2.904-0.339c-1.93,14.627-2.098,29.429-4.5,44
	c-0.01,0.061-0.053,0.113-0.081,0.169h88.021c-2.303-11.995-2.823-24.161-2.851-36.354c-0.002-1.126,2.914-1.67,2.918-0.291
	c0.025,12.298,0.567,24.558,2.97,36.646h36.271c-1.034-5.844-0.913-11.709-0.99-17.652c-0.087-6.75-0.917-13.374-2.387-19.964
	c-1.454-6.524-3.265-12.954-4.892-19.436c-1.096-4.367-2.02-8.724-4.92-12.323c-9.964-12.366-28.374-14.611-43.641-14.915
	l-1.055,0.352C388.618,231.189,386.446,237.53,380.706,242.126z M212.886,480.991c0.069-2.141,0.025-5.035-1.613-6.702
	c-2.081-2.118-5.803-1.081-7.572,1.024c-1.467,1.744-2.379,3.854-3.806,5.615c-0.686,0.846-1.413,1.509-2.18,2.008
	c2.269,0,4.538,0,6.807,0l8.863-0.492c0.13-0.16,0.258-0.311,0.389-0.478C213.265,481.878,212.866,481.57,212.886,480.991z
	 M218.428,461.304c1.754,1.566,2.771,3.32,3.236,5.162c1.183-2.759,2.361-5.521,3.542-8.281c-0.573,0.079-1.119-0.016-1.299-0.406
	c-5.135-11.163-7.5-23.283-11-35c-0.292-0.979,2.598-1.78,2.898-0.776c3.369,11.282,5.694,22.936,10.447,33.751
	c4.084-9.502,8.287-18.949,13.22-28.056c1.292-2.385,2.624-4.76,4.036-7.083c-0.713,0.361-1.697,0.417-1.988-0.123
	c-4.781-8.833-9.083-18.158-18.971-22.234c-9.301-3.833-20.173-4.03-28.878-9.19c-0.061,0.039-0.118,0.079-0.189,0.117
	c-7.784,4.142-22.657,5.617-28.194-2.82c-0.096,0.068-0.205,0.136-0.338,0.202c-16.509,8.195-35.847,15.348-42.41,34.224
	c-3.078,8.852-4.422,18.18-4.903,27.515c-0.397,7.713-1.429,16.524,1.135,23.965c4.431,12.864,17.814,13.961,29.608,12.971
	c13.879-1.166,27.358-3.062,41.309-3.215c0.174-0.188,0.404-0.356,0.661-0.482c-1.523-6.036-2.719-14.252,0.021-20.175
	c-7.414-0.804-14.98-0.468-22.34-1.535c-6.269-0.909-13.156-3.55-19.399-1.419c-1.717,0.586-2.246-1.325-0.699-1.984
	c0.88-9.362,5.71-17.67,7.481-26.838c0.175-0.908,3.081-1.408,2.887-0.403c-1.75,9.059-6.48,17.277-7.442,26.502
	c5.582-0.884,11.197,0.973,16.773,1.781c8.166,1.184,16.517,0.827,24.72,1.839c0.205,0.025,0.363,0.075,0.496,0.136
	c0.746,0.031,1.321,0.392,0.896,1.116c-0.47,0.801-0.838,1.664-1.135,2.563c0.559-0.097,1.131-0.223,1.712-0.367l2.77-0.792
	C204.276,459.705,212.487,455.999,218.428,461.304z M219.034,467.273c-0.15-0.702-0.395-1.38-0.738-2.028
	C218.577,465.983,218.821,466.658,219.034,467.273z"></path>
<path id="color_x5F_1" d="M166.21,353.352c0.656,0.656-2.064,1.72-2.707,1.077c-0.833-0.833-1.666-1.667-2.5-2.5
	c-0.656-0.656,2.064-1.72,2.707-1.077C164.543,351.685,165.376,352.519,166.21,353.352z M202.407,347.778
	c0.735,2.961,2.568,9.373-1.754,10.354c-1.772,0.402-1.342,1.912,0.406,1.515c6.349-1.441,5.483-7.661,4.246-12.646
	C205.044,345.949,202.143,346.711,202.407,347.778z M208.983,345.824c-0.571,0.042-1.596,0.456-1.596,1.175c0,0.667,0,1.333,0,2
	c0,0.727,0.698,1.005,1.342,0.958c0.571-0.042,1.596-0.456,1.596-1.175c0-0.667,0-1.333,0-2
	C210.325,346.054,209.627,345.776,208.983,345.824z M190.407,346.278c0,1.167,0,2.333,0,3.5c0,0.853,2.898,0.317,2.898-0.776
	c0-1.167,0-2.333,0-3.5C193.306,344.649,190.407,345.185,190.407,346.278z M195.179,336.359c-3.629-1.697-7.78-1.49-10.801,1.304
	c-1.44,1.332,0.823,2.503,1.957,1.454c2.155-1.993,4.649-1.889,7.199-0.696C194.831,339.027,196.874,337.153,195.179,336.359z
	 M191.288,361.77c-2.714-0.035-4.559-1.161-5.482-3.768c-0.262-0.738-3.125,0.135-2.898,0.776c1.068,3.015,3.428,4.193,6.518,4.232
	c0.699,0.009,1.459-0.156,2.049-0.549C191.919,362.165,191.866,361.776,191.288,361.77z M247.657,351.708
	c2.928,0.393,5.129,2.68,4.223,5.992c-0.978,3.572-4.956,5.576-8.489,4.434C235.859,359.7,241.751,348.881,247.657,351.708z
	 M245.136,360.45c4.093,1.05,5.131-4.974,2.562-6.629c-0.513,0.156-1.058,0.174-1.36-0.053c-0.168-0.126-0.343-0.252-0.521-0.361
	c-0.419-0.017-0.679-0.13-0.812-0.293c-0.237-0.013-0.477,0.046-0.717,0.233c-0.657,0.514-1.155,1.38-1.377,2.174
	C242.36,357.494,242.879,359.871,245.136,360.45z M261.657,368.208c2.928,0.393,5.129,2.68,4.223,5.992
	c-0.978,3.572-4.956,5.576-8.489,4.434C249.859,376.2,255.751,365.381,261.657,368.208z M259.136,376.95
	c4.093,1.05,5.131-4.974,2.562-6.629c-0.513,0.156-1.058,0.174-1.36-0.053c-0.168-0.126-0.343-0.252-0.521-0.361
	c-0.419-0.017-0.679-0.13-0.812-0.293c-0.237-0.013-0.477,0.046-0.717,0.233c-0.657,0.514-1.155,1.38-1.377,2.174
	C256.36,373.994,256.879,376.371,259.136,376.95z M240.002,375.924c-0.27-0.379,0.2-0.784,0.825-1.04
	c-0.469-0.055,1.261-1.278,1.77-1.797c1.096-1.121,2.181-2.251,3.261-3.387c2.882-3.029,5.743-6.077,8.633-9.099
	c2.066-2.161,6.586-8.92,10.257-8.465c0.206,0.025,0.456,0.092,0.538,0.31c0.007,0.018,0.014,0.036,0.021,0.055
	c0.139,0.371-0.447,0.764-1.131,0.978c-0.09,0.081-0.211,0.188-0.386,0.349c-0.397,0.365-0.788,0.736-1.173,1.115
	c-1.102,1.087-2.186,2.19-3.261,3.303c-2.707,2.803-5.381,5.636-8.06,8.465c-2.24,2.366-4.461,4.759-6.772,7.056
	c-0.89,0.883-1.742,1.895-2.985,2.251c-0.318,0.091-1.26,0.295-1.516-0.065C240.016,375.943,240.009,375.934,240.002,375.924z
	 M262.407,353.278c0.294,0.783,1.083,0.508,1.563,0.259C263.282,353.711,262.563,353.691,262.407,353.278z M277.692,453.05
	c7.717,3.227,19.841-5.979,21.607-13.363c0.038-0.132,0.008-0.246-0.092-0.342c-0.943-0.656-1.192-0.617-2.188-1.114
	c-0.768-0.384-3.445,0.761-2.328,1.319c1.23,0.615,1.747,0.852,1.137,2.251c-0.582,1.336-1.604,2.51-2.547,3.6
	c-2.313,2.675-5.389,4.885-8.65,6.227c-1.132,0.466-4.612,1.443-4.143-0.727c0.317-1.469,1.398-2.75,2.335-3.872
	c2.285-2.74,6.206-5.826,9.813-6.414c1.314-0.214,2.451-1.775,0.438-1.447c-5.926,0.966-15.16,6.853-15.662,13.427
	C277.396,452.828,277.464,452.955,277.692,453.05z M461.858,361.605c0,1.696,0,3.391,0,5.087c0,0.048,0,0.096,0,0.144
	c0,0.55-0.866,0.945-1.651,1.074c-0.357,0.177-0.744,0.304-1.024,0.304c-0.455,0-0.909,0-1.364,0c-8.5,0-17,0-25.5,0
	c-0.653,0-0.836-0.163-0.763-0.378c-0.771,0.2-1.596,0.164-1.596-0.223c0-0.048,0-0.096,0-0.144c0-1.696,0-3.391,0-5.087
	c0-0.68,1.325-1.125,2.184-1.119c0.427-0.269,0.984-0.49,1.356-0.49c8.5,0,17,0,25.5,0c0.454,0,0.909,0,1.363,0
	c0.764,0,0.889,0.222,0.706,0.491C461.517,361.255,461.858,361.357,461.858,361.605z M458.989,362.214c-0.39,0-0.78,0-1.171,0
	c-8.32,0-16.64,0-24.96,0c0,1.493,0,2.985,0,4.478c0,0.048,0,0.096,0,0.144c0,0.028-0.01,0.054-0.015,0.08
	c0.239-0.088,0.472-0.144,0.656-0.144c8.486,0,16.974,0,25.46,0c0-1.464,0-2.928,0-4.391
	C458.96,362.324,458.972,362.268,458.989,362.214z M253.97,195.044c0-0.048,0-0.096,0-0.144c0-1.695,0-3.392,0-5.087
	c0-0.572,0.938-0.979,1.747-1.09c0.429-0.464,1.164-0.649,1.758-0.649c2.665,0,5.33,0,7.995,0c0-2.92,0-5.841,0-8.761
	c0-0.159,0.1-0.304,0.262-0.43c-0.018-0.13,0.005-0.272,0.082-0.418c0.356-0.677,1.201-0.86,1.894-0.86c0.048,0,0.096,0,0.144,0
	c1.696,0,3.392,0,5.088,0c0.354,0,0.705,0.191,0.86,0.474c0.336,0.099,0.574,0.313,0.574,0.685c0,3.168,0,6.336,0,9.503
	c2.885,0,5.769,0,8.653,0c0.44,0,0.88,0,1.32,0c0.74,0,0.862,0.192,0.685,0.43c0.47-0.019,0.837,0.083,0.837,0.34
	c0,1.696,0,3.392,0,5.087c0,0.048,0,0.096,0,0.144c0,0.489-0.685,0.855-1.389,1.022c-0.394,0.278-0.893,0.495-1.294,0.495
	c-0.44,0-0.88,0-1.32,0c-2.492,0-4.983,0-7.476,0c0,2.847,0,5.694,0,8.541c0,0.44,0,0.88,0,1.32c0,0.553-0.49,0.944-1.068,1.113
	c-0.446,0.267-1.029,0.396-1.491,0.396c-1.695,0-3.393,0-5.088,0c-0.048,0-0.095,0-0.143,0c-0.378,0-1.18-0.169-0.746-0.705
	c0.014-0.017,0.036-0.028,0.052-0.044c-0.262-0.032-0.436-0.119-0.436-0.271c0-0.44,0-0.88,0-1.32c0-3.072,0-6.145,0-9.217
	c-3.052,0-6.104,0-9.154,0c-0.625,0-0.811-0.14-0.75-0.329C254.796,195.468,253.97,195.432,253.97,195.044z M256.844,194.405
	c0.252-0.091,0.495-0.151,0.679-0.151c3.144,0,6.287,0,9.43,0c0.038,0,0.064,0.004,0.1,0.005c0.678-0.123,1.316-0.072,1.316,0.221
	c0,3.186,0,6.372,0,9.557c0,0.44,0,0.88,0,1.32c0,0.122-0.051,0.235-0.136,0.339c1.072,0,2.144,0,3.216,0c0-0.391,0-0.781,0-1.171
	c0-2.953,0-5.907,0-8.86c0-0.067,0.013-0.131,0.026-0.194c-0.14-0.495,1.104-1.405,1.93-1.405c3.188,0,6.377,0,9.565,0
	c0-1.417,0-2.835,0-4.252c0-0.081,0.024-0.156,0.059-0.23c-0.406,0-0.812,0-1.217,0c-2.683,0-5.364,0-8.047,0
	c-0.852,0.46-2.3,0.483-2.3-0.441c0-3.188,0-6.376,0-9.564c-1.032,0-2.064,0-3.097,0c0,3.012,0,6.023,0,9.035
	c0,0.602-1.416,0.992-2.268,0.997c-0.332,0.113-0.69,0.166-1.005,0.166c-2.743,0-5.485,0-8.228,0c0,1.45,0,2.899,0,4.348
	c0,0.048,0,0.096,0,0.144C256.868,194.315,256.856,194.36,256.844,194.405z M459.56,451.11c-0.035-0.035-0.07-0.07-0.105-0.105
	c-0.002-0.001-0.004-0.002-0.006-0.004c-1.3-1.218-2.527-2.527-3.785-3.787c-0.305-0.306-1.089-0.218-1.751,0.025
	c-0.631,0.051-1.355,0.259-1.805,0.708c-0.328,0.328-0.657,0.656-0.984,0.984c-1.808,1.807-3.614,3.614-5.421,5.421
	c-2.149-2.149-4.299-4.297-6.447-6.446c-0.258-0.258-0.735-0.306-1.225-0.227c-0.679-0.16-1.45,0.083-1.935,0.566
	c-1.292,1.289-2.688,2.527-3.896,3.895c-0.298,0.337-0.307,0.722-0.086,0.998c-0.102,0.12-0.126,0.234-0.033,0.327
	c2.436,2.437,4.873,4.873,7.309,7.31c-0.252,0.079-0.469,0.188-0.605,0.324c-2.17,2.169-4.339,4.339-6.508,6.509
	c-1.215,1.215,1.634,1.227,2.336,0.523c2.169-2.17,4.339-4.339,6.508-6.509c0.345-0.344,0.355-0.589,0.188-0.751
	c0.688-0.258,1.252-0.652,1.008-0.897c-2.471-2.472-4.943-4.943-7.414-7.415c0.816-0.89,1.699-1.735,2.574-2.576
	c2.145,2.144,4.289,4.288,6.433,6.432c0.019,0.024,0.038,0.047,0.066,0.066c0.032,0.032,0.063,0.063,0.095,0.095
	c0.695,0.695,2.961-0.115,2.826-0.9c2.24-2.24,4.479-4.479,6.719-6.719c1.031,1.051,2.057,2.114,3.13,3.119
	c-0.004,0.003-0.009,0.006-0.013,0.01c-0.328,0.329-0.656,0.657-0.984,0.984c0,0-0.001,0.001-0.002,0.001
	c-2.375,2.377-4.752,4.753-7.127,7.129c-0.507,0.507-0.307,0.805,0.146,0.933c0.021,0.136,0.092,0.274,0.228,0.41
	c2.2,2.2,4.4,4.401,6.601,6.602c0.001,0,0.001,0,0.001,0c0.328,0.328,0.656,0.656,0.984,0.984c0.068,0.068,0.147,0.123,0.231,0.17
	c-0.034,0.03-0.075,0.052-0.107,0.084c-0.826,0.823-1.668,1.638-2.498,2.464c-2.506-2.507-5.014-5.014-7.521-7.521
	c-0.526-0.527-2.708,0.251-2.788,0.832c-0.097,0.067-0.197,0.13-0.278,0.212c-2.168,2.168-4.335,4.335-6.503,6.502
	c-1.01-1.027-2.044-2.033-3.063-3.049c-0.637-0.636-3.354,0.427-2.707,1.072c1.262,1.259,2.56,2.493,3.788,3.786
	c0.001,0.001,0.001,0.003,0.003,0.005c0.035,0.035,0.069,0.07,0.104,0.104c0.571,0.568,2.899-0.229,2.795-0.892
	c0.452-0.111,0.893-0.303,1.205-0.616c1.941-1.941,3.882-3.881,5.823-5.822c2.007,2.008,4.016,4.015,6.022,6.023
	c0.001,0.001,0.001,0.002,0.002,0.003c0.328,0.328,0.656,0.656,0.984,0.983c0.127,0.127,0.354,0.175,0.622,0.171
	c0.101,0.246,0.609,0.347,0.857,0.343c0.697-0.012,1.425-0.257,1.923-0.752c0.035-0.035,0.07-0.07,0.104-0.104
	c0.004-0.003,0.004-0.006,0.007-0.009c1.206-1.307,2.526-2.526,3.784-3.782c0.262-0.261,0.133-0.442-0.094-0.555
	c0.233-0.286,0.272-0.625-0.052-0.949c-2.528-2.529-5.057-5.058-7.586-7.587c-0.032-0.032-0.07-0.055-0.106-0.083
	c2.514-2.513,5.026-5.026,7.539-7.54c0.361-0.361,0.36-0.616,0.168-0.78C459.602,451.611,459.788,451.339,459.56,451.11z
	 M403.36,412.602c0,1.696,0,3.392,0,5.087c0,0.048,0,0.096,0,0.144c0,0.55-0.866,0.945-1.651,1.074
	c-0.356,0.178-0.744,0.305-1.024,0.305c-0.455,0-0.909,0-1.364,0c-8.5,0-17,0-25.5,0c-0.653,0-0.836-0.163-0.763-0.379
	c-0.771,0.201-1.596,0.164-1.596-0.223c0-0.048,0-0.096,0-0.144c0-1.695,0-3.392,0-5.087c0-0.681,1.325-1.126,2.184-1.119
	c0.427-0.269,0.984-0.49,1.356-0.49c8.5,0,17,0,25.5,0c0.454,0,0.909,0,1.363,0c0.764,0,0.889,0.223,0.706,0.492
	C403.019,412.251,403.36,412.354,403.36,412.602z M400.491,413.211c-0.391,0-0.78,0-1.171,0c-8.32,0-16.64,0-24.96,0
	c0,1.493,0,2.985,0,4.478c0,0.048,0,0.096,0,0.144c0,0.028-0.01,0.054-0.015,0.081c0.239-0.088,0.472-0.144,0.656-0.144
	c8.486,0,16.974,0,25.46,0c0-1.464,0-2.927,0-4.391C400.462,413.32,400.474,413.265,400.491,413.211z M403.36,426.102
	c0,1.696,0,3.392,0,5.087c0,0.048,0,0.096,0,0.144c0,0.55-0.866,0.945-1.651,1.074c-0.356,0.178-0.744,0.305-1.024,0.305
	c-0.455,0-0.909,0-1.364,0c-8.5,0-17,0-25.5,0c-0.653,0-0.836-0.163-0.763-0.379c-0.771,0.201-1.596,0.164-1.596-0.223
	c0-0.048,0-0.096,0-0.144c0-1.695,0-3.392,0-5.087c0-0.681,1.325-1.126,2.184-1.119c0.427-0.269,0.984-0.49,1.356-0.49
	c8.5,0,17,0,25.5,0c0.454,0,0.909,0,1.363,0c0.764,0,0.889,0.223,0.706,0.492C403.019,425.751,403.36,425.854,403.36,426.102z
	 M400.491,426.711c-0.391,0-0.78,0-1.171,0c-8.32,0-16.64,0-24.96,0c0,1.493,0,2.985,0,4.478c0,0.048,0,0.096,0,0.144
	c0,0.028-0.01,0.054-0.015,0.081c0.239-0.088,0.472-0.144,0.656-0.144c8.486,0,16.974,0,25.46,0c0-1.464,0-2.927,0-4.391
	C400.462,426.82,400.474,426.765,400.491,426.711z M124.816,256.39c0.054-0.908,0.659-1.67,1.353-2.211
	c1.545-1.203,3.706-1.763,5.629-1.373c0.417-0.021,0.809,0.066,1.05,0.32c1.486,1.572,1.604,3.888-0.08,5.375
	c-1.743,1.54-4.52,1.789-6.437,0.39C125.525,258.304,124.753,257.463,124.816,256.39z M128.802,257.427
	c0.662,0.379,1.536,0.651,1.984-0.12c0.538-0.925,0.287-1.822-0.308-2.593c-0.104-0.01-0.209-0.012-0.311-0.034
	c-0.129-0.028-0.643,0.027-0.954,0.12c-0.393,0.116-0.812,0.299-1.152,0.593C127.269,256.077,128.151,257.054,128.802,257.427z
	 M131.798,271.807c0.417-0.021,0.809,0.066,1.05,0.32c1.486,1.572,1.604,3.888-0.08,5.375c-1.743,1.54-4.52,1.789-6.437,0.39
	c-0.806-0.588-1.578-1.429-1.515-2.502c0.054-0.908,0.659-1.67,1.353-2.211C127.714,271.977,129.875,271.417,131.798,271.807z
	 M130.479,273.714c-0.104-0.01-0.209-0.012-0.311-0.034c-0.129-0.028-0.643,0.027-0.954,0.12c-0.393,0.116-0.812,0.299-1.152,0.593
	c-0.793,0.685,0.09,1.661,0.74,2.034c0.662,0.379,1.536,0.651,1.984-0.12C131.324,275.382,131.073,274.484,130.479,273.714z
	 M113.476,267.185c0-0.036,0-0.072,0-0.108c0-1.272,0-2.544,0-3.815c0-0.735,1.544-1.195,2.377-1.108
	c0.393-0.214,0.846-0.376,1.163-0.376c8.5,0,17,0,25.5,0c0.454,0,0.909,0,1.363,0c0.64,0,0.829,0.156,0.769,0.365
	c0.416,0.001,0.727,0.106,0.727,0.343c0,1.271,0,2.544,0,3.815c0,0.036,0,0.072,0,0.107c0,0.598-1.023,1.014-1.854,1.102
	c-0.295,0.126-0.594,0.21-0.821,0.21c-0.455,0-0.909,0-1.364,0c-8.5,0-17,0-25.5,0c-0.579,0-0.788-0.129-0.778-0.308
	C114.29,267.608,113.476,267.569,113.476,267.185z M116.372,266.416c0.234-0.085,0.462-0.139,0.644-0.139c8.486,0,16.974,0,25.46,0
	c0-1.005,0-2.011,0-3.016c0-0.015,0.006-0.028,0.008-0.042c-0.383,0-0.767,0-1.149,0c-8.32,0-16.64,0-24.96,0
	c0,1.027,0,2.054,0,3.081c0,0.036,0,0.072,0,0.107C116.374,266.411,116.373,266.413,116.372,266.416z M362.472,350.002
	c0,2.111,0,4.222,0,6.333c0,0.394-0.633,0.694-1.307,0.854c-0.388,0.419-1.168,0.859-1.707,0.881
	c-9.881,0.4-19.807,0.214-29.698,0.119c-5.53,8.83-11.061,17.661-16.598,26.487c-0.452,0.721-2.02,1.11-2.694,0.537
	c-3.7-3.145-6.294-7.128-9.01-11.105c-0.181-0.265-0.102-0.528,0.115-0.756c0-2.524,0-5.049,0-7.574
	c0-0.247,0.251-0.456,0.602-0.618c-0.238-0.351-0.477-0.701-0.717-1.052c-0.667-0.978,2.143-1.938,2.691-1.134
	c2.33,3.412,4.574,6.824,7.5,9.711c4.546-7.374,8.896-14.875,13.251-22.361c0.339-0.583,1.303-0.795,1.913-0.791
	c11.354,0.087,22.759,0.355,34.107-0.104c0.639-0.026,0.847,0.138,0.808,0.37C362.152,349.78,362.472,349.84,362.472,350.002z
	 M359.573,351.078c-10.794,0.428-21.639,0.206-32.443,0.11c-4.578,7.872-9.147,15.761-13.968,23.488
	c-0.45,0.723-2.021,1.109-2.694,0.537c-2.337-1.986-4.232-4.308-5.996-6.75c0,1.624,0,3.248,0,4.872c0,0.03-0.012,0.057-0.018,0.085
	c2.226,3.269,4.405,6.517,7.211,9.281c3.276-5.226,6.551-10.452,9.826-15.679c1.612-2.573,3.225-5.146,4.836-7.72
	c0.533-0.851,1.022-2.125,2.016-2.542c3.285-1.382,8.97-0.173,12.408-0.164c6.27,0.016,12.554,0.083,18.822-0.138
	C359.573,354.666,359.573,352.872,359.573,351.078z M481.807,106.714c0,71.667,0,143.333,0,215c0,0.4-0.487,0.736-1.061,0.913
	c-0.413,0.328-0.999,0.604-1.448,0.604c-88.969,0-177.939,0-266.909,0c1.737,6.077,2.769,12.572,8.965,15.3
	c0.186-0.001,0.371,0,0.556-0.003c1.957-0.04,0.021,1.7-1.105,1.723c-1.317,0.027-2.654-0.003-3.997-0.081
	c0,0.021,0.007,0.04,0.005,0.062c-0.306,4.596-0.98,9.584-2.484,14.226c10.225,3.876,13.758,14.574,7.8,23.939
	c-1.837,2.888-4.14,5.284-6.755,7.106c-0.272,0.237-0.529,0.452-0.766,0.637c-0.498,0.391-1.223,0.746-2.092,1.068
	c-3.382,1.682-7.146,2.47-11.045,2.21c-0.471,0.056-0.922,0.106-1.346,0.151c8.752,3.5,18.861,3.591,27.205,8.378
	c8.463,4.855,12.384,13.064,16.863,21.341c0.023,0.042,0.032,0.083,0.047,0.125c0.619-0.987,1.255-1.963,1.916-2.921
	c2.03-2.939,4.607-7.097,7.852-8.776c2.369-1.226,6.433-0.712,8.976-0.815c25.483-1.029,50.992-0.967,76.482-1.647
	c0.669-0.018,1.048,0.236,1.199,0.578c10.371,1.628-6.18,36.198-7.977,40.19c-5.506,12.23-11.249,25.854-19.742,36.392
	c-0.282,0.35-0.546,0.643-0.806,0.911c0.068,0.048,0.127,0.103,0.166,0.176c0.943,1.789-3.8,4.568-4.965,5.235
	c-3.143,1.797-7.768,0.864-11.177,0.864c-12.735,0-25.47,0-38.204,0c-13.099,0-26.197,0-39.295,0c-6.252,0-12.504,0-18.755,0
	c-1.166,0-3.01,0.224-3.868-0.881c-1.014-1.305-1.609-3.259-3.356-3.693c-0.288-0.072-0.285-0.22-0.122-0.391
	c-0.154-0.155-0.132-0.379,0.006-0.616c-0.547-0.071-1.106-0.188-1.682-0.354c-0.197,0.072-0.395,0.118-0.576,0.118
	c-9.611,0.002-19.094,0.431-28.624,1.656c-6.689,0.86-13.423,1.851-20.182,1.873c-11.608,0.038-23.479-3.552-26.2-16.33
	c-1.844-8.657-1.05-18.286-0.249-27.028c0.889-9.699,2.492-19.823,7.004-28.58c4.189-8.13,11.042-13.864,18.761-18.534
	c-0.051-0.013-0.102-0.022-0.15-0.042c-15.38-6.096-22.276-23.513-18.441-39.056c3.408-13.813,14.446-26.757,29.616-25.953
	c0.259,0.014,0.455,0.065,0.602,0.142c0.359-7.214,3.242-14.516,7.882-20.206c1.373-2.433,3.463-4.3,6-5.69
	c1.461-1.05,3.013-1.956,4.643-2.697c-0.038-0.08-0.065-0.167-0.065-0.273c0-65.333,0-130.667,0-196
	c0-0.767,1.782-1.307,2.552-0.905c0.413-0.332,1.005-0.612,1.457-0.612c101.833,0,203.666,0,305.5,0
	c0.727,0,0.912,0.231,0.803,0.523C481.562,106.156,481.807,106.356,481.807,106.714z M241.521,420.492
	c-4.781-8.833-9.083-18.158-18.971-22.234c-9.301-3.833-20.173-4.03-28.878-9.19c-0.061,0.039-0.118,0.079-0.189,0.117
	c-7.784,4.142-22.657,5.617-28.194-2.82c-0.096,0.068-0.205,0.136-0.338,0.202c-16.509,8.195-35.847,15.348-42.41,34.224
	c-3.078,8.852-4.422,18.18-4.903,27.515c-0.397,7.713-1.429,16.524,1.135,23.965c4.431,12.864,17.814,13.961,29.608,12.971
	c13.879-1.166,27.358-3.062,41.309-3.215c0.174-0.188,0.404-0.356,0.661-0.482c-1.523-6.036-2.719-14.252,0.021-20.175
	c-7.414-0.804-14.98-0.468-22.34-1.535c-6.269-0.909-13.156-3.55-19.399-1.419c-1.717,0.586-2.246-1.325-0.699-1.984
	c0.88-9.362,5.71-17.67,7.481-26.838c0.175-0.908,3.081-1.408,2.887-0.403c-1.75,9.059-6.48,17.277-7.442,26.502
	c5.582-0.884,11.197,0.973,16.773,1.781c8.166,1.184,16.517,0.827,24.72,1.839c0.205,0.025,0.363,0.075,0.496,0.136
	c0.746,0.031,1.321,0.392,0.896,1.116c-0.47,0.801-0.838,1.664-1.135,2.563c0.559-0.097,1.131-0.223,1.712-0.367
	c0.9-0.224,1.826-0.495,2.77-0.792c7.187-2.261,15.397-5.968,21.338-0.663c1.754,1.566,2.771,3.32,3.236,5.162
	c1.183-2.759,2.361-5.521,3.542-8.281c-0.573,0.079-1.119-0.016-1.299-0.406c-5.135-11.163-7.5-23.283-11-35
	c-0.292-0.979,2.598-1.78,2.898-0.776c3.369,11.282,5.694,22.936,10.447,33.751c4.084-9.502,8.287-18.949,13.22-28.056
	c1.292-2.385,2.624-4.76,4.036-7.083C242.796,420.975,241.812,421.031,241.521,420.492z M200.73,475.036
	c1.772-2.107,4.068-3.369,6.729-4.069c5.547-1.46,7.965,3.571,8.322,8.147c2.291-3.634,4.066-8.061,3.252-11.841
	c-0.15-0.702-0.395-1.38-0.738-2.028c-0.567-1.068-1.398-2.055-2.587-2.91c-7.249-5.216-15.639,0.625-23.448,1.998
	c-1.31,5.327-0.202,11.801,1.045,16.669c0.071,0.279,0.002,0.53-0.149,0.747C197.351,482.352,198.26,477.974,200.73,475.036z
	 M204.521,482.937c2.821,0,5.642,0,8.462,0c0.133-0.156,0.268-0.328,0.401-0.492c0.13-0.16,0.258-0.311,0.389-0.478
	c-0.509-0.088-0.907-0.396-0.888-0.976c0.069-2.141,0.025-5.035-1.613-6.702c-2.081-2.118-5.803-1.081-7.572,1.024
	c-1.467,1.744-2.379,3.854-3.806,5.615c-0.686,0.846-1.413,1.509-2.18,2.008C199.983,482.937,202.253,482.937,204.521,482.937z
	 M309.487,484.926c-0.637,0.154-1.354,0.227-2.248,0.248c-5.004,0.116-10.013,0.106-15.018,0.109
	c-15.854,0.011-31.707-0.08-47.561-0.165c-6.545-0.035-13.092-0.073-19.637-0.101c-2.043-0.008-4.086-0.018-6.129-0.016
	c-2.135,0.001-1.969,0.631-0.812-0.629c-0.511,0.557-1.546,0.627-2.197,0.362c-0.188,0.067-0.379,0.109-0.559,0.109
	c-6.157,0-12.315,0-18.472,0c0.141,0.171,0.277,0.358,0.414,0.582c1.492,2.437,2.593,2.754,5.486,2.754c5.116,0,10.233,0,15.35,0
	c10.686,0,21.371,0,32.056,0c10.653,0,21.306,0,31.958,0c5.077,0,10.154,0,15.23,0c2.168,0,4.336,0,6.504,0
	C304.065,488.18,309.109,486.652,309.487,484.926z M245.532,422.308c-5.012,8.516-9.261,17.469-13.29,26.483
	c-3.661,8.19-7.102,16.473-10.665,24.706c-0.973,2.249-2.146,6.74-4.154,9.123c1.842-0.295,4.344,0.116,5.563,0.12
	c6.084,0.021,12.169,0.057,18.253,0.089c15.962,0.086,31.925,0.182,47.888,0.186c5.576,0.001,11.154,0.016,16.729-0.079
	c1.118-0.019,2.257-0.003,3.377-0.093c-0.081-0.026,0.266-0.196,0.729-0.749c0.597-0.712,1.162-1.449,1.695-2.21
	c8.506-12.158,14.932-26.238,20.678-39.861c1.138-2.698,13.248-31.492,7.037-32.011c-0.513-0.043-0.789-0.227-0.897-0.471
	c-0.25,0.003-0.5,0.009-0.749,0.013c-26.556,0.422-53.267,0.182-79.778,1.857c-3.158,0.199-3.164,0.249-5.634,3.164
	C249.755,415.593,247.539,418.898,245.532,422.308z M210.392,339.392c-0.47,0.133-1.033,0.222-1.398-0.002
	c-1.066-0.653-2.15-0.828-3.297-0.29c-0.581,0.272-1.381,0.523-2.027,0.363s0.1-0.666,0.348-0.782
	c0.422-0.198,0.865-0.371,1.314-0.53c-7.966-2.434-15.055-7.055-18.828-14.247c-2.524,9.439-9.562,15.641-14.76,24.001
	c0.02,0.035,0.043,0.061,0.063,0.096c0.115,0.209-0.134,0.464-0.526,0.677c-0.178,0.297-0.361,0.587-0.534,0.891
	c-0.645,1.135-3.594,1.076-2.777-0.358c0.125-0.22,0.26-0.429,0.388-0.646c-0.039-0.329-0.113-0.674-0.252-0.991
	c-0.673-0.851-1.499-1.559-2.411-2.01c-0.697-0.282-1.568-0.468-2.601-0.502c-0.813,0.09-1.64,0.415-2.445,1.045
	c-2.414,1.889-3.865,4.902-3.144,7.99c1.535,6.574,8.275,7.077,13.95,7.094c1.337,0.004,0.708,0.664-0.114,1.075
	c0.046,0.126,0.088,0.276,0.125,0.449c0.467-0.025,0.833,0.058,0.842,0.286c0.276,7.569-2.409,14.506-4.514,21.658
	c-0.015,0.051-0.04,0.1-0.074,0.147c4,7.028,15.261,6.561,22.368,3.769c-0.109-0.07-0.179-0.166-0.179-0.297
	c0-5.386,0-10.771,0-16.157c-1.293-0.055-2.601-0.179-3.921-0.38c-1.688-0.257,0.72-1.858,1.74-1.702
	c18.562,2.832,25.146-14.038,26.175-29.491c0.015-0.224,0.156-0.422,0.363-0.588C212.971,339.82,211.677,339.633,210.392,339.392z
	 M181.011,302.704c-1.539-0.045-3.068,0.056-4.572,0.317C177.938,302.835,179.471,302.73,181.011,302.704z M478.906,107.231
	c-101.699,0-203.399,0-305.1,0c0,65.005,0,130.011,0,195.016c3.318-1.052,6.903-1.431,10.674-0.924
	c3.82,0.513,7.639,1.645,11.206,3.324c2.736,0.9,5.119,2.478,7.182,4.447c0.102,0.081,0.208,0.156,0.309,0.238
	c0.048-0.007,0.091-0.012,0.125-0.012c14.875,0,29.751,0,44.627,0c-6.48-9.904-9.551-21.437-15.172-31.779
	c-3.045-5.602-6.768-10.824-11.996-14.594c-5.299-3.821-11.432-6.109-16.866-9.686c-2.631-1.731-16.959-11.707-13.546-15.637
	c0.999-1.151,2.188-1.675,3.455-1.761c-2.631-3.684-4.277-7.713-0.65-9.497c2.455-1.207,4.572-0.396,6.535,1.13
	c-2.187-3.854-3.359-7.73-0.021-9.343c3.449-1.667,6.306,0.737,8.859,3.792c-1.833-4.27-2.582-8.591,1.453-9.689
	c8.303-2.26,11.913,10.155,15.539,15.704c0.286-0.783,0.571-1.57,0.851-2.372c1.009-2.898,1.329-5.86,2.129-8.807
	c0.579-2.131,3.065-6.681,5.794-3.671c4.367,4.816,2.934,12.276,3.521,18.236c0.667,6.763,3.59,14.201,2.186,21.031
	c0.293,0.044,0.545,0.166,0.689,0.395c2.738,4.368,6.88,7.999,10.57,11.534c5.684,5.443,11.504,10.739,17.221,16.146
	c5.483,5.186,11.022,10.401,15.958,16.122c2.652,3.074,6.128,6.764,6.868,10.929c0.23,1.298-2.676,2.028-2.898,0.776
	c-0.85-4.788-5.383-9.179-8.535-12.593c-5.019-5.434-10.372-10.548-15.766-15.605c-5.411-5.072-10.902-10.063-16.227-15.227
	c-3.375-3.271-7.115-6.604-9.685-10.591c-0.763,0.111-1.472-0.087-1.303-0.726c1.546-5.871-0.667-12.437-1.568-18.27
	c-0.777-5.032-0.308-10.174-1.136-15.185c-0.209-1.269-1.781-7.25-2.555-4.398c-0.539,1.983-0.83,4.008-1.267,6.013
	c-1.428,6.565-4.893,12.283-5.527,19.104c-0.106,1.142-3.042,1.637-2.916,0.292c0.366-3.939,1.529-7.445,2.819-11.003
	c-0.579,0.134-1.18,0.085-1.443-0.272c-1.898-2.576-3.165-5.587-4.773-8.343c-1.475-2.524-3.402-6.244-6.289-7.402
	c-4.164-1.671-0.962,6.417-0.338,7.777c1.201,2.616,2.62,5.106,4.025,7.614c0.554,0.988-1.331,1.819-2.266,1.501
	c-0.393,0.072-0.777,0.05-1.039-0.121c-1.901-1.242-3.275-3.308-4.699-5.031c-1.611-1.949-3.899-5.475-6.503-6.147
	c-1.57-0.406-0.231,3.797-0.054,4.205c0.67,1.537,1.49,2.993,2.398,4.401c1.41,2.185,3.041,4.271,4.326,6.537
	c0.043,0.018,0.087,0.039,0.131,0.055c0.287,0.104,0.3,0.265,0.159,0.439c0.001,0.003,0.003,0.005,0.005,0.008
	c0.668,1.251-2.123,2.242-2.668,1.223c-0.116-0.218-0.274-0.476-0.462-0.764c-2.56-1.766-10.31-9.054-10.688-8.523
	c-1.742,2.449,1.155,6.313,2.572,8.205c0.413,0.551,0.837,1.094,1.27,1.628c2.348,1.248,4.508,3.211,5.798,4.758
	c0.685,0.822-2.093,1.834-2.699,1.107c-0.046-0.055-0.102-0.103-0.149-0.158c-0.606,0.183-1.257,0.222-1.525-0.049
	c-0.742-0.748-2.142-2.144-3.607-3.83c-1.769-0.913-3.769-1.716-3.422-0.444c0.831,3.044,4.061,5.723,6.311,7.781
	c6.915,6.328,15.565,9.264,23.048,14.659c15.991,11.532,18.26,31.808,28.545,47.434c0.238,0.362-0.036,0.72-0.488,0.983
	c21.735,0,43.471,0,65.206,0c-0.024-0.077-0.036-0.16-0.02-0.26c0.009-0.057,0.016-0.113,0.024-0.169
	c2.377-14.516,2.553-29.26,4.476-43.831c0.137-1.038,3.064-1.553,2.904-0.339c-1.93,14.627-2.098,29.429-4.5,44
	c-0.01,0.061-0.053,0.113-0.081,0.169c-0.078,0.159-0.201,0.307-0.383,0.429c29.493,0,58.986,0,88.479,0
	c-0.028-0.143-0.049-0.286-0.076-0.429c-2.303-11.995-2.823-24.161-2.851-36.354c-0.002-1.126,2.914-1.67,2.918-0.291
	c0.025,12.298,0.567,24.558,2.97,36.646c0.008,0.037,0.013,0.075,0.021,0.112c0.021,0.111,0.011,0.216-0.015,0.317
	c12.111,0,24.223,0,36.335,0c-0.027-0.143-0.044-0.286-0.069-0.429c-1.034-5.844-0.913-11.709-0.99-17.652
	c-0.087-6.75-0.917-13.374-2.387-19.964c-1.454-6.524-3.265-12.954-4.892-19.436c-1.096-4.367-2.02-8.724-4.92-12.323
	c-9.964-12.366-28.374-14.611-43.641-14.915c-0.37-0.007-0.74-0.015-1.106-0.02c0.021,0.124,0.033,0.248,0.052,0.371
	c0.945,6.238-1.227,12.579-6.967,17.175c-6.106,4.89-11.583,1.708-16.619-2.74c-4.039,3.209-12.98,11.45-16.742,6.997
	c-3.159-3.74-2.049-10.282-0.755-14.502c0.789-2.573,1.991-4.98,3.271-7.358c-0.414,0.366-1.077,0.698-1.564,0.699
	c-11.338,0.026-23.728,0.332-34.307,4.883c-5.97,2.568-9.905,6.365-13.48,11.035c-1.205,1.573-2.368,3.244-3.555,5.001
	c-1.994,2.952-3.932,5.952-5.798,8.998c-2.655,4.334-5.157,8.763-7.423,13.301c-2.126,4.26-6.928,12.052-5.504,17.251
	c0.266,0.007,0.535,0.021,0.804,0.033c6.786,0.291,14.446,1.876,21.044,5.088c7.177,3.495,13.092,8.911,15.229,16.69
	c0.065,0.239-0.115,0.471-0.41,0.664c-0.764,0.502-2.316,0.737-2.488,0.112c-3.977-14.476-21.563-20.713-35.26-21.145
	c-0.733,0.214-1.566,0.171-1.74-0.355c-0.563-1.715-0.467-3.679,0.002-5.713c0.037-0.165,0.085-0.331,0.128-0.497
	c1.138-4.405,3.901-9.068,5.495-12.202c4.514-8.87,9.681-17.501,15.505-25.577c5.144-7.131,10.416-11.821,18.892-14.873
	c4.451-1.604,9.095-2.615,13.81-3.26c0.796-0.108,1.593-0.208,2.393-0.297c5.923-0.656,11.928-0.788,17.786-0.801
	c0.512-0.001,0.75,0.113,0.81,0.28c1.53-2.811,3.127-5.597,4.255-8.576c0.131-0.346,0.506-0.599,0.941-0.735
	c0.02-0.37,0.041-0.739,0.051-1.109c0.032-1.178,0.145-11.067-2.598-11.118c-2.422-0.044-4.41-1.324-6.546-2.349
	c-2.354-1.13-5.15-2.209-6.999-4.14c-3.383-3.533-4.108-9.131-3.891-14.354c-0.058-0.001-0.113,0.008-0.171,0.005
	c-7.146-0.293-7.755-9.961-6.56-15.161c1.479-6.438,5.398-11.738,12.146-12.567c0.509-2.695,0.896-5.412,1.049-8.175
	c0.006-0.11,0.051-0.213,0.116-0.311c-2.928,0.117-5.855,0.212-8.785,0.228c-0.647,0.003-1.02-0.232-1.173-0.547
	c-0.854,0.212-1.804,0.157-1.646-0.324c4.493-13.645,20.253-20.929,35.785-21.261c4.203-0.613,8.217-0.031,11.828,1.148
	c7.073,1.604,13.401,4.864,17.682,9.864c0.095,0.11,0.101,0.229,0.053,0.346c10.186-1.016,17.668,3.795,18.153,15.061
	c0.453,10.526-3.884,22.36-10.201,30.697c-0.186,0.245-0.581,0.429-1.019,0.538c1.119,1.552,1.854,3.418,1.943,5.453
	c0.238,5.393-4.365,9.875-9.513,10.888c-3.005,0.592-6.36-0.71-8.251,2.255c-2.936,4.601-3.958,9.795-3.551,15.195
	c0.006,0.077-0.001,0.15-0.014,0.221c1.98,2.56,3.333,5.358,4.034,8.214c15.392,0.101,36.672,1.515,47.068,14.417
	c2.847,3.533,4.229,7.276,5.324,11.64c1.627,6.481,3.487,12.913,4.941,19.437c1.601,7.182,2.754,14.367,2.782,21.741
	c0.025,6.34-0.076,12.629,1.209,18.858c5.076,0,10.151,0,15.227,0c0-63.863,0-127.727,0-191.59c0-0.097,0.037-0.187,0.093-0.272
	c-0.013,0.001-0.029,0.004-0.04,0.004c-91.713,0-183.427,0-275.141,0c0,61.014,0,122.027,0,183.041c0,0.966-2.898,1.443-2.898,0.776
	c0-61.183,0-122.366,0-183.549c0-0.851,2.249-1.322,2.783-0.965c0.538-0.238,1.17-0.445,1.418-0.445c91.909,0,183.818,0,275.729,0
	c0.52,0,0.473,0.157,0.181,0.354c0.439-0.015,0.774,0.069,0.774,0.279c0,64.683,0,129.366,0,194.049
	c0,0.934-2.898,1.397-2.898,0.776c0-0.439,0-0.878,0-1.317c-5.101,0-10.201,0-15.302,0c-0.647,0.585-2.552,0.935-2.69,0.317
	c-0.023-0.105-0.039-0.212-0.062-0.317c-80.454,0-160.908,0-241.362,0c1.9,1.723,3.594,3.658,5.004,5.799
	c1.049,1.592,1.784,3.4,2.393,5.289c89.008,0,178.018,0,267.026,0C478.906,250.109,478.906,178.67,478.906,107.231z M350.44,245.34
	c0.451,0.164,1.016,0.126,1.732-0.229c0.453-0.225,0.884-0.484,1.316-0.741c0.759-0.451,1.501-0.93,2.216-1.456
	c1.604-1.182,3.18-2.403,4.786-3.58c-0.137-0.313-0.059-0.712,0.396-1.138c0.155-0.146,0.306-0.297,0.46-0.444
	c-2.288-3.197-4.547-6.405-6.139-9.991c-0.46-0.049-0.813-0.26-0.804-0.702c0.009-0.39,0.029-0.779,0.048-1.168
	c-0.014-0.039-0.031-0.075-0.045-0.114c-0.076-0.216-0.037-0.421,0.079-0.603c0.094-1.533,0.247-3.062,0.407-4.589
	c-3.42,6.578-7.746,13.135-6.354,20.743C348.789,242.699,349.144,244.868,350.44,245.34z M344.809,145.22
	c-0.131,2.367-0.449,4.694-0.87,6.998c6.297,0.637,7.652,6.909,6.055,13.496c0.008,0.002,0.017,0.002,0.024,0.005
	c2.394,0.925,4.81,1.365,7.372,1.398c2.045-4.861,5.816-8.489,11.555-8.957c1.931-0.158-0.247,1.383-1.176,1.459
	c-9.754,0.796-13.341,25.552-3.13,24.914c8.414-0.527,16.07-25.857,5.13-26.414c-1.949-0.099,0.201-1.508,1.176-1.459
	c7.965,0.405,8.543,9.351,5.349,17.254c0.217-0.061,0.4-0.097,0.509-0.093c1.067,0.035,2.111,0.166,3.141,0.354
	c0.01-0.118,0.023-0.236,0.034-0.354c-0.795-8.29,2.983-21.043,4.237-24.981c-7.49-3.67-16.531-4.156-24.69-4.152
	c-4.913,0.002-9.817,0.234-14.724,0.446C344.802,145.164,344.811,145.189,344.809,145.22z M343.622,153.857
	c-1.429,7.012-3.686,13.847-4.621,20.981c-0.205,1.568-0.391,3.216-0.497,4.884C345.958,176.945,351.998,156.276,343.622,153.857z
	 M340.602,155.047c-0.12,0.037-0.234,0.064-0.333,0.073c-9.198,0.751-12.906,22.801-4.735,24.775
	c0.127-1.665,0.331-3.268,0.563-4.716C337.185,168.377,339.233,161.775,340.602,155.047z M345.586,197.018
	c2.751,1.388,5.656,3.271,8.739,3.602c1.576,0.169,2.479,2.067,2.98,3.383c2.529,6.639,0.494,14.223,0.07,21.179
	c1.405,3.869,3.695,7.229,6.066,10.554c6.248-6.153,11.961-12.847,17-20.027c0.006-0.076,0.041-0.152,0.105-0.228
	c-0.09-0.135-0.147-0.298-0.162-0.491c-0.563-7.459,1.853-20.281,11.396-19.549c6.396,0.491,12.496-5.923,8.865-12.039
	c-1.303-2.193-3.557-4.322-5.732-4.625c-1.476,0.588-2.93,1.619-3.981,2.471c-0.062,0.115-0.127,0.21-0.186,0.333
	c-0.185,0.39-0.612,0.646-1.084,0.766c-0.197,0.184-0.308,0.294-0.308,0.294l-3.475,1.861c-0.621,0.551-1.245,1.1-1.853,1.667
	c-0.491,0.46-2.298,1.094-2.622,0.109c-1.215-3.689-1.665-7.18-1.555-10.545c-1.321-0.338-2.658-0.604-4.031-0.719
	c-2.742,6.032-7.645,11.171-13.052,10.949c-7.146-0.293-7.755-9.961-6.56-15.161c0.172-0.749,0.382-1.48,0.621-2.194
	c-0.191,0.034-0.38,0.053-0.552,0.051c-2.351-0.026-4.618-0.355-6.837-1.017c-1.936,5.931-6.088,11.666-11.004,13.332
	C338.199,187.399,339.388,193.89,345.586,197.018z M373.675,243.152c0.002,0,0.004,0.002,0.006,0.002
	c1.385,0.397,2.718,0.067,3.945-0.655c2.463-1.448,4.494-4.501,5.607-6.622c1.986-3.783,2.352-7.663,1.515-11.372
	c-0.327-0.086-0.311-0.271-0.113-0.474c-0.536-2.11-1.462-4.16-2.702-6.099c-4.967,6.897-10.552,13.311-16.619,19.257
	c0.051,0.021,0.098,0.043,0.143,0.067c0.104,0.025,0.196,0.063,0.261,0.122C367.966,239.457,370.628,242.274,373.675,243.152z
	 M362.407,168.278c-0.032,1.153-0.486,2.322-0.985,3.348c-0.253,0.521,1.017,0.398,1.185,0.371c0.527-0.087,1.422-0.301,1.685-0.842
	c0.552-1.136,0.979-2.38,1.015-3.652C365.321,166.934,362.434,167.354,362.407,168.278z M341.894,163.518c0,0.667,0,1.333,0,2
	c0,0.709,0.708,0.926,1.318,0.872c0.533-0.046,1.607-0.431,1.607-1.127c0-0.667,0-1.333,0-2c0-0.709-0.708-0.926-1.318-0.872
	C342.968,162.437,341.894,162.822,341.894,163.518z M346.288,150.195c1,0,2,0,3,0c0.651,0,1.516-0.219,1.915-0.784
	c0.396-0.56-0.333-0.826-0.778-0.826c-1,0-2,0-3,0c-0.651,0-1.516,0.219-1.915,0.784
	C345.114,149.929,345.843,150.195,346.288,150.195z M367.563,152.161c1.578-0.344,3.3,0.115,4.646,0.953
	c0.85,0.529,3.513-0.688,2.293-1.448c-2.182-1.359-4.885-1.584-7.354-1.047c-0.442,0.097-1.405,0.549-1.242,1.159
	C366.079,152.417,367.119,152.258,367.563,152.161z M347.976,182.703c0.962,0.285,3.415-1.134,1.762-1.625
	c-1.114-0.331-2.897-0.757-3.376-1.993c-0.309-0.799,0.608-1.661,1.101-2.145c1.668-1.638,3.772-2.791,5.563-4.286
	c0.485-0.405,0.291-0.946-0.288-1.076c-0.705-0.159-1.506,0.095-2.05,0.549c-2.208,1.844-4.914,3.209-6.675,5.541
	C341.856,180.52,345.833,182.067,347.976,182.703z M356.703,191.09c3.502,1.635,7.154,1.607,10.552-0.271
	c0.404-0.223,0.868-0.837,0.255-1.129c-0.638-0.304-1.476-0.047-2.052,0.271c-2.127,1.176-4.346,0.709-6.448-0.271
	C358.156,189.291,355.498,190.528,356.703,191.09z" fill="#1f2937"></path>
</svg>