<svg width="388" height="100" viewBox="0 0 388 100" fill="none" xmlns="http://www.w3.org/2000/svg">
<g clip-path="url(#clip0_4_3)">
<path d="M50 0C50 27.6146 27.6146 50 0 50C27.6146 50 50 72.3854 50 100C50 72.3854 72.3854 50 100 50C72.3854 50 50 27.6146 50 0Z" fill="#F4BC33"/>
</g>
<path d="M99.4717 46V13.8101H106.503L116.237 37.0571L126.037 13.8101H132.98V46H127.487V30.0918L127.663 20.9731L126.85 23.3901L118.61 43.8027H113.512L105.448 23.2803L104.635 20.8633L104.833 30.1797V46H99.4717ZM145.768 46.4614C143.527 46.4614 141.71 45.8462 140.319 44.6157C138.942 43.3706 138.253 41.5835 138.253 39.2544C138.253 36.7495 139.074 34.8965 140.714 33.6953C142.355 32.4795 144.831 31.7104 148.141 31.3882C148.595 31.3296 149.086 31.271 149.613 31.2124C150.141 31.1538 150.734 31.0952 151.393 31.0366C152.052 30.978 152.572 30.9268 152.953 30.8828V29.6084C152.953 28.1436 152.616 27.0815 151.942 26.4224C151.269 25.7485 150.243 25.4116 148.866 25.4116C146.903 25.4116 144.479 25.9609 141.593 27.0596C141.579 27.0156 141.337 26.3491 140.868 25.0601C140.399 23.771 140.158 23.1118 140.143 23.0825C142.985 21.8667 146.061 21.2588 149.372 21.2588C152.624 21.2588 154.989 21.9692 156.469 23.3901C157.948 24.7964 158.688 27.0815 158.688 30.2456V46H154.425C154.411 45.9414 154.25 45.4507 153.942 44.5278C153.634 43.605 153.48 43.1143 153.48 43.0557C152.279 44.2275 151.1 45.0918 149.943 45.6484C148.8 46.1904 147.409 46.4614 145.768 46.4614ZM147.328 42.3745C148.661 42.3745 149.818 42.0596 150.8 41.4297C151.796 40.7852 152.506 40.0088 152.931 39.1006V34.4424C152.887 34.4424 152.499 34.4717 151.767 34.5303C151.049 34.5889 150.661 34.6182 150.602 34.6182C148.273 34.8232 146.566 35.2627 145.482 35.9365C144.398 36.6104 143.856 37.6943 143.856 39.1885C143.856 40.2139 144.157 41.0049 144.757 41.5615C145.358 42.1035 146.215 42.3745 147.328 42.3745ZM174.135 46.3296C172.494 46.3296 171.125 46.1392 170.026 45.7583C168.942 45.3628 168.092 44.7476 167.477 43.9126C166.862 43.0776 166.422 42.0962 166.159 40.9683C165.91 39.8257 165.785 38.4194 165.785 36.7495V25.3457H161.83L162.05 22.2256L166.181 21.8521L168.026 15.3042L171.542 15.2822V21.8521H177.541V25.3457H171.542V36.8594C171.542 38.6904 171.806 39.9941 172.333 40.7705C172.86 41.5469 173.834 41.9351 175.255 41.9351C176.09 41.9351 176.984 41.8618 177.936 41.7153L178.09 45.8462C178.061 45.8462 177.877 45.8828 177.541 45.9561C177.218 46.0146 176.903 46.0659 176.596 46.1099C176.303 46.1685 175.922 46.2197 175.453 46.2637C174.984 46.3076 174.545 46.3296 174.135 46.3296ZM182.177 46V21.8521H187.011L187.758 25.5435C189.34 23.0093 191.632 21.7422 194.635 21.7422C195.265 21.7422 195.778 21.7715 196.173 21.8301L196.085 26.6421C195.5 26.5542 194.892 26.5103 194.262 26.5103C192.138 26.5103 190.548 27.0742 189.494 28.2021C188.454 29.3301 187.934 30.8975 187.934 32.9043V46H182.177ZM205.885 46.4614C203.644 46.4614 201.828 45.8462 200.436 44.6157C199.059 43.3706 198.371 41.5835 198.371 39.2544C198.371 36.7495 199.191 34.8965 200.832 33.6953C202.472 32.4795 204.948 31.7104 208.258 31.3882C208.712 31.3296 209.203 31.271 209.73 31.2124C210.258 31.1538 210.851 31.0952 211.51 31.0366C212.169 30.978 212.689 30.9268 213.07 30.8828V29.6084C213.07 28.1436 212.733 27.0815 212.06 26.4224C211.386 25.7485 210.36 25.4116 208.983 25.4116C207.021 25.4116 204.596 25.9609 201.71 27.0596C201.696 27.0156 201.454 26.3491 200.985 25.0601C200.517 23.771 200.275 23.1118 200.26 23.0825C203.102 21.8667 206.178 21.2588 209.489 21.2588C212.741 21.2588 215.106 21.9692 216.586 23.3901C218.065 24.7964 218.805 27.0815 218.805 30.2456V46H214.542C214.528 45.9414 214.367 45.4507 214.059 44.5278C213.751 43.605 213.598 43.1143 213.598 43.0557C212.396 44.2275 211.217 45.0918 210.06 45.6484C208.917 46.1904 207.526 46.4614 205.885 46.4614ZM207.445 42.3745C208.778 42.3745 209.936 42.0596 210.917 41.4297C211.913 40.7852 212.624 40.0088 213.048 39.1006V34.4424C213.004 34.4424 212.616 34.4717 211.884 34.5303C211.166 34.5889 210.778 34.6182 210.719 34.6182C208.39 34.8232 206.684 35.2627 205.6 35.9365C204.516 36.6104 203.974 37.6943 203.974 39.1885C203.974 40.2139 204.274 41.0049 204.875 41.5615C205.475 42.1035 206.332 42.3745 207.445 42.3745ZM224.606 46V21.8521H229.242L229.879 24.9062C232.34 22.4746 235.072 21.2588 238.075 21.2588C240.888 21.2588 242.99 22.0718 244.381 23.6978C245.788 25.3091 246.491 27.6528 246.491 30.729V46H240.712V31.4321C240.697 29.4839 240.382 28.0264 239.767 27.0596C239.152 26.0928 238.046 25.6094 236.449 25.6094C235.204 25.6094 234.062 25.9316 233.021 26.5762C231.996 27.2061 231.249 28.0044 230.78 28.9712C230.502 30.1138 230.363 31.8716 230.363 34.2446V46H224.606ZM256.994 56.8105L256.664 52.1523H259.586C262.97 52.1523 265.336 51.6982 266.684 50.79C268.031 49.8965 268.705 48.2485 268.705 45.8462C268.705 44.8647 268.661 43.8027 268.573 42.6602C268.192 43.1875 267.826 43.627 267.475 43.9785C267.138 44.3154 266.706 44.6523 266.178 44.9893C265.666 45.3262 265.043 45.5825 264.311 45.7583C263.593 45.9194 262.772 46 261.85 46C258.656 46 256.027 44.8501 253.961 42.5503C251.911 40.2505 250.885 37.2842 250.885 33.6514C250.885 31.7178 251.171 29.96 251.742 28.3779C252.313 26.7812 253.09 25.4702 254.071 24.4448C255.053 23.4194 256.181 22.6357 257.455 22.0938C258.744 21.5371 260.114 21.2588 261.564 21.2588C264.801 21.2588 267.211 22.438 268.793 24.7964L269.188 21.8521H274.33V44.2861C274.33 45.4873 274.271 46.564 274.154 47.5161C274.037 48.4829 273.832 49.4058 273.539 50.2847C273.246 51.1782 272.858 51.9546 272.375 52.6138C271.906 53.2729 271.312 53.8735 270.595 54.4155C269.877 54.9575 269.027 55.397 268.046 55.7339C267.079 56.0854 265.951 56.3491 264.662 56.5249C263.373 56.7153 261.923 56.8105 260.312 56.8105H256.994ZM262.772 41.979C266.742 41.979 268.749 39.3203 268.793 34.0029V33.168C268.764 30.7803 268.266 28.9346 267.299 27.6309C266.332 26.3271 264.918 25.668 263.058 25.6533C260.949 25.6533 259.352 26.3784 258.268 27.8286C257.184 29.2642 256.642 31.2051 256.642 33.6514C256.642 36.0098 257.184 37.9873 258.268 39.584C259.367 41.1807 260.868 41.979 262.772 41.979ZM286.393 46.4614C284.152 46.4614 282.335 45.8462 280.944 44.6157C279.567 43.3706 278.878 41.5835 278.878 39.2544C278.878 36.7495 279.699 34.8965 281.339 33.6953C282.98 32.4795 285.456 31.7104 288.766 31.3882C289.22 31.3296 289.711 31.271 290.238 31.2124C290.766 31.1538 291.359 31.0952 292.018 31.0366C292.677 30.978 293.197 30.9268 293.578 30.8828V29.6084C293.578 28.1436 293.241 27.0815 292.567 26.4224C291.894 25.7485 290.868 25.4116 289.491 25.4116C287.528 25.4116 285.104 25.9609 282.218 27.0596C282.204 27.0156 281.962 26.3491 281.493 25.0601C281.024 23.771 280.783 23.1118 280.768 23.0825C283.61 21.8667 286.686 21.2588 289.997 21.2588C293.249 21.2588 295.614 21.9692 297.094 23.3901C298.573 24.7964 299.313 27.0815 299.313 30.2456V46H295.05C295.036 45.9414 294.875 45.4507 294.567 44.5278C294.259 43.605 294.105 43.1143 294.105 43.0557C292.904 44.2275 291.725 45.0918 290.568 45.6484C289.425 46.1904 288.034 46.4614 286.393 46.4614ZM287.953 42.3745C289.286 42.3745 290.443 42.0596 291.425 41.4297C292.421 40.7852 293.131 40.0088 293.556 39.1006V34.4424C293.512 34.4424 293.124 34.4717 292.392 34.5303C291.674 34.5889 291.286 34.6182 291.227 34.6182C288.898 34.8232 287.191 35.2627 286.107 35.9365C285.023 36.6104 284.481 37.6943 284.481 39.1885C284.481 40.2139 284.782 41.0049 285.382 41.5615C285.983 42.1035 286.84 42.3745 287.953 42.3745ZM105.448 81.2319H109.711C113.388 81.2319 116.186 80.2725 118.104 78.3535C120.023 76.4199 120.983 73.6074 120.983 69.916C120.983 65.9609 119.994 63.0898 118.017 61.3027C116.039 59.501 113.058 58.6001 109.074 58.6001H105.448V81.2319ZM99.4937 86V53.8101H108.81C111.623 53.8101 114.142 54.1323 116.369 54.7769C118.595 55.4214 120.507 56.3955 122.104 57.6992C123.715 58.9883 124.945 60.6582 125.795 62.709C126.659 64.7451 127.091 67.1035 127.091 69.7842C127.091 74.9844 125.524 78.9907 122.389 81.8032C119.254 84.6011 114.911 86 109.359 86H99.4937ZM143.351 86.4614C139.469 86.4614 136.444 85.3481 134.276 83.1216C132.123 80.8804 131.046 77.7896 131.046 73.8491C131.046 70.0112 132.064 66.957 134.101 64.6865C136.137 62.416 138.913 61.2734 142.428 61.2588C145.753 61.2588 148.332 62.2988 150.163 64.3789C152.008 66.459 152.931 69.2202 152.931 72.6626C152.931 72.9116 152.924 73.3145 152.909 73.8711C152.909 74.4277 152.909 74.8379 152.909 75.1016H136.847C136.906 77.3574 137.521 79.1079 138.693 80.353C139.879 81.5835 141.505 82.1987 143.571 82.1987C146.208 82.1987 148.742 81.5103 151.173 80.1333L151.986 84.2202C149.569 85.7144 146.691 86.4614 143.351 86.4614ZM136.957 71.4761H147.504C147.504 69.5132 147.057 68.0044 146.164 66.9497C145.27 65.895 144.032 65.3677 142.45 65.3677C140.971 65.3677 139.718 65.8804 138.693 66.9058C137.682 67.9312 137.104 69.4546 136.957 71.4761ZM164.313 86L154.689 61.8521H160.797C161.032 62.5112 161.771 64.562 163.017 68.0044C164.276 71.4321 165.111 73.7686 165.521 75.0137C166.356 77.4453 166.957 79.2837 167.323 80.5288C167.323 80.5142 167.448 80.0381 167.697 79.1006C167.946 78.1631 168.18 77.2842 168.4 76.4639C168.634 75.6289 168.781 75.1235 168.839 74.9478C168.854 74.9185 169.521 72.897 170.839 68.8833C172.172 64.8696 172.963 62.5259 173.212 61.8521H179.276L170.136 86H164.313ZM193.273 86.4614C189.391 86.4614 186.366 85.3481 184.198 83.1216C182.045 80.8804 180.968 77.7896 180.968 73.8491C180.968 70.0112 181.986 66.957 184.022 64.6865C186.059 62.416 188.834 61.2734 192.35 61.2588C195.675 61.2588 198.253 62.2988 200.084 64.3789C201.93 66.459 202.853 69.2202 202.853 72.6626C202.853 72.9116 202.846 73.3145 202.831 73.8711C202.831 74.4277 202.831 74.8379 202.831 75.1016H186.769C186.828 77.3574 187.443 79.1079 188.615 80.353C189.801 81.5835 191.427 82.1987 193.493 82.1987C196.129 82.1987 198.664 81.5103 201.095 80.1333L201.908 84.2202C199.491 85.7144 196.613 86.4614 193.273 86.4614ZM186.879 71.4761H197.426C197.426 69.5132 196.979 68.0044 196.085 66.9497C195.192 65.895 193.954 65.3677 192.372 65.3677C190.893 65.3677 189.64 65.8804 188.615 66.9058C187.604 67.9312 187.025 69.4546 186.879 71.4761ZM216.015 86.3296C214.359 86.3296 212.982 86.1392 211.884 85.7583C210.8 85.3628 209.943 84.7402 209.313 83.8906C208.683 83.041 208.244 82.0303 207.995 80.8584C207.746 79.6865 207.621 78.229 207.621 76.4858V52.9531L213.378 52.5796V76.376C213.378 78.5439 213.634 80.0161 214.147 80.7925C214.66 81.5542 215.656 81.9351 217.135 81.9351C217.868 81.9351 218.798 81.8545 219.926 81.6934L220.08 85.8022C220.065 85.8022 219.882 85.8389 219.53 85.9121C219.193 85.9854 218.864 86.0439 218.542 86.0879C218.234 86.1465 217.838 86.1978 217.355 86.2417C216.872 86.3003 216.425 86.3296 216.015 86.3296ZM233.329 82.0889C235.277 82.0889 236.742 81.3784 237.724 79.9575C238.705 78.5366 239.196 76.5005 239.196 73.8491C239.196 71.1685 238.705 69.125 237.724 67.7188C236.742 66.3125 235.263 65.6094 233.285 65.6094C231.337 65.6094 229.865 66.3198 228.869 67.7407C227.887 69.147 227.396 71.1904 227.396 73.8711C227.396 76.5078 227.895 78.5366 228.891 79.9575C229.887 81.3784 231.366 82.0889 233.329 82.0889ZM233.175 86.4614C229.601 86.4614 226.789 85.3042 224.738 82.9897C222.687 80.6753 221.662 77.6284 221.662 73.8491C221.662 69.9526 222.687 66.8838 224.738 64.6426C226.789 62.3867 229.682 61.2588 233.417 61.2588C237.021 61.2588 239.84 62.4087 241.876 64.7085C243.927 66.9937 244.953 70.0405 244.953 73.8491C244.953 77.7017 243.92 80.7705 241.854 83.0557C239.789 85.3262 236.896 86.4614 233.175 86.4614ZM249.655 96.0415V61.8521H254.599L255.214 65.2358C256.005 63.9614 257.052 62.98 258.356 62.2915C259.674 61.5884 261.139 61.2368 262.75 61.2368C264.728 61.2368 266.464 61.7861 267.958 62.8848C269.467 63.9834 270.609 65.4849 271.386 67.3892C272.162 69.2788 272.55 71.4175 272.55 73.8052C272.55 77.5405 271.642 80.5874 269.826 82.9458C268.024 85.2896 265.578 86.4614 262.487 86.4614C260.963 86.4614 259.579 86.1611 258.334 85.5605C257.104 84.9453 256.071 84.1177 255.236 83.0776C255.353 85.187 255.412 86.3735 255.412 86.6372V95.7559L249.655 96.0415ZM261.256 82.0669C262.97 82.0669 264.318 81.3491 265.299 79.9136C266.295 78.478 266.793 76.4272 266.793 73.7612C266.793 71.0513 266.295 69.0151 265.299 67.6528C264.303 66.2905 262.919 65.6094 261.146 65.6094C257.338 65.6094 255.412 68.2021 255.368 73.3877C255.368 76.376 255.858 78.5732 256.84 79.9795C257.836 81.3711 259.308 82.0669 261.256 82.0669ZM277.252 86V61.8521H281.911L282.57 64.9282C282.863 64.562 283.141 64.2397 283.405 63.9614C283.683 63.6685 284.057 63.3462 284.525 62.9946C285.009 62.6284 285.514 62.3281 286.042 62.0938C286.583 61.8594 287.243 61.6616 288.019 61.5005C288.81 61.3394 289.652 61.2588 290.546 61.2588C292.465 61.2588 293.996 61.647 295.138 62.4233C296.295 63.1997 297.108 64.1079 297.577 65.1479C298.441 63.9028 299.562 62.9434 300.939 62.2695C302.316 61.5957 303.847 61.2588 305.531 61.2588C308.3 61.2588 310.329 62.0425 311.618 63.6099C312.921 65.1772 313.573 67.499 313.573 70.5752V86H307.794V72.2891C307.794 69.9307 307.531 68.2314 307.003 67.1914C306.491 66.1367 305.502 65.6094 304.037 65.6094C301.796 65.6094 300.185 66.6201 299.203 68.6416C298.793 69.5352 298.515 70.6118 298.368 71.8716V86H292.611V72.0254C292.611 69.8721 292.326 68.2681 291.754 67.2134C291.183 66.1587 290.15 65.6313 288.656 65.6313C287.44 65.6313 286.393 65.939 285.514 66.5542C284.635 67.1694 283.969 67.9751 283.515 68.9712C283.178 70.4507 283.009 72.2231 283.009 74.2886V86H277.252ZM330.426 86.4614C326.544 86.4614 323.52 85.3481 321.352 83.1216C319.198 80.8804 318.122 77.7896 318.122 73.8491C318.122 70.0112 319.14 66.957 321.176 64.6865C323.212 62.416 325.988 61.2734 329.503 61.2588C332.829 61.2588 335.407 62.2988 337.238 64.3789C339.083 66.459 340.006 69.2202 340.006 72.6626C340.006 72.9116 339.999 73.3145 339.984 73.8711C339.984 74.4277 339.984 74.8379 339.984 75.1016H323.922C323.981 77.3574 324.596 79.1079 325.768 80.353C326.955 81.5835 328.581 82.1987 330.646 82.1987C333.283 82.1987 335.817 81.5103 338.249 80.1333L339.062 84.2202C336.645 85.7144 333.766 86.4614 330.426 86.4614ZM324.032 71.4761H334.579C334.579 69.5132 334.132 68.0044 333.239 66.9497C332.345 65.895 331.107 65.3677 329.525 65.3677C328.046 65.3677 326.793 65.8804 325.768 66.9058C324.757 67.9312 324.179 69.4546 324.032 71.4761ZM344.708 86V61.8521H349.345L349.982 64.9062C352.443 62.4746 355.175 61.2588 358.178 61.2588C360.99 61.2588 363.092 62.0718 364.484 63.6978C365.89 65.3091 366.593 67.6528 366.593 70.729V86H360.814V71.4321C360.8 69.4839 360.485 68.0264 359.87 67.0596C359.254 66.0928 358.148 65.6094 356.552 65.6094C355.307 65.6094 354.164 65.9316 353.124 66.5762C352.099 67.2061 351.352 68.0044 350.883 68.9712C350.604 70.1138 350.465 71.8716 350.465 74.2446V86H344.708ZM381.908 86.3296C380.268 86.3296 378.898 86.1392 377.799 85.7583C376.715 85.3628 375.866 84.7476 375.25 83.9126C374.635 83.0776 374.196 82.0962 373.932 80.9683C373.683 79.8257 373.559 78.4194 373.559 76.7495V65.3457H369.604L369.823 62.2256L373.954 61.8521L375.8 55.3042L379.315 55.2822V61.8521H385.314V65.3457H379.315V76.8594C379.315 78.6904 379.579 79.9941 380.106 80.7705C380.634 81.5469 381.608 81.9351 383.029 81.9351C383.864 81.9351 384.757 81.8618 385.709 81.7153L385.863 85.8462C385.834 85.8462 385.651 85.8828 385.314 85.9561C384.992 86.0146 384.677 86.0659 384.369 86.1099C384.076 86.1685 383.695 86.2197 383.227 86.2637C382.758 86.3076 382.318 86.3296 381.908 86.3296Z" fill="white"/>
<defs>
<clipPath id="clip0_4_3">
<rect width="100" height="100" fill="white"/>
</clipPath>
</defs>
</svg>
