<svg xmlns="http://www.w3.org/2000/svg" xmlns:xlink="http://www.w3.org/1999/xlink" width="100" zoomAndPan="magnify" viewBox="0 0 75 74.999997" height="100" preserveAspectRatio="xMidYMid meet" version="1.0"><defs><g/><clipPath id="7d261f609a"><path d="M 2.351562 16.363281 L 13.601562 16.363281 L 13.601562 58.363281 L 2.351562 58.363281 Z M 2.351562 16.363281 " clip-rule="nonzero"/></clipPath><clipPath id="afd7d5489c"><path d="M 61.398438 16.632812 L 72.648438 16.632812 L 72.648438 58.632812 L 61.398438 58.632812 Z M 61.398438 16.632812 " clip-rule="nonzero"/></clipPath></defs><g fill="#ffffff" fill-opacity="1"><g transform="translate(40.169647, 45.334971)"><g><path d="M 16.359375 -1.390625 C 15.679688 -0.835938 14.796875 -0.4375 13.703125 -0.1875 C 12.609375 0.0625 11.398438 0.1875 10.078125 0.1875 C 9.421875 0.1875 8.476562 0.175781 7.25 0.15625 C 6.019531 0.132812 4.476562 0.101562 2.625 0.0625 L 2.40625 -0.15625 L 2.40625 -21.40625 L 2.625 -21.625 C 3.84375 -21.664062 5.109375 -21.695312 6.421875 -21.71875 C 7.742188 -21.738281 9.128906 -21.75 10.578125 -21.75 C 12.367188 -21.75 13.863281 -21.460938 15.0625 -20.890625 C 16.257812 -20.328125 17.21875 -19.550781 17.9375 -18.5625 C 18.65625 -17.570312 19.160156 -16.410156 19.453125 -15.078125 C 19.742188 -13.742188 19.890625 -12.304688 19.890625 -10.765625 C 19.890625 -8.660156 19.644531 -6.835938 19.15625 -5.296875 C 18.675781 -3.765625 17.742188 -2.460938 16.359375 -1.390625 Z M 10.546875 -3.75 C 13.328125 -3.75 14.71875 -6.085938 14.71875 -10.765625 C 14.71875 -15.460938 13.328125 -17.8125 10.546875 -17.8125 C 9.867188 -17.8125 9.269531 -17.8125 8.75 -17.8125 C 8.238281 -17.8125 7.796875 -17.820312 7.421875 -17.84375 L 7.421875 -3.71875 C 7.796875 -3.738281 8.238281 -3.75 8.75 -3.75 C 9.269531 -3.75 9.867188 -3.75 10.546875 -3.75 Z M 10.546875 -3.75 "/></g></g></g><g clip-path="url(#7d261f609a)"><path fill="#ffffff" d="M 13.46875 58.363281 L 2.441406 58.363281 L 2.441406 16.363281 L 13.46875 16.363281 L 13.46875 21.304688 L 7.34375 21.304688 L 7.34375 53.421875 L 13.46875 53.421875 L 13.46875 58.363281 " fill-opacity="1" fill-rule="nonzero"/></g><g fill="#ffffff" fill-opacity="1"><g transform="translate(13.765287, 45.346086)"><g><path d="M 1.734375 -0.0625 L 3.421875 -21.59375 C 4.347656 -21.769531 5.441406 -21.859375 6.703125 -21.859375 C 7.972656 -21.859375 9.085938 -21.769531 10.046875 -21.59375 L 11.90625 -13.84375 C 12.644531 -10.332031 13.035156 -8.421875 13.078125 -8.109375 L 13.296875 -8.109375 C 13.378906 -8.640625 13.769531 -10.550781 14.46875 -13.84375 L 16.375 -21.59375 C 17.300781 -21.769531 18.394531 -21.859375 19.65625 -21.859375 C 20.925781 -21.859375 22.039062 -21.769531 23 -21.59375 L 24.671875 -0.0625 C 24.015625 0.101562 23.207031 0.1875 22.25 0.1875 C 21.289062 0.1875 20.503906 0.132812 19.890625 0.03125 L 19.390625 -8.765625 C 19.234375 -12.273438 19.144531 -14.71875 19.125 -16.09375 L 18.9375 -16.09375 L 15.796875 -3.203125 C 15.035156 -3.078125 14.164062 -3.015625 13.1875 -3.015625 C 12.207031 -3.015625 11.335938 -3.078125 10.578125 -3.203125 L 7.46875 -16.09375 L 7.25 -16.09375 C 7.25 -14.207031 7.164062 -11.765625 7 -8.765625 L 6.53125 0.03125 C 5.914062 0.132812 5.125 0.1875 4.15625 0.1875 C 3.195312 0.1875 2.390625 0.101562 1.734375 -0.0625 Z M 1.734375 -0.0625 "/></g></g></g><g clip-path="url(#afd7d5489c)"><path fill="#ffffff" d="M 61.53125 16.632812 L 72.558594 16.632812 L 72.558594 58.632812 L 61.53125 58.632812 L 61.53125 53.691406 L 67.65625 53.691406 L 67.65625 21.574219 L 61.53125 21.574219 L 61.53125 16.632812 " fill-opacity="1" fill-rule="nonzero"/></g></svg>