<svg xmlns="http://www.w3.org/2000/svg" xmlns:xlink="http://www.w3.org/1999/xlink" id="visual" width="900" height="600" version="1.1" viewBox="0 0 900 600"><g stroke-linejoin="bevel" stroke-width="1"><path fill="#001934" stroke="#001934" d="M387 271L367 215L294 324Z"/><path fill="#001934" stroke="#001934" d="M367 215L237 289L294 324Z"/><path fill="#001220" stroke="#001220" d="M367 215L327 169L237 289Z"/><path fill="#001b3c" stroke="#001b3c" d="M327 169L238 176L237 289Z"/><path fill="#00101c" stroke="#00101c" d="M201 373L282 386L294 324Z"/><path fill="#001d44" stroke="#001d44" d="M294 324L413 397L387 271Z"/><path fill="#001a38" stroke="#001a38" d="M327 169L290 121L238 176Z"/><path fill="#001d44" stroke="#001d44" d="M428 139L290 121L327 169Z"/><path fill="#001830" stroke="#001830" d="M282 386L413 397L294 324Z"/><path fill="#001934" stroke="#001934" d="M237 289L201 373L294 324Z"/><path fill="#011424" stroke="#011424" d="M137 415L201 373L61 300Z"/><path fill="#00172c" stroke="#00172c" d="M479 165L428 139L367 215Z"/><path fill="#00172c" stroke="#00172c" d="M367 215L428 139L327 169Z"/><path fill="#011528" stroke="#011528" d="M479 165L367 215L387 271Z"/><path fill="#001a38" stroke="#001a38" d="M537 281L479 165L387 271Z"/><path fill="#011424" stroke="#011424" d="M413 397L537 281L387 271Z"/><path fill="#001220" stroke="#001220" d="M290 121L194 87L238 176Z"/><path fill="#001d44" stroke="#001d44" d="M61 300L201 373L237 289Z"/><path fill="#00172c" stroke="#00172c" d="M270 0L194 87L290 121Z"/><path fill="#001830" stroke="#001830" d="M61 300L237 289L61 176Z"/><path fill="#011424" stroke="#011424" d="M199 527L310 528L282 386Z"/><path fill="#00172c" stroke="#00172c" d="M282 386L366 521L413 397Z"/><path fill="#001220" stroke="#001220" d="M502 529L523 390L413 397Z"/><path fill="#011424" stroke="#011424" d="M413 397L523 390L537 281Z"/><path fill="#001d44" stroke="#001d44" d="M581 295L577 238L537 281Z"/><path fill="#001934" stroke="#001934" d="M537 281L577 238L479 165Z"/><path fill="#001c40" stroke="#001c40" d="M310 528L366 521L282 386Z"/><path fill="#001d44" stroke="#001d44" d="M523 390L581 295L537 281Z"/><path fill="#011424" stroke="#011424" d="M61 176L237 289L238 176Z"/><path fill="#001220" stroke="#001220" d="M194 87L118 96L238 176Z"/><path fill="#001b3c" stroke="#001b3c" d="M199 527L282 386L201 373Z"/><path fill="#00101c" stroke="#00101c" d="M415 0L270 0L290 121Z"/><path fill="#001d44" stroke="#001d44" d="M194 87L184 0L118 96Z"/><path fill="#00101c" stroke="#00101c" d="M415 0L290 121L428 139Z"/><path fill="#011424" stroke="#011424" d="M507 63L428 139L479 165Z"/><path fill="#001934" stroke="#001934" d="M608 97L507 63L479 165Z"/><path fill="#00101c" stroke="#00101c" d="M118 96L61 176L238 176Z"/><path fill="#001d44" stroke="#001d44" d="M0 422L135 469L137 415Z"/><path fill="#001d44" stroke="#001d44" d="M137 415L135 469L201 373Z"/><path fill="#001220" stroke="#001220" d="M507 63L415 0L428 139Z"/><path fill="#00101c" stroke="#00101c" d="M135 469L199 527L201 373Z"/><path fill="#011424" stroke="#011424" d="M270 0L184 0L194 87Z"/><path fill="#001934" stroke="#001934" d="M0 116L0 180L61 176Z"/><path fill="#011528" stroke="#011528" d="M507 63L478 0L415 0Z"/><path fill="#001830" stroke="#001830" d="M366 521L502 529L413 397Z"/><path fill="#001220" stroke="#001220" d="M523 390L638 361L581 295Z"/><path fill="#001d44" stroke="#001d44" d="M423 600L502 529L366 521Z"/><path fill="#00172c" stroke="#00172c" d="M0 180L0 310L61 300Z"/><path fill="#001d44" stroke="#001d44" d="M61 300L0 422L137 415Z"/><path fill="#00172c" stroke="#00172c" d="M0 116L61 176L118 96Z"/><path fill="#001a38" stroke="#001a38" d="M61 176L0 180L61 300Z"/><path fill="#00101c" stroke="#00101c" d="M577 238L608 97L479 165Z"/><path fill="#00172c" stroke="#00172c" d="M507 63L619 0L478 0Z"/><path fill="#011528" stroke="#011528" d="M696 168L608 97L577 238Z"/><path fill="#00101c" stroke="#00101c" d="M607 474L638 361L523 390Z"/><path fill="#001220" stroke="#001220" d="M581 295L685 310L577 238Z"/><path fill="#001b3c" stroke="#001b3c" d="M179 600L272 600L199 527Z"/><path fill="#001220" stroke="#001220" d="M199 527L272 600L310 528Z"/><path fill="#001b3c" stroke="#001b3c" d="M310 528L272 600L366 521Z"/><path fill="#00172c" stroke="#00172c" d="M272 600L423 600L366 521Z"/><path fill="#001b3c" stroke="#001b3c" d="M85 0L0 116L118 96Z"/><path fill="#001a38" stroke="#001a38" d="M184 0L85 0L118 96Z"/><path fill="#00101c" stroke="#00101c" d="M631 600L607 474L502 529Z"/><path fill="#001220" stroke="#001220" d="M502 529L607 474L523 390Z"/><path fill="#001b3c" stroke="#001b3c" d="M0 310L0 422L61 300Z"/><path fill="#001a38" stroke="#001a38" d="M102 600L179 600L199 527Z"/><path fill="#001d44" stroke="#001d44" d="M102 600L199 527L135 469Z"/><path fill="#00172c" stroke="#00172c" d="M686 398L685 310L638 361Z"/><path fill="#011424" stroke="#011424" d="M638 361L685 310L581 295Z"/><path fill="#001d44" stroke="#001d44" d="M423 600L502 600L502 529Z"/><path fill="#001c40" stroke="#001c40" d="M685 310L696 168L577 238Z"/><path fill="#001830" stroke="#001830" d="M686 466L686 398L607 474Z"/><path fill="#001a38" stroke="#001a38" d="M607 474L686 398L638 361Z"/><path fill="#00172c" stroke="#00172c" d="M685 310L803 176L696 168Z"/><path fill="#001220" stroke="#001220" d="M708 91L619 0L608 97Z"/><path fill="#001d44" stroke="#001d44" d="M608 97L619 0L507 63Z"/><path fill="#011528" stroke="#011528" d="M0 509L102 600L135 469Z"/><path fill="#011424" stroke="#011424" d="M0 422L0 509L135 469Z"/><path fill="#001220" stroke="#001220" d="M85 0L0 0L0 116Z"/><path fill="#011528" stroke="#011528" d="M673 600L686 466L607 474Z"/><path fill="#011528" stroke="#011528" d="M803 176L708 91L696 168Z"/><path fill="#00172c" stroke="#00172c" d="M696 168L708 91L608 97Z"/><path fill="#011424" stroke="#011424" d="M803 176L685 310L806 335Z"/><path fill="#001a38" stroke="#001a38" d="M502 600L631 600L502 529Z"/><path fill="#00172c" stroke="#00172c" d="M0 509L0 600L102 600Z"/><path fill="#001b3c" stroke="#001b3c" d="M631 600L673 600L607 474Z"/><path fill="#001b3c" stroke="#001b3c" d="M806 335L686 398L835 418Z"/><path fill="#001220" stroke="#001220" d="M806 335L685 310L686 398Z"/><path fill="#001830" stroke="#001830" d="M708 91L739 0L619 0Z"/><path fill="#001a38" stroke="#001a38" d="M835 418L686 398L686 466Z"/><path fill="#001d44" stroke="#001d44" d="M781 77L739 0L708 91Z"/><path fill="#001b3c" stroke="#001b3c" d="M803 176L781 77L708 91Z"/><path fill="#001a38" stroke="#001a38" d="M900 65L777 0L781 77Z"/><path fill="#001a38" stroke="#001a38" d="M781 77L777 0L739 0Z"/><path fill="#001a38" stroke="#001a38" d="M808 506L835 418L686 466Z"/><path fill="#00172c" stroke="#00172c" d="M806 335L900 285L803 176Z"/><path fill="#001c40" stroke="#001c40" d="M673 600L808 506L686 466Z"/><path fill="#00172c" stroke="#00172c" d="M673 600L791 600L808 506Z"/><path fill="#00172c" stroke="#00172c" d="M900 412L806 335L835 418Z"/><path fill="#001b3c" stroke="#001b3c" d="M900 412L900 285L806 335Z"/><path fill="#001220" stroke="#001220" d="M803 176L900 65L781 77Z"/><path fill="#001934" stroke="#001934" d="M900 412L835 418L900 466Z"/><path fill="#001830" stroke="#001830" d="M900 285L900 173L803 176Z"/><path fill="#001220" stroke="#001220" d="M900 466L835 418L808 506Z"/><path fill="#001220" stroke="#001220" d="M900 173L900 65L803 176Z"/><path fill="#001934" stroke="#001934" d="M900 600L900 466L808 506Z"/><path fill="#001d44" stroke="#001d44" d="M900 65L900 0L777 0Z"/><path fill="#001b3c" stroke="#001b3c" d="M791 600L900 600L808 506Z"/></g></svg>