<svg xmlns="http://www.w3.org/2000/svg" xmlns:xlink="http://www.w3.org/1999/xlink" width="100" zoomAndPan="magnify" viewBox="0 0 75 74.999997" height="100" preserveAspectRatio="xMidYMid meet" version="1.0"><defs><clipPath id="8c4358bc42"><path d="M 35 12 L 68.25 12 L 68.25 63 L 35 63 Z M 35 12 " clip-rule="nonzero"/></clipPath><clipPath id="3250d9fae9"><path d="M 7.5 10 L 20 10 L 20 23 L 7.5 23 Z M 7.5 10 " clip-rule="nonzero"/></clipPath></defs><path fill="#f4f4ed" d="M 55.332031 58.273438 C 55.257812 57.164062 55.121094 56.050781 54.890625 54.964844 C 54.679688 53.9375 54.375 52.925781 53.898438 51.988281 C 53.417969 51.039062 52.742188 50.21875 51.976562 49.480469 C 51.25 48.78125 50.464844 48.144531 49.636719 47.570312 C 47.976562 46.414062 46.136719 45.515625 44.203125 44.921875 C 43.753906 44.785156 43.300781 44.667969 42.84375 44.5625 C 42.804688 44.363281 42.773438 44.167969 42.742188 43.972656 C 42.660156 43.417969 42.570312 42.804688 42.671875 42.246094 C 42.675781 42.222656 42.675781 42.203125 42.671875 42.183594 C 43.046875 41.644531 43.332031 41.03125 43.558594 40.414062 C 43.621094 40.238281 43.675781 40.0625 43.730469 39.886719 C 43.75 39.917969 43.785156 39.933594 43.835938 39.925781 C 44.296875 39.871094 44.695312 39.605469 45.039062 39.304688 C 45.386719 39.007812 45.71875 38.644531 45.9375 38.238281 C 46.332031 37.507812 46.492188 36.175781 45.566406 35.765625 C 45.59375 35.753906 45.617188 35.730469 45.628906 35.695312 C 45.933594 34.878906 46.1875 34.039062 46.308594 33.175781 C 46.421875 32.355469 46.421875 31.480469 46.105469 30.703125 C 45.820312 29.992188 45.375 29.320312 44.902344 28.722656 C 44.480469 28.1875 43.996094 27.707031 43.449219 27.296875 C 41.773438 26.039062 39.539062 25.613281 37.523438 26.199219 C 36.980469 26.359375 36.398438 26.59375 35.945312 26.964844 C 35.320312 26.574219 34.558594 26.960938 34.03125 27.351562 C 33.433594 27.792969 32.875 28.296875 32.382812 28.851562 C 31.386719 29.980469 30.691406 31.371094 30.664062 32.890625 C 30.652344 33.722656 30.84375 34.558594 31.277344 35.273438 C 30.984375 35.433594 30.761719 35.707031 30.636719 36.019531 C 30.230469 37.007812 30.695312 38.078125 31.40625 38.792969 C 31.8125 39.195312 32.324219 39.53125 32.890625 39.640625 C 32.914062 39.644531 32.941406 39.644531 32.960938 39.632812 C 33.050781 39.964844 33.171875 40.28125 33.308594 40.59375 C 33.777344 41.644531 34.464844 42.691406 35.390625 43.414062 C 35.382812 43.4375 35.382812 43.460938 35.390625 43.492188 C 35.542969 44.078125 35.472656 44.703125 35.285156 45.285156 C 34.15625 45.761719 33.003906 46.269531 31.964844 46.921875 C 30.933594 47.574219 29.90625 48.222656 28.875 48.871094 C 27.945312 49.457031 26.996094 50.039062 26.1875 50.792969 C 24.65625 52.21875 23.808594 54.210938 23.398438 56.226562 C 23.164062 57.367188 23.058594 58.53125 22.996094 59.695312 C 22.925781 60.902344 22.894531 62.113281 22.878906 63.320312 C 22.867188 64.410156 22.847656 65.511719 22.90625 66.605469 C 22.941406 67.277344 23.039062 67.945312 23.160156 68.605469 C 23.300781 69.347656 23.472656 70.09375 23.753906 70.800781 C 23.867188 71.078125 23.992188 71.359375 24.167969 71.605469 C 24.375 71.898438 24.660156 72.101562 24.957031 72.300781 C 25.382812 72.578125 25.84375 72.800781 26.332031 72.949219 C 26.808594 73.089844 27.292969 73.148438 27.789062 73.179688 C 28.277344 73.214844 28.765625 73.238281 29.253906 73.253906 C 29.238281 73.273438 29.226562 73.292969 29.226562 73.320312 C 29.175781 73.703125 29.128906 74.085938 29.078125 74.472656 C 29.070312 74.53125 29.125 74.597656 29.179688 74.605469 C 29.535156 74.679688 29.898438 74.703125 30.257812 74.734375 C 30.859375 74.785156 31.453125 74.816406 32.054688 74.84375 C 33.757812 74.925781 35.464844 74.960938 37.167969 74.972656 C 39.164062 74.984375 41.160156 74.964844 43.15625 74.886719 C 44.953125 74.816406 46.753906 74.714844 48.539062 74.484375 C 49.222656 74.398438 49.90625 74.292969 50.574219 74.132812 C 51.050781 74.019531 51.539062 73.886719 51.96875 73.652344 C 52.042969 73.613281 52.113281 73.570312 52.179688 73.519531 C 52.234375 73.480469 52.257812 73.429688 52.246094 73.363281 C 51.953125 72.027344 51.722656 70.667969 51.613281 69.308594 C 52.546875 69.195312 53.421875 68.78125 53.933594 67.964844 C 54.183594 67.558594 54.34375 67.101562 54.472656 66.644531 C 54.625 66.117188 54.75 65.578125 54.863281 65.035156 C 55.320312 62.816406 55.476562 60.539062 55.332031 58.273438 Z M 42.867188 56.339844 C 42.835938 56.023438 42.8125 55.707031 42.789062 55.390625 C 42.867188 55.660156 42.941406 55.929688 43.007812 56.203125 C 42.960938 56.25 42.914062 56.296875 42.867188 56.339844 Z M 42.867188 56.339844 " fill-opacity="1" fill-rule="nonzero"/><g clip-path="url(#8c4358bc42)"><path fill="#f69426" d="M 68.253906 18.546875 C 68.253906 21.804688 65.605469 24.441406 62.335938 24.441406 C 59.070312 24.441406 56.421875 21.804688 56.421875 18.546875 C 56.421875 15.292969 59.070312 12.652344 62.335938 12.652344 C 65.605469 12.652344 68.253906 15.292969 68.253906 18.546875 Z M 41.515625 52.269531 C 41.019531 52.253906 40.503906 52.027344 40.132812 51.703125 C 39.734375 51.355469 39.4375 50.90625 39.160156 50.460938 C 39.074219 50.316406 38.980469 50.171875 38.890625 50.023438 C 38.386719 50.242188 37.804688 50.085938 37.347656 49.816406 C 36.976562 49.597656 36.554688 49.246094 36.433594 48.816406 C 36.347656 48.511719 36.476562 48.222656 36.628906 47.964844 C 36.703125 47.832031 36.769531 47.707031 36.828125 47.578125 C 36.714844 47.570312 36.597656 47.5625 36.484375 47.542969 C 36.3125 47.511719 36.132812 47.445312 35.96875 47.371094 C 35.652344 47.238281 35.367188 47.027344 35.175781 46.746094 C 35.089844 47.605469 35.039062 48.46875 35.03125 49.332031 C 35.019531 51.515625 35.261719 53.695312 35.808594 55.8125 C 36.359375 57.9375 37.214844 59.972656 38.328125 61.863281 C 38.929688 61.625 39.527344 61.386719 40.128906 61.148438 C 40.203125 61.125 40.28125 61.179688 40.300781 61.25 C 40.417969 61.648438 40.53125 62.046875 40.640625 62.449219 C 40.820312 62.351562 40.996094 62.25 41.167969 62.148438 C 41.511719 60.722656 41.738281 59.265625 41.835938 57.800781 C 41.839844 57.761719 41.859375 57.730469 41.882812 57.710938 C 41.855469 57.652344 41.824219 57.597656 41.800781 57.539062 C 41.773438 57.484375 41.777344 57.417969 41.820312 57.371094 C 41.835938 57.355469 41.855469 57.339844 41.871094 57.324219 L 41.875 57.324219 C 42.078125 56.128906 42.152344 54.917969 42.089844 53.707031 C 42.085938 53.652344 42.113281 53.621094 42.148438 53.597656 C 41.957031 53.144531 41.75 52.707031 41.515625 52.269531 Z M 41.515625 52.269531 " fill-opacity="1" fill-rule="nonzero"/></g><g clip-path="url(#3250d9fae9)"><path fill="#974fff" d="M 13.351562 10.933594 C 16.585938 10.933594 19.207031 13.546875 19.207031 16.765625 C 19.207031 19.988281 16.585938 22.601562 13.351562 22.601562 C 10.121094 22.601562 7.5 19.988281 7.5 16.765625 C 7.5 13.546875 10.121094 10.933594 13.351562 10.933594 Z M 13.351562 10.933594 " fill-opacity="1" fill-rule="nonzero"/></g><path fill="#1979eb" d="M 41.265625 0.00390625 C 44.191406 0.00390625 46.5625 2.367188 46.5625 5.285156 C 46.5625 8.203125 44.191406 10.566406 41.265625 10.566406 C 38.339844 10.566406 35.964844 8.203125 35.964844 5.285156 C 35.964844 2.367188 38.339844 0.00390625 41.265625 0.00390625 Z M 41.265625 0.00390625 " fill-opacity="1" fill-rule="nonzero"/><path fill="#000000" d="M 64.128906 23.414062 C 64.175781 23.539062 64.050781 23.667969 63.925781 23.617188 L 63.199219 23.335938 C 63.167969 23.324219 63.132812 23.324219 63.097656 23.332031 L 62.265625 23.582031 C 62.128906 23.621094 62.015625 23.484375 62.082031 23.359375 C 62.351562 22.859375 62.855469 21.972656 63.113281 21.515625 C 63.179688 21.402344 63.34375 21.414062 63.394531 21.539062 Z M 65.617188 20.761719 C 65.617188 21.140625 65.304688 21.453125 64.925781 21.453125 C 64.613281 21.453125 64.351562 21.242188 64.261719 20.960938 L 59.875 20.960938 C 59.808594 21.273438 59.53125 21.511719 59.195312 21.511719 C 58.8125 21.511719 58.5 21.203125 58.5 20.820312 C 58.5 20.464844 58.769531 20.179688 59.117188 20.140625 L 59.117188 17.320312 C 58.765625 17.242188 58.5 16.929688 58.5 16.554688 C 58.5 16.121094 58.851562 15.769531 59.285156 15.769531 C 59.707031 15.769531 60.046875 16.09375 60.070312 16.507812 L 63.996094 16.507812 C 63.992188 16.46875 63.988281 16.4375 63.988281 16.398438 C 63.988281 16.015625 64.300781 15.707031 64.679688 15.707031 C 65.0625 15.707031 65.375 16.015625 65.375 16.398438 C 65.375 16.753906 65.101562 17.046875 64.757812 17.082031 L 64.757812 20.089844 C 64.8125 20.074219 64.867188 20.066406 64.929688 20.066406 C 65.308594 20.066406 65.621094 20.378906 65.617188 20.761719 Z M 64.265625 16.398438 C 64.265625 16.4375 64.269531 16.46875 64.28125 16.507812 L 64.757812 16.507812 L 64.757812 16.808594 C 64.949219 16.769531 65.097656 16.601562 65.097656 16.398438 C 65.097656 16.167969 64.910156 15.984375 64.679688 15.984375 C 64.453125 15.984375 64.265625 16.171875 64.265625 16.398438 Z M 59.121094 17.027344 L 59.121094 16.507812 L 59.792969 16.507812 C 59.769531 16.246094 59.554688 16.042969 59.289062 16.042969 C 59.007812 16.042969 58.78125 16.273438 58.78125 16.550781 C 58.78125 16.773438 58.921875 16.957031 59.121094 17.027344 Z M 59.398438 16.78125 L 59.398438 17.046875 C 59.546875 17.015625 59.667969 16.914062 59.738281 16.78125 Z M 59.394531 20.679688 L 59.585938 20.679688 C 59.550781 20.585938 59.484375 20.511719 59.394531 20.460938 Z M 59.589844 20.957031 L 59.121094 20.957031 L 59.121094 20.414062 C 58.929688 20.453125 58.78125 20.617188 58.78125 20.820312 C 58.78125 21.046875 58.96875 21.234375 59.195312 21.234375 C 59.378906 21.234375 59.53125 21.121094 59.589844 20.957031 Z M 64.476562 17.058594 C 64.324219 17.011719 64.191406 16.914062 64.101562 16.785156 L 60.035156 16.785156 C 59.941406 17.070312 59.699219 17.28125 59.394531 17.328125 L 59.394531 20.164062 C 59.636719 20.234375 59.820312 20.433594 59.875 20.679688 L 64.238281 20.679688 C 64.261719 20.5 64.347656 20.34375 64.476562 20.234375 Z M 65.34375 20.761719 C 65.34375 20.53125 65.15625 20.347656 64.929688 20.347656 C 64.867188 20.347656 64.808594 20.359375 64.757812 20.382812 L 64.757812 20.957031 L 64.566406 20.957031 C 64.632812 21.085938 64.765625 21.171875 64.929688 21.171875 C 65.152344 21.171875 65.34375 20.984375 65.34375 20.761719 Z M 48.808594 27.015625 C 48.351562 27.523438 47.949219 28.082031 47.625 28.6875 C 47.539062 28.847656 47.777344 28.984375 47.863281 28.828125 C 49.023438 26.652344 51.152344 25.261719 53.292969 24.160156 C 53.910156 23.84375 54.535156 23.542969 55.164062 23.246094 C 55.324219 23.171875 55.183594 22.933594 55.023438 23.007812 C 52.800781 24.054688 50.484375 25.171875 48.808594 27.015625 Z M 46.613281 24.390625 C 46.613281 24.578125 46.769531 24.738281 46.964844 24.738281 C 47.15625 24.738281 47.308594 24.582031 47.308594 24.390625 C 47.308594 24.199219 47.15625 24.042969 46.964844 24.042969 C 46.769531 24.042969 46.613281 24.199219 46.613281 24.390625 Z M 46.46875 19.011719 C 46.882812 18.484375 47.390625 17.894531 48.0625 17.695312 C 48.6875 17.507812 49.296875 17.769531 49.617188 18.328125 C 49.9375 18.875 49.835938 19.492188 49.410156 19.949219 C 48.953125 20.433594 48.324219 20.679688 47.800781 21.078125 C 47.222656 21.523438 46.667969 22.238281 46.921875 23.003906 C 46.976562 23.171875 47.246094 23.101562 47.191406 22.929688 C 46.921875 22.128906 47.703125 21.445312 48.308594 21.070312 C 48.871094 20.71875 49.507812 20.394531 49.863281 19.8125 C 50.195312 19.269531 50.148438 18.59375 49.785156 18.074219 C 49.429688 17.554688 48.84375 17.277344 48.214844 17.375 C 47.386719 17.507812 46.761719 18.195312 46.269531 18.820312 C 46.160156 18.960938 46.359375 19.15625 46.46875 19.011719 Z M 40.445312 35.4375 C 40.269531 35.4375 40.121094 35.722656 40.121094 36.074219 C 40.121094 36.429688 40.265625 36.710938 40.445312 36.710938 C 40.621094 36.710938 40.765625 36.429688 40.765625 36.074219 C 40.765625 35.722656 40.621094 35.4375 40.445312 35.4375 Z M 40.117188 33.804688 C 40.601562 33.746094 41.101562 33.886719 41.46875 34.207031 C 41.832031 34.515625 42.046875 34.949219 42.117188 35.417969 C 42.128906 35.492188 42.21875 35.53125 42.289062 35.511719 C 42.371094 35.492188 42.398438 35.417969 42.386719 35.34375 C 42.226562 34.253906 41.238281 33.398438 40.117188 33.527344 C 39.941406 33.546875 39.941406 33.824219 40.117188 33.804688 Z M 39.730469 6.367188 C 39.503906 5.847656 39.417969 5.242188 39.445312 4.675781 C 39.464844 4.203125 39.582031 3.726562 39.851562 3.335938 C 40.230469 2.789062 40.960938 2.398438 41.621094 2.695312 C 41.988281 2.863281 42.207031 3.25 42.277344 3.636719 C 42.332031 3.910156 42.292969 4.28125 42.058594 4.476562 C 41.992188 4.535156 41.890625 4.535156 41.839844 4.449219 C 41.730469 4.261719 41.589844 4.074219 41.421875 3.933594 C 41.339844 3.863281 41.226562 3.785156 41.109375 3.796875 C 40.957031 3.808594 40.859375 3.988281 40.800781 4.109375 C 40.613281 4.515625 40.59375 4.9375 40.707031 5.363281 C 40.804688 5.738281 41.039062 6.199219 41.5 6.125 C 41.796875 6.074219 42.027344 5.792969 42.113281 5.539062 C 42.121094 5.519531 42.132812 5.5 42.144531 5.488281 C 42.148438 5.484375 42.148438 5.484375 42.148438 5.484375 C 42.160156 5.46875 42.167969 5.464844 42.183594 5.460938 C 42.1875 5.457031 42.191406 5.453125 42.199219 5.449219 C 42.207031 5.445312 42.21875 5.441406 42.230469 5.441406 C 42.238281 5.441406 42.246094 5.441406 42.246094 5.441406 C 42.265625 5.441406 42.273438 5.441406 42.285156 5.441406 C 42.289062 5.445312 42.292969 5.445312 42.296875 5.445312 C 42.304688 5.449219 42.316406 5.453125 42.324219 5.460938 C 42.335938 5.464844 42.34375 5.472656 42.355469 5.480469 C 42.375 5.503906 42.390625 5.527344 42.390625 5.5625 C 42.488281 5.898438 42.515625 6.289062 42.425781 6.621094 C 42.304688 7.070312 41.921875 7.367188 41.476562 7.460938 C 40.675781 7.632812 40.027344 7.066406 39.730469 6.367188 Z M 39.734375 5.226562 C 39.777344 5.683594 39.886719 6.148438 40.125 6.546875 C 40.4375 7.058594 41.019531 7.375 41.609375 7.132812 C 41.960938 6.988281 42.164062 6.707031 42.195312 6.328125 C 42.203125 6.210938 42.199219 6.09375 42.1875 5.972656 C 41.988281 6.242188 41.691406 6.429688 41.347656 6.40625 C 40.804688 6.367188 40.527344 5.835938 40.421875 5.367188 C 40.304688 4.847656 40.34375 4.289062 40.636719 3.835938 C 40.871094 3.46875 41.25 3.445312 41.578125 3.707031 C 41.730469 3.824219 41.859375 3.976562 41.96875 4.140625 C 42.082031 3.902344 41.992188 3.570312 41.886719 3.355469 C 41.757812 3.097656 41.550781 2.914062 41.253906 2.878906 C 40.636719 2.800781 40.109375 3.308594 39.890625 3.839844 C 39.714844 4.28125 39.695312 4.757812 39.734375 5.226562 Z M 39.359375 24.464844 C 39.378906 24.636719 39.65625 24.636719 39.636719 24.464844 C 39.277344 21.460938 38.921875 18.367188 39.484375 15.363281 C 39.636719 14.535156 39.867188 13.714844 40.179688 12.929688 C 40.246094 12.769531 39.976562 12.691406 39.914062 12.855469 C 38.785156 15.714844 38.800781 18.835938 39.078125 21.84375 C 39.15625 22.71875 39.257812 23.589844 39.359375 24.464844 Z M 36.820312 39.765625 C 37.097656 39.042969 37.996094 38.640625 38.734375 38.75 C 39.496094 38.863281 40.304688 39.402344 40.257812 40.25 C 40.210938 40.761719 39.484375 40.867188 39.085938 40.910156 C 38.394531 40.988281 36.355469 40.957031 36.820312 39.765625 Z M 37.613281 39.265625 C 38.210938 39.523438 38.898438 39.449219 39.53125 39.359375 C 39.207031 39.105469 38.753906 38.976562 38.367188 39.007812 C 38.097656 39.027344 37.839844 39.121094 37.613281 39.265625 Z M 38.253906 37.863281 C 38.328125 37.828125 38.40625 37.710938 38.492188 37.769531 C 38.585938 37.828125 38.652344 37.921875 38.75 37.972656 C 39 38.097656 39.296875 38.003906 39.445312 37.785156 C 39.550781 37.636719 39.308594 37.5 39.207031 37.644531 C 39.152344 37.726562 39.039062 37.769531 38.941406 37.75 C 38.828125 37.730469 38.75 37.617188 38.664062 37.550781 C 38.554688 37.46875 38.425781 37.445312 38.300781 37.503906 C 38.230469 37.539062 38.136719 37.664062 38.066406 37.582031 C 37.984375 37.488281 38.039062 37.355469 38.089844 37.261719 C 38.160156 37.128906 38.242188 37.007812 38.300781 36.871094 C 38.433594 36.578125 38.496094 36.261719 38.492188 35.9375 C 38.488281 35.761719 38.210938 35.757812 38.214844 35.9375 C 38.21875 36.21875 38.167969 36.503906 38.050781 36.765625 C 37.945312 36.996094 37.726562 37.222656 37.75 37.496094 C 37.769531 37.742188 38 37.972656 38.253906 37.863281 Z M 36.351562 35.550781 C 36.175781 35.550781 36.027344 35.835938 36.027344 36.1875 C 36.027344 36.539062 36.171875 36.824219 36.351562 36.824219 C 36.53125 36.824219 36.675781 36.539062 36.675781 36.1875 C 36.675781 35.835938 36.527344 35.550781 36.351562 35.550781 Z M 36.953125 33.515625 C 35.960938 33.5 35.078125 34.269531 34.84375 35.214844 C 34.804688 35.382812 35.070312 35.460938 35.117188 35.285156 C 35.320312 34.464844 36.078125 33.773438 36.953125 33.792969 C 37.128906 33.792969 37.128906 33.519531 36.953125 33.515625 Z M 32.929688 24.75 C 32.929688 24.941406 33.082031 25.097656 33.277344 25.097656 C 33.46875 25.097656 33.628906 24.945312 33.628906 24.75 C 33.628906 24.554688 33.46875 24.398438 33.277344 24.398438 C 33.082031 24.398438 32.929688 24.558594 32.929688 24.75 Z M 29.902344 20.503906 C 29.953125 19.871094 30.050781 19.179688 30.429688 18.648438 C 30.800781 18.128906 31.421875 17.941406 32.015625 18.167969 C 32.640625 18.40625 32.976562 19 32.878906 19.65625 C 32.769531 20.410156 32.269531 21.039062 32.078125 21.765625 C 31.90625 22.398438 31.914062 23.171875 32.472656 23.609375 C 32.613281 23.71875 32.8125 23.523438 32.671875 23.414062 C 32.097656 22.96875 32.214844 22.148438 32.4375 21.546875 C 32.726562 20.773438 33.273438 20.039062 33.160156 19.171875 C 33.074219 18.546875 32.597656 18.066406 32.007812 17.875 C 31.398438 17.679688 30.75 17.855469 30.324219 18.339844 C 29.8125 18.921875 29.6875 19.753906 29.625 20.503906 C 29.609375 20.679688 29.886719 20.679688 29.902344 20.503906 Z M 55.328125 58.277344 C 55.476562 60.539062 55.316406 62.816406 54.859375 65.035156 C 54.75 65.578125 54.625 66.117188 54.472656 66.648438 C 54.34375 67.105469 54.183594 67.558594 53.933594 67.964844 C 53.421875 68.785156 52.546875 69.199219 51.609375 69.308594 C 51.722656 70.667969 51.953125 72.03125 52.242188 73.363281 C 52.257812 73.429688 52.230469 73.480469 52.179688 73.519531 C 52.109375 73.570312 52.039062 73.613281 51.964844 73.65625 C 51.535156 73.886719 51.046875 74.023438 50.574219 74.136719 C 49.902344 74.289062 49.222656 74.394531 48.539062 74.484375 C 46.753906 74.714844 44.949219 74.816406 43.152344 74.886719 C 41.160156 74.964844 39.164062 74.984375 37.167969 74.972656 C 35.460938 74.960938 33.757812 74.925781 32.050781 74.847656 C 31.453125 74.816406 30.855469 74.785156 30.257812 74.734375 C 29.898438 74.703125 29.53125 74.679688 29.179688 74.609375 C 29.125 74.597656 29.070312 74.53125 29.078125 74.476562 C 29.128906 74.089844 29.175781 73.703125 29.222656 73.320312 C 29.226562 73.292969 29.238281 73.273438 29.25 73.253906 C 28.765625 73.242188 28.277344 73.214844 27.789062 73.183594 C 27.292969 73.148438 26.804688 73.089844 26.328125 72.949219 C 25.84375 72.804688 25.382812 72.578125 24.957031 72.300781 C 24.660156 72.101562 24.375 71.898438 24.167969 71.609375 C 23.992188 71.359375 23.863281 71.078125 23.753906 70.796875 C 23.472656 70.097656 23.300781 69.351562 23.160156 68.605469 C 23.039062 67.945312 22.941406 67.273438 22.90625 66.605469 C 22.847656 65.515625 22.867188 64.414062 22.878906 63.320312 C 22.890625 62.113281 22.925781 60.902344 22.992188 59.695312 C 23.058594 58.53125 23.164062 57.371094 23.394531 56.226562 C 23.804688 54.210938 24.65625 52.21875 26.183594 50.792969 C 26.996094 50.042969 27.941406 49.457031 28.875 48.871094 C 29.902344 48.222656 30.933594 47.574219 31.964844 46.925781 C 33.003906 46.269531 34.152344 45.765625 35.285156 45.285156 C 35.472656 44.703125 35.542969 44.078125 35.386719 43.492188 C 35.378906 43.460938 35.382812 43.4375 35.390625 43.414062 C 34.464844 42.691406 33.773438 41.644531 33.304688 40.59375 C 33.167969 40.28125 33.046875 39.964844 32.960938 39.636719 C 32.941406 39.644531 32.914062 39.648438 32.890625 39.640625 C 32.324219 39.527344 31.8125 39.195312 31.40625 38.792969 C 30.695312 38.078125 30.234375 37.007812 30.636719 36.023438 C 30.761719 35.710938 30.984375 35.4375 31.277344 35.277344 C 30.839844 34.558594 30.648438 33.726562 30.664062 32.894531 C 30.691406 31.367188 31.386719 29.980469 32.382812 28.851562 C 32.871094 28.296875 33.433594 27.792969 34.027344 27.351562 C 34.554688 26.957031 35.320312 26.574219 35.945312 26.960938 C 36.398438 26.589844 36.980469 26.355469 37.523438 26.199219 C 39.542969 25.613281 41.773438 26.035156 43.449219 27.296875 C 43.996094 27.703125 44.480469 28.1875 44.902344 28.722656 C 45.375 29.320312 45.820312 29.988281 46.105469 30.699219 C 46.421875 31.480469 46.421875 32.351562 46.308594 33.171875 C 46.191406 34.039062 45.933594 34.878906 45.628906 35.691406 C 45.617188 35.730469 45.589844 35.75 45.566406 35.765625 C 46.492188 36.171875 46.332031 37.507812 45.933594 38.238281 C 45.714844 38.644531 45.382812 39.007812 45.035156 39.304688 C 44.695312 39.601562 44.296875 39.867188 43.832031 39.925781 C 43.785156 39.929688 43.75 39.914062 43.726562 39.882812 C 43.675781 40.0625 43.621094 40.238281 43.554688 40.414062 C 43.328125 41.035156 43.046875 41.640625 42.667969 42.183594 C 42.675781 42.207031 42.675781 42.222656 42.671875 42.246094 C 42.570312 42.804688 42.65625 43.417969 42.742188 43.972656 C 42.773438 44.171875 42.804688 44.363281 42.839844 44.5625 C 43.300781 44.667969 43.757812 44.785156 44.207031 44.925781 C 46.136719 45.519531 47.980469 46.417969 49.632812 47.570312 C 50.464844 48.144531 51.25 48.785156 51.972656 49.484375 C 52.742188 50.222656 53.414062 51.042969 53.902344 51.988281 C 54.375 52.921875 54.675781 53.9375 54.894531 54.960938 C 55.117188 56.054688 55.257812 57.164062 55.328125 58.277344 Z M 42.90625 44.859375 C 42.964844 45.128906 43.03125 45.390625 43.121094 45.652344 C 43.128906 45.683594 43.125 45.710938 43.117188 45.730469 C 43.167969 45.8125 43.21875 45.898438 43.265625 45.976562 C 44.117188 47.421875 44.875 48.921875 45.601562 50.433594 C 45.902344 51.050781 46.191406 51.667969 46.480469 52.289062 C 46.882812 51.847656 46.953125 51.171875 46.84375 50.601562 C 46.621094 49.421875 45.953125 48.402344 45.21875 47.484375 C 44.503906 46.589844 43.703125 45.765625 42.972656 44.886719 C 42.972656 44.882812 42.972656 44.878906 42.972656 44.878906 C 42.949219 44.871094 42.925781 44.863281 42.90625 44.859375 Z M 41.949219 44.496094 C 41.816406 44.335938 41.679688 44.171875 41.511719 44.046875 C 41.472656 44.011719 41.375 43.964844 41.308594 43.925781 C 41.128906 43.824219 40.964844 43.683594 40.820312 43.539062 C 40.472656 43.191406 40.183594 42.792969 39.882812 42.410156 C 39.742188 42.230469 39.605469 42.054688 39.453125 41.886719 C 39.355469 41.78125 39.246094 41.660156 39.113281 41.59375 C 39.046875 41.566406 38.992188 41.582031 38.902344 41.613281 C 38.769531 41.652344 38.644531 41.714844 38.527344 41.78125 C 38.195312 41.960938 37.882812 42.175781 37.578125 42.394531 C 37.433594 42.5 37.289062 42.609375 37.144531 42.722656 C 37.230469 42.792969 37.277344 42.898438 37.277344 43.007812 C 37.277344 43.261719 37.058594 43.425781 36.859375 43.546875 C 36.8125 43.574219 36.765625 43.597656 36.714844 43.621094 C 36.753906 43.621094 36.792969 43.628906 36.835938 43.628906 C 37.089844 43.617188 37.324219 43.527344 37.550781 43.410156 C 37.984375 43.183594 38.40625 42.917969 38.792969 42.621094 C 38.9375 42.515625 39.074219 42.753906 38.929688 42.859375 C 38.832031 42.9375 38.726562 43.011719 38.621094 43.082031 C 38.84375 43.433594 39.066406 43.789062 39.292969 44.140625 C 39.332031 44.210938 39.3125 44.273438 39.265625 44.3125 C 39.390625 44.273438 39.523438 44.246094 39.667969 44.25 C 39.84375 44.253906 39.84375 44.53125 39.667969 44.527344 C 39.273438 44.515625 38.929688 44.757812 38.605469 44.945312 C 38.253906 45.148438 37.898438 45.351562 37.546875 45.554688 C 37.421875 45.625 37.28125 45.691406 37.195312 45.804688 C 37.066406 45.964844 37.152344 46.164062 37.191406 46.339844 C 37.195312 46.367188 37.199219 46.390625 37.203125 46.414062 C 37.894531 45.8125 38.75 45.445312 39.664062 45.347656 C 39.839844 45.324219 39.839844 45.601562 39.664062 45.625 C 38.78125 45.714844 37.941406 46.101562 37.292969 46.703125 C 37.277344 46.710938 37.265625 46.71875 37.25 46.730469 C 37.261719 46.902344 37.261719 47.078125 37.234375 47.25 C 37.214844 47.371094 37.179688 47.480469 37.132812 47.589844 C 37.667969 47.21875 38.316406 47.027344 38.964844 47.066406 C 39.140625 47.078125 39.144531 47.351562 38.964844 47.34375 C 38.210938 47.296875 37.460938 47.578125 36.929688 48.117188 C 36.898438 48.148438 36.867188 48.15625 36.839844 48.15625 C 36.730469 48.347656 36.636719 48.5625 36.714844 48.777344 C 36.847656 49.148438 37.234375 49.4375 37.5625 49.617188 C 37.914062 49.8125 38.359375 49.9375 38.742188 49.789062 C 38.539062 49.46875 38.335938 49.144531 38.132812 48.816406 C 38.128906 48.8125 38.128906 48.804688 38.128906 48.800781 C 37.972656 48.820312 37.820312 48.84375 37.667969 48.890625 C 37.496094 48.949219 37.425781 48.679688 37.59375 48.625 C 38.125 48.460938 38.699219 48.464844 39.226562 48.632812 C 39.394531 48.6875 39.324219 48.953125 39.152344 48.898438 C 38.921875 48.824219 38.679688 48.789062 38.4375 48.78125 C 38.730469 49.246094 39.015625 49.710938 39.308594 50.171875 C 39.558594 50.570312 39.808594 50.976562 40.132812 51.316406 C 40.441406 51.644531 40.824219 51.902344 41.273438 51.972656 C 41.6875 52.039062 42.121094 51.945312 42.410156 51.628906 C 42.53125 51.5 42.726562 51.695312 42.605469 51.828125 C 42.382812 52.070312 42.109375 52.199219 41.816406 52.246094 C 42.4375 53.429688 42.914062 54.683594 43.238281 55.976562 C 43.679688 55.546875 44.117188 55.121094 44.566406 54.691406 C 45.089844 54.183594 45.621094 53.675781 46.152344 53.175781 C 46.25 53.082031 46.355469 52.992188 46.460938 52.898438 C 46.429688 52.839844 46.398438 52.777344 46.367188 52.714844 C 46.277344 52.714844 46.207031 52.582031 46.269531 52.492188 C 46.203125 52.34375 46.136719 52.195312 46.066406 52.046875 C 45.792969 51.457031 45.511719 50.875 45.226562 50.289062 C 44.527344 48.859375 43.804688 47.433594 42.992188 46.058594 C 42.675781 45.523438 42.34375 44.984375 41.949219 44.496094 Z M 38.386719 43.234375 C 38.375 43.246094 38.367188 43.25 38.355469 43.257812 C 37.914062 43.539062 37.445312 43.847656 36.914062 43.898438 L 36.867188 43.898438 C 37.503906 44.089844 38.175781 44.089844 38.824219 43.925781 C 38.675781 43.695312 38.535156 43.464844 38.386719 43.234375 Z M 36.839844 43.226562 C 36.84375 43.222656 36.851562 43.214844 36.859375 43.214844 C 36.867188 43.207031 36.878906 43.199219 36.890625 43.1875 C 36.910156 43.167969 36.925781 43.152344 36.945312 43.132812 C 36.953125 43.128906 36.957031 43.121094 36.960938 43.113281 C 36.96875 43.097656 36.972656 43.085938 36.980469 43.074219 C 36.984375 43.070312 36.984375 43.074219 36.984375 43.070312 C 36.984375 43.070312 36.984375 43.070312 36.984375 43.066406 C 36.988281 43.058594 36.992188 43.046875 36.996094 43.039062 C 36.996094 43.035156 36.996094 43.027344 36.996094 43.027344 C 36.996094 43.019531 36.996094 43.007812 37 43 C 37 42.992188 37 42.992188 37 42.988281 C 37 42.988281 37 42.988281 36.996094 42.988281 C 36.996094 42.980469 36.996094 42.96875 36.992188 42.960938 C 36.988281 42.957031 36.988281 42.960938 36.988281 42.957031 C 36.984375 42.953125 36.984375 42.953125 36.984375 42.949219 C 36.984375 42.949219 36.980469 42.949219 36.980469 42.945312 C 36.980469 42.941406 36.980469 42.941406 36.976562 42.941406 C 36.972656 42.9375 36.957031 42.925781 36.953125 42.925781 C 36.945312 42.921875 36.933594 42.910156 36.925781 42.902344 C 36.847656 42.972656 36.761719 43.035156 36.683594 43.105469 C 36.582031 43.195312 36.484375 43.28125 36.386719 43.382812 C 36.394531 43.386719 36.402344 43.390625 36.40625 43.394531 C 36.410156 43.394531 36.410156 43.394531 36.410156 43.394531 C 36.410156 43.394531 36.410156 43.394531 36.414062 43.394531 C 36.417969 43.398438 36.425781 43.398438 36.429688 43.402344 C 36.425781 43.398438 36.445312 43.402344 36.453125 43.402344 C 36.464844 43.40625 36.476562 43.402344 36.492188 43.402344 C 36.496094 43.402344 36.503906 43.398438 36.507812 43.398438 C 36.53125 43.394531 36.554688 43.386719 36.582031 43.378906 C 36.582031 43.375 36.597656 43.367188 36.597656 43.367188 C 36.609375 43.363281 36.621094 43.359375 36.632812 43.351562 C 36.660156 43.34375 36.683594 43.328125 36.703125 43.3125 C 36.753906 43.289062 36.800781 43.257812 36.839844 43.226562 Z M 42.464844 43.945312 C 42.398438 43.507812 42.335938 43.046875 42.359375 42.59375 C 42.023438 42.980469 41.613281 43.304688 41.109375 43.429688 C 41.214844 43.535156 41.328125 43.628906 41.460938 43.695312 C 41.546875 43.742188 41.625 43.785156 41.703125 43.839844 C 41.871094 43.972656 42.015625 44.140625 42.152344 44.3125 C 42.328125 44.53125 42.496094 44.757812 42.652344 44.992188 C 42.574219 44.648438 42.515625 44.292969 42.464844 43.945312 Z M 44.53125 38.484375 C 44.570312 38.144531 44.578125 37.800781 44.554688 37.460938 C 44.488281 37.515625 44.425781 37.582031 44.378906 37.660156 C 44.320312 37.746094 44.222656 37.734375 44.160156 37.683594 C 44.082031 38.355469 43.972656 39.015625 43.792969 39.667969 C 43.804688 39.65625 43.820312 39.652344 43.835938 39.652344 C 44.339844 39.585938 44.789062 39.195312 45.125 38.84375 C 45.488281 38.476562 45.789062 38.054688 45.914062 37.542969 C 46.019531 37.078125 46.039062 36.390625 45.589844 36.089844 C 45.199219 35.820312 44.667969 35.929688 44.296875 36.183594 C 44.285156 36.316406 44.277344 36.449219 44.265625 36.585938 C 44.242188 36.875 44.214844 37.164062 44.1875 37.457031 C 44.492188 37.046875 45.050781 36.847656 45.542969 37.023438 C 45.609375 37.046875 45.65625 37.117188 45.636719 37.191406 C 45.621094 37.257812 45.539062 37.316406 45.464844 37.289062 C 45.242188 37.207031 44.988281 37.226562 44.773438 37.324219 C 44.808594 37.347656 44.828125 37.386719 44.832031 37.429688 C 44.859375 37.78125 44.851562 38.136719 44.808594 38.484375 C 44.796875 38.558594 44.75 38.621094 44.667969 38.621094 C 44.597656 38.621094 44.519531 38.558594 44.53125 38.484375 Z M 32.894531 39.359375 C 32.882812 39.28125 32.863281 39.203125 32.855469 39.121094 C 32.777344 38.5625 32.75 37.996094 32.71875 37.429688 C 32.683594 37.417969 32.65625 37.402344 32.636719 37.371094 C 32.539062 37.234375 32.410156 37.128906 32.261719 37.050781 C 32.320312 37.359375 32.375 37.667969 32.433594 37.980469 C 32.453125 38.050781 32.414062 38.128906 32.339844 38.148438 C 32.269531 38.167969 32.179688 38.128906 32.164062 38.050781 C 32.097656 37.683594 32.03125 37.316406 31.964844 36.945312 C 31.792969 36.910156 31.617188 36.917969 31.449219 36.96875 C 31.277344 37.023438 31.207031 36.757812 31.375 36.703125 C 31.839844 36.558594 32.347656 36.703125 32.691406 37.023438 C 32.664062 36.609375 32.625 36.191406 32.5625 35.777344 C 32.546875 35.765625 32.53125 35.75 32.515625 35.730469 C 32.21875 35.304688 31.605469 35.3125 31.234375 35.636719 C 30.820312 35.992188 30.710938 36.605469 30.789062 37.125 C 30.941406 38.136719 31.890625 39.128906 32.894531 39.359375 Z M 35.960938 43.480469 C 35.964844 43.464844 35.96875 43.449219 35.976562 43.429688 C 36.09375 43.222656 36.324219 43.050781 36.5 42.898438 C 36.804688 42.632812 37.125 42.386719 37.449219 42.148438 C 37.765625 41.921875 38.089844 41.699219 38.433594 41.515625 C 38.636719 41.414062 38.914062 41.257812 39.152344 41.320312 C 39.496094 41.414062 39.761719 41.816406 39.964844 42.074219 C 40.273438 42.464844 40.566406 42.871094 40.90625 43.234375 C 40.921875 43.207031 40.945312 43.1875 40.980469 43.179688 C 41.6875 43.027344 42.195312 42.441406 42.5625 41.855469 C 43.800781 39.890625 43.964844 37.503906 44.082031 35.25 C 43.84375 35.117188 43.621094 34.949219 43.421875 34.804688 C 42.257812 33.945312 41.210938 32.921875 40.148438 31.941406 C 39.640625 31.472656 39.136719 31.007812 38.605469 30.566406 C 38.410156 30.40625 38.214844 30.246094 38.003906 30.101562 C 37.6875 29.890625 37.355469 29.71875 37.097656 29.4375 C 37.039062 29.640625 36.945312 29.835938 36.835938 30.007812 C 36.289062 30.886719 35.425781 31.550781 34.613281 32.175781 C 34.335938 32.386719 34.046875 32.601562 33.816406 32.867188 C 33.609375 33.101562 33.441406 33.367188 33.296875 33.644531 C 33.023438 34.167969 32.835938 34.75 32.765625 35.34375 C 32.769531 35.34375 32.769531 35.347656 32.769531 35.351562 C 33.027344 36.636719 32.929688 37.957031 33.148438 39.242188 C 33.226562 39.714844 33.414062 40.175781 33.613281 40.601562 C 33.910156 41.230469 34.273438 41.835938 34.71875 42.367188 C 35.078125 42.796875 35.484375 43.183594 35.960938 43.480469 Z M 35.246094 46.113281 C 35.246094 46.226562 35.269531 46.339844 35.308594 46.449219 C 35.472656 46.769531 35.765625 47 36.097656 47.136719 C 36.246094 47.195312 36.410156 47.25 36.566406 47.28125 C 36.667969 47.296875 36.800781 47.300781 36.925781 47.304688 C 36.957031 47.191406 36.980469 47.078125 36.980469 46.945312 C 36.980469 46.746094 36.953125 46.550781 36.90625 46.359375 C 36.867188 46.1875 36.820312 46.011719 36.867188 45.835938 C 36.953125 45.53125 37.296875 45.378906 37.550781 45.234375 C 37.914062 45.023438 38.277344 44.816406 38.640625 44.605469 C 38.808594 44.511719 38.980469 44.414062 39.160156 44.347656 C 39.121094 44.34375 39.078125 44.328125 39.050781 44.285156 C 39.023438 44.242188 38.996094 44.199219 38.96875 44.160156 C 38.957031 44.171875 38.941406 44.179688 38.917969 44.183594 C 37.988281 44.429688 37.023438 44.351562 36.164062 43.914062 C 36.003906 43.835938 35.847656 43.746094 35.703125 43.648438 C 35.800781 44.21875 35.722656 44.8125 35.546875 45.371094 C 35.558594 45.40625 35.546875 45.449219 35.511719 45.480469 C 35.441406 45.6875 35.355469 45.890625 35.261719 46.085938 C 35.257812 46.097656 35.25 46.105469 35.246094 46.113281 Z M 34.980469 45.882812 C 34.433594 46.40625 33.902344 46.949219 33.390625 47.503906 C 33 47.925781 32.621094 48.351562 32.269531 48.804688 C 31.957031 49.222656 31.679688 49.648438 31.511719 50.144531 C 31.355469 50.609375 31.402344 51.011719 31.609375 51.449219 C 31.804688 51.875 32.03125 52.292969 32.257812 52.699219 C 32.480469 53.09375 32.714844 53.480469 32.960938 53.863281 C 33.179688 54.207031 33.503906 54.5625 33.59375 54.972656 C 33.753906 55.699219 33.125 56.21875 32.921875 56.859375 C 32.785156 57.285156 32.929688 57.707031 33.132812 58.085938 C 33.335938 58.464844 33.578125 58.816406 33.792969 59.183594 C 34.167969 59.816406 34.527344 60.464844 34.960938 61.058594 C 35.398438 61.65625 35.921875 62.175781 36.53125 62.59375 C 37.042969 62.382812 37.558594 62.175781 38.070312 61.96875 C 38.066406 61.960938 38.0625 61.953125 38.058594 61.945312 C 38.082031 61.933594 38.109375 61.921875 38.132812 61.910156 C 38.195312 61.894531 38.257812 61.875 38.320312 61.847656 C 38.324219 61.855469 38.328125 61.859375 38.328125 61.863281 C 38.929688 61.625 39.527344 61.386719 40.128906 61.148438 C 40.203125 61.125 40.28125 61.179688 40.300781 61.25 C 40.417969 61.648438 40.53125 62.046875 40.640625 62.449219 C 40.820312 62.351562 40.996094 62.25 41.167969 62.148438 C 41.167969 62.136719 41.171875 62.128906 41.171875 62.117188 C 41.289062 62.0625 41.398438 61.988281 41.503906 61.914062 C 41.5 61.921875 41.5 61.933594 41.496094 61.945312 C 41.644531 61.847656 41.785156 61.75 41.910156 61.628906 C 42.027344 61.503906 42.105469 61.359375 42.1875 61.21875 C 42.324219 60.988281 42.484375 60.753906 42.65625 60.542969 C 42.773438 60.390625 42.921875 60.277344 43.085938 60.191406 C 42.871094 59.746094 42.648438 59.304688 42.4375 58.863281 C 42.324219 58.632812 42.214844 58.410156 42.109375 58.183594 C 42.054688 58.003906 41.988281 57.832031 41.878906 57.683594 C 41.875 57.675781 41.867188 57.671875 41.859375 57.667969 C 41.839844 57.625 41.820312 57.582031 41.800781 57.539062 C 41.773438 57.484375 41.777344 57.417969 41.820312 57.371094 L 41.871094 57.324219 L 41.875 57.324219 C 41.875 57.308594 41.875 57.296875 41.878906 57.285156 C 41.984375 57.191406 42.09375 57.097656 42.199219 57 C 42.25 56.953125 42.300781 56.902344 42.347656 56.851562 C 42.566406 56.636719 42.785156 56.417969 43.003906 56.207031 C 42.839844 55.507812 42.632812 54.832031 42.378906 54.167969 C 42.378906 54.183594 42.378906 54.195312 42.378906 54.207031 C 42.296875 54.007812 42.207031 53.8125 42.132812 53.609375 C 42.140625 53.605469 42.140625 53.601562 42.148438 53.597656 C 41.957031 53.144531 41.75 52.707031 41.515625 52.269531 C 41.019531 52.253906 40.503906 52.027344 40.132812 51.703125 C 39.734375 51.355469 39.4375 50.90625 39.160156 50.460938 C 39.074219 50.316406 38.980469 50.171875 38.890625 50.023438 C 38.386719 50.242188 37.804688 50.085938 37.347656 49.816406 C 36.976562 49.597656 36.554688 49.246094 36.433594 48.816406 C 36.347656 48.511719 36.476562 48.222656 36.628906 47.964844 C 36.703125 47.832031 36.769531 47.707031 36.828125 47.578125 C 36.714844 47.570312 36.597656 47.5625 36.484375 47.542969 C 36.3125 47.511719 36.132812 47.445312 35.96875 47.371094 C 35.828125 47.3125 35.695312 47.238281 35.574219 47.144531 C 35.546875 47.148438 35.519531 47.144531 35.496094 47.128906 C 35.105469 46.851562 34.902344 46.351562 34.980469 45.882812 Z M 42.816406 60.785156 C 42.640625 61.023438 42.484375 61.265625 42.332031 61.515625 C 42.15625 61.804688 41.910156 61.996094 41.636719 62.183594 C 41.339844 62.378906 41.03125 62.554688 40.71875 62.71875 C 40.75 62.835938 40.785156 62.960938 40.8125 63.078125 C 41.171875 64.402344 41.511719 65.726562 41.84375 67.058594 C 43.097656 66.390625 44.367188 65.761719 45.660156 65.183594 C 45.058594 64.101562 44.492188 63.003906 43.933594 61.898438 C 43.6875 61.414062 43.449219 60.921875 43.210938 60.4375 C 43.058594 60.523438 42.925781 60.636719 42.816406 60.785156 Z M 29.839844 72.988281 C 30.867188 72.992188 31.917969 72.945312 32.921875 72.695312 C 34.222656 72.375 35.464844 71.785156 36.664062 71.191406 C 37.898438 70.582031 39.113281 69.917969 40.308594 69.226562 C 40.832031 68.925781 41.355469 68.613281 41.871094 68.296875 C 41.824219 68.125 41.785156 67.953125 41.738281 67.777344 C 41.703125 67.632812 41.667969 67.484375 41.632812 67.339844 C 41.609375 67.308594 41.597656 67.269531 41.605469 67.234375 C 41.125 65.304688 40.640625 63.375 40.078125 61.46875 C 39.085938 61.855469 38.097656 62.246094 37.113281 62.648438 C 36.945312 62.714844 36.78125 62.785156 36.613281 62.851562 C 36.589844 62.882812 36.550781 62.902344 36.503906 62.898438 C 34.863281 63.570312 33.230469 64.253906 31.601562 64.964844 C 30.714844 65.351562 29.824219 65.742188 28.9375 66.144531 C 28.152344 66.5 27.367188 66.894531 26.765625 67.523438 C 26.644531 67.652344 26.449219 67.457031 26.574219 67.328125 C 27.246094 66.621094 28.132812 66.203125 29.011719 65.808594 C 29.472656 65.601562 29.929688 65.40625 30.390625 65.199219 C 30.371094 65.183594 30.355469 65.160156 30.351562 65.125 C 30.253906 64.472656 30.152344 63.824219 30.042969 63.175781 C 29.644531 60.851562 29.128906 58.496094 28.148438 56.339844 C 28.074219 56.179688 28.316406 56.039062 28.386719 56.199219 C 28.65625 56.789062 28.890625 57.394531 29.097656 58.011719 C 29.859375 60.292969 30.269531 62.675781 30.617188 65.054688 C 30.617188 65.070312 30.617188 65.085938 30.617188 65.101562 C 32.476562 64.28125 34.347656 63.488281 36.234375 62.714844 C 35.613281 62.253906 35.082031 61.707031 34.636719 61.074219 C 34.132812 60.363281 33.722656 59.585938 33.265625 58.84375 C 32.832031 58.136719 32.367188 57.402344 32.734375 56.566406 C 32.882812 56.238281 33.117188 55.945312 33.253906 55.609375 C 33.328125 55.429688 33.367188 55.234375 33.324219 55.042969 C 33.285156 54.839844 33.167969 54.667969 33.050781 54.5 C 32.519531 53.707031 32.027344 52.890625 31.59375 52.039062 C 31.394531 51.660156 31.175781 51.265625 31.132812 50.835938 C 31.089844 50.40625 31.253906 49.988281 31.425781 49.601562 C 31.625 49.164062 31.9375 48.773438 32.238281 48.398438 C 32.609375 47.941406 33.007812 47.5 33.414062 47.070312 C 33.785156 46.675781 34.164062 46.289062 34.554688 45.910156 C 34.101562 46.117188 33.652344 46.324219 33.207031 46.550781 C 32.355469 46.980469 31.554688 47.503906 30.75 48.015625 C 29.78125 48.625 28.800781 49.21875 27.851562 49.855469 C 26.960938 50.449219 26.128906 51.121094 25.488281 51.980469 C 24.203125 53.695312 23.648438 55.820312 23.414062 57.917969 C 23.285156 59.078125 23.238281 60.242188 23.199219 61.40625 C 23.160156 62.589844 23.144531 63.773438 23.15625 64.960938 C 23.160156 65.761719 23.160156 66.566406 23.253906 67.367188 C 23.335938 68.097656 23.464844 68.824219 23.648438 69.539062 C 23.8125 70.183594 24 70.859375 24.371094 71.417969 C 24.570312 71.71875 24.871094 71.917969 25.171875 72.109375 C 25.59375 72.378906 26.054688 72.585938 26.535156 72.71875 C 27.035156 72.855469 27.542969 72.890625 28.058594 72.917969 C 28.648438 72.960938 29.242188 72.988281 29.839844 72.988281 Z M 40.832031 74.675781 C 40.765625 72.984375 40.59375 71.296875 40.3125 69.625 C 40.308594 69.589844 40.316406 69.558594 40.328125 69.535156 C 40.078125 69.679688 39.820312 69.828125 39.566406 69.972656 C 38.277344 70.695312 36.964844 71.390625 35.617188 71.996094 C 34.984375 72.277344 34.347656 72.546875 33.691406 72.761719 C 32.941406 73.007812 32.167969 73.140625 31.382812 73.210938 C 30.753906 73.261719 30.128906 73.273438 29.5 73.261719 C 29.503906 73.277344 29.507812 73.296875 29.503906 73.320312 C 29.457031 73.667969 29.414062 74.015625 29.371094 74.363281 C 29.394531 74.363281 29.414062 74.367188 29.433594 74.375 C 30.425781 74.519531 31.5625 74.550781 32.605469 74.59375 C 34.355469 74.667969 36.109375 74.695312 37.863281 74.699219 C 38.855469 74.699219 39.839844 74.695312 40.832031 74.675781 Z M 51.339844 69.328125 C 50.445312 69.375 49.546875 69.136719 48.753906 68.738281 C 48.183594 68.449219 47.578125 68.074219 47.167969 67.574219 C 46.625 66.925781 46.207031 66.164062 45.796875 65.421875 C 44.480469 66.015625 43.1875 66.652344 41.914062 67.332031 C 41.996094 67.664062 42.082031 67.992188 42.164062 68.324219 C 42.179688 68.386719 42.152344 68.449219 42.101562 68.480469 C 42.0625 68.503906 42.023438 68.53125 41.980469 68.554688 C 41.484375 68.859375 40.980469 69.15625 40.472656 69.449219 C 40.523438 69.453125 40.570312 69.484375 40.582031 69.550781 C 40.867188 71.242188 41.042969 72.953125 41.109375 74.667969 C 42.007812 74.648438 42.90625 74.621094 43.800781 74.582031 C 45.535156 74.507812 47.28125 74.394531 49 74.144531 C 49.632812 74.050781 50.269531 73.941406 50.886719 73.769531 C 51.257812 73.667969 51.632812 73.542969 51.957031 73.335938 C 51.675781 72.011719 51.449219 70.671875 51.339844 69.328125 Z M 54.898438 56.679688 C 54.632812 54.609375 54.136719 52.472656 52.8125 50.796875 C 52.1875 50.007812 51.433594 49.316406 50.65625 48.679688 C 49.878906 48.046875 49.058594 47.476562 48.199219 46.972656 C 46.703125 46.105469 45.101562 45.4375 43.429688 44.988281 C 43.792969 45.40625 44.164062 45.824219 44.53125 46.238281 C 45.339844 47.152344 46.183594 48.117188 46.6875 49.238281 C 47.148438 50.253906 47.503906 51.691406 46.601562 52.550781 C 46.625 52.601562 46.652344 52.652344 46.675781 52.707031 C 46.753906 52.636719 46.863281 52.523438 46.976562 52.554688 C 47.0625 52.578125 47.136719 52.679688 47.195312 52.742188 C 47.328125 52.886719 47.453125 53.03125 47.578125 53.175781 C 47.988281 53.660156 48.386719 54.15625 48.78125 54.652344 C 48.972656 54.894531 49.160156 55.140625 49.347656 55.382812 C 49.359375 55.257812 49.363281 55.132812 49.375 55.007812 C 49.386719 54.707031 49.398438 54.40625 49.421875 54.101562 C 49.460938 53.550781 49.496094 52.921875 49.773438 52.433594 C 49.863281 52.277344 50.101562 52.417969 50.015625 52.574219 C 49.738281 53.054688 49.722656 53.6875 49.691406 54.226562 C 49.660156 54.707031 49.679688 55.214844 49.585938 55.6875 C 50.355469 56.691406 51.101562 57.71875 51.800781 58.777344 C 52.203125 59.390625 52.597656 60.019531 52.925781 60.679688 C 53.128906 61.082031 53.371094 61.558594 53.359375 62.019531 C 53.355469 62.195312 53.078125 62.195312 53.082031 62.019531 C 53.082031 61.929688 53.074219 61.875 53.0625 61.796875 C 52.960938 61.285156 52.6875 60.796875 52.433594 60.339844 C 52.058594 59.667969 51.636719 59.019531 51.199219 58.382812 C 50.28125 57.035156 49.292969 55.730469 48.273438 54.457031 C 47.921875 54.023438 47.570312 53.589844 47.207031 53.167969 C 47.113281 53.0625 47.023438 52.957031 46.921875 52.855469 C 46.5625 53.136719 46.234375 53.476562 45.90625 53.789062 C 45.351562 54.316406 44.796875 54.847656 44.25 55.382812 C 43.933594 55.6875 43.625 55.996094 43.308594 56.304688 C 43.3125 56.386719 43.238281 56.445312 43.164062 56.445312 C 42.820312 56.785156 42.46875 57.121094 42.125 57.464844 C 42.117188 57.484375 42.109375 57.5 42.09375 57.511719 C 42.371094 58.097656 42.65625 58.683594 42.9375 59.265625 C 43.078125 59.554688 43.21875 59.84375 43.363281 60.128906 C 43.417969 60.164062 43.453125 60.230469 43.441406 60.285156 C 43.785156 60.984375 44.136719 61.6875 44.492188 62.386719 C 45.042969 63.460938 45.601562 64.53125 46.203125 65.578125 C 46.441406 65.988281 46.679688 66.398438 46.941406 66.796875 C 47.113281 67.058594 47.289062 67.324219 47.511719 67.546875 C 48.101562 68.136719 48.921875 68.582031 49.71875 68.832031 C 50.628906 69.125 51.65625 69.164062 52.554688 68.785156 C 53.019531 68.59375 53.40625 68.273438 53.679688 67.851562 C 53.933594 67.449219 54.085938 67 54.214844 66.546875 C 54.515625 65.488281 54.726562 64.402344 54.878906 63.320312 C 55.179688 61.125 55.183594 58.882812 54.898438 56.679688 Z M 27.621094 28.050781 C 27.722656 28.1875 27.96875 28.054688 27.859375 27.910156 C 26.109375 25.609375 23.835938 23.71875 21.25 22.417969 C 20.523438 22.050781 19.773438 21.734375 19.007812 21.464844 C 18.835938 21.402344 18.765625 21.671875 18.933594 21.726562 C 21.601562 22.671875 24.042969 24.222656 26.03125 26.226562 C 26.601562 26.796875 27.132812 27.410156 27.621094 28.050781 Z M 17.230469 13.171875 C 17.308594 13.316406 17.265625 13.410156 17.230469 13.453125 C 17.222656 13.464844 17.203125 13.476562 17.191406 13.484375 C 17.1875 13.503906 17.183594 13.527344 17.164062 13.542969 C 15.707031 15.183594 14.21875 16.808594 12.921875 18.582031 C 12.921875 18.585938 12.921875 18.585938 12.921875 18.585938 C 12.953125 18.742188 12.96875 18.898438 12.957031 19.054688 C 12.9375 19.347656 12.855469 19.636719 12.691406 19.878906 C 12.503906 20.160156 12.226562 20.339844 11.917969 20.460938 C 11.554688 20.605469 11.164062 20.660156 10.78125 20.714844 C 10.347656 20.773438 9.910156 20.816406 9.472656 20.765625 C 9.371094 20.75 9.316406 20.621094 9.414062 20.5625 C 9.652344 20.425781 9.855469 20.246094 9.953125 19.988281 C 10.046875 19.75 10.042969 19.480469 10.09375 19.230469 C 10.226562 18.523438 10.621094 17.59375 11.433594 17.464844 C 11.726562 17.417969 12.035156 17.496094 12.292969 17.648438 C 13.644531 16.007812 15.042969 14.402344 16.492188 12.835938 C 16.515625 12.8125 16.542969 12.800781 16.566406 12.804688 C 16.6875 12.761719 16.859375 12.808594 17.023438 12.929688 C 17.117188 13 17.195312 13.082031 17.230469 13.171875 Z M 10.742188 20.480469 C 10.75 20.324219 10.765625 20.15625 10.738281 20.003906 C 10.707031 19.878906 10.636719 19.777344 10.542969 19.6875 C 10.457031 19.605469 10.363281 19.535156 10.28125 19.445312 C 10.265625 19.550781 10.25 19.652344 10.234375 19.761719 C 10.1875 20.09375 10.023438 20.359375 9.785156 20.566406 C 10.105469 20.574219 10.429688 20.546875 10.75 20.5 C 10.75 20.492188 10.742188 20.492188 10.742188 20.480469 Z M 12.746094 18.949219 C 12.746094 18.683594 12.679688 18.417969 12.550781 18.195312 C 12.425781 17.988281 12.21875 17.828125 11.996094 17.742188 C 11.765625 17.648438 11.507812 17.636719 11.277344 17.726562 C 10.953125 17.855469 10.730469 18.15625 10.574219 18.457031 C 10.464844 18.667969 10.398438 18.890625 10.34375 19.113281 C 10.34375 19.230469 10.449219 19.328125 10.53125 19.394531 C 10.625 19.476562 10.722656 19.554688 10.800781 19.65625 C 10.890625 19.769531 10.941406 19.886719 10.960938 20.027344 C 10.976562 20.175781 10.964844 20.324219 10.964844 20.46875 C 10.976562 20.46875 10.992188 20.464844 11.007812 20.460938 C 11.421875 20.398438 11.859375 20.3125 12.210938 20.066406 C 12.570312 19.8125 12.746094 19.378906 12.746094 18.949219 Z M 16.90625 13.507812 C 16.832031 13.484375 16.746094 13.449219 16.671875 13.390625 C 16.589844 13.328125 16.519531 13.25 16.476562 13.171875 C 15.101562 14.667969 13.761719 16.203125 12.472656 17.773438 C 12.578125 17.859375 12.671875 17.964844 12.742188 18.082031 C 12.785156 18.160156 12.816406 18.238281 12.851562 18.320312 C 13.097656 17.988281 13.351562 17.65625 13.617188 17.328125 C 14.660156 16.015625 15.789062 14.765625 16.90625 13.507812 Z M 17.0625 13.316406 C 17.0625 13.300781 17.023438 13.199219 16.894531 13.101562 C 16.773438 13.011719 16.667969 12.996094 16.640625 13.003906 C 16.640625 13.039062 16.683594 13.128906 16.804688 13.222656 C 16.933594 13.320312 17.042969 13.328125 17.0625 13.316406 Z M 17.0625 13.316406 " fill-opacity="1" fill-rule="nonzero"/></svg>