<svg width="800" height="457.59999999999997" xmlns="http://www.w3.org/2000/svg">
<g transform="translate(0, 0)" id="single_state_map"><path d="M687.1643905134351,379.9096057570732L688.409510920872,379.56881891841886L687.7812677799084,380.512241284026L686.9632962503874,380.9346259701838L685.7503420106277,381.4622467211648L684.5373877708662,382.05188945208556L683.3643255219649,382.89692374281503L682.7890488418634,383.2510719784418L680.2346985519216,383.55471095127496L680.3749519574003,382.9950476748736L680.7850148802008,382.2408483680056L681.2319240366442,381.45967692322756L681.5659173157946,381.15129373997524L682.4613699374304,381.21395997746504L683.6317578629214,380.4379034623712L684.4530722967029,380.5407108612226L686.4734493458691,380.06550948624954ZM673.1493015385613,397.9058933197243L673.4370141653744,397.5367722259157L673.5594387481242,396.8457966813171L676.7164032463534,398.18814239294625L676.9422350009409,398.93575215149576L676.5107774908638,402.4486777898337L675.8618083434758,402.86953346628934L675.7511953557851,402.7844187927385L675.7559497085131,400.7192572373674L675.3090405520707,399.6706598931337L675.0677571511187,399.4342092729448L674.0158566100235,399.01155322636987L672.6286999148333,399.08252351949886L672.429017100254,398.89326767599505L672.3541360447853,398.5541704558523L672.5169726257227,398.2560656736123ZM559.8537446084101,409.64842094985033L559.9550717509273,410.1969283482895L559.6579247054206,411.298821679261L559.5019225065298,411.51526236000745L559.3236342792252,411.4168811269483L558.3132600377394,411.84974740135294L557.9269688785798,413.2071862853868L557.6892512421737,413.58092398522604L556.8348791995795,414.13165613607043L555.0694543154596,414.87516880943485L554.3239123782814,415.5671756982574L552.4666690570994,416.7862185572858L550.6420376241631,419.45473101627476L550.3846339959919,420.1345588086274L550.3327075497909,421.06285750551615L550.0887498254287,422.10348700517216L550.1426820141878,422.5311243097967L550.3882740472991,422.7607443195998L550.5799338916522,423.19629294906645L550.585951119323,423.4655623221852L550.573990950742,423.68719545657177L550.6518434766649,424.027731794768L550.5499963268167,424.1543973397893L550.454166404641,424.2335375066691L550.3403590862117,424.11482689550985L550.1307218456068,423.7189128287714L549.9210103182395,423.27544476704725L550.0348176366679,422.8003229978799L549.8311976237346,422.3647478627904L549.7173903053063,422.38851618711533L549.4598381036121,422.72116540058505L549.2896471332979,423.13059424490257L548.7420794151885,422.98583870552284L548.3040846701115,423.25727725127126L548.0987560616668,424.39711698531755L548.1261678766132,424.7951497581371L548.3725027773407,425.3559281924754L548.9200704954483,426.0251273348772L549.4538951627019,426.3145982162355L550.6397347345601,428.34514614326736L551.0362031800278,428.3090355947588L551.6105141322332,427.7671570754296L552.6705119303188,425.7900270679497L552.6431744021311,425.2112221352081L554.5839160431015,422.65202447809816L554.7027748613036,422.2689861723693L554.4056278157959,421.4242579021843L554.4873432533113,421.316203350621L555.6685770459644,420.9626559604917L558.4989769411814,422.2494407926215L559.9625004270665,421.5717003539271L560.0739305691313,420.1668830025642L561.0619444954427,418.7519350484604L561.6043121402554,418.20169262421314L562.1093878308557,418.08385469492214L562.8077576745591,418.23117634250684L563.9741341149365,417.7495921982122L564.4718554161609,417.30728961476143L566.3439560896186,416.5110691077525L566.6262457828498,416.4717470489163L567.9709104505318,417.1696782279673L570.110443464946,416.61920354276435L570.4274993625013,416.7643957679602L571.5461094153134,416.2389555868863L571.7911814410963,415.71691400802956L572.1534779763306,413.88589768336897L572.628913249142,413.4630022281299L573.1489205787802,413.8662287378611L574.2377416402796,414.3185994165933L576.2467528149555,414.59394005848344L576.7519770790786,415.095423385967L576.8282695830121,415.9105953442322L578.5191848454706,416.03555115272366L578.7502909601144,415.55754041636146L578.7132218661873,413.8760632180588L578.9063674457666,412.7154917455432L578.9880828832811,412.59745590864213L579.500661536782,412.587619492052L580.8675379461147,414.3284332119133L581.4990497045792,414.9086007883516L582.4796349547523,415.4002276705128L583.0144996366653,415.53787653142217L583.1185011025937,415.34123440883604L584.0694459349779,415.11508861004677L586.766129659718,415.616531714119L591.6522671025159,417.52126953381776L597.6168254602217,415.18381810064875L597.8212626275308,414.5765349420253L597.9378185561318,412.5340107597399L597.2118140371967,411.96189441066736L596.8307229513321,411.29390248901245L598.4709003557718,411.45593865492674L599.8946804243196,410.34708572880527L600.4862259051633,410.95053379882575L602.6246446181558,410.840337131624L605.4387014258709,411.9100512532609L605.6805791209135,411.6825070347636L608.9873800168407,411.48574814663334L612.0159027046511,411.52037814334926L615.0861002655929,411.8824079583751L616.9866527686581,411.8336138125578L621.6067693189652,411.1614764867222L625.4661894327755,411.60223012856386L626.5116270256312,410.61639599780074L629.8995490649813,409.60659708063804L631.762958187358,409.19523266231454L633.5698350843259,409.419616486784L635.7719918385801,409.1204363299312L639.4898213852057,408.42646240552676L640.9696879585936,407.25300419396353L641.2989268850151,406.66860759683914L642.125069958287,406.23539554222134L644.2277567390583,404.4817725440257L647.5143516358903,403.04764018464493L648.7421632279256,401.58954296513775L649.8962823526763,399.70693000408664L651.9240880779789,399.52567598061114L653.4800242950159,398.7024290996392L656.5193185632261,395.02177171429867L658.2083023698897,394.589456867905L659.0232281421941,394.32845609762353L661.3463237439692,392.82794126589124L662.2615366441314,392.5469383190748L662.6918055660253,392.9131869371249L663.0555878364876,392.9984314848002L664.7457602313325,392.3007547063453L665.2759448472789,392.47116015329766L665.3116024927413,392.77268884180285L664.1348259057695,394.67625751201876L663.2766652383452,395.5299981568819L660.6580568998124,397.12828917542583L660.682571531067,395.1772125659654L660.2118163242212,394.6070143648749L659.739872529195,394.5373759224567L659.3378325766244,394.6766520577412L658.7075836931035,395.1670537918653L658.0656717880456,396.3394485647618L658.0726547436152,397.65646283506067L659.4052849559539,399.45628756203814L660.8553625380291,400.2070031645376L662.1438664141106,400.27007626459726L662.416053107795,400.63273467169483L661.9418064231659,401.50460854151834L662.6427763035172,403.11452745011L663.6190529215319,404.04713393181646L665.0500388059327,403.7807027003437L665.9331598251802,403.82157918271514L666.8162808444276,404.1903423496469L667.97641719685,405.01131662543867L668.8155604533622,404.98137889097507L669.3576309511282,404.6819939427878L669.6381377620874,404.4046566027273L669.9804511585126,403.64506973018206L670.8707037068516,402.9515931984711L671.0585006396122,402.8885461978016L671.5423303164589,403.0824137681607L672.7725190848587,404.2816434514825L672.9329784894335,405.10890874080724L672.7641989675849,405.83523942532656L674.3272667137153,408.2090328107024L674.8740172774478,408.7712441490489L675.3827330193562,409.02467608275265L675.8807514676264,409.0404229830747L676.8031701836426,408.53807802716483L677.0325677027749,407.85142451452293L677.0877627664777,407.555322132564L677.3130745137323,407.2938587928297L678.8545990990624,405.99780582583753L679.4456245725769,405.9674787871745L680.3129967984123,406.14530349155893L681.856601413062,405.3980327628942L683.0268407650292,404.2831208050179L683.6100661285991,403.38285764046213L684.3760369251559,403.38285764046213L684.4551523260225,403.8069030777433L685.4203602165908,403.485005384488L685.8632578879196,402.844215908206L685.9169672163944,402.2924261921776L685.8272288086519,401.8842429866927L685.9734251550426,401.1732354048827L687.5590760766299,400.5646392201943L688.9604958300033,400.25874286219596L690.4558140497575,400.2272063337564L690.7351322725344,400.5677927156685L691.1773613630094,400.73334907199387L692.6619822891253,400.7978951954756L693.039953331011,400.61341968147826L693.5581777783746,400.94452583098655L693.6532648329376,401.2362005612017L692.3386863036139,403.0411385874186L690.1230093587892,404.2341709786497L687.7493244725165,404.8235141429195L680.7910321078725,408.19791014117254L674.4698972955584,410.9360705929075L653.5654540706,421.300486175418L648.057387861556,423.64978250614604L640.3727938309303,426.54487003278564L627.6127796895189,431.07405350613635L627.0256171275969,431.4193040357118L626.7237157293612,431.3408396119462L625.9083442364899,431.61389173124553L618.8502104645568,434.4207419550853L614.389290443878,436.3497816679983L607.7531797633264,439.64498349097175L604.6020839192452,440.9457143967729L593.2007746434156,444.42027532670136L590.9201710691477,444.98641640542246L589.2141013073679,445.34111052154094L585.9239406459883,445.4115772597984L585.6755257159439,445.23775793147297L584.9685386079218,443.93954546887744L582.5759105974967,444.4578629760804L579.5671481882146,445.73013616097296L575.2286527502856,447.10010506664094L572.6623422917619,447.6976151857498L565.9436990193199,450.0130750171197L566.0141228691045,448.87192992033806L565.3185016355728,448.74349339935634L563.3053304022606,448.6456725753228L560.64579005821,449.12488282392906L552.6152425798527,448.9683779273355L552.7212497883384,448.3661904217124L551.1182157645881,448.34672307155734L548.7480223560997,448.9473472965187L546.6996391978955,449.6729139017257L543.3940268901506,451.2682319442097L538.8116480146209,453.0272957966954L538.8372026605348,451.8848184619792L539.3956905325658,451.32905228917525L539.1760245791738,450.8745483262869L538.5169524322391,450.50274687403L538.1089695387582,450.0482833234246L535.0412234409414,450.34294986008763L534.2456122265958,450.316251447362L533.7275363527542,450.0988460319504L533.5052703627134,449.9343446467851L533.432915057133,449.5782368170171L533.8578353322082,449.04545705677265L534.2801555706355,448.35406001937235L534.1546109439087,447.85806382138935L533.586688653183,447.3654544349947L531.9575799761897,447.0100873485517L531.4573329250779,446.17707113343977L531.247695684473,445.011179064345L531.5504885238452,443.8143404209113L532.0162665176776,442.8935838029379L533.040978104109,441.6657064448841L532.8779186628872,439.7312824734736L532.6168006966473,439.37961432065276L532.5540283832843,438.9243767477342L532.7847630641209,438.28785300813934L533.0247835901291,438.0965016627997L533.1503282168551,437.47557543427865L532.9478225053426,436.9668951463241L532.575125823515,436.72670117214466L532.8296322679917,434.96432229575294L533.3743770891679,432.102885372165L533.7160961915015,431.41636163686553L536.7694306576113,425.8136847231872L537.133435788357,425.20503720491206L537.8168739930243,423.13324577495496L538.2403828196348,422.11193394888596L538.9981077856773,420.5107474611041L539.345398395114,419.78576169348344L539.6722601451711,419.04880486023785L540.3632013127371,416.699811678332L540.4597741025264,416.3066901115003L540.4969174832149,416.2968593099249L540.5136320045249,416.1080067247058L540.6696342034156,415.57710592281L541.286214322844,412.961294489744L542.0885856324749,409.9902840712716L542.2743025359168,408.464848947056L541.6279334251767,408.45500626574994L541.4548452711688,408.4260686962307L541.3030031309154,408.33895992732687L540.9444952205113,408.0612867686432L531.3489485402297,402.3704539426717L531.3485771064225,402.37025690408063L527.5278603952911,400.12283904004926L527.2084273213704,399.9355847226102L520.849183400469,396.2091820099545L516.9801060076816,394.109566381047L511.964189592758,391.17805834192086L510.5526668398361,390.21082596293036L506.2512404958343,387.5847510659314L500.40591239013884,383.7097362112072L497.28445696384733,381.8204270062388L489.2804298593019,376.8343586309684L486.7401197672607,375.34016036238427L482.77543531258016,372.91150984998785L482.66519375869666,372.91982328576796L483.06054790274356,372.6228092396732L483.1577892733858,372.50225781207337L483.1764352504915,372.2760940796911L483.05661070439055,371.93153791610484L482.7714238274657,371.62398543135487L482.1538036933789,371.1624806679638L481.76929541649315,370.78549127242695L481.6256991067503,370.46857738566405L481.40135308739355,369.70498944824885L481.2105846841778,369.4307014432229L480.84568811229474,369.2221555215451L480.14048388654464,369.1260993342735L479.89860619150113,368.9958765440433L479.71563789822994,368.85495568197166L479.5335610460961,368.5783536200788L479.3546042379394,368.1892287688761L479.29859201986164,367.9158666233975L479.3454669662897,367.56592632128513L479.5239037671163,367.3628670386779L479.81755933483964,366.44793119535143L479.80552487949626,366.1389276919085L479.75902136687455,365.97575120960755L479.6721801428248,365.8010774433551L479.540915435472,365.66107740432153L479.3569071275415,365.6096541195134L479.1422926739242,365.66167189075895L478.6327597776408,365.92433044036216L478.3594587825355,366.20540581285877L478.0453743554335,366.3896783838609L477.6654718577529,366.3574806001425L477.14925315294477,366.0981091907943L476.95692472774135,366.0860221092066L476.60109114074567,366.209665937276L476.13234167645805,366.47784995132724L475.6808267408096,366.55086302005657L475.42535456843416,366.4507051255996L475.3109529559151,366.3210226074193L475.0026628962014,365.59677346355693L474.9618794642056,365.46093051374464L474.94145060482606,365.1241346338111L474.8779354238495,364.92198918454324L474.54884507095085,364.52550801564985L474.4056944817776,364.4515800551758L474.0683582983647,364.4382015800925L473.63214643556057,364.68366739345265L473.26925560623476,365.05160082112843L473.03517802113583,365.55258270938384L472.8449296252502,365.6554297804214L472.690487448348,365.67475057849424L472.39601472624963,365.6457198189655L472.2266409103104,365.5635808851016L471.58354041707116,364.9738143342897L471.35845153009996,364.71597265263335L470.94259423991207,364.4199671692336L470.61736679860496,364.2950006034075L470.16347468659296,364.33801078197894L469.26958208694487,364.7002164268638L468.38036955326515,364.90623346350094L467.9924440853556,364.83974191368816L467.8355504453284,364.7349989870154L467.80776719657206,364.5177783223021L467.9168201622733,364.12929971491394L468.35184343689616,363.6192868105968L468.3487976796796,363.49152947702623L468.2565335220497,363.2149940482682L468.12608596907194,363.0529328122234L467.90656858920374,362.9309133692291L467.22825617107173,362.77072835881063L467.02864764325295,362.63938556711355L466.93831494141796,362.29163637234296L466.9360863385764,361.94684251402896L466.85823381265436,361.5186498106732L466.6104131767015,361.2044518365492L466.2564367587411,361.0620711743727L465.750543913764,361.052453425375L465.54677532730784,360.9345604665077L465.11962644939103,360.5383290877835L464.4352225168268,360.4174518391078L464.1502585001854,360.45007602936084L463.96855308185695,360.7067006618058L463.3496700728274,361.0924116078122L463.2123138510424,361.126023881533L462.3485816765133,361.0227077188151L461.4745979289155,360.77412738130033L461.34912758895007,360.6800272495343L461.2255887047795,360.4014867494716L461.1816852288066,360.18729289087105L461.20753702176535,359.8649970095762L461.41435136543896,359.1356561170469L461.4362659600447,358.9354051234418L461.4201457328263,358.68793427595074L461.2725379379708,358.1294780512044L461.17737659664635,357.9990323459506L461.0293973679836,357.9184820397977L460.56525368290113,357.91689483149867L460.14040769458825,358.05121094598326L459.87750684607454,357.9816724515781L459.8371691346483,357.8632271199758L459.83627769351097,357.6823804944438L459.9190331456839,357.3409107197749L460.0421263092867,357.0355368374503L460.04390919155867,356.871434541848L460.0152345016686,356.73669687358097L459.8255803998727,356.39914576458114L459.4019972865026,355.9616523280738L459.0033002381915,355.67010578679765L458.87723560413633,355.59954913698857L458.40165175780294,355.496640227811L458.3133990852857,355.4102034082953L458.2724670797679,355.30292486433973L458.26942132255135,354.8362770706931L458.4157662424632,354.67201929615476L458.8022059751456,354.54517567292123L458.91229895550623,354.3951039234389L458.89863019141285,354.1712800788937L458.7354964634287,353.64508959780323L458.080361514847,352.47969357753936L457.94159384459545,352.37087673781434L457.648086850395,352.32570132147066L457.36379141460657,352.1313937610944L457.103713463026,351.8693621357452L456.85195562872013,351.3325560826843L456.6379354691935,350.52180043646604L456.18493479831795,350.07347727812885L455.6534873074288,349.77143241879L455.38122632698287,349.3814646088804L455.13771432318936,348.91567726909125L454.56882630456585,348.2914950018403L454.56786057666795,348.07351858058337L454.78767510358193,347.914949489038L455.0753134436318,347.85116307139106L455.45261590466544,347.9012384434759L455.67480760794297,347.78578630236916L455.65764736606525,347.63625182371516L455.52994842325916,347.32206901525115L455.5384914008173,347.2265790313645L455.6470986459508,347.12194581286985L456.1112423310324,347.00538656937806L456.259370133218,347.054872338369L456.5172194819561,347.2705980040305L456.5979691915727,347.28997420542055L456.73094249443784,347.2490357007955L456.8263266960457,347.07265929852247L456.8755045320777,346.5100109754685L456.53103681957236,345.6780714354386L456.49693919610036,345.5021487488443L456.450658543763,344.6989058802351L456.495082027066,343.2618428523883L456.40318930324247,342.64148473583236L456.10076789767845,342.0808337285189L455.85859305559006,342.0073428428127L455.77100896392676,341.93574062724656L455.70400230516407,341.67050710966623L455.7461228988659,341.4624497304849L456.2001635843999,341.06222856779914L456.3017878739647,340.91054775630073L456.3055764987939,340.66407120456915L456.1939977832062,340.071812307051L455.8961821568464,339.34459381852184L455.66708178476074,338.94533462836716L455.11371969926404,338.37639947083835L454.99842664560765,338.10504793780683L455.0123925567468,337.90752225664073L455.16185752063575,337.66451252224624L455.56716609070827,337.6299809058751L456.23188403150743,337.7831326777705L456.34606278374395,337.72611168628237L456.4074979354027,337.59276218265995L456.41960667750664,337.4152239023206L456.1352369549568,336.2152185368818L456.0393327460197,335.41708083275853L456.18864913638663,334.4656159105348L456.14236848404835,333.6876729337632L455.59799509667937,332.4826850536392L455.2902993310572,332.2787109014016L455.0179640638489,332.2177564243648L454.7136112024891,332.06745932252124L454.59720384741104,331.897038649789L454.4700991986956,331.7974335803269L454.20742121046715,331.8286101340136L453.2170301077913,332.11188149798454L453.0208387709954,332.11138349324574L452.6093643997301,332.0361843321198L452.42349892276434,331.82532315629396L452.3609494696857,331.6803956395156L452.33821772070405,331.5299862867246L452.419338864127,330.7524828071073L452.5098944262463,330.30466559536535L452.57422676159877,330.1613973091944L453.2121271815404,329.31995506471094L453.54998337228244,329.2055621711379L454.0635277536794,329.3102895423299L454.29715961821057,329.21223846774865L454.39974963567147,329.1084063186977L454.583757943602,328.74149262923675L454.750457436131,328.1299893996247L454.7814350156259,327.7737837001928L454.7501602890861,327.59128785446455L454.58398080388633,327.4561319159452L454.3125369778154,327.4537397496706L454.18216371159906,327.48334274423905L453.7385974594181,327.80119251097994L453.4641078761306,327.8061759184807L453.1630236322708,327.62687046864403L452.681125411219,327.13128746642406L451.69236861729405,326.689197352463L451.5807156149449,326.4012989850985L451.5576867189184,326.2402975259024L451.56875544636296,325.9397173692237L451.6844199338275,325.3417051934025L451.68976858064525,324.90298106445425L451.61325321642653,324.61530125518766L451.5241833895361,324.51009794730453L451.287134333983,324.3923280158692L450.6093419231802,324.48367219927377L450.38128156575476,324.4595399111199L449.69353472892726,323.76814100117326L449.42736526291446,323.80214924812753L449.23258537458514,323.88572299683574L448.75328719018216,324.1185867957224L448.48481483456544,324.14222174685665L448.1112267116014,323.9917344226378L447.9160753894648,323.81720856056654L447.7638618154033,323.5902180675016L447.5769563237791,323.0520308246482L447.62747132151617,322.275489031113L447.54657303837666,321.95157782365095L447.44086297693775,321.82009331025756L447.14304735057704,321.7151431794623L446.99009090890286,321.7439747087642L446.80429971869944,321.98699238468134L446.70304686294276,322.41145301570396L446.57126214826076,322.758781450626L446.44750040380677,322.9266534054955L446.349664739073,322.98500358496085L446.2204800610398,322.9671494841623L446.07970664822915,322.85194444773333L445.98201955702007,322.7332461731239L445.8900525464351,322.47299995589947L445.6715751812253,322.2511488776354L445.4149887074309,322.0995196001072L444.95693653678063,321.9937759964646L444.53060481323973,322.0553269677039L444.14215933800006,322.23498856048764L443.75921108310285,322.9247582625085L443.4911101612943,323.2317640829642L443.3435766531993,323.2292705929358L442.90587905516713,323.0319825723218L442.68651024882183,322.8215219912422L442.3761401597885,322.4095577196258L442.1985205133369,322.2680074364507L442.034272483932,322.2922477713105L441.68512470546193,322.6488593335657L441.45097283360246,322.77454145369074L440.95860017919676,322.763170316151L440.7578773499572,322.59898478996274L440.58887496782427,322.3582847593739L440.5241711986655,322.16954883288645L440.51362247855013,321.90498991847153L440.6864877722728,321.65358892460335L440.9129881077115,321.4730130468306L440.97798902391605,321.27138056800095L440.7507458208647,320.60537939404367L440.5737947552643,320.4730688549789L440.2184068888382,320.3859579285977L439.95818036373475,320.24845395235025L439.86242472832055,319.66886903695286L439.8477902363293,319.2752641106299L440.21959547701954,318.7903102173955L440.23526998367015,318.28296044345507L440.07377056443784,317.8528343389853L439.6553875243635,317.03412701000616L439.5674319988939,316.77015357832624L439.571220623724,316.32375001615856L439.5160998467818,315.63286610125033L439.378595051473,315.1016962644576L438.61425856366714,314.7048128767051L438.49666262040773,314.4902818139444L438.43753035835107,314.2852321014443L438.4621935631285,313.7473572254871L438.2925968869058,313.5359904277075L437.9310432192842,313.5431826079839L437.7951727327263,313.60811164549705L437.7072172072567,313.713994501677L437.7339604413519,314.10464705194954L437.70194284719855,314.156585754587L437.5309347225093,314.17296633445994L437.05609374378855,314.0934601990075L436.87342259756406,313.9765963636787L436.4759141374352,313.57165157518057L436.33684932013875,312.90924062567L436.1627211514715,312.82672163030384L435.64761674808506,312.1734251430853L435.16824427692063,311.96530330951464L434.8921203848813,311.91824265242485L434.6903575409833,311.7098127137797L434.67134013007035,311.5668254286111L435.0181850189383,310.5592285484345L435.0322252168389,310.32796739972537L434.77051295650836,309.72109177849416L434.3661701143337,309.46601083227415L433.8509171374244,309.28748806731755L433.3996250620612,309.05408148665174L428.0226007000838,309.06227835107165L427.7065105304255,309.06327796796313L424.66610196079637,309.0578800348917L424.1762550562762,309.074173781873L414.77318537472365,309.10256278733505L404.97468726236,309.2121191697952L395.4318098958938,309.11575763406745L387.2919865915528,309.09506570313215L387.0816064833343,309.09506570313215L377.96231223023915,309.11275880766834L376.63584781909503,309.10316255368934L376.0783256749619,309.10316255368934L360.2908288603994,309.1639385843969L359.8320338221365,309.15754113482444L351.49282485026015,309.10516177446243L351.1670774016229,309.0960653148709L344.36404436825705,308.983108194504L330.1338952191991,308.8297631946789L325.2158887557698,308.83136264008954L323.78950865057413,308.82136609966255L317.4227617667739,308.8212661341777L317.34104632925937,308.8312626747661L316.21188755633193,308.8312626747661L315.8032360819989,308.8412591996398L314.08713760743103,308.87124868000456L310.9782366438121,308.9167324553855L310.97088225443713,308.91383349918397L306.8077778601182,308.9525194610178L302.2750225411901,309.05907957596946L274.00036685975374,308.9916050388124L255.82811643147306,309.12035583180113L250.41498870346823,309.14384657270557L249.72924760919886,309.14614566183764L237.43642291008655,309.1227548901684L234.95115930822521,309.059379461205L234.93526194129026,309.05708034071586L227.98551255420534,308.9534191317507L217.10443346829925,309.1017630987735L214.3614690912209,309.05708034071586L192.9281041252607,309.01089783139287L181.5545038114251,309.18762908381586L172.26828720551657,309.24260669610567L164.22258522783977,309.1036623589407L158.41336048817175,309.07267435904714L149.69915194486566,309.0527819827853L144.4097859613139,309.11785681170613L127.86612420269739,309.1730349469299L122.96520369438531,309.145845780693L122.00393300217002,309.1319512721966L116.51295274824133,309.09176698328383L116.51399276289976,309.0982644601386L113.18290009600241,309.06507727796816L106.40453026741397,309.09186694451955L106.37303268058986,307.0948278488995L106.37964420235221,297.0928976079149L106.3489637699031,295.86533819069837L106.36835261462329,293.9151377536309L106.37592986428353,292.71632751933066L106.36389540894015,291.64950348554794L106.36330111484949,291.0105659404758L106.37043264394197,290.6161848328943L106.34673516706243,284.6556761369852L106.36070107820069,283.8227422095165L106.36166680609949,281.96520588601834L109.63964443861187,280.47414505289544L115.02298317530585,277.36860637390237L118.8387969601863,274.755035798124L122.38450408070184,272.56607989336135L125.00407814713344,270.6599768267679L127.69363034278012,268.4553150491083L129.27304117641324,267.7645275700402L131.08667816866637,266.0313906738147L132.8443772296032,263.5247805336885L134.59123042337797,262.1946173043407L136.06307402653783,260.8144147421467L136.81641607365964,259.9355161918975L137.53499191645824,259.8605649011829L138.0688908704733,259.9958593924043L138.33974040245175,259.91980067254735L138.96404634506234,259.3436386448816L139.36066336405474,258.8309018149157L141.9143450731426,257.68779884137393L143.30647898134612,256.48532165666757L144.9211017398702,255.61862167237996L146.38410521842434,255.18210163013327L148.60995944955903,254.19462799801477L151.91638891167895,253.40899488680634L152.67069668669956,252.320784988382L153.33474604664661,249.76219566583768L153.58501814572537,249.64988927948934L153.90742269010025,249.3171963274549L154.517168427481,248.13037745319025L154.69189089023985,247.38708870211167L157.11363931112373,244.69137453483245L157.52221649869625,244.70147300017106L158.228015018537,244.2167283551853L158.3393708738413,241.83285631523995L159.33488776305148,239.73106606936062L161.56349060435605,238.47774086225036L162.50693247384243,238.1744794186875L163.6213081812557,238.0936072254026L167.11286025272693,235.40401310944935L169.04439033528615,234.86797874180047L172.7290879863367,231.52937501803945L173.85089236988733,230.14282614076592L174.0068945687799,229.3532670731479L173.62795779899625,228.49273683083584L173.41252619100305,228.45223837773392L172.47829587992874,225.86738918310493L172.682584473715,225.10140053839905L173.33162790786446,224.96312362590743L173.4050975148666,224.33015119336596L172.949273947057,223.21560753846325L172.456381285323,223.11954484950684L171.68899904029877,221.7055908922557L171.0131380852945,219.92279544417124L169.46775058837193,219.74922273947277L169.9654718895954,218.39048488881417L169.97282627897312,216.0170552978425L169.712822614154,215.01264064006637L168.99224102879907,213.63257539504866L167.9892954634497,212.71912926730556L165.80519039221053,212.52637506710425L164.8171021791377,211.40972500081034L162.10556110212292,209.73437540369832L161.48147801979576,208.76957619342102L161.4104598759195,206.78558194349944L162.09062946308586,205.29506348347786L162.5809220881738,203.45542977292826L162.55967607442017,202.42103269436893L162.18229932662507,201.69324293629916L157.43262666447572,200.32385683754228L157.4169521578251,199.78623003708572L157.78920311908496,199.25588074330517L158.15417397772853,198.76251568911312L158.48645866136667,197.55375877697088L158.4033317753865,196.94222013485614L158.36121118168649,196.5088155457156L158.3202791761678,196.0175736418073L158.4920301684715,195.5476670915764L158.74750234084604,195.33840121325193L159.28979569889543,194.50371051602178L159.69101849709205,194.198307906855L159.8173059914334,193.62818294338786L159.78008832398245,193.0681879466688L159.65380082964293,192.65070434744348L159.50522730688954,191.72399432606153L159.36408246027258,191.48974906227386L159.02236335793987,190.57305237396622L159.05950673862844,189.55434203870982L159.19493150461858,188.15211999489838L159.01924331396094,186.89859472812668L159.03714642345312,185.64104473803673L158.81428613932258,183.9587489684004L158.40422321652295,182.65389144185247L157.72962513646053,181.52116098393117L161.49009528411625,180.37526609772067L165.05452266849716,179.60305526752109L168.10785713460882,178.37842255727446L173.41208047043528,176.57154605540336L175.1281789450013,175.80580495503045L175.2916098200294,175.8976988772115L179.4741030590667,174.9276388221083L181.74735224395954,174.16169476586538L185.48412491473573,173.47737140614572L190.12779036840038,171.80515981182316L196.5870985568763,170.5874684058308L200.93569699435102,170.0538036478606L201.4060064806281,170.08834710850624L202.10630778012637,170.45758219102117L209.74878121705024,169.87576891277604L210.6038218404974,170.13300804295977L218.63199214248925,170.45206375497537L219.89724426225985,170.63560021437388L226.4652339826289,169.9774598728727L229.4876651560071,169.9654001276258L235.4974641513909,170.89055971807238L237.63476856296256,171.02503513568263L239.00164497229525,170.62650527282085L239.8336566997168,170.738913725962L240.7474581514116,171.20886117298232L242.99099263175322,171.87300098527203L244.32072566039824,171.87300098527203L246.51225940777567,172.61879627264216L250.88046955025402,173.24192628382798L252.30320960414338,173.62016630560447L253.2131481442475,173.68104210144065L255.06296278929221,173.48697288303856L255.30810910183573,173.87510524702566L257.261925212807,174.61044733111248L258.487731062286,175.28443433488792L259.43117293177147,176.8465771912397L262.48213022151776,179.42509031685404L262.9724228466048,179.7836681494482L264.86257520307663,180.61839875574378L268.6580344153399,183.4785483977421L270.6044218501738,184.24334385242673L271.85526233823657,184.36509060294247L274.3263371686753,182.75445527428656L276.12987116138174,182.33026067543142L279.0873014185545,181.18992196540876L280.7450104986765,180.82652825641298L282.49082367779374,180.1021258607675L286.19944166600817,179.66356627031564L288.1660350999373,179.62591278139826L288.9564462409862,179.91978760638585L291.91320791730595,180.00009056404906L295.6363861107511,179.31120639864866L298.67991472435824,179.5770343345589L300.88415150793116,178.95943884577173L301.8489136779317,179.15599027509552L303.2278988293692,178.9202502777589L306.5389340706952,179.63540270663543L309.0215976359086,180.62707095755104L311.56101628681336,180.60278876196753L312.3964452052569,180.29221314681308L314.6282423773,180.75082705897375L315.0909003271554,180.68073631347443L317.3063544116958,179.22017939902844L318.64819618244564,178.52518711884886L319.93892866136684,178.3134082174738L320.6458414826293,178.41189906318778L322.31142495945915,177.8487961270389L323.299513172532,177.1387461358363L326.7885394941168,176.70661298060986L328.6964463865579,175.80611127036673L330.32763509286906,174.4760496499871L331.5183033042176,173.25612474622403L333.9459203792503,173.15244457854578L334.9490888048822,172.3091488739442L336.0806247541741,170.8955668337835L338.0828015468014,167.3471643871244L338.96666543366337,166.10834807938545L340.7258502298264,165.08377278061698L344.0143022956954,162.50951824264757L346.31838048655845,161.30586113726758L347.04720790242663,160.45450231763562L347.50162002176785,160.19665606700664L348.1719837564333,160.4022992996329L349.649993160785,159.76528463923933L350.72447687733893,157.98061867837396L353.3263706945627,156.2977632027846L354.80408295187044,155.06113780184887L355.3200045096319,154.86914775689092L358.4242254072851,154.5963149311997L360.1593412927632,155.86509537311167L361.24251656039814,156.01454537876043L363.75400338902546,155.92317541385L366.5208138165053,154.7084001707335L368.3054789718226,154.24447292099512L368.8353664407223,153.86217807147796L369.6334291181938,152.6151238240268L370.2355233191529,151.07965830672356L370.7094728567372,149.5579613841196L371.03150596730484,146.94512400654548L371.2203429147248,141.8850169262173L370.56364794415276,134.79797385297616L369.9865140950169,131.22393290427635L368.79324584702135,126.01553746626269L367.489216037814,124.59821246145157L365.80409514274106,123.74887562803042L365.3523573468092,122.94257145408437L363.6082527632043,122.4038436506039L363.86357636205776,120.84609742419525L364.5785121535473,119.4296403886292L366.36577734551247,118.22527134123584L368.8680526157277,117.51678136259397L370.04252631309555,116.0287274698444L370.2468149068827,116.38306855233986L368.92569914255637,118.71067480519332L369.5327705565278,119.5598839993495L370.7998055585713,119.75792318451204L371.5040440564226,119.31722062090876L372.40833680266314,118.45633229747546L374.0690173532412,117.42432326496237L375.0156535534661,117.30691905869344L375.9248492259567,116.86428810571988L376.36923263251356,116.35770760659807L376.5372692867477,114.82307229562912L376.1344121798011,112.7284656115753L375.6725713843216,112.57270037390299L375.4938374364483,111.93443421517668L375.8438023692952,111.4304386575368L376.6201733124444,110.84416285343559L377.4686024141283,110.50044008272016L378.3171058025755,109.22351306790188L379.66043330855155,108.19191107739334L380.367494703336,108.19191107739334L381.00383510128995,107.74975753650051L381.0391955997047,107.35671685983107L380.89782789280525,106.96365097603757L380.367494703336,106.66886083214558L379.7665148037977,106.17744356719004L376.9737040098362,108.78143393145774L375.70102321392915,109.46905294383578L374.9736072465266,109.46554382613749L374.012930848402,110.05484102901983L373.210856685816,109.72387144606546L373.21078239905546,109.72387144606546L372.09113233158496,108.80259417759726L370.94897337541533,109.1325813458543L370.37250810713067,108.16052882834538L370.3999199220798,107.58075416675729L370.77818811101133,106.91450306139814L371.90942691325563,105.78419876081534L374.8083192024633,104.89951222675836L376.25780249044874,103.76893939365618L376.858782389987,102.5888718829724L376.82342189157043,102.29387113709117L376.5759726894239,102.09723052195886L375.76282979939424,101.94966841431642L375.4092991020025,102.09723052195886L374.7023119939786,102.6380545130628L373.9598901007794,102.73641858824794L373.3235497028254,102.44142495034794L374.56087000031675,101.06442778015071L374.91440069771033,100.17905912420792L374.6315909971472,99.63791448147822L374.3487812965868,99.39187683628506L373.7477271102862,99.39187683628506L373.21746820757926,99.29356238965966L372.68720930487143,99.53950061025762L372.19223661381784,99.78553232136164L370.77818811101133,100.22826111633458L370.3185759183716,100.17905912420792L370.071126716226,99.98224720071175L369.92968472256416,99.68712082368893L369.96504522097985,99.49029308122908L370.53066462210245,98.70312558681235L370.53066462210245,98.50626619471768L370.38929691520207,98.40793751964839L369.8943242241485,98.60469668236783L369.434786318272,98.99829941581356L367.17223442701834,99.63791448147822L366.5711802407186,100.37576135725703L365.2631389463959,102.5888718829724L364.9449687474189,103.96552634062073L365.1217712394964,104.16221027712527L365.4399414384725,104.1130398850737L368.7277249234876,102.7856000333627L369.8589637257337,102.68723674815146L370.81347432266466,102.73641858824794L370.9549163163256,102.88396173868432L370.99027681474126,103.17893406077246L369.5761540251724,105.58767016753245L369.5761540251724,106.42310549544891L368.2289636076039,108.10354486012648L366.91475651208657,109.30990211524886L364.97423773140144,109.98383939322548L364.7189141325489,109.23899506555745L365.8638216988884,107.13535582760369L366.01009233203877,106.27833240249583L365.7917635403528,105.70313018901243L364.88130499291947,104.8738971717712L364.44353310812585,104.64222066020511L363.7997640340336,104.94495802848724L363.46777649744126,104.80293877869781L362.98268394565093,103.09865753645272L363.7626949401065,101.12571461428206L363.49927408426447,99.91298939886065L363.2262702362041,99.67967787294856L359.05885720972765,98.49468603325658L359.0223081231288,96.76392925907294L358.5636616583888,95.44358390136404L358.7966992288284,94.27587770678383L359.21805373935695,93.0713145076893L359.4025820546176,92.04454253651784L359.64616834517165,91.6338268557979L362.59928997018505,85.23166454631064L364.53817444211927,84.74163065702987L367.2783159222636,84.70038684765996L367.588388864252,84.75240788793235L370.464029397147,83.62546247227237L371.6116855736582,82.93088935017158L373.62210819679876,81.02753425157425L373.80277360046694,76.75669093233228L376.10187457831853,75.11099456369357L376.42271910070485,75.32417766306844L377.0488822123489,75.29625878178786L377.5098315666928,74.96610052796586L378.5929325475663,74.80874751571992L382.46498141081065,71.46798141706495L385.2037114424893,70.20790485387079L385.7506848665071,69.8258420023135L387.13286434868314,69.83934653571623L387.438257224705,69.89377988976321L387.69395225736207,69.96732647309727L387.82662841318233,70.2309649766662L388.03968284481016,70.3139599211272L389.5733330334351,69.66014932747157L390.30698908879276,69.0091775846081L391.0646397680748,68.57197140746894L391.600841611692,67.94052294054472L392.28888559556344,67.69071020381716L395.3709690383266,64.90976005965376L399.1347820902438,61.01970257492121L400.1043728997347,56.9194749927633L403.19083926141866,52.31570223758672L406.10124599863866,49.50623499050562L408.36446647074536,46.92382931504608L410.90544514363864,44.384136981603206L414.17532551916247,41.493552886024645L416.95751330624626,38.47827197224751L422.5296889903593,32.56946452969214L424.6291071536298,30.986500013744717L428.6182319528034,27.210612930237403L429.36540819873153,25.896421329567147L430.6192201572494,25.41706418833246L431.3350473898763,24.730662363851025L432.451131692801,24.408312296781332L432.89588653316423,23.742416567793953L434.3692158715512,22.057881398452082L435.31882354223126,21.972548149150498L437.3436577970788,19.902611949574748L437.2587480288248,18.785037359311445L439.0783279619891,17.491853565992642L440.1841606918433,16.86700706529018L441.1300540244547,16.601666123879568L442.1859660506643,15.626238773425484L443.12703074378624,15.527502944513799L443.8763613057936,14.726655838129318L445.0304804305433,14.516153771120116L445.5345161064861,14.115676370680376L446.1246501388632,13.92150864675159L447.84513153235,12.8620731306778L449.4916975982669,12.137116547065034L450.158867002192,10.920340097846747L451.2152247489703,10.292294646801565L452.29944003126457,9.938957537983697L452.93110036325197,9.322666230907544L455.1904579237671,8.996658947653032L455.6569044984508,8.535371007865251L458.09655602882776,7.276198390456102L459.72863617627536,6.033979494262439L460.1372133638488,5.244574468128121L460.1658137669792,4.6442886304116655L460.6497177305873,4.034071454345849L462.15721897920594,3.4088786301363143L464.07210882721665,3.2762281631203223L466.94923509534055,3.4133947862010245L467.48580837276495,2.4265867044987317L468.44381044748025,1.6605566695443486L469.2316215518813,1.522299504140392L469.8681848101196,1.5315447632133328L470.3685804347542,1.3742683652294545L470.9245425568988,1.0991035800125246L471.5387454999618,0.5842521329591364L472.3934889763632,0.1226346025687235L472.99454316266383,9.094947017729282e-13L473.5098704263337,0.31272905994728717L473.9836713903951,0.24242948768915085L474.566228173112,0.5093323230280475L475.0109830134752,0.705929163646033L475.477949595489,1.1771680255906176L477.29047228632317,1.2563871681281853L477.9244355079127,2.1963257176134903L479.0814518163561,2.655263283671502L480.0723629263621,2.6715444727769864L480.720663492898,1.8689870016110035L482.2477021597588,1.3163786897271166L483.5882067688035,1.6979569983595866L484.00012686063747,1.6604516121128654L484.399863923607,1.5664244764193427L484.8239670443063,1.4922523140762678L485.2592874659749,1.7082525537020956L493.61342807688834,1.8020673640594396L500.4099238752533,1.977191434973065L509.4986119826608,2.515768452332395L517.0051406462644,2.4902430693528004L523.4920092232105,2.5583105167970643L543.7141285449234,1.536902804586589L552.0054225557114,1.3252040119805315L558.5075199187395,1.359979858236784L561.1625287703464,1.301459663157857L576.1942320746612,0.6989942694581259L583.1955364741407,0.5264599354441089L582.6707747917744,2.2637662069951148L582.4300113981535,2.698539637682188L582.3405701374559,2.994007984948894L582.379273540133,3.339560460864959L582.4703491095806,3.698535920966151L582.6685461889338,4.162924732779629L583.0754890677563,4.767143671389022L583.521655356586,5.248249288998522L583.5581301564216,5.367522257555265L583.5831647950054,5.8094206191408375L583.4571001609493,7.611849552595231L583.5403756204532,9.632708294199347L583.5034551000481,10.307401234898862L583.3454471586001,10.627253369834307L582.8454229677727,10.975829860491558L582.4130740165592,11.391514806112355L582.2228256206736,11.690857346471148L582.0845036709889,12.023011579400645L581.9175813181764,12.451837899985094L581.7762878980375,13.057218694460516L581.4620548974126,14.779070549236621L581.2656407003333,15.655377063824744L581.0528834157503,16.102495916200496L580.7749023546776,16.277414551842867L580.4693609051346,16.666011325822183L580.3523592559659,17.5286318822873L580.3551821528981,17.925110952730847L580.4968470068443,18.659639054793843L580.5514477764573,18.72794321619449L580.8019427358195,18.838045383085955L581.1002783695085,19.420998178318314L581.2252287021438,19.58922170849337L581.5200728580485,19.870456681106134L582.0845036709889,20.199437839532948L582.3173926679056,20.389004960832153L582.426817067415,20.50567480505879L582.6698833506389,20.9237406904017L583.7661330882765,22.158499791372833L583.8413855775516,22.411242450674308L583.8783060979558,22.72406751743665L583.9361754850688,23.817048269641873L583.8903405532983,24.19040228237145L583.7460756627052,24.515485136442294L583.1115924337855,25.12290152470223L582.9022523402255,25.467607238651453L582.7817592132733,25.963806624409244L582.3607761365502,27.31867759272336L582.1148869563931,27.766189096489597L581.6602519767666,28.369095181681587L581.5287644091304,28.731814013401618L581.5653877824889,30.419613737401505L581.528838695891,33.06947105224799L581.843591703845,33.584484741842516L581.8447060052658,33.67289380414422L581.548376114134,34.40195807006876L581.1884567552625,34.68334063861994L581.2224058052116,34.79774978781279L581.3911110402987,35.055397542151695L581.4063398263806,35.345734403620554L581.1181071922392,35.448430290525266L581.0620949741606,35.50839636082719L580.9969454844331,36.36676539843802L581.1941768358893,36.645445397168714L581.2235943933938,36.916279147505065L581.1551762861654,37.0165461868055L580.9714651252807,36.99617957882492L580.8919040038463,37.03513718454269L580.5249274026446,37.61665148871816L580.5328017993506,37.782907525934206L580.6036713697049,37.92221654499235L580.6067171269206,38.01912527694867L580.2216145559441,38.766147654466295L580.5630365112311,39.21396187961045L580.4748581254762,39.330373538849926L579.9522507591919,39.74703586153328L579.9235760692991,39.8333714755272L580.0179202562485,40.30292380361834L579.9734967729446,40.73298426771771L579.9104273125367,41.07241820511945L579.7157959977285,41.495327121401715L579.6961100059643,41.627558378368576L579.7266418648896,41.74684582125792L580.2383290772541,42.27134874590274L580.4022056728509,42.99603983611041L580.690215446708,43.58459845431389L580.7286217023402,43.83290067423877L580.6934097774474,44.016825551537295L580.612362920785,44.18447087628783L580.3343075729508,44.52506766666693L580.3188559265855,44.65723284541082L580.6200144572076,45.09407719909268L580.778096685418,45.41637055024694L580.8729608796957,46.10293386577132L581.4014369001297,46.927791701470596L581.9353358541448,47.449031495498275L582.1804821666883,47.931547635669176L582.2994895584143,48.035802779238566L582.6827349603573,48.194892675239316L583.2097995323247,48.55819832225552L583.5203924816424,48.960675963322956L583.5293811797692,49.08596917339264L583.4796090496466,49.332691250535845L583.5022665118659,49.45516257343388L584.0519885460553,50.224121766232656L584.1041378525415,50.396597878211196L584.1267953147608,50.733719810047205L584.2107393551169,50.92452148280381L584.2810146313795,51.0000693678453L584.6210251382008,51.141575841573285L584.7628385656699,51.33236469360736L584.8308109523296,51.89833981230777L584.8081534901094,52.25288092116352L584.8512398117073,52.546979094005565L584.9679443138311,52.721055997431904L585.4429338660739,53.212111398198886L585.9008374632003,53.93205973720478L586.0335136190197,54.77824405299543L586.0708798599926,55.45198282235742L586.4076217493139,56.398110783130505L586.4778970255747,56.95486950339182L586.4937943925106,57.719652875619886L586.3906100809581,58.68197521415232L586.7544666381818,59.60054593941686L586.8735483166693,60.15461828670368L586.8555709204156,60.46706160593749L586.6939229276595,61.42593239671305L585.6197363581505,64.10272958070254L585.4765857689781,64.92317154022294L585.2835887629208,65.56740761288302L585.1340495122695,65.83092489937007L584.8424739738657,66.17488354866191L584.143064115503,66.86939415520874L583.904900758529,67.25382501739523L583.80357361601,68.06927017697217L583.8260082179459,68.85520313526695L584.36845014952,70.15461693875932L584.5324753186396,70.76070051012721L584.6164193589948,71.24801650775589L584.6284538143382,72.12284407444486L584.5757102137613,72.76361916340556L584.5991848303565,73.72128146985233L584.7449354561777,74.60364276730161L585.1482382836912,76.0400612782746L585.485425893582,76.83472023682316L585.5800672275755,77.43495217490363L585.4443453145395,78.35764814480399L585.1645813711948,79.1436036158916L584.9280523229718,79.99634979382927L584.6462083503075,80.58227143720705L584.5656072142137,80.61161789087419L584.2208423546635,80.51932644737826L584.1333325497626,80.54525115117667L583.8702088409664,80.88568413904386L583.6669602618385,81.0323040079852L583.1876620774356,81.18866700104445L583.2558573243787,81.55342928036953L582.6929865334268,81.9862840213782L582.6248655732443,82.44378069560753L582.3321014466583,82.68676974091159L582.2945866321634,82.76233902021431L582.2928037498905,83.10606895408364L582.0972809939467,83.45444374405315L581.8322258293538,84.05754844442117L581.7923338384935,84.24710109545231L581.1486390511645,84.66152621955098L581.0203458142669,84.90826110011267L580.8061027944559,85.14628189810855L580.6275174201073,85.18928423062016L580.2888440749903,85.42501452773013L580.1599565440001,85.84153548510585L580.0604865705163,85.89965965799047L579.824551816384,85.92856612620017L579.6699610659589,86.07692978787145L579.6534694049333,86.26486573139755L579.738676320233,87.07528618788047L579.6848184182345,87.25790859698509L579.2778012526514,87.6412632310471L579.2012858884336,87.84209789412034L579.1646625150743,88.07513654449667L579.218223270027,88.36150297713402L579.3121960231683,88.56117477374528L579.3023158839051,88.64205656432296L579.0648953945447,89.04323927130417L578.9975915887371,89.7600004051751L578.7935258552352,90.74046635199375L578.7276334978942,90.90206765413132L578.3673427052163,91.41158587127575L578.0997617907369,91.57182377954769L577.7995689880136,92.08925588434067L577.7981575395479,92.22411846863315L577.9488853783805,92.78868739442942L578.0996132172149,93.67119408642566L578.1297736423339,94.17344577675885L577.7581169751656,95.5456842267804L576.7983320181775,97.6150466787135L576.7264224331648,98.41103939473214L576.5938948508683,99.26564948290024L576.166820259712,101.17211857128586L576.2307068744967,101.42304523441271L576.6844504129858,101.81905024833668L576.8913390434209,101.92631442147876L577.2528927110425,102.43770515000415L577.4727815247179,102.51571715623277L577.9033475936567,102.77175487657405L578.1698884934767,103.03852694092575L578.395497387778,103.62038448318663L578.5247563525745,104.14547586027084L578.5263906613245,104.63550676530485L578.1366080243797,107.24645033010893L578.0358008891917,107.60594494623456L578.0334237128291,107.88881790193045L578.1348251421077,108.34138747953648L578.4635440611992,109.1959550153424L578.5599682774664,111.10552785696927L578.3323536406078,112.74383560938213L578.3952745274946,113.05803531262973L578.9016130930386,114.38222158874032L579.1742455072917,115.55569096785575L579.2766126644692,115.82623766704091L580.1968027776438,117.0729285625739L580.7301074375673,118.17157573487293L580.8980698050418,118.65894148565121L580.8907154156641,118.80321658854518L580.5056128446868,119.78368223462712L580.3446334327837,120.34139069869616L580.3041471478327,120.77686882681519L580.3828168281316,121.02153485532563L580.9210244143069,121.53040898615882L581.0161114688681,121.67739777716679L581.0320831225636,121.77308795949921L580.9250358994204,122.05396969371168L580.7088614238137,122.38901277738341L580.3175930516418,122.59931945407652L579.8329462204192,123.10507651520948L579.6988586161351,123.41812865287102L579.5089073672943,124.15620952516656L579.5281476384907,124.30210592527601L579.6908356459062,124.65298443003212L580.214037306283,125.07106790808848L580.3964113054626,125.31391595351852L580.5096986165627,125.57744515879222L580.584653958791,125.82408179197819L580.6617636171004,126.38299214108793L580.7264673862601,126.56815215729966L581.3339102340387,127.12596575768339L581.7563047592266,127.44858946048043L582.1240985148033,127.88881230339894L582.2728206110796,128.65691439851798L582.3312842922833,128.83665599096867L582.6406886534178,129.32862930149804L582.6322199626211,129.48047259176565L582.3432444608652,130.12813061792576L581.2194343347574,132.17403941345856L581.1776851748627,132.3802072499825L581.1452218601416,133.06889144327215L581.2052455633338,133.76613398223208L581.1535419774164,134.1218185774701L580.6228373541389,134.90476629370778L580.2358776141282,135.28032384704284L580.0191088444299,135.56007570211887L579.5802969449769,136.36729720808307L579.4367006352368,136.807190968103L579.3034301853259,137.05060384530452L579.094312952051,137.27725995462015L578.8160347439325,137.433325202599L578.6183576719086,137.7305471610971L578.5809171441751,137.92019460641131L578.7123304250508,138.29752018676618L578.6638954566324,138.6421575863933L578.3927487776082,139.54808708780138L578.3715770506151,139.86451475653348L577.8898274030871,141.0176282889238L577.817992104835,141.60894019664238L577.576560130361,142.07812982030873L577.2217665580238,142.3043958202752L577.0971133724343,142.44668044142145L577.0045520677595,142.62037410051744L576.8470641336398,143.24191505909266L576.8970591240477,143.45900337616877L577.6095434524123,144.59851474639163L577.6579041340683,144.76660641711214L577.6460925390084,144.87958853785722L577.2092120953521,145.72406692877212L577.2012634118846,145.86432328943056L577.3246537225314,146.3237508430566L577.3646200001522,146.68158407245437L577.114942195165,147.11735753267067L576.7176565953223,147.96286313914834L576.6505013630376,148.19332359380724L576.6714502297455,148.3214218352964L576.8431269352877,148.63340018750387L576.989694715483,148.73800478424755L577.4565870107363,148.89029360232007L577.7102020140783,149.27576749966101L578.5522424542833,149.94749490779623L578.9484880394675,150.18229003203624L579.1096903116559,150.26677308055196L579.2848584949816,150.26451748019417L579.5676681955429,150.0770947177698L580.145024904964,149.5032052943452L580.2058657625312,149.37420869156267L580.2667809068607,149.12574420644614L580.2016314171333,148.55822735830043L580.2001456819053,147.32220556431957L580.6234316482305,147.02698425675317L580.9432361559584,146.6539881540507L581.0155914615389,146.4943602716944L581.0225744171075,146.37473924222923L580.7506105837074,145.69944222044296L580.8604807037846,145.4859213583468L581.2039826883902,145.03279350375897L581.2086627543567,144.96937757610704L581.0143285865952,144.65741918644017L581.0586777831377,144.47906220399273L581.2807951996538,144.45638237927324L581.4094598703587,144.56803609581948L581.528690122369,144.58671326655985L582.007988306772,144.46787623751652L582.0463945624033,144.41995081208734L582.8614689082297,144.68225329401685L583.26558889012,144.31681239180807L584.3411869080946,144.33292467658111L584.6241451821788,144.15681614653477L585.0941575214101,144.18493637731717L585.447539645279,144.46746574294548L585.6111933805914,144.5175458786989L585.8284078708584,144.1708762779508L585.9359751013317,144.11689340893554L586.0926458810764,144.21551954849429L586.2094989567204,144.35396294685688L586.244859455137,144.49189012223587L586.3779070447627,145.88309913673038L586.546166559282,145.9629215001005L586.8640396112123,146.45794073549723L586.9761383341302,146.73010745130296L586.9783669369717,147.1804436549719L586.9338691669063,147.621413030633L586.9011087051394,147.75506186817347L586.6275848497498,148.29198716633982L586.9663324816283,148.51956375953796L586.9849784587341,148.58058444815515L586.8121131650105,148.78722986357707L586.7449579327249,149.01889012345055L586.7986672612005,149.14861197054734L586.8792683972943,149.19496251509963L587.5199174274085,149.11764304996768L587.7885383565472,149.29125158282204L587.814093002461,149.51397197956248L587.9051685719087,149.633532193659L588.6737394051133,149.86608350966026L589.0660477919446,150.1828026753792L589.4722478031536,150.58623979142203L589.9201226874939,151.41640688275766L590.2143725493061,151.72330877246623L590.2307899235711,151.85451134043888L590.0831078419542,152.07508937716966L590.1036109880943,152.79211858018562L590.2759562744886,152.85514675660215L590.3671061306977,152.95342843487697L590.7045908876325,153.6635926411318L590.738242790535,153.65867403554876L590.75302585605,153.92796193069807L590.7158081886009,154.2278741718028L590.6062352155695,154.40123668680144L590.3495744550128,154.60061805835812L590.2844249652844,154.86771344382396L590.2894021782977,155.27063987788142L590.3570774179125,155.308031922169L590.331745632282,155.71328570533387L590.2322013720377,160.2675930066316L589.92160842272,170.4386764174874L589.9147740406743,170.51143778113465L589.9030367323767,171.20548920470264L589.8843164685095,172.10247029562743L589.6310728989756,181.8480980956324L589.4657848549123,184.841756141494L588.9564748189132,198.45549066202375L588.644024700563,204.5870211963993L588.3086942597074,213.9578314617729L588.3013398703315,214.07656346679823L588.2959169367496,214.29179752837535L588.196521250029,218.66509541660707L587.983392531638,225.13533616372024L587.5645637709958,224.9789268562031L587.4845569289928,225.06614781341523L587.3601266036858,226.47944419849273L587.6062386441281,227.11503490381892L587.4140587924467,227.7049949350253L587.0718196827838,228.32446404207076L588.1506863182585,233.98180334740346L589.0023097506837,233.98979475913438L582.4970180569153,257.8113494112831L570.9368836852627,300.3702674683418L571.773575478649,304.0310156022033L572.4841283512187,304.03471711188286L572.3131945132909,308.9894058566697L572.0635909950643,313.1433050307678L571.7997244186536,316.7529809489333L571.6677168436872,319.734733613157L571.3943415618214,323.10599123054L571.174452748146,326.53936820908484L571.1696983954171,326.5904082058032L570.7274693049421,333.06917406339517L570.6561540140192,334.8423560068377L570.2948232066828,340.1525871546337L570.0547283939131,344.7650099814482L569.9786587502631,346.89429061978717L569.3081464420757,356.0873764476505L569.0182794991833,360.79911475061226L569.0118908377053,360.87100247363014L569.0048335953743,360.96103451521503L568.9959934707713,361.0749609184995L568.9959934707713,361.12622218351225L568.9885647946321,361.1757974860752L568.8845633287046,363.0331085273865L568.8780260937046,363.1768332074994L568.875946064386,363.22371649435445L568.8684431014863,363.43939503360934L568.8624258738146,363.6107631264899L568.7954192150528,364.6252995045061L568.7582758343651,365.14097980112956L568.7431213350437,365.3376686367669L568.4834148172704,368.10266534581115L568.3158238836049,371.01111336562053L568.2190282335296,372.02547361311827L567.9036809314857,375.99129946953644L567.8590345878974,377.01664590916516L567.9069495489857,377.84078119562673L567.7559988498688,379.0448005458602L570.1760386752412,382.87044089525125L572.8262188873596,387.2128678836157L570.8369679912112,388.39243209369124L570.4558769053474,388.62741079267926L566.7174699258212,390.9238284219741L561.7245081201627,393.9085245958713L561.1659459613702,394.2464842951754L554.6210594237891,398.2697685422622L555.0073505829478,398.9696606743846L555.4307851227959,399.56105984533906L557.1098145034357,402.3497648579373L557.6372505092104,403.19687960050715L558.1721151911233,404.07353021915105L558.8779137109641,405.22580069326705L559.457350449703,406.1711004689173L559.9997180945156,406.92921009097745L560.0517188274798,407.03750423209976L559.9848607422409,407.4312858681419L559.7024967622465,408.23846349915266L559.7470688190733,408.82901765896895L559.680285020595,409.3789720975042ZM551.6940867387802,419.37101266323634L551.7015154149185,419.459447511133L551.7015154149185,419.51840340824174L551.7015154149185,419.64613935167745L551.7609448240191,419.88195296325057L551.7089440910559,419.9802061110913L551.4192257216864,420.0588075606033L551.0923639716293,419.773872786066L551.0997926477667,419.5773587708436L551.2780808750722,419.5380552551651L551.315224255759,419.2530976617836L551.4415117500994,419.16466000743185L551.6123713012666,419.24327131514383L551.6866580626438,419.31205542979205ZM551.2346231196661,422.0088019088903L551.4432946323732,421.9222679549707L551.7567104786212,422.2182073503395L551.8462260260812,422.52159755605135L551.7790707937966,423.4316833091698L551.5104498646579,423.46124153033816L551.2586177435896,423.120970163784L551.2081770326149,422.46237422762533ZM531.3629887381303,437.63990077863355L531.425538191208,437.5849301489784L531.4713731229785,437.606879261617L531.5755974491904,437.7498406490954L531.1712546070157,438.66250524757197L531.0962249780259,438.78349843578735L530.9544858373192,438.7119804659701L530.883616266965,438.58549950823954L530.9128109641861,438.5195638467412ZM523.6692574358549,453.7834932426649L523.3521272515391,453.84907967632626L522.4486516596735,454.6015661405795L521.1763422975728,455.303932636597L520.8664922158696,455.20318036076833L519.5467136132493,456.07335139115867L518.7629139939627,456.2962255699649L518.0710813852611,456.96499802143217L517.0717015844584,457.09239412113857L516.0726932174621,457.6000000000008L515.8126895526448,457.541387010152L515.4858278025868,456.9943071594139L515.374397660521,456.4471816347359L515.6259326345435,455.8617067271557L516.3549829106951,455.17689265466606L516.440858406846,454.16341626766916L515.9894920447205,452.97841756940215L517.386528879173,451.8399404325569L518.2783414495016,451.84482912171916L518.7322335615145,451.2668629910354L519.2398350020021,448.485928025058L519.7772254338024,447.73254244949476L519.8821926276269,447.26594968348627L519.8310090490386,445.86049127285605L519.4671524918149,445.78836568002816L519.4063859210082,445.53381567500355L519.4979072110245,444.36506807479236L520.3284332032172,443.3202514310574L521.0125399887374,442.9873786627377L521.4661349537027,443.0277159128568L521.7557047495502,443.3124193254189L523.0344770598904,443.6369543387714L525.470117105152,443.3124193254189L527.9736552503136,442.685820457094L528.761169207668,442.7347756575364L529.2205585400225,443.4088514723917L529.3767093124361,445.10729252775354L529.9155111927021,446.26856817608586L530.451861609844,447.0827865367014L530.0017581226602,448.0783807791199L529.3331772702695,448.9979185131974L527.6533307352565,450.72307258831415L526.1175262305514,452.63508661845617L526.0347707783776,452.5671417138028L525.3597269777465,453.0473357644232L524.2031563898709,454.2804089636729L523.9811132601162,453.9224848760423ZM358.95173569982126,102.41352639268325L357.8471658449098,102.41352639268325L357.49348657399514,102.22897939888207L357.4492859509746,101.98304586892436L357.62608844305214,101.12251076462735L358.3328526907917,100.44625426064704L359.2612143477181,100.26175132173967L360.4100591124088,100.26175132173967L360.4100591124088,100.8153468117207L360.05637984149416,101.79900259330088ZM361.95670948427505,102.59796449981013L361.3820270982651,102.29046123802982L361.0289421214393,102.41352639268325L360.807939006344,102.29046123802982L361.0731427444589,101.73741247959697L361.3378264752446,101.24549604828644L362.2219875091523,100.50775400451857L362.3103887551897,100.8153468117207L361.95670948427505,101.12251076462735L361.77990699219754,101.61443707696344L361.95670948427505,101.98304586892436ZM352.79499749043407,117.42813706017978L352.69300176706383,117.14467285210094L355.6294088707673,113.95526229398456L357.7485130258019,113.95526229398456L356.95676472304694,115.30214571727674L354.42900909367927,116.93232381640337ZM360.9909815863766,118.3493568963363L359.3825246290462,118.3493568963363L360.12323792673305,116.75501705302986L362.3698924510527,114.77079060385813L363.4422218515274,114.30972310680363L362.9826096588895,115.58579812621383L361.57814414829954,118.10128634284047ZM668.2184434654146,391.9323004793423L667.2617785524053,391.140950871114L667.1461140649408,390.6432362017986L668.9331563966216,389.5576648530132L669.7719282193275,389.73209109208346L670.3376219072115,389.59122770957674L670.9247844691336,389.2183740722685L671.0091742300574,389.59122770957674L669.6302633653813,390.1548602319863L669.1003758964807,390.4836396251453Z" class="state" fill="white" stroke="#111" stroke-width="0.5"></path></g>


  <circle cx="520" cy="200" fill="none" r="10" stroke="red" stroke-width="2">
    <animate attributeName="r" from="8" to="20" dur="1.5s" begin="0s" repeatCount="indefinite"/>
    <animate attributeName="opacity" from="1" to="0" dur="1.5s" begin="0s" repeatCount="indefinite"/>
  </circle>
  <circle cx="520" cy="200" fill="red" r="10"/>
</svg>