<svg xmlns="http://www.w3.org/2000/svg" xmlns:xlink="http://www.w3.org/1999/xlink" width="100" zoomAndPan="magnify" viewBox="0 0 75 74.999997" height="100" preserveAspectRatio="xMidYMid meet" version="1.0"><defs><clipPath id="5c4b3bebbe"><path d="M 11.589844 3 L 63 3 L 63 75 L 11.589844 75 Z M 11.589844 3 " clip-rule="nonzero"/></clipPath></defs><path fill="#e6aea9" d="M 56.058594 17.628906 L 55.914062 10.457031 L 53.191406 12.101562 L 53.835938 19.773438 Z M 56.058594 17.628906 " fill-opacity="1" fill-rule="nonzero"/><path fill="#e6aea9" d="M 33.230469 22.527344 L 27.566406 31.28125 L 29.175781 59.964844 L 41.890625 57.707031 L 47.800781 54.292969 L 48.171875 38.691406 L 38.835938 23.707031 Z M 33.230469 22.527344 " fill-opacity="1" fill-rule="nonzero"/><path fill="#e6aea9" d="M 54.835938 38.402344 L 56.171875 38.257812 C 56.171875 38.257812 56.507812 38.210938 56.703125 37.773438 C 56.894531 37.339844 58.457031 30.070312 58.390625 29.714844 C 58.328125 29.363281 57.28125 25.589844 57.28125 25.589844 L 56.042969 21.820312 L 55.847656 21.820312 L 53.226562 24.109375 L 52.660156 32.003906 L 55.074219 33.472656 Z M 54.835938 38.402344 " fill-opacity="1" fill-rule="nonzero"/><path fill="#e6aea9" d="M 53.273438 43.140625 L 54.511719 48.199219 L 55.605469 49.199219 L 56.796875 48.007812 C 56.796875 48.007812 58.132812 44.042969 58.132812 43.753906 C 58.132812 43.460938 57.328125 42.222656 57.328125 42.222656 Z M 53.273438 43.140625 " fill-opacity="1" fill-rule="nonzero"/><path fill="#000000" d="M 56.75 52.101562 C 56.765625 52.421875 56.652344 52.730469 56.460938 52.96875 L 55.703125 53.953125 C 55.445312 54.292969 55.027344 54.484375 54.59375 54.46875 L 32.765625 53.871094 C 32.042969 53.855469 31.460938 53.261719 31.445312 52.535156 L 30.367188 2.386719 C 30.367188 2.128906 30.269531 1.355469 30.625 0.789062 C 30.980469 0.226562 32.136719 0 32.636719 0.03125 L 54.046875 1.546875 C 54.738281 1.59375 55.285156 2.160156 55.300781 2.851562 Z M 56.75 52.101562 " fill-opacity="1" fill-rule="evenodd"/><path fill="#ffffff" d="M 56.265625 51.648438 C 56.027344 52.019531 55.605469 52.246094 55.15625 52.230469 L 34.972656 51.277344 C 34.3125 51.246094 33.78125 50.699219 33.761719 50.039062 L 32.089844 2.144531 C 32.058594 1.433594 32.734375 0.773438 33.425781 0.726562 L 53.757812 2.207031 C 54.433594 2.257812 54.867188 2.867188 54.882812 3.5625 Z M 56.265625 51.648438 " fill-opacity="1" fill-rule="evenodd"/><path fill="#000000" d="M 45.226562 3.546875 C 45.226562 4.140625 44.742188 4.625 44.144531 4.625 C 43.550781 4.625 43.066406 4.140625 43.066406 3.546875 C 43.066406 2.949219 43.550781 2.464844 44.144531 2.464844 C 44.742188 2.464844 45.226562 2.949219 45.226562 3.546875 Z M 45.226562 3.546875 " fill-opacity="1" fill-rule="evenodd"/><path fill="#343434" d="M 52.871094 32.421875 C 52.917969 32.421875 52.984375 32.40625 53.015625 32.359375 C 53.046875 32.3125 53.078125 32.261719 53.0625 32.214844 L 52.949219 30.730469 C 52.949219 30.636719 52.855469 30.539062 52.757812 30.539062 C 47.429688 30.554688 37.289062 30.570312 36.933594 30.554688 C 36.886719 30.554688 36.839844 30.554688 36.789062 30.585938 C 36.742188 30.617188 36.710938 30.683594 36.710938 30.746094 L 36.757812 32.183594 C 36.757812 32.292969 36.855469 32.375 36.949219 32.375 Z M 52.582031 30.941406 L 52.660156 32.019531 L 37.175781 32.003906 L 37.144531 30.957031 C 37.882812 30.972656 40.847656 30.972656 52.582031 30.941406 Z M 37.257812 25.800781 L 53.144531 25.816406 C 53.191406 25.816406 53.257812 25.800781 53.289062 25.753906 C 53.320312 25.703125 53.355469 25.65625 53.335938 25.605469 L 53.226562 24.125 C 53.226562 24.027344 53.128906 23.929688 53.03125 23.929688 C 47.703125 23.945312 37.5625 23.964844 37.207031 23.945312 C 37.160156 23.945312 37.113281 23.945312 37.0625 23.980469 C 37.015625 24.011719 36.984375 24.074219 36.984375 24.140625 L 37.03125 25.574219 C 37.0625 25.71875 37.144531 25.800781 37.257812 25.800781 Z M 52.855469 24.351562 L 52.933594 25.429688 L 37.449219 25.414062 L 37.417969 24.367188 C 38.175781 24.367188 41.121094 24.382812 52.855469 24.351562 Z M 53.046875 38.113281 C 53.097656 38.113281 53.160156 38.097656 53.191406 38.046875 C 53.226562 38 53.257812 37.953125 53.242188 37.902344 L 53.128906 36.421875 C 53.128906 36.324219 53.03125 36.226562 52.933594 36.226562 C 47.605469 36.242188 37.464844 36.257812 37.113281 36.242188 C 37.0625 36.242188 37.015625 36.242188 36.96875 36.273438 C 36.917969 36.308594 36.886719 36.371094 36.886719 36.4375 L 36.933594 37.871094 C 36.933594 37.984375 37.03125 38.0625 37.128906 38.0625 Z M 37.335938 37.695312 L 37.304688 36.644531 C 38.0625 36.660156 41.023438 36.660156 52.757812 36.628906 L 52.839844 37.710938 Z M 37.433594 22.304688 C 37.433594 22.191406 37.53125 22.109375 37.625 22.109375 L 45.320312 22.175781 C 45.433594 22.175781 45.515625 22.269531 45.515625 22.367188 C 45.515625 22.480469 45.417969 22.5625 45.320312 22.5625 L 37.625 22.496094 C 37.515625 22.496094 37.433594 22.417969 37.433594 22.304688 Z M 45.128906 28.78125 C 45.242188 28.78125 45.320312 28.878906 45.320312 28.976562 C 45.320312 29.085938 45.226562 29.167969 45.128906 29.167969 L 37.433594 29.105469 C 37.320312 29.105469 37.242188 29.007812 37.242188 28.910156 C 37.242188 28.796875 37.320312 28.699219 37.433594 28.71875 Z M 44.855469 34.648438 C 44.96875 34.648438 45.046875 34.746094 45.046875 34.839844 C 45.046875 34.953125 44.949219 35.035156 44.855469 35.035156 L 37.160156 34.96875 C 37.046875 34.96875 36.96875 34.875 36.96875 34.777344 C 36.96875 34.664062 37.0625 34.582031 37.160156 34.582031 Z M 55.445312 45.414062 L 46.753906 45.089844 L 46.65625 42.398438 L 55.222656 42.707031 Z M 55.445312 45.414062 " fill-opacity="1" fill-rule="evenodd"/><g clip-path="url(#5c4b3bebbe)"><path fill="#e6aea9" d="M 32.734375 53.839844 L 47.800781 54.292969 C 47.800781 54.292969 45.226562 57.820312 42.214844 60.027344 C 39.238281 62.203125 33.8125 64.21875 33.8125 64.21875 C 33.8125 64.21875 26.808594 74.628906 25.796875 74.789062 C 24.539062 75 11.628906 59.578125 11.628906 59.578125 C 11.628906 59.578125 21.820312 46.007812 21.917969 45.332031 C 22.238281 43.222656 22.480469 41.09375 22.671875 38.964844 C 22.882812 36.597656 22.558594 31.519531 23.527344 29.394531 C 24.734375 26.765625 29.015625 23.722656 31.011719 21.480469 C 31.65625 20.773438 35.132812 16.019531 35.664062 16.324219 C 37.078125 17.128906 35.953125 21.078125 35.566406 22.140625 C 34.84375 24.140625 33.230469 25.703125 32.523438 27.667969 C 32.28125 28.347656 31.089844 31.132812 31.089844 31.132812 L 31.492188 52.777344 C 31.527344 53.375 32.136719 53.824219 32.734375 53.839844 Z M 58.875 21.675781 C 58.90625 21.691406 58.921875 21.691406 58.875 21.675781 Z M 58.296875 40.351562 C 57.070312 39.917969 53.964844 39.886719 52.210938 41.046875 C 51.742188 41.351562 48.074219 44.734375 48.492188 45.445312 C 48.652344 45.75 49.730469 46.300781 50.9375 46.074219 C 52.195312 45.832031 53.59375 44.785156 54.175781 44.574219 C 54.722656 44.382812 56.539062 44.574219 56.539062 44.574219 L 56.636719 48.121094 C 56.636719 48.121094 60.515625 44.511719 60.257812 43.445312 C 59.761719 41.320312 59.4375 40.738281 58.296875 40.351562 Z M 62.078125 3.65625 C 61.515625 3.738281 55.496094 10.621094 55.496094 10.621094 C 55.496094 10.621094 55.703125 17.871094 55.753906 17.921875 C 57.328125 16.050781 61.160156 9.75 62.433594 6.332031 C 63.300781 4.011719 62.269531 3.640625 62.078125 3.65625 Z M 60.195312 31.054688 C 60.242188 30.988281 59.488281 30.25 59.421875 30.214844 C 59.050781 29.972656 58.664062 29.714844 58.230469 29.621094 C 58.359375 29.457031 58.472656 29.296875 58.585938 29.152344 C 60.242188 26.945312 61.0625 24.429688 59.246094 22.03125 L 58.875 21.660156 C 58.792969 21.625 58.570312 21.515625 58.472656 21.480469 C 58.199219 21.402344 57.941406 21.320312 57.667969 21.238281 C 56.910156 21.015625 55.914062 20.660156 55.140625 20.964844 C 54.351562 21.289062 53.757812 22.109375 53.175781 22.707031 C 51.921875 24.027344 50.601562 25.332031 49.070312 26.347656 C 48.28125 26.863281 46.882812 27.316406 47.558594 28.507812 C 48.8125 30.730469 51.566406 29.585938 53.175781 28.636719 C 53.691406 28.332031 54.480469 27.492188 55.125 27.523438 C 55.332031 27.539062 55.992188 27.234375 55.992188 27.234375 C 55.992188 27.234375 56.121094 30.585938 56.136719 30.730469 C 55.878906 30.941406 55.300781 31.152344 55.058594 31.34375 C 53.5625 32.472656 52.050781 33.585938 50.617188 34.808594 C 50.246094 35.132812 48.539062 36.179688 48.863281 36.824219 C 49.78125 38.675781 52.726562 37.855469 54.09375 37.175781 C 54.867188 36.808594 55.382812 36.226562 56.25 36.113281 C 56.265625 36.144531 56.347656 38.113281 56.347656 38.113281 C 56.347656 38.113281 57.554688 37.304688 57.75 37.113281 C 58.664062 36.292969 60.582031 32.246094 60.324219 31.359375 Z M 60.195312 31.054688 " fill-opacity="1" fill-rule="nonzero"/></g><path fill="#ffb901" d="M 53.867188 18.582031 C 53.886719 18.984375 53.546875 19.320312 53.128906 19.304688 L 37.433594 18.660156 C 37.0625 18.644531 36.773438 18.355469 36.757812 17.984375 L 36.453125 8.976562 C 36.4375 8.558594 36.773438 8.21875 37.191406 8.25 L 52.984375 9.105469 C 53.355469 9.121094 53.644531 9.425781 53.644531 9.796875 Z M 37.351562 42.0625 L 37.449219 44.75 L 46.140625 45.074219 L 45.902344 42.367188 Z M 37.351562 42.0625 " fill-opacity="1" fill-rule="evenodd"/><path fill="#000000" d="M 45.5625 15.503906 C 45.273438 15.40625 44.886719 15.421875 44.597656 15.453125 L 44.46875 15.46875 C 44.289062 15.488281 44.113281 15.503906 43.9375 15.519531 C 43.390625 15.566406 42.808594 15.617188 42.3125 15.503906 C 42.296875 15.503906 42.296875 15.503906 42.277344 15.488281 C 42.34375 15.375 42.359375 15.230469 42.3125 15.101562 C 42.261719 14.953125 42.132812 14.84375 41.988281 14.808594 C 41.8125 14.777344 41.667969 14.84375 41.570312 14.972656 C 41.472656 15.101562 41.472656 15.292969 41.554688 15.453125 C 41.507812 15.46875 41.457031 15.46875 41.410156 15.46875 C 41.265625 15.46875 41.136719 15.4375 40.976562 15.390625 C 40.847656 15.359375 40.71875 15.308594 40.574219 15.292969 C 40.394531 15.277344 40.234375 15.277344 40.074219 15.292969 C 39.832031 15.308594 39.621094 15.308594 39.414062 15.246094 C 39.398438 15.246094 39.382812 15.230469 39.347656 15.230469 C 39.347656 15.210938 39.367188 15.210938 39.367188 15.195312 C 39.429688 15.066406 39.476562 14.875 39.398438 14.746094 C 39.347656 14.664062 39.269531 14.632812 39.1875 14.632812 C 39.089844 14.632812 38.996094 14.679688 38.929688 14.761719 C 38.835938 14.890625 38.800781 15.066406 38.816406 15.179688 C 38.816406 15.210938 38.835938 15.261719 38.851562 15.292969 C 38.785156 15.375 38.707031 15.453125 38.625 15.488281 C 38.527344 15.535156 38.480469 15.648438 38.527344 15.761719 C 38.578125 15.855469 38.6875 15.90625 38.800781 15.855469 C 38.929688 15.792969 39.042969 15.695312 39.140625 15.582031 C 39.1875 15.597656 39.238281 15.632812 39.285156 15.648438 C 39.558594 15.746094 39.832031 15.726562 40.089844 15.710938 C 40.25 15.710938 40.394531 15.695312 40.523438 15.710938 C 40.636719 15.726562 40.734375 15.761719 40.847656 15.792969 C 41.023438 15.839844 41.199219 15.90625 41.410156 15.890625 C 41.554688 15.890625 41.714844 15.855469 41.875 15.792969 C 41.972656 15.839844 42.070312 15.875 42.183594 15.90625 C 42.441406 15.96875 42.714844 15.984375 42.988281 15.984375 C 43.308594 15.984375 43.632812 15.953125 43.9375 15.921875 C 44.113281 15.90625 44.289062 15.890625 44.453125 15.875 C 44.5 15.875 44.546875 15.875 44.597656 15.855469 C 44.871094 15.839844 45.191406 15.808594 45.402344 15.890625 C 45.5 15.921875 45.628906 15.875 45.660156 15.777344 C 45.722656 15.648438 45.660156 15.535156 45.5625 15.503906 Z M 41.925781 15.277344 C 41.910156 15.277344 41.910156 15.261719 41.890625 15.261719 C 41.890625 15.230469 41.890625 15.195312 41.890625 15.195312 C 41.890625 15.195312 41.890625 15.195312 41.910156 15.195312 C 41.925781 15.195312 41.925781 15.195312 41.941406 15.210938 C 41.941406 15.230469 41.941406 15.246094 41.925781 15.277344 Z M 38.511719 11.507812 C 38.464844 11.441406 38.464844 11.34375 38.511719 11.28125 C 38.558594 11.183594 38.6875 11.152344 38.785156 11.199219 C 38.835938 11.199219 38.867188 11.183594 38.914062 11.199219 C 39.058594 11.214844 39.21875 11.214844 39.367188 11.230469 L 39.816406 11.265625 C 40.105469 11.28125 40.378906 11.296875 40.667969 11.328125 C 40.78125 11.34375 40.863281 11.425781 40.847656 11.539062 C 40.832031 11.636719 40.75 11.714844 40.652344 11.714844 L 40.636719 11.714844 C 40.363281 11.699219 40.074219 11.667969 39.800781 11.652344 L 39.347656 11.617188 C 39.203125 11.601562 39.042969 11.601562 38.898438 11.585938 C 38.882812 11.585938 38.867188 11.585938 38.835938 11.585938 C 38.738281 11.617188 38.59375 11.636719 38.511719 11.507812 Z M 38.769531 12.699219 C 38.640625 12.699219 38.527344 12.683594 38.414062 12.683594 C 38.238281 12.683594 38.109375 12.667969 38.0625 12.554688 L 38.238281 12.472656 L 38.269531 12.28125 C 38.304688 12.28125 38.414062 12.296875 38.433594 12.296875 C 38.542969 12.3125 38.671875 12.3125 38.785156 12.3125 C 38.980469 12.328125 39.1875 12.328125 39.382812 12.34375 C 39.542969 12.34375 39.703125 12.359375 39.863281 12.359375 C 40.941406 12.410156 41.988281 12.425781 43.246094 12.425781 C 43.355469 12.425781 43.4375 12.519531 43.4375 12.617188 C 43.4375 12.730469 43.339844 12.8125 43.246094 12.8125 C 41.988281 12.8125 40.925781 12.796875 39.847656 12.746094 C 39.6875 12.746094 39.527344 12.730469 39.367188 12.730469 C 39.171875 12.714844 38.980469 12.714844 38.769531 12.699219 Z M 31.960938 30.457031 C 31.945312 30.488281 30.175781 33.066406 29.851562 34.679688 C 29.835938 34.777344 29.753906 34.839844 29.660156 34.839844 C 29.644531 34.839844 29.625 34.839844 29.625 34.839844 C 29.515625 34.824219 29.449219 34.710938 29.464844 34.597656 C 29.804688 32.90625 31.574219 30.328125 31.640625 30.230469 C 31.703125 30.136719 31.832031 30.121094 31.914062 30.183594 C 32.007812 30.25 32.023438 30.378906 31.960938 30.457031 Z M 33.441406 52.679688 C 33.441406 52.730469 33.441406 52.808594 33.441406 52.859375 C 33.441406 52.953125 33.457031 53.050781 33.441406 53.117188 C 33.425781 53.46875 33.378906 53.921875 33.28125 54.390625 C 33.054688 55.5 32.1875 56.917969 31.027344 57.320312 C 31.011719 57.320312 30.980469 57.335938 30.960938 57.335938 C 30.882812 57.335938 30.800781 57.289062 30.769531 57.207031 C 30.738281 57.113281 30.785156 56.984375 30.898438 56.949219 C 31.878906 56.597656 32.683594 55.339844 32.894531 54.308594 C 32.976562 53.871094 33.023438 53.421875 33.039062 53.082031 C 33.039062 53.035156 33.039062 52.953125 33.039062 52.875 C 33.023438 52.566406 33.023438 52.390625 33.199219 52.324219 C 33.230469 52.308594 33.359375 52.277344 33.457031 52.421875 C 33.523438 52.503906 33.507812 52.601562 33.441406 52.679688 Z M 36.113281 17.066406 C 35.886719 19.082031 34.808594 21.109375 33.230469 22.527344 C 32.894531 22.835938 32.667969 22.933594 32.445312 22.933594 C 32.25 22.933594 32.042969 22.851562 31.769531 22.738281 C 31.671875 22.691406 31.574219 22.65625 31.445312 22.609375 C 31.300781 22.546875 31.125 22.480469 30.945312 22.417969 C 30.65625 22.304688 30.527344 22.269531 30.578125 22.09375 C 30.609375 21.996094 30.707031 21.933594 30.800781 21.949219 C 30.832031 21.949219 30.867188 21.964844 30.882812 21.980469 C 30.929688 21.996094 31.042969 22.046875 31.074219 22.046875 C 31.269531 22.109375 31.445312 22.191406 31.605469 22.238281 C 31.734375 22.289062 31.847656 22.335938 31.945312 22.382812 C 32.460938 22.609375 32.539062 22.640625 32.992188 22.238281 C 34.488281 20.886719 35.519531 18.953125 35.742188 17.035156 C 35.757812 16.921875 35.855469 16.839844 35.96875 16.855469 C 36.050781 16.855469 36.128906 16.953125 36.113281 17.066406 Z M 58.519531 26.621094 C 57.730469 26.960938 55.878906 27.652344 55.125 27.652344 C 55.109375 27.652344 55.074219 27.652344 55.058594 27.652344 C 55.011719 27.652344 54.5625 27.492188 54.5625 27.492188 C 54.5625 27.378906 54.5625 27.378906 54.867188 27.171875 C 54.980469 27.089844 55.09375 27.023438 55.109375 27.007812 C 55.316406 26.832031 55.527344 26.65625 55.734375 26.429688 C 56.316406 25.847656 56.765625 25.21875 57.152344 24.511719 C 57.199219 24.414062 57.328125 24.382812 57.425781 24.429688 C 57.523438 24.480469 57.554688 24.609375 57.507812 24.703125 C 57.105469 25.445312 56.621094 26.105469 56.027344 26.71875 C 55.847656 26.894531 55.671875 27.058594 55.496094 27.21875 C 56.234375 27.089844 57.539062 26.621094 58.375 26.25 C 58.472656 26.203125 58.601562 26.25 58.632812 26.347656 C 58.664062 26.445312 58.617188 26.574219 58.519531 26.621094 Z M 49.425781 28.621094 C 48.796875 28.621094 48.203125 28.425781 47.6875 28.039062 C 47.605469 27.976562 47.589844 27.847656 47.65625 27.765625 C 47.71875 27.6875 47.847656 27.667969 47.929688 27.734375 C 48.507812 28.167969 49.167969 28.332031 49.910156 28.203125 C 51.164062 27.976562 52.308594 26.976562 52.871094 26.089844 C 52.886719 26.058594 52.886719 26.058594 52.886719 26.058594 C 52.839844 25.898438 52.273438 25.71875 52.035156 25.640625 C 51.890625 25.589844 51.777344 25.558594 51.695312 25.511719 C 51.535156 25.429688 51.390625 25.367188 51.261719 25.285156 C 51.230469 25.269531 51.179688 25.21875 51.148438 25.1875 L 51.132812 25.171875 C 51.066406 25.15625 51.003906 25.109375 50.988281 25.042969 C 50.9375 24.929688 51.003906 24.832031 51.066406 24.800781 C 51.195312 24.703125 51.324219 24.816406 51.421875 24.898438 C 51.453125 24.914062 51.46875 24.945312 51.488281 24.960938 C 51.613281 25.042969 51.742188 25.109375 51.871094 25.171875 C 51.9375 25.203125 52.050781 25.238281 52.164062 25.285156 C 52.695312 25.460938 53.160156 25.640625 53.273438 25.960938 C 53.304688 26.058594 53.320312 26.1875 53.226562 26.347656 C 52.46875 27.523438 51.195312 28.425781 49.988281 28.636719 C 49.796875 28.605469 49.617188 28.621094 49.425781 28.621094 Z M 56.523438 30.554688 C 56.347656 30.652344 56.1875 30.765625 56.007812 30.894531 C 55.976562 30.925781 55.847656 31.039062 55.816406 31.070312 C 55.769531 31.117188 55.703125 31.132812 55.671875 31.132812 C 55.640625 31.132812 55.605469 31.132812 55.589844 31.117188 C 55.589844 31.117188 55.769531 30.585938 55.785156 30.570312 C 55.976562 30.425781 56.171875 30.296875 56.347656 30.199219 C 56.71875 30.007812 57.441406 29.652344 58.167969 29.554688 C 58.277344 29.539062 58.375 29.621094 58.390625 29.734375 C 58.40625 29.84375 58.328125 29.941406 58.230469 29.957031 C 57.730469 30.023438 57.121094 30.25 56.523438 30.554688 Z M 59.117188 34.003906 C 58.664062 34.617188 58.070312 35.082031 57.507812 35.519531 L 57.328125 35.648438 C 57.199219 35.742188 57.070312 35.839844 56.925781 35.9375 C 56.8125 36.015625 56.476562 36.195312 56.410156 36.242188 C 56.378906 36.257812 56.347656 36.257812 56.316406 36.257812 C 56.25 36.257812 56.171875 36.226562 56.136719 36.164062 C 56.089844 36.066406 56.121094 35.9375 56.21875 35.886719 C 56.363281 35.808594 56.621094 35.664062 56.6875 35.613281 C 56.8125 35.519531 56.941406 35.421875 57.089844 35.324219 L 57.265625 35.195312 C 57.8125 34.792969 58.359375 34.339844 58.792969 33.761719 C 58.859375 33.679688 58.988281 33.648438 59.066406 33.714844 C 59.164062 33.792969 59.179688 33.90625 59.117188 34.003906 Z M 54.785156 34.824219 C 54.800781 35.242188 54.335938 35.679688 53.835938 36.082031 C 53.789062 36.113281 53.757812 36.144531 53.722656 36.179688 C 53.0625 36.742188 51.761719 37.355469 50.601562 37.355469 C 50.003906 37.355469 49.425781 37.195312 48.992188 36.789062 C 48.910156 36.710938 48.910156 36.582031 48.976562 36.5 C 49.054688 36.421875 49.183594 36.421875 49.265625 36.484375 C 50.277344 37.433594 52.4375 36.757812 53.464844 35.871094 C 53.5 35.839844 53.546875 35.808594 53.578125 35.777344 C 53.804688 35.597656 54.382812 35.113281 54.382812 34.839844 C 54.382812 34.679688 53.773438 34.324219 53.5625 34.210938 C 53.449219 34.148438 53.335938 34.082031 53.273438 34.035156 L 53.207031 33.988281 C 53.0625 33.890625 52.917969 33.777344 52.773438 33.664062 C 52.726562 33.632812 52.695312 33.585938 52.660156 33.535156 C 52.660156 33.535156 52.660156 33.519531 52.644531 33.519531 C 52.546875 33.503906 52.46875 33.390625 52.484375 33.292969 C 52.5 33.195312 52.566406 33.132812 52.644531 33.117188 C 52.789062 33.085938 52.886719 33.195312 52.96875 33.292969 C 52.984375 33.324219 53.015625 33.34375 53.03125 33.359375 C 53.160156 33.457031 53.304688 33.566406 53.449219 33.664062 L 53.515625 33.714844 C 53.5625 33.746094 53.660156 33.808594 53.773438 33.875 C 54.320312 34.179688 54.769531 34.46875 54.785156 34.824219 Z M 53.515625 42.996094 C 53.386719 43.332031 53.0625 43.640625 52.824219 43.882812 L 52.710938 43.976562 C 51.839844 44.816406 50.40625 45.78125 49.167969 45.78125 C 49.136719 45.78125 49.089844 45.78125 49.054688 45.78125 C 48.941406 45.78125 48.863281 45.6875 48.863281 45.574219 C 48.863281 45.460938 48.960938 45.378906 49.070312 45.378906 C 50.132812 45.429688 51.519531 44.574219 52.4375 43.6875 L 52.546875 43.589844 C 52.773438 43.382812 53.046875 43.109375 53.144531 42.867188 C 53.175781 42.800781 53.0625 42.625 52.453125 42.140625 C 52.355469 42.0625 52.273438 41.996094 52.210938 41.949219 C 52.210938 41.949219 52.179688 41.914062 52.144531 41.867188 C 52.113281 41.820312 52 41.707031 51.953125 41.671875 C 51.90625 41.65625 51.855469 41.609375 51.839844 41.5625 C 51.808594 41.464844 51.855469 41.335938 51.96875 41.304688 C 52.113281 41.253906 52.210938 41.351562 52.4375 41.609375 C 52.453125 41.640625 52.484375 41.65625 52.484375 41.65625 C 52.53125 41.691406 52.597656 41.753906 52.695312 41.820312 C 53.113281 42.140625 53.675781 42.578125 53.515625 42.996094 Z M 58.730469 43.253906 C 58.808594 43.316406 58.828125 43.445312 58.761719 43.527344 C 58.472656 43.882812 58.152344 44.234375 57.652344 44.476562 C 57.523438 44.542969 57.378906 44.605469 57.183594 44.671875 C 57.167969 44.671875 57.054688 44.703125 56.941406 44.734375 C 56.8125 44.769531 56.6875 44.800781 56.636719 44.816406 C 56.621094 44.816406 56.605469 44.832031 56.574219 44.832031 C 56.574219 44.832031 56.574219 44.832031 56.558594 44.832031 C 56.460938 44.832031 56.378906 44.769531 56.363281 44.671875 C 56.332031 44.492188 56.394531 44.476562 56.832031 44.363281 C 56.941406 44.332031 57.039062 44.316406 57.054688 44.300781 C 57.21875 44.234375 57.363281 44.1875 57.472656 44.140625 C 57.894531 43.945312 58.183594 43.625 58.457031 43.300781 C 58.519531 43.1875 58.648438 43.171875 58.730469 43.253906 Z M 58.730469 43.253906 " fill-opacity="1" fill-rule="nonzero"/><path fill="#ffffff" d="M 52.195312 16.5 C 51.890625 16.710938 50.023438 16.792969 49.570312 16.484375 C 49.121094 16.179688 49.070312 15.003906 49.507812 14.695312 C 49.925781 14.390625 51.664062 14.328125 52.113281 14.632812 C 52.566406 14.9375 52.515625 16.277344 52.195312 16.5 Z M 52.195312 16.5 " fill-opacity="1" fill-rule="evenodd"/></svg>