<?xml version="1.0" standalone="no"?>
<svg version="1.1" id="Layer_1" xmlns="http://www.w3.org/2000/svg" xmlns:xlink="http://www.w3.org/1999/xlink" x="0px" y="0px" width="595.28px" height="595.28px" viewBox="0 0 595.28 595.28" enable-background="new 0 0 595.28 595.28" xml:space="preserve">
<path id="color_x5F_2" fill="#fbbf24" d="M441.393,371.275c0.319,0.032,0.958-0.178,1.485-0.443c0,0.011,0,0.022-0.001,0.034
	c-0.296,0.119-0.681,0.273-1.128,0.45C441.647,371.303,441.532,371.29,441.393,371.275z M371.561,317.28l3.76,9.401
	C374.605,323.061,373.533,319.368,371.561,317.28z M295.444,305.61l4.717,0.496c0.585,0.032,1.171,0.071,1.756,0.108
	c0.701-0.561,2.029-0.649,2.43,0.151c12.829,0.956,25.592,2.919,38.442,3.502c6.48,0.294,13.044,0.263,19.418,1.65
	c3.447,0.75,9.393,1.534,11.762,4.415c3.481,4.235,4.297,11.215,5.327,16.39c1.645,8.267,2.878,16.604,4.195,24.927
	c0.515,3.25,0.997,6.518,1.681,9.738c0.434,2.045,0.598,2.99,1.541,3.825c0.208,0.057,0.352,0.16,0.397,0.313
	c0.489,0.348,1.135,0.698,2.03,1.125c10.381,4.952,21.811,5.942,32.954,3.994c4.914-1.104,8.903-2.362,8.903-2.362l1.688-0.355
	c2.357-0.776,4.685-1.635,6.979-2.599c1-0.42,2.116-1.04,3.239-1.049c0.26-9.616-0.054-19.251,0.203-28.869
	c0.164-6.121,0.362-12.272,1.063-18.359c0.386-3.357,0.573-7.462,2.281-10.469c3.552-6.255,9.266-11.59,13.652-17.277
	c5.235-6.788,10.208-14.169,12.451-22.552c2.747-10.265,2.588-21.465,2.599-32.028c0.003-3.188-0.026-6.375-0.063-9.563
	l-0.755-20.885c0,0-0.005-0.004-0.772-0.579c-0.071-0.005-0.144-0.011-0.228-0.015c-0.709-0.039-1.418-0.075-2.128-0.084
	c-2.263-0.031-4.563-0.012-6.81,0.304c-2.314,0.326-4.067,0.489-3.862,3.049c0.103,1.283,0.178,2.568,0.232,3.854
	c0.405,9.687,0.412,19.468-0.24,29.144c-0.646,9.578-3.381,17.254-10.525,24.092c-6.44,6.165-14.244,11.122-22.744,13.937
	c-1.76,0.943-3.279,1.749-4.287,2.281c-0.699,3.423-3.646,7.089-5.683,9.625c-0.374,0.465-2.364,1.153-2.764,0.484
	c-0.812-1.356-1.803-2.725-2.959-3.923l-3.897-2.834l-1.924,0.481c-0.228,0.322-0.458,0.643-0.674,0.973
	c-0.433,0.66-2.675,0.827-2.858,0.574c-0.397,0.003-0.747-0.109-0.909-0.39c-0.06-0.104-0.127-0.202-0.189-0.305h-0.322
	c-2.28,1.703-3.254,5.025-5.312,6.985c-0.482,0.459-1.997,1.01-2.515,0.301c-2.34-3.203-5.214-5.554-5.153-9.655
	c-0.102,0.031-0.207,0.058-0.317,0.072c-14.346,1.892-28.736,4.333-43.234,4.617c-7.64,0.149-15.264-0.405-22.883-0.905
	c-0.042-0.003-0.083-0.006-0.125-0.009C308.912,291.34,297,290.546,297,290.546l-0.575,1.581c-0.614,2.467-0.664,5.192-0.757,7.636
	C295.607,301.337,295.162,303.806,295.444,305.61z M418.641,290.177l-2.531,3.037c0.079,0.108,0.155,0.219,0.232,0.328
	C417.109,292.534,417.937,291.369,418.641,290.177z M292.424,305.292c-0.032-0.755,0.003-1.556,0.066-2.345l-0.824,2.265
	L292.424,305.292z"></path>
<path id="color_x5F_1" d="M391.685,250.395c-1.122,1.899-2.703,3.649-3.136,5.831c0.076,0,0.152,0,0.229,0
	c1.97,0,1.351,2.046-0.277,2.046c-0.556,0-1.111,0-1.667,0c-0.596,0-1.357-0.149-1.326-0.902c0.117-2.837,2.042-4.935,3.418-7.267
	C389.545,249.052,392.494,249.024,391.685,250.395z M401.835,258.707c-0.698-0.192-1.532,0.059-2.049,0.549
	c-0.63,0.599-1.434,0.721-2.28,0.73c-0.681,0.007-1.527,0.189-1.9,0.836c-0.337,0.584,0.285,1.028,0.831,1.022
	c2.113-0.023,4.141-0.438,5.72-1.936C402.627,259.462,402.437,258.873,401.835,258.707z M399.112,254.071
	c0.448-0.055,1.622-0.376,1.643-0.999c0.016-0.476,0.159-0.88,0.454-1.042c0.419-0.23,0.854-0.859,0.247-1.159
	c-0.641-0.317-1.474-0.056-2.054,0.264c-0.85,0.468-1.513,1.294-1.546,2.291C397.833,254.077,398.617,254.131,399.112,254.071z
	 M387.694,248.894c0.641-0.035,1.468-0.238,1.932-0.718c0.615-0.635,1.053-1.378,1.446-2.163c0.26-0.518-1.021-0.396-1.183-0.369
	c-0.533,0.088-1.415,0.301-1.685,0.841c-0.338,0.675-0.692,1.291-1.221,1.837C386.513,248.808,387.391,248.91,387.694,248.894z
	 M131.293,219.108c35.295-2.216,70.639-3.971,105.986-5.107c6.802-0.219,13.605-0.419,20.411-0.511
	c3.825-0.052,7.962-1.404,9.658,2.683c2.744,6.617,4.335,13.776,6.156,20.685c0.97,3.68,1.91,7.371,2.959,11.029
	c0.227,0.791,0.864,4.639,1.66,5.004c0.524,0.241,0.292,0.615-0.201,0.922c0.068,0.004,0.136,0.005,0.203,0.01
	c1.959,0.126,0.475,2.275-0.983,2.182c-12.921-0.831-26.155,0.283-39.067,0.803c-36.82,1.483-73.647,3.425-110.402,6.084
	c-6.128,0.443-12.259,0.896-18.375,1.48c-4.833,0.461-5.999-0.638-7.41-5.44c-2.15-7.319-3.25-14.982-4.28-22.526
	c-0.442-3.23-0.862-6.466-1.199-9.709c-0.089-0.858-0.562-2.467-0.166-3.304c0.001-0.002,0.002-0.003,0.003-0.005
	c-0.771-1.708,7.895-2.273,8.492-2.329C113.574,220.226,122.437,219.664,131.293,219.108z M174.571,218.228
	c-17.195,0.867-34.389,1.793-51.567,2.952c-5.726,0.386-11.453,0.78-17.168,1.298c-1.841,0.167-3.685,0.334-5.52,0.568
	c-0.397,0.051-0.794,0.109-1.191,0.169c0.026,0.157,0.002,0.339-0.099,0.553c-0.063,0.132,0.38,3.094,0.475,3.908
	c0.341,2.962,0.714,5.921,1.133,8.873c0.958,6.75,1.919,13.609,3.748,20.189c0.414,1.488,1.122,5.829,3.013,5.639
	c2.375-0.239,4.752-0.454,7.13-0.654c6.924-0.582,13.855-1.083,20.788-1.554c18.535-1.261,37.082-2.342,55.633-3.325
	c18.402-0.975,36.811-1.877,55.227-2.541c9.606-0.347,19.376-1.008,29.016-0.62c-0.702-1.009-1-2.88-1.246-3.72
	c-1.013-3.461-1.92-6.952-2.838-10.439c-1.933-7.338-3.528-15.037-6.443-22.066c-1.148-2.767-2.006-2.424-4.881-2.4
	c-2.756,0.023-5.512,0.067-8.268,0.126c-7.376,0.158-14.751,0.388-22.125,0.651C211.109,216.486,192.837,217.307,174.571,218.228z
	 M149.877,340.773c-8.173,0.757-16.427,1.19-24.573,2.202c-0.147,0.031-0.295,0.049-0.436,0.049
	c-0.658,0.439-1.665,0.574-2.265,0.149c-1.302-0.921-1.514-6.128-1.789-7.511c-1.151-5.795-2.237-11.603-3.313-17.413
	c-1.559-8.426-3.033-16.869-4.605-25.293c0.064,0.006,0.128,0.013,0.191,0.019c-0.284-0.265-0.196-0.651,0.688-0.993c0,0,0,0,0,0
	c0.13-0.051,0.384-0.126,0.667-0.179c-0.333,0.009-0.574-0.039-0.588-0.168c0,0,0-0.001,0-0.002
	c-0.065-0.592,1.736-0.873,2.091-0.917c7.227-0.902,14.55-1.282,21.802-1.948c5.147-0.473,10.294-0.948,15.434-1.488
	c1.78-0.187,3.561-0.373,5.336-0.596c0.62-0.078,1.244-0.147,1.861-0.249c0.105-0.018,0.193-0.031,0.266-0.043
	c0.724-0.334,1.753-0.583,2.028-0.288c0.009,0.01,0.018,0.02,0.027,0.029c0.087,0.05,0.105,0.118,0.055,0.205
	c-1.105,1.359-4.559,1.292-6.079,1.472c-5.124,0.605-10.262,1.09-15.398,1.57c-5.618,0.526-11.271,0.906-16.907,1.395
	c0.022,0.025,0.041,0.052,0.047,0.084c2.832,13.528,4.772,27.299,7.145,40.917c0.145-0.01,0.33-0.023,0.574-0.043
	c1.429-0.115,2.858-0.23,4.288-0.348c4.238-0.348,8.475-0.705,12.711-1.081c4.495-0.399,8.991-0.803,13.479-1.281
	c1.827-0.194,3.658-0.376,5.477-0.639c0.071-0.01,0.141-0.023,0.211-0.034c-0.899-4.599-1.77-9.203-2.624-13.81
	c-1.621-8.745-3.151-17.507-4.782-26.25c0.05,0.011,0.1,0.021,0.15,0.032c-0.305-0.39-0.218-0.907,0.664-1.248c0,0,0,0,0,0
	c0.549-0.212,1.917-0.455,2.083,0.44c1.512,8.105,2.928,16.229,4.428,24.336c0.979,5.288,1.964,10.576,2.998,15.854
	c0.158,0.028,0.329,0.061,0.456,0.159c0.09,0.059,0.111,0.137,0.063,0.232c-0.04,0.177-0.17,0.329-0.354,0.463
	c0.014,0.07,0.027,0.14,0.041,0.21c0.405,2.051,0.806,4.103,1.259,6.144c0.131,0.59,0.773,2.481,0.386,2.208
	c-0.003,0-0.007,0.001-0.011,0.002c0.385,0.225,0.536,0.629,0.119,1.2c-0.007,0.01-0.014,0.019-0.021,0.028
	c-0.455,0.622-1.692,0.864-2.328,0.415c-0.032-0.023-0.06-0.056-0.091-0.083c-1.595,0.406-3.666,0.36-4.759,0.483
	C160.619,339.77,155.248,340.276,149.877,340.773z M159.935,287.058c-0.082-0.088-0.008-0.21,0.152-0.339
	C159.92,286.823,159.825,286.94,159.935,287.058z M169.85,337.083c-0.007-0.023-0.015-0.044-0.022-0.067
	c-0.158,0.226-0.185,0.515,0.151,0.875C169.723,337.615,169.712,337.334,169.85,337.083z M123.571,334.173
	c0.143,0.717,0.332,2.575,0.615,4.314l4.434-6.208c-2.349-13.529-4.286-27.205-7.098-40.643c-0.05-0.241,0.282-0.483,0.736-0.67
	c-2.364,0.218-4.724,0.461-7.076,0.749c-0.061,0.012-0.121,0.023-0.182,0.033c0.389-0.002,0.732,0.096,0.795,0.434
	c1.571,8.424,3.043,16.867,4.605,25.293C121.433,323.044,122.467,328.616,123.571,334.173z M147.23,338.886
	c5.146-0.472,10.294-0.947,15.434-1.488c1.954-0.206,3.909-0.408,5.857-0.662c0.395-0.052,0.79-0.108,1.184-0.166
	c-0.437-1.729-0.56-3.92-0.753-4.887c-0.155-0.772-0.299-1.547-0.452-2.32c-0.806,0.102-1.525,0.15-1.818,0.188
	c-4.681,0.612-9.387,1.042-14.088,1.473c-7.685,0.705-15.374,1.356-23.067,1.962c-0.039,0.003-0.11,0.01-0.195,0.013l-4.894,6.852
	c0.093,0.434,0.194,0.83,0.304,1.168c0.22-0.093,0.456-0.157,0.686-0.186C132.655,339.932,139.979,339.552,147.23,338.886z
	 M162.501,405.945c-8.125,0.753-16.329,1.188-24.429,2.186c-0.198,0.05-0.397,0.076-0.586,0.078
	c-0.667,0.364-1.773,0.565-2.231,0.241c-1.287-0.911-1.5-6.079-1.773-7.454c-1.151-5.795-2.237-11.603-3.313-17.413
	c-1.559-8.426-3.033-16.869-4.605-25.293c0.067,0,0.134,0,0.201-0.001c-0.234-0.163-0.119-0.435,0.734-0.765c0,0,0,0,0,0
	c0.051-0.02,0.161-0.055,0.29-0.092c-0.144-0.108-0.244-0.258-0.267-0.464c0-0.001,0-0.001,0-0.002
	c-0.097-0.879,0.853-1.313,1.589-1.405c7.227-0.902,14.55-1.282,21.802-1.948c5.146-0.472,10.294-0.947,15.434-1.488
	c1.954-0.206,3.909-0.408,5.857-0.662c0.566-0.074,1.133-0.145,1.696-0.237c0.27-0.044,0.406-0.067,0.464-0.073
	c0.667-0.272,1.52-0.311,1.935,0.134c0.009,0.01,0.018,0.02,0.027,0.029c0.288,0.309,0.094,0.751-0.125,1.021
	c-0.02,0.024-0.046,0.044-0.067,0.067c0.566-0.095,1.23-0.078,1.327,0.44c1.571,8.424,3.043,16.867,4.605,25.293
	c0.921,4.97,1.851,9.938,2.823,14.898c0.157,0.028,0.327,0.062,0.453,0.159c0.09,0.059,0.11,0.135,0.062,0.231
	c-0.039,0.176-0.169,0.327-0.351,0.461c0.063,0.316,0.121,0.634,0.184,0.951c0.388,1.952,0.77,3.907,1.211,5.848
	c0.131,0.577,0.783,2.193,0.314,1.862c-0.031,0.008-0.063,0.017-0.094,0.025c0.413,0.09,0.624,0.321,0.325,0.73
	c-0.007,0.009-0.014,0.019-0.021,0.028c-0.445,0.608-1.802,1.166-2.502,0.67c-0.05-0.036-0.095-0.084-0.142-0.128
	c-1.61,0.384-3.694,0.346-4.727,0.462C173.243,404.941,167.872,405.447,162.501,405.945z M182.561,402.514
	c-0.004-0.011-0.007-0.022-0.011-0.033c-0.142,0.188-0.174,0.421,0.084,0.698C182.427,402.957,182.431,402.727,182.561,402.514z
	 M172.642,352.54c-0.372-0.398-0.18-0.814,0.241-1.122C172.511,351.646,172.156,352.02,172.642,352.54z M137.178,356.648
	c2.78,13.383,4.707,26.997,7.053,40.462c0.145-0.01,0.331-0.023,0.574-0.043c1.429-0.114,2.859-0.23,4.288-0.348
	c4.238-0.348,8.475-0.705,12.711-1.081c4.495-0.399,8.991-0.804,13.479-1.281c1.827-0.194,3.659-0.375,5.477-0.638
	c0.071-0.01,0.141-0.023,0.211-0.034c-0.899-4.6-1.77-9.205-2.625-13.813c-1.621-8.745-3.151-17.507-4.782-26.25
	c0.061,0.008,0.122,0.015,0.183,0.023c-0.12-0.122-0.173-0.263-0.135-0.413c-1.626,0.466-3.857,0.412-4.982,0.539
	c-5.36,0.604-10.731,1.11-16.102,1.607C147.427,355.853,142.296,356.21,137.178,356.648z M136.238,399.506
	c0.138,0.696,0.303,2.587,0.583,4.358l4.466-6.252c-2.349-13.53-4.286-27.206-7.098-40.644c-0.004-0.021,0.002-0.041,0.004-0.062
	c-1.914,0.181-3.823,0.388-5.728,0.619c1.57,8.42,3.042,16.858,4.603,25.281C134.1,388.378,135.134,393.949,136.238,399.506z
	 M159.941,404.382c5.146-0.473,10.294-0.948,15.434-1.488c1.954-0.205,3.909-0.408,5.857-0.662c0.397-0.052,0.794-0.109,1.19-0.167
	c-0.479-1.731-0.601-4.038-0.803-5.048c-0.155-0.773-0.3-1.549-0.452-2.322c-0.807,0.102-1.526,0.15-1.819,0.188
	c-4.681,0.611-9.387,1.041-14.088,1.473c-7.685,0.705-15.374,1.355-23.067,1.962c-0.038,0.003-0.109,0.009-0.192,0.013l-4.929,6.9
	c0.104,0.481,0.22,0.924,0.352,1.286c0.245-0.097,0.5-0.161,0.714-0.188C145.365,405.427,152.689,405.047,159.941,404.382z
	 M198.625,468.502c-0.007,0.009-0.014,0.019-0.021,0.028c-0.411,0.562-2.082,1.012-2.681,0.588c-0.005-0.004-0.01-0.011-0.015-0.015
	c-1.38,0.319-3.001,0.316-4.03,0.435c-5.247,0.604-10.506,1.101-15.764,1.59c-8.433,0.785-16.948,1.234-25.355,2.269
	c-0.115,0.03-0.23,0.052-0.344,0.067c-0.613,0.52-1.876,0.78-2.483,0.35c-1.296-0.917-1.508-6.107-1.782-7.486
	c-1.151-5.795-2.237-11.603-3.313-17.413c-1.559-8.426-3.033-16.869-4.605-25.293c0.067,0.004,0.134,0.007,0.201,0.011
	c-0.268-0.219-0.174-0.556,0.703-0.895c0.046-0.018,0.119-0.042,0.205-0.068c-0.078-0.1-0.133-0.22-0.15-0.37c0,0,0-0.001,0-0.002
	c-0.099-0.898,0.809-1.351,1.578-1.447c7.227-0.902,14.55-1.282,21.802-1.948c5.146-0.472,10.294-0.947,15.434-1.488
	c1.954-0.206,3.909-0.408,5.857-0.662c0.566-0.074,1.133-0.145,1.696-0.237c0.321-0.053,0.462-0.078,0.495-0.077
	c0.659-0.26,1.49-0.285,1.913,0.168c0.009,0.01,0.018,0.02,0.027,0.029c0.29,0.311,0.111,0.788-0.114,1.064
	c-0.121,0.148-0.274,0.276-0.445,0.393c0.537-0.158,1.607-0.391,1.696,0.085c1.571,8.424,3.043,16.867,4.605,25.293
	c0.91,4.908,1.828,9.814,2.787,14.713c0.16,0.06,0.313,0.135,0.464,0.251c0.106,0.12,0.143,0.258,0.111,0.415
	c-0.049,0.219-0.171,0.405-0.337,0.568c0.049,0.25,0.095,0.501,0.145,0.751c0.268,1.347,0.631,7.143,1.74,7.927
	c-0.022,0.005-0.045,0.01-0.068,0.015C198.721,468.19,198.763,468.313,198.625,468.502z M185.312,417.886
	c-0.426-0.457-0.159-0.934,0.353-1.254C185.25,416.853,184.734,417.267,185.312,417.886z M149.854,422.025
	c2.754,13.264,4.674,26.753,6.991,40.103c6.043-0.48,12.085-0.982,18.124-1.522c4.438-0.397,8.877-0.798,13.307-1.279
	c1.689-0.184,3.381-0.362,5.063-0.605c0.078-0.011,0.157-0.022,0.235-0.032c-0.938-4.808-1.845-9.622-2.737-14.439
	c-1.559-8.426-3.033-16.869-4.605-25.293c0.067,0,0.135,0,0.202,0c-0.143-0.1-0.157-0.24,0.038-0.407
	c-1.634,0.53-3.981,0.465-5.164,0.599c-5.36,0.604-10.731,1.11-16.102,1.607C160.104,421.229,154.973,421.586,149.854,422.025z
	 M148.905,464.84c0.141,0.708,0.319,2.58,0.601,4.333l4.448-6.228c-2.349-13.529-4.286-27.205-7.098-40.643
	c-0.001-0.006,0-0.012,0-0.018c-1.91,0.181-3.815,0.388-5.716,0.618c1.567,8.406,3.036,16.831,4.595,25.238
	C146.767,453.711,147.801,459.283,148.905,464.84z M195.055,467.466c-0.545-1.919-0.711-4.823-0.906-5.804
	c-0.084-0.426-0.164-0.854-0.248-1.28c-0.817,0.102-1.579,0.138-1.985,0.189c-4.502,0.565-9.022,0.987-13.541,1.401
	c-7.685,0.705-15.374,1.356-23.067,1.962c-0.193,0.016-0.52,0.022-0.795-0.052l-4.754,6.656c0.111,0.517,0.234,0.985,0.374,1.359
	c0.244-0.091,0.493-0.15,0.69-0.175c7.227-0.902,14.55-1.282,21.802-1.948c5.146-0.472,10.294-0.947,15.434-1.488
	c1.954-0.205,3.909-0.408,5.857-0.662C194.296,467.576,194.675,467.521,195.055,467.466z M195.296,468.496
	c-0.168-0.18-0.177-0.369-0.088-0.548c-0.003-0.01-0.007-0.02-0.011-0.031C195.096,468.081,195.09,468.274,195.296,468.496z
	 M230.4,306.14c0.913,4.924,1.834,9.847,2.796,14.761c0.162,0.05,0.315,0.115,0.462,0.228c0.102,0.104,0.135,0.227,0.099,0.368
	c-0.047,0.209-0.17,0.386-0.341,0.542c0.053,0.267,0.102,0.534,0.155,0.801c0.277,1.395,0.72,7.167,1.727,7.879
	c-0.002,0-0.005,0.001-0.007,0.001c0.173,0.108,0.212,0.284,0.024,0.541c-0.007,0.009-0.014,0.019-0.021,0.028
	c-0.519,0.709-1.957,1.065-2.692,0.545c-0.033-0.023-0.063-0.062-0.095-0.091c-1.377,0.303-2.98,0.304-3.975,0.418
	c-5.247,0.605-10.506,1.101-15.764,1.59c-8.427,0.785-16.937,1.234-25.338,2.267c-0.047,0.013-0.094,0.022-0.142,0.032
	c-0.48,0.621-1.756,1.155-2.478,0.644c-1.429-1.011-1.554-5.494-1.857-7.01c-1.142-5.705-2.212-11.423-3.273-17.144
	c-1.621-8.745-3.151-17.507-4.782-26.25c0.059,0.009,0.117,0.018,0.176,0.026c-0.296-0.319-0.21-0.762,0.675-1.105
	c0.042-0.017,0.101-0.035,0.158-0.053c-0.024-0.058-0.043-0.12-0.051-0.19c0,0,0-0.001,0-0.002
	c-0.095-0.864,0.883-1.286,1.597-1.375c7.227-0.902,14.551-1.282,21.802-1.948c5.147-0.473,10.294-0.948,15.434-1.488
	c1.954-0.206,3.91-0.408,5.858-0.662c0.566-0.074,1.133-0.145,1.696-0.237c0.238-0.039,0.37-0.061,0.44-0.07
	c0.672-0.281,1.543-0.331,1.954,0.109c0.009,0.009,0.018,0.019,0.027,0.029c0.287,0.307,0.082,0.727-0.133,0.992
	c-0.059,0.072-0.128,0.137-0.2,0.201c0.582-0.129,1.369-0.189,1.465,0.329C227.367,289.271,228.838,297.714,230.4,306.14z
	 M221.972,280.531c-0.335-0.359-0.188-0.734,0.17-1.028C221.811,279.729,221.545,280.073,221.972,280.531z M186.505,284.618
	c2.768,13.315,4.692,26.859,7.02,40.26c5.731-0.455,11.461-0.93,17.188-1.439c4.496-0.399,8.992-0.804,13.479-1.281
	c1.777-0.189,3.556-0.375,5.327-0.618c0.245-0.034,0.49-0.075,0.735-0.109c-0.942-4.834-1.855-9.673-2.751-14.516
	c-1.559-8.426-3.033-16.869-4.605-25.293c0.065,0.006,0.129,0.011,0.194,0.017c-0.142-0.127-0.186-0.285-0.083-0.454
	c-1.635,0.485-3.922,0.429-5.054,0.557c-5.36,0.604-10.731,1.11-16.101,1.607C196.753,283.822,191.623,284.179,186.505,284.618z
	 M185.425,326.769c0.154,0.782,0.458,3.025,0.793,5.004l4.401-6.162c-2.349-13.529-4.286-27.205-7.098-40.643
	c-0.006-0.031-0.001-0.061-0.002-0.092c-1.915,0.181-3.826,0.388-5.732,0.619c0.001,0.007,0.006,0.011,0.008,0.018
	c1.512,8.105,2.928,16.229,4.428,24.336C183.268,315.493,184.314,321.137,185.425,326.769z M231.879,330.648
	c-0.002-0.006-0.004-0.012-0.006-0.018c-0.09,0.149-0.095,0.323,0.087,0.519C231.808,330.986,231.798,330.814,231.879,330.648z
	 M230.55,322.962c-0.837,0.105-1.61,0.144-1.991,0.191c-4.502,0.564-9.022,0.986-13.541,1.401
	c-7.685,0.705-15.375,1.355-23.067,1.962c-0.164,0.013-0.472,0.036-0.742-0.011l-4.741,6.638c0.117,0.59,0.233,1.095,0.346,1.46
	c0.248-0.089,0.498-0.147,0.685-0.17c7.227-0.902,14.55-1.282,21.802-1.948c5.146-0.472,10.294-0.947,15.434-1.488
	c1.954-0.206,3.909-0.408,5.857-0.662c0.379-0.049,0.757-0.104,1.135-0.159c-0.551-1.933-0.718-4.861-0.914-5.848
	C230.725,323.874,230.64,323.417,230.55,322.962z M235.36,344.498c0.669-0.275,1.527-0.318,1.941,0.125
	c0.009,0.01,0.018,0.02,0.027,0.029c0.228,0.245,0.148,0.565-0.002,0.823c0.523-0.008,1.033,0.15,1.136,0.704
	c1.512,8.105,2.928,16.229,4.428,24.336c0.967,5.228,1.942,10.455,2.962,15.673c0.162,0.059,0.315,0.134,0.467,0.25
	c0.106,0.119,0.143,0.256,0.11,0.412c-0.049,0.22-0.172,0.406-0.34,0.569c0.001,0.005,0.002,0.01,0.003,0.015
	c0.405,2.051,0.806,4.104,1.259,6.145c0.145,0.652,0.821,2.48,0.375,2.164c-0.005,0.001-0.01,0.002-0.015,0.002
	c0.417,0.253,0.591,0.701,0.151,1.304c-0.007,0.009-0.014,0.019-0.021,0.028c-0.487,0.667-1.659,0.874-2.333,0.397
	c-0.133-0.094-0.251-0.227-0.363-0.375c-1.366,0.297-2.944,0.299-3.94,0.414c-5.246,0.604-10.505,1.101-15.764,1.59
	c-8.43,0.785-16.941,1.233-25.345,2.268c-0.218,0.056-0.438,0.087-0.643,0.092c-0.699,0.373-1.748,0.622-2.203,0.3
	c-1.28-0.906-1.495-6.061-1.768-7.434c-1.151-5.795-2.237-11.603-3.313-17.413c-1.559-8.426-3.033-16.869-4.605-25.293
	c0.066-0.003,0.131-0.005,0.197-0.008c-0.203-0.131-0.071-0.365,0.757-0.686c0,0,0,0,0,0c0.053-0.021,0.185-0.063,0.352-0.11
	c-0.191-0.106-0.322-0.275-0.349-0.518c0-0.001,0-0.001,0-0.002c-0.096-0.875,0.863-1.304,1.592-1.395
	c7.227-0.903,14.55-1.283,21.802-1.948c5.147-0.472,10.294-0.948,15.435-1.488c1.954-0.206,3.909-0.408,5.857-0.662
	c0.566-0.074,1.133-0.145,1.696-0.237C235.163,344.527,235.297,344.505,235.36,344.498z M234.641,345.871
	c-0.355-0.381-0.19-0.78,0.2-1.083C234.488,345.018,234.182,345.379,234.641,345.871z M198.238,392.839
	c0.137,0.689,0.292,2.591,0.572,4.374l4.477-6.268c-2.349-13.53-4.286-27.206-7.098-40.644c-0.005-0.024-0.001-0.048-0.003-0.072
	c-1.912,0.181-3.82,0.388-5.723,0.619c1.571,8.424,3.042,16.866,4.604,25.292C196.1,381.711,197.134,387.282,198.238,392.839z
	 M244.57,395.923c-0.002-0.008-0.005-0.015-0.007-0.022c-0.123,0.165-0.146,0.362,0.065,0.588
	C244.455,396.303,244.46,396.108,244.57,395.923z M243.235,388.376c-0.819,0.103-1.583,0.139-1.988,0.19
	c-4.502,0.565-9.023,0.987-13.541,1.401c-7.684,0.705-15.374,1.356-23.067,1.962c-0.19,0.015-0.517,0.023-0.792-0.049l-4.786,6.7
	c0.111,0.511,0.237,0.975,0.382,1.35c0.256-0.096,0.518-0.158,0.717-0.183c7.227-0.902,14.55-1.282,21.802-1.948
	c5.147-0.473,10.294-0.948,15.434-1.488c1.954-0.206,3.909-0.408,5.857-0.662c0.394-0.051,0.788-0.108,1.182-0.165
	c-0.487-1.771-0.615-4.125-0.817-5.134C243.488,389.693,243.365,389.034,243.235,388.376z M235.542,346.579
	c-1.622,0.444-3.809,0.392-4.915,0.517c-5.36,0.604-10.731,1.11-16.102,1.608c-5.101,0.473-10.231,0.829-15.349,1.268
	c2.76,13.282,4.682,26.792,7.001,40.161c6.044-0.479,12.086-0.981,18.125-1.522c4.438-0.397,8.877-0.798,13.307-1.279
	c1.689-0.184,3.381-0.362,5.063-0.605c0.078-0.011,0.157-0.021,0.236-0.032c-0.876-4.491-1.728-8.988-2.562-13.487
	c-1.621-8.745-3.151-17.507-4.782-26.25c0.045,0.011,0.09,0.022,0.135,0.034C235.607,346.861,235.552,346.721,235.542,346.579z
	 M260.646,461.917c-0.007,0.01-0.014,0.019-0.021,0.028c-0.507,0.694-1.97,1.06-2.691,0.55c-0.022-0.016-0.042-0.043-0.064-0.062
	c-1.375,0.31-2.979,0.31-3.995,0.426c-5.247,0.604-10.506,1.101-15.764,1.59c-8.431,0.785-16.944,1.233-25.35,2.268
	c-0.063,0.016-0.125,0.029-0.189,0.041c-0.505,0.589-1.741,1.08-2.431,0.592c-1.432-1.013-1.551-5.482-1.855-7
	c-1.142-5.705-2.212-11.423-3.273-17.144c-1.621-8.745-3.151-17.507-4.782-26.25c0.06,0.008,0.119,0.017,0.178,0.025
	c-0.294-0.31-0.208-0.744,0.677-1.086c0,0,0,0,0,0c0.065-0.025,0.156-0.054,0.256-0.083c-0.089-0.042-0.146-0.1-0.154-0.178
	c0,0,0-0.001,0-0.002c-0.064-0.586,1.33-0.909,1.709-0.957c7.028-0.877,14.146-1.259,21.198-1.904
	c5.205-0.476,10.409-0.955,15.608-1.494c2.097-0.218,4.197-0.428,6.288-0.7c0.566-0.074,1.133-0.144,1.696-0.236
	c0.109-0.018,0.198-0.032,0.273-0.044c0.718-0.335,1.738-0.543,2.04-0.219c0.009,0.01,0.018,0.02,0.027,0.029
	c0.148,0.159,0.078,0.258-0.046,0.411c-1.057,1.299-4.512,1.205-5.948,1.375c-5.124,0.605-10.262,1.09-15.398,1.571
	c-5.342,0.5-11.278,0.917-16.882,1.399c2.802,13.389,4.735,27.014,7.073,40.495c5.725-0.455,11.449-0.93,17.169-1.438
	c4.496-0.399,8.992-0.804,13.48-1.281c1.777-0.189,3.556-0.375,5.327-0.618c0.25-0.034,0.499-0.076,0.748-0.111
	c-0.929-4.771-1.831-9.548-2.715-14.327c-1.559-8.426-3.033-16.869-4.605-25.293c0.065,0.005,0.131,0.01,0.197,0.015
	c-0.278-0.243-0.188-0.605,0.694-0.946c0.366-0.142,1.875-0.559,2.007,0.155c1.571,8.424,3.043,16.867,4.605,25.293
	c0.904,4.878,1.817,9.755,2.77,14.624c0.097,0.035,0.19,0.077,0.272,0.141c0.204,0.156,0.393,0.356,0.329,0.643
	c-0.052,0.231-0.171,0.427-0.334,0.598c0.046,0.231,0.088,0.463,0.134,0.694c0.276,1.39,0.711,7.164,1.729,7.884
	c-0.004,0.001-0.009,0.002-0.014,0.002C260.789,461.497,260.829,461.667,260.646,461.917z M247.275,411.083
	c-0.112-0.121-0.054-0.268,0.103-0.417C247.216,410.789,247.134,410.931,247.275,411.083z M210.905,458.173
	c0.267,1.343,0.539,2.686,0.821,4.026l4.228-5.92c-2.349-13.529-4.286-27.205-7.098-40.643c-0.039-0.187,0-0.361,0.084-0.52
	c-2.147,0.199-4.211,0.414-6.15,0.651c0.173,0.077,0.301,0.206,0.34,0.415c1.571,8.424,3.043,16.867,4.605,25.293
	C208.767,447.044,209.801,452.616,210.905,458.173z M257.054,460.812c-0.544-1.932-0.71-4.834-0.905-5.816
	c-0.078-0.392-0.15-0.785-0.228-1.176c-0.793,0.099-1.542,0.133-1.978,0.188c-4.502,0.564-9.023,0.986-13.541,1.401
	c-7.685,0.705-15.374,1.356-23.067,1.962c-0.227,0.018-0.575,0.001-0.855-0.108l-4.471,6.26c0.037,0.166,0.069,0.333,0.107,0.499
	c0.06,0.265,0.221,0.721,0.341,1.121c0.132-0.034,0.259-0.06,0.368-0.074c7.227-0.903,14.55-1.283,21.802-1.948
	c5.146-0.472,10.294-0.947,15.434-1.488c1.954-0.206,3.909-0.408,5.857-0.662C256.297,460.92,256.675,460.865,257.054,460.812z
	 M257.207,461.295c-0.003-0.009-0.006-0.017-0.01-0.026c-0.095,0.159-0.099,0.345,0.099,0.557
	C257.134,461.652,257.123,461.47,257.207,461.295z M244.896,346.956c0.053,0.01,0.105,0.021,0.158,0.03
	c-0.303-0.37-0.216-0.867,0.667-1.208h0c0.046-0.018,0.107-0.037,0.166-0.055c-0.013-0.028-0.028-0.056-0.032-0.089
	c0,0,0-0.001,0-0.002c-0.075-0.684,1.201-1.018,1.677-1.077c7.227-0.903,14.55-1.283,21.802-1.948
	c5.147-0.473,10.294-0.948,15.435-1.488c1.954-0.205,3.909-0.408,5.857-0.662c0.566-0.074,1.133-0.145,1.696-0.237
	c0.127-0.021,0.222-0.037,0.303-0.05c0.708-0.328,1.697-0.487,2.033-0.126c0.009,0.01,0.018,0.02,0.027,0.029
	c0.153,0.165,0.113,0.343-0.021,0.508c-1.137,1.397-4.618,1.28-6.165,1.458c-5.247,0.604-10.506,1.101-15.764,1.59
	c-5.414,0.504-10.862,0.869-16.293,1.34c2.788,13.347,4.718,26.926,7.046,40.363c5.725-0.454,11.448-0.929,17.167-1.437
	c4.496-0.399,8.992-0.804,13.48-1.281c1.777-0.189,3.556-0.375,5.327-0.618c0.25-0.034,0.501-0.065,0.752-0.099
	c-0.929-4.768-1.829-9.54-2.713-14.315c-1.559-8.426-3.033-16.869-4.605-25.293c0.068,0.002,0.136,0.004,0.203,0.005
	c-0.255-0.193-0.154-0.5,0.714-0.835h0c0.303-0.117,1.862-0.577,1.98,0.054c1.572,8.424,3.043,16.867,4.605,25.293
	c0.903,4.873,1.815,9.745,2.767,14.609c0.096,0.036,0.189,0.079,0.271,0.143c0.206,0.158,0.398,0.374,0.334,0.662
	c-0.052,0.234-0.171,0.432-0.333,0.605c0.045,0.227,0.086,0.454,0.131,0.68c0.271,1.361,0.659,7.15,1.736,7.912
	c-0.017,0.003-0.033,0.007-0.049,0.011c0.153,0.085,0.195,0.224,0.041,0.436c-0.007,0.009-0.014,0.019-0.021,0.028
	c-0.445,0.608-2.042,1.029-2.685,0.575c-0.118-0.083-0.224-0.212-0.324-0.36c-1.306,0.235-2.747,0.267-3.592,0.367
	c-5.124,0.605-10.262,1.09-15.398,1.57c-8.604,0.805-17.289,1.271-25.87,2.308c-0.001,0.174-0.067,0.375-0.238,0.609
	c-0.007,0.009-0.014,0.019-0.021,0.029c-0.439,0.601-1.708,0.859-2.326,0.422c-1.441-1.02-1.568-5.544-1.872-7.062
	c-1.142-5.705-2.212-11.423-3.273-17.144C248.058,364.461,246.528,355.699,244.896,346.956z M291.949,341.116
	c-0.157-0.168-0.108-0.358,0.061-0.539C291.837,340.728,291.756,340.909,291.949,341.116z M301.957,391.514
	c-0.002-0.006-0.005-0.013-0.007-0.02c-0.068,0.074-0.088,0.151-0.016,0.229C301.88,391.666,301.897,391.593,301.957,391.514z
	 M262.007,387.393c-0.235,0.019-0.588-0.004-0.869-0.123l-4.467,6.253c0.004,0.018,0.008,0.037,0.012,0.055
	c0.087,0.393,0.411,1.432,0.482,1.946c0.343-0.079,0.655-0.126,0.78-0.142c7.227-0.902,14.551-1.282,21.802-1.948
	c5.147-0.473,10.294-0.948,15.434-1.488c1.78-0.187,3.561-0.374,5.336-0.596c0.438-0.055,0.876-0.115,1.314-0.175
	c-0.637-1.898-0.811-5.134-1.019-6.181c-0.076-0.384-0.147-0.769-0.223-1.152c-0.789,0.098-1.534,0.132-1.976,0.188
	c-4.502,0.565-9.023,0.987-13.541,1.401C277.39,386.136,269.7,386.787,262.007,387.393z M253.547,345.23
	c-1.973,0.188-3.942,0.398-5.907,0.637c0.072,0.083,0.129,0.182,0.154,0.312c1.512,8.105,2.928,16.229,4.428,24.336
	c1.044,5.644,2.091,11.288,3.202,16.919c0.313,1.589,0.632,3.177,0.967,4.762l4.227-5.919c-2.349-13.529-4.286-27.205-7.098-40.643
	C253.491,345.492,253.506,345.357,253.547,345.23z M305.295,405.48c0.706-0.326,1.686-0.476,2.027-0.109
	c0.009,0.01,0.019,0.02,0.027,0.029c0.154,0.166,0.12,0.358-0.016,0.525c-0.123,0.151-0.284,0.276-0.454,0.395
	c0.62-0.128,1.458-0.135,1.582,0.526c1.512,8.105,2.928,16.229,4.428,24.336c0.964,5.211,1.936,10.421,2.953,15.622
	c0.099,0.032,0.195,0.072,0.274,0.133c0.197,0.151,0.378,0.31,0.315,0.592c-0.05,0.225-0.172,0.415-0.338,0.582
	c0.404,2.048,0.804,4.097,1.256,6.135c0.123,0.553,0.741,2.481,0.394,2.235c-0.002,0-0.003,0-0.005,0.001
	c0.363,0.208,0.498,0.587,0.096,1.136c-0.007,0.01-0.014,0.019-0.021,0.028c-0.434,0.593-1.713,0.859-2.325,0.425
	c-0.205-0.145-0.38-0.366-0.536-0.634c-1.311,0.239-2.76,0.27-3.609,0.371c-5.124,0.605-10.262,1.09-15.398,1.571
	c-8.593,0.804-17.267,1.27-25.837,2.303c-0.013,0.08-0.045,0.167-0.12,0.27c-0.007,0.009-0.014,0.019-0.021,0.028
	c-0.429,0.588-1.827,1.147-2.502,0.67c-1.422-1.004-1.543-5.451-1.846-6.966c-1.142-5.705-2.212-11.424-3.273-17.144
	c-1.621-8.745-3.151-17.507-4.782-26.25c0.063,0.007,0.126,0.014,0.188,0.021c-0.288-0.277-0.202-0.676,0.684-1.019c0,0,0,0,0,0
	c0.059-0.023,0.144-0.05,0.24-0.078c-0.088-0.061-0.144-0.142-0.155-0.246c0-0.001,0-0.001,0-0.002
	c-0.077-0.7,1.178-1.038,1.671-1.099c7.227-0.903,14.55-1.283,21.802-1.948c5.146-0.472,10.294-0.948,15.434-1.488
	c1.954-0.206,3.909-0.408,5.857-0.662c0.566-0.074,1.133-0.145,1.696-0.237C305.115,405.51,305.213,405.494,305.295,405.48z
	 M304.618,406.455c-0.165-0.177-0.118-0.375,0.055-0.562C304.497,406.049,304.416,406.238,304.618,406.455z M268.237,453.505
	c0.267,1.342,0.539,2.685,0.821,4.025l4.228-5.92c-2.349-13.529-4.285-27.205-7.098-40.643c-0.028-0.135-0.01-0.262,0.036-0.383
	c-1.987,0.189-3.97,0.401-5.948,0.642c0.089,0.07,0.162,0.157,0.186,0.286c1.571,8.424,3.043,16.868,4.605,25.293
	C266.099,442.377,267.133,447.948,268.237,453.505z M314.655,456.808c-0.002-0.005-0.004-0.009-0.006-0.014
	c-0.095,0.083-0.131,0.172-0.048,0.262C314.538,456.989,314.568,456.902,314.655,456.808z M313.243,449.087
	c-0.81,0.101-1.567,0.137-1.985,0.189c-4.502,0.565-9.023,0.987-13.541,1.401c-7.685,0.705-15.375,1.356-23.067,1.961
	c-0.206,0.017-0.541,0.015-0.819-0.072l-4.491,6.288c0.037,0.166,0.069,0.333,0.107,0.499c0.074,0.327,0.327,1.036,0.429,1.495
	c0.325-0.072,0.615-0.117,0.736-0.132c7.227-0.903,14.55-1.283,21.802-1.948c5.147-0.472,10.294-0.948,15.435-1.488
	c1.78-0.187,3.56-0.374,5.336-0.596c0.455-0.057,0.909-0.118,1.363-0.182c-0.583-1.777-0.712-4.396-0.929-5.484
	C313.49,450.374,313.37,449.73,313.243,449.087z M305.791,406.815c-1.508,0.462-3.523,0.452-4.62,0.578
	c-5.247,0.604-10.506,1.101-15.764,1.59c-5.415,0.504-10.863,0.87-16.295,1.34c2.792,13.368,4.723,26.971,7.057,40.429
	c6.042-0.479,12.083-0.981,18.12-1.521c4.438-0.397,8.877-0.798,13.307-1.279c1.689-0.183,3.381-0.362,5.063-0.605
	c0.079-0.012,0.159-0.022,0.239-0.033c-0.874-4.477-1.721-8.958-2.553-13.442c-1.621-8.745-3.151-17.507-4.782-26.25
	c0.053,0.01,0.106,0.02,0.16,0.03C305.517,407.403,305.498,407.096,305.791,406.815z M556.594,196.697
	c-21.351,9.614-42.799,19.363-62.679,31.815c-0.947,0.593-2.836,0.07-2.372-0.739c-0.82,0.397-1.929,0.345-2.021-0.47
	c-1.153-10.173-5.394-18.664-11.631-25.439c-0.364,1.327-0.884,2.616-1.479,3.841c-0.412,0.847-3.229,1.133-2.883,0.42
	c0.996-2.049,1.885-4.375,1.982-6.679c-6.615-6.261-15.048-10.842-24.272-13.704c4.341,6.837,5.431,15.948,11.764,21.354
	c0.387,0.33-2.16,1.459-2.735,0.968c-6.805-5.809-7.633-15.742-12.747-22.761c-0.063-0.087,0.188-0.28,0.566-0.472
	c-8.986-2.366-18.588-3.145-27.906-2.308c-4.259,5.813-8.375,11.891-13.589,16.881c-5.229,5.004-11.197,8.817-17.544,12.241
	c-6.553,3.534-13.187,6.915-19.828,10.282c-3.805,1.929-8.738,3.57-12.081,6.259c-0.722,0.581-3.336,0.524-2.518-0.374
	c-1.849,0.968-3.8,1.786-5.875,2.417c-18.157,5.518-33.507-6.226-46.736-17.364c-7.505-6.319-14.662-12.764-21.685-19.617
	c-7.07-6.9-15.058-14.668-24.917-17.218c-15.339-3.967-37.372,3.327-46.138,17.271c13.704-0.401,27.43-0.355,41.133-0.381
	c8.221-0.016,18.121-0.022,25.137,4.979c4.612,3.287,6.695,7.351,8.555,12.521c4.975,13.831,8.224,28.366,11.264,42.723
	c2.376,11.221,5.593,23.175,5.723,34.717c0.002,0.216-0.181,0.406-0.456,0.562c4.233,0.318,8.466,0.629,12.701,0.925
	c9.066,0.632,18.2,1.506,27.294,1.565c15.814,0.104,31.527-2.604,47.158-4.664c0.347-0.046,0.607-0.018,0.799,0.057
	c2.172-3.081,4.421-6.103,7.222-8.653c0.317-0.289,1.04-0.444,1.651-0.432c0.134-2.081-0.267-4.095-2.084-5.17
	c-2.041-1.208-4.422-1.479-6.712-1.92c-3.492-0.672-9.612-2.082-10.693-6.222c-1.26-4.827,1.999-10.519,4.261-14.561
	c2.817-5.035,6.105-9.746,9.2-14.604c-1.446-1.55-2.274-3.342-1.981-5.308c1.335-8.954,12.516-5.648,17.187-2.191
	c4.423,3.273,8.142,7.777,12.996,10.436c4.941,2.707,11.69,3.314,14.84,8.431c5.566,9.044-8.017,17.565-14.264,20.9
	c-0.248,0.132-0.608,0.198-0.974,0.208l-4.986,2.649c-0.475,1.412-0.477,3.823-0.338,6.091c0.177,0.008,0.328,0.043,0.429,0.123
	c2.171,1.714,7,3.918,8.393,6.904c12.579-3.078,26.343-11.662,32.025-23.483c4.271-8.884,3.319-20.519,3.322-30.129
	c0.001-4.916,0-9.857-0.343-14.763c-0.163-2.326-0.766-4.096,1.497-5.487c3.987-2.453,12.826-2.879,17.271-1.472
	c0.373,0.118,0.619,0.343,0.6,0.75c0,0.013-0.001,0.025-0.001,0.038c-0.003,0.071-0.018,0.138-0.041,0.204
	c0.401-0.012,0.696,0.055,0.697,0.217c0.021,10.872,0.396,21.745,0.285,32.617c-0.096,9.462,0.232,19.704-2.235,28.924
	c-4.406,16.463-16.835,27.005-26.068,40.598c-2.184,3.216-2.407,8.111-2.77,11.822c-0.603,6.171-0.856,12.375-0.99,18.572
	c-0.206,9.534,0.097,19.09-0.199,28.621c3.516,23.178,7.78,48.09,18.429,69.189c1.837,3.641,4.084,7.013,6.601,10.189
	c6.329,6.274,14.716,14.26,21.687,20.832c10.834,8.976,22.386,17.032,33.703,25.379c0.551-0.025,0.977,0.096,0.878,0.42
	c-0.13,0.429-0.279,0.843-0.438,1.248c4.916,3.211,9.235,7.225,14.103,10.502c0.583-0.055,1.061,0.004,0.991,0.205
	c-0.043,0.125-0.092,0.248-0.136,0.372c0.023,0.015,0.046,0.032,0.069,0.047c0.167,0.107,0.025,0.3-0.267,0.496
	c-4.674,12.99-12.535,24.302-19,36.419c-0.378,0.708-3.026,0.861-2.852,0.535c0.158-0.297,0.321-0.591,0.481-0.887
	c-0.421,0.361-1.158,0.708-1.637,0.705c-7-0.042-14.036-0.598-20.97,0.64c-1.45,0.259-1.257-0.488-0.549-1.013
	c-0.063-0.165-0.003-0.381,0.262-0.659c3.363-3.532,7.103-6.726,10.32-10.395c1.526-1.74,4.733-4.877,5.188-7.459
	c0.229-1.298-0.674-2.792-1.079-3.979c-1.133-3.331-1.964-6.729-2.706-10.167c-0.073-0.338,0.145-0.641,0.487-0.87
	c-0.063-0.023-0.122-0.051-0.174-0.086c-23.265-15.659-49.309-28.837-69.118-49.062c-2.497-2.549-4.85-5.294-7.087-8.166
	c-3.247-3.434-5.673-6.63-6.632-9.234c-0.076-0.207-0.157-0.422-0.236-0.633c-6.399-10.34-11.355-21.852-14.776-33.385
	c-6.217,10.315-16.196,17.665-22.252,28.036c-2.108,3.609-3.549,7.557-3.756,11.636c0.456,3.197,1.364,7.496,3.017,13.24
	c1.019,2.702,2.11,5.384,3.075,8.071c4.157,11.579,8.139,23.219,12.277,34.805c1.614,4.518,3.218,9.045,4.989,13.504
	c0.585,1.472,1.159,2.959,1.855,4.383c1.007,2.06,0.902,0.853-0.41,1.417c0.166,0.041,0.28,0.114,0.306,0.233
	c0.005,0.021,0.011,0.042,0.016,0.063c0.781-0.117,1.508-0.096,1.176,0.198c-0.336,0.298-0.661,0.49-0.976,0.609
	c1.549,6.454,4.412,12.424,7.117,18.463c0.05,0.111-0.025,0.238-0.174,0.365c0.016,0.024,0.043,0.044,0.057,0.069
	c0.666,1.299-2.115,2.311-2.662,1.242c0.127,0.248-3.722,0.077-4.76,0.092c-3.26,0.047-6.519,0.149-9.777,0.273
	c-8.473,0.323-16.943,0.749-25.409,1.247c-5.769,0.339-11.598,0.537-17.34,1.225c-0.025,0.003-0.064,0.006-0.113,0.008
	c-0.542,0.245-1.306,0.326-1.823-0.028c-0.448-0.308-0.408-0.804-0.074-1.185c0.246-0.281,0.601-0.498,1.018-0.674
	c0.136-0.107,0.278-0.216,0.449-0.335c1.204-0.839,2.411-1.671,3.659-2.443c2.346-1.45,4.723-2.853,7.156-4.152
	c5.997-3.203,12.146-6.081,18.386-8.773c0.172-0.074,0.347-0.118,0.518-0.139c-0.002-0.006-0.006-0.01-0.008-0.016
	c-0.155-0.471-0.324-0.937-0.483-1.406c-0.021-0.006-0.042-0.012-0.042-0.012l-3.341-9.318
	c-8.458-21.895-19.695-42.865-24.903-65.862c-3.077-13.587-1.593-26.094,3.879-38.967c2.729-6.421,5.995-12.589,9.304-18.735
	c6.235-14.912,11.727-27.117,11.727-27.117s0.06,0.021,0.151,0.052c-1.995-2.649-1.989-9.667-2.414-12.349
	c-1.313-8.293-2.506-16.615-4.145-24.853c-0.379-1.906-0.723-4.622-1.269-7.386c-0.715-3.62-1.788-7.313-3.76-9.401
	c-0.177-0.187-0.354-0.373-0.545-0.532c-5.004-4.176-14.157-4.686-20.373-5.078c-4.168-0.263-8.347-0.274-12.51-0.603
	c-8.048-0.635-16.079-1.487-24.115-2.249c-3.063-0.291-6.127-0.573-9.193-0.833c1.698,6.168,2.6,12.675,3.811,18.925
	c2.662,13.731,5.235,27.479,7.774,41.234c5.78,31.305,11.537,62.632,16.576,94.067c1.053,6.569,3.391,14.379,2.809,21.096
	c-1.08,12.463-13.159,20.642-24.499,22.458c-28.545,4.57-57.476,7.227-86.211,10.276c-15.623,1.658-31.251,3.271-46.893,4.749
	c-7.313,0.691-14.835,1.826-22.223,1.907c-4.89,1.073-10.233,1.115-15.247,0.048c-0.289,0.109-0.541,0.18-0.614,0.195
	c-0.011,0.002-0.022,0.004-0.033,0.006c-0.731,0.143-1.036,0.028-1.07-0.187c-0.008,0.006-0.017,0.013-0.025,0.02
	c-0.537-0.429-2.988-0.841-3.959-1.131c-2.81-0.841-5.609-1.727-8.373-2.711c-7.063-2.515-14.126-5.416-20.481-9.44
	c-5.401-3.42-10.987-7.755-13.287-13.958c-1.763-4.753-2.873-9.773-3.997-14.706c-3.683-16.171-6.681-32.498-9.732-48.797
	c-0.768-4.102-1.483-8.231-2.214-12.361c-0.831-3.69-1.485-7.459-2.093-11.229c-0.792-3.965-1.652-7.911-2.659-11.81
	c-0.072-0.28,0.168-0.547,0.538-0.755c-3.715-19.909-7.362-39.83-10.904-59.769c-5.37-30.227-10.934-60.513-14.784-90.979
	c-1.176-9.307-2.91-19.182,0.957-28.154c2.773-6.434,8.617-7.371,14.926-9.368c5.996-1.897,12.054-3.793,18.172-5.296
	c3.849-2.264,8.635-2.827,13.732-3.481c10.634-1.365,21.287-2.204,31.955-2.726c10.827-17.031,25.1-32.252,41.534-43.954
	c15.587-11.098,33.851-20.158,53.213-21.627c43.284-3.285,70.074,33.317,101.782,56.2c10.433,7.529,22.551,14.936,35.385,17.379
	c6.87,1.308,13.483,0.793,19.236-3.407c-0.492-0.21-0.71-0.629-0.171-1.212c3.173-3.427,6.872-6.391,10.948-8.905
	c0.288-0.302,0.575-0.604,0.864-0.905c15.845-16.548,36.027-27.906,58.262-33.542c22.932-5.812,45.395-3.488,66.842,6.656
	c16.049,7.591,29.916,18.321,42.647,30.576c0.714,0.687-2.007,1.768-2.699,1.102c-23.045-22.183-53.9-42.5-87.325-40.184
	c-20.333,1.409-41.012,8.978-57.823,20.452c-5.463,3.729-10.202,8.049-14.806,12.611c7.363-3.489,15.615-5.708,24.129-6.656
	c0.651-0.493,2.229-0.656,2.591-0.25c32.255-2.601,67.261,12.818,71.032,46.087c0.027,0.24-0.04,0.458-0.163,0.65
	c20.029-12.517,41.593-22.364,63.092-32.044C556.781,194.488,558.413,195.877,556.594,196.697z M129.458,517.809
	c-4.174-3.14-7.228-7.608-8.202-13.507c-1.401-8.489-2.91-16.96-4.392-25.436c-10.75-61.484-21.662-122.941-32.679-184.378
	c-3.4-18.958-7.816-38.017-10.442-57.098c-1.236-8.987-2.69-20.092,1.472-28.586c0.658-1.343,1.418-2.47,2.253-3.446
	c-6.619,1.748-13.21,3.829-19.601,6.132c-1.605,0.579-3.812,1.112-5.179,2.203c-2.699,2.155-3.447,8.312-3.859,11.392
	c-0.253,1.896-0.368,3.656-0.273,5.563c0.662,13.288,3.089,26.595,5.152,39.716c5.173,32.91,11.058,65.709,17.057,98.477
	c2.384,13.024,4.797,26.042,7.253,39.053c0.992,5.251,1.586,10.821,3.064,15.965c-0.031-0.016-0.062-0.032-0.093-0.048
	c0.038,0.225-0.018,0.479-0.159,0.714c0.398,2.25,0.8,4.497,1.219,6.734c2.996,15.996,5.913,32.03,9.528,47.9
	c1.156,5.075,2.23,10.289,4.044,15.182c2.438,6.572,8.311,11.194,14.181,14.646C116.001,512.629,122.665,515.456,129.458,517.809z
	 M441.749,371.316c0.616,0.082,0.569,0.155,0.227,0.256l0.887-0.187c0.006-0.173,0.008-0.346,0.014-0.519
	c0-0.012,0-0.023,0.001-0.034c-0.526,0.266-1.166,0.476-1.485,0.443C441.532,371.29,441.647,371.303,441.749,371.316z
	 M407.943,528.999c-2.092,1.923-5.892,4.657-10.28,4.218c-0.289-0.029-0.569-0.061-0.851-0.092c-2.747,0.24-5.618,0.3-8.521,0.742
	c-0.122,0.179-0.344,0.354-0.695,0.505c-7.211,3.111-14.402,6.398-21.204,10.337c-1.545,0.895-3.078,2.037-4.627,3.124
	c1.247-0.006,2.384,0.03,3.083-0.019c7.276-0.503,14.559-0.916,21.842-1.281c7.285-0.366,14.576-0.723,21.87-0.868
	c0.771-0.015,3.455-0.353,5.721-0.307C411.866,540.012,409.415,534.686,407.943,528.999z M525.59,499.433
	c-2.949,5.167-8.276,8.378-12.821,12.276c-0.172,0.148-0.554,0.275-0.97,0.355c0.874,4.013,1.935,7.914,3.317,11.78
	c0.379,1.06,0.701,2.042,0.241,3.126c-2.982,7.028-9.957,12.199-15.221,17.548c6.435-0.823,12.934-0.396,19.416-0.356
	c0.484,0.003,0.716,0.098,0.779,0.237c6.344-11.641,13.814-22.626,18.292-35.186C534.068,506.236,530.031,502.563,525.59,499.433z
	 M414.146,278.808c0.041,0.384,0.08,0.736,0.117,1.055c0.129,0.053,0.161,0.142,0.032,0.277c0.054,0.456,0.1,0.818,0.126,1.054
	c0.052,0.46-1.227,0.858-2.103,0.935c-1.659,1.678-3.287,3.394-4.782,5.215c0.113-0.013,0.213-0.017,0.289-0.003
	c3.463,0.615,6.226,3.062,8.286,5.874c0.079,0.108,0.155,0.219,0.232,0.328c0.767-1.008,1.594-2.173,2.299-3.365
	c1.108-1.875,1.886-3.805,1.595-5.277c-0.25-0.207-0.343-0.495-0.242-0.779C419.05,281.93,416.456,280.278,414.146,278.808z
	 M399.431,281.775c-0.06,0.227-0.225,0.422-0.445,0.583c1.307,2.413,3.214,4.44,4.667,6.772c2.298-3.047,5.001-5.78,7.697-8.477
	c-0.546-3.914-1.585-11.058,2.364-12.434c0.659-0.229,1.448-0.846,0.622-0.166c0.586-0.483,1.128-0.909,1.833-1.217
	c3.244-1.417,1.566-7.991-0.431-6.923c-0.159,0.085-0.579,0.183-1.029,0.254c-0.621,0.321-1.489,0.557-1.899,0.412
	c-3.274-1.163-4.264-4.686-3.595-7.909c0.37-1.779,0.149-1.824-0.95-3.262c-0.43-0.563-0.956-1.191-1.213-1.867
	c-0.822-2.158-0.849-4.173-0.523-6.428c0.012-0.083,0.054-0.162,0.108-0.237l-0.195-0.215c-0.108,0.025-0.219,0.045-0.334,0.052
	c-3.143,0.188-8.995-1.496-12.875-4.38c-5.103,7.297-18.56,24.542-9.591,29.773c4.152,2.421,9.378,1.647,13.44,4.052
	C401.365,272.696,400.538,277.608,399.431,281.775z M390.754,287.162c-0.313,3.5,1.809,5.697,3.821,8.139
	c1.705-2.31,2.785-4.929,5.47-6.384c-1.596-2.264-3.418-4.36-4.522-6.947c-0.254-0.595,0.521-1.124,1.342-1.279
	c0.127-0.517,0.25-1.065,0.354-1.629C394.758,281.506,392.744,284.321,390.754,287.162z M297.04,290.217
	c-0.257,0.609-0.451,1.253-0.615,1.91c-0.614,2.467-0.664,5.192-0.757,7.636c-0.061,1.574-0.506,4.043-0.224,5.848
	c0.01,0.066,0.014,0.138,0.026,0.202c0.607-0.058,1.068,0.012,0.806,0.307c-0.018,0.021-0.038,0.039-0.056,0.059
	c1.195-0.139,2.401-0.164,2.542-0.157c0.466,0.022,0.932,0.061,1.398,0.086c0.585,0.032,1.171,0.071,1.756,0.108
	c0.701-0.561,2.029-0.649,2.43,0.151c12.829,0.956,25.592,2.919,38.442,3.502c6.48,0.294,13.044,0.263,19.418,1.65
	c3.447,0.75,9.393,1.534,11.762,4.415c3.481,4.235,4.297,11.215,5.327,16.39c1.645,8.267,2.878,16.604,4.195,24.927
	c0.515,3.25,0.997,6.518,1.681,9.738c0.434,2.045,0.598,2.99,1.541,3.825c0.208,0.057,0.352,0.16,0.397,0.313
	c0.489,0.348,1.135,0.698,2.03,1.125c10.381,4.952,21.811,5.942,32.954,3.994c4.914-1.104,8.903-2.362,8.903-2.362l1.688-0.355
	c2.357-0.776,4.685-1.635,6.979-2.599c1-0.42,2.116-1.04,3.239-1.049c0.26-9.616-0.054-19.251,0.203-28.869
	c0.164-6.121,0.362-12.272,1.063-18.359c0.386-3.357,0.573-7.462,2.281-10.469c3.552-6.255,9.266-11.59,13.652-17.277
	c5.235-6.788,10.208-14.169,12.451-22.552c2.747-10.265,2.588-21.465,2.599-32.028c0.003-3.188-0.026-6.375-0.063-9.563
	c-0.083-7.042-0.219-14.084-0.232-21.127c0-0.042,0.012-0.083,0.025-0.123c-0.418-0.089-0.723-0.335-0.703-0.79
	c-0.041,0.91,0.723,0.678-0.618,0.576c-0.071-0.005-0.144-0.011-0.228-0.015c-0.709-0.039-1.418-0.075-2.128-0.084
	c-2.263-0.031-4.563-0.012-6.81,0.304c-2.314,0.326-4.067,0.489-3.862,3.049c0.103,1.283,0.178,2.568,0.232,3.854
	c0.405,9.687,0.412,19.468-0.24,29.144c-0.646,9.578-3.381,17.254-10.525,24.092c-6.44,6.165-14.244,11.122-22.744,13.937
	c-1.365,0.452-2.748,0.845-4.146,1.183c-0.001,0.034,0.006,0.066,0.003,0.1c-0.022,0.33-0.077,0.663-0.145,0.999
	c-0.699,3.423-3.646,7.089-5.683,9.625c-0.374,0.465-2.364,1.153-2.764,0.484c-0.812-1.356-1.803-2.725-2.959-3.923
	c-1.449-1.502-3.162-2.728-5.121-3.313c-0.239,0.316-0.472,0.637-0.701,0.96c-0.228,0.322-0.458,0.643-0.674,0.973
	c-0.433,0.66-2.675,0.827-2.858,0.574c-0.397,0.003-0.747-0.109-0.909-0.39c-0.06-0.104-0.127-0.202-0.189-0.305
	c-0.031-0.052-0.063-0.102-0.095-0.153c-0.076,0.051-0.154,0.099-0.227,0.153c-2.28,1.703-3.254,5.025-5.312,6.985
	c-0.482,0.459-1.997,1.01-2.515,0.301c-2.34-3.203-5.214-5.554-5.153-9.655c-0.102,0.031-0.207,0.058-0.317,0.072
	c-14.346,1.892-28.736,4.333-43.234,4.617c-7.64,0.149-15.264-0.405-22.883-0.905c-0.042-0.003-0.083-0.006-0.125-0.009
	c-4.652-0.306-9.302-0.626-13.952-0.962C306.298,290.918,297.21,289.813,297.04,290.217z M289.326,325.936
	c0-0.002-0.001-0.004-0.001-0.006c-0.159,0.146-0.226,0.321-0.042,0.518C289.133,326.288,289.174,326.108,289.326,325.936z
	 M287.73,318.511c-0.721,0.082-1.386,0.115-1.788,0.166c-4.502,0.565-9.023,0.987-13.541,1.401
	c-7.684,0.705-15.374,1.356-23.067,1.962c-0.229,0.018-0.577,0-0.857-0.111l-4.746,6.645c0.125,0.576,0.27,1.087,0.437,1.484
	c0.269-0.09,0.532-0.146,0.696-0.167c7.227-0.902,14.55-1.282,21.802-1.948c5.147-0.473,10.294-0.948,15.434-1.488
	c1.954-0.205,3.909-0.408,5.858-0.662c0.428-0.056,0.856-0.116,1.285-0.179c-0.131-0.573-0.212-1.131-0.292-1.474
	C288.514,322.271,288.113,320.393,287.73,318.511z M234.603,280.608c0.273-0.001,0.49,0.056,0.524,0.237
	c1.571,8.424,3.043,16.867,4.605,25.293c1.033,5.571,2.067,11.142,3.17,16.699c0.138,0.692,0.297,2.589,0.577,4.368l4.472-6.262
	c-2.349-13.53-4.286-27.206-7.098-40.644c-0.029-0.137-0.014-0.267,0.026-0.391c-2.044,0.195-4.085,0.413-6.12,0.663
	C234.708,280.586,234.656,280.597,234.603,280.608z M280.52,310.034c4.091-2.312,4.386-7.597,0.467-10.583
	c-3.174,1.148-5.972,1.051-6.238-2.413c-0.299-3.904,1.386-6.462,3.994-8.005c-5.105-0.345-10.467-2.18-15.52-1.243
	c-1.46,0.271-3.519,2.976-2.242,4.405c0.72,0.806,1.64,1.324,2.66,1.666c2.585,0.865,5.476,1.221,8.19,0.904
	c2.007-0.234,1.028,1.465-0.389,1.631c-0.3,0.035-0.661,0.059-1.062,0.073c-0.08,3.851,0.222,8.219,2.518,11.368
	c1.349,1.85,3.961,3.63,6.372,2.778c0.217-0.077,0.414-0.17,0.615-0.261C280.048,310.246,280.271,310.135,280.52,310.034z
	 M282.942,309.936c3.77,1.001,7.08-0.027,9.828-2.642c-0.22-0.568-0.314-1.262-0.346-2.002c-0.032-0.755,0.003-1.556,0.066-2.345
	c0.086-1.075,0.211-2.115,0.25-2.931c0.141-2.932-0.009-6.944,1.374-9.703c-0.117-0.008-0.224-0.026-0.307-0.065
	c-2.425-1.14-5.591-1.856-8.478-1.676c-0.233,0.611-2.791,1.154-2.883,0.649c-0.006-0.035-0.013-0.07-0.019-0.105
	c-2.666,0.909-4.639,2.974-4.766,6.738c-0.199,5.891,8.293-0.372,9.967-2.271c0.573-0.65,3.467-0.897,2.681-0.005
	c-0.913,1.036-3.779,3.207-6.809,4.762c0.063,0.019,0.121,0.043,0.167,0.078C288.493,302.035,286.964,307.163,282.942,309.936z
	 M296.542,306.932c0.242-0.142,0.361-0.321,0.118-0.549C296.832,306.544,296.753,306.742,296.542,306.932z M208.537,194.549
	c-0.071,0.129-0.151,0.254-0.22,0.384c-0.432,0.809-3.331,1.161-2.691-0.036c0.049-0.092,0.104-0.18,0.154-0.271
	c-10.218,0.319-20.424,0.909-30.609,2c-0.385,0.334-0.916,0.6-1.389,0.599c-15.157-0.009-30.32-0.01-45.454,0.667
	c-0.005,0.008-0.01,0.016-0.015,0.024c-0.446,0.724-3.154,1.069-2.729,0.103c-7.164,0.361-14.321,0.883-21.468,1.64
	c-6.272,0.665-14.035,0.509-19.769,3.231c-0.031,0.425-0.371,0.858-1.108,1.029c-0.384,0.089-0.769,0.187-1.153,0.279
	c-2.298,1.618-4.087,3.922-5.043,7.255c-2.617,9.123-1.48,19.124,0.089,28.332c8.616,50.558,18.373,100.968,27.322,151.474
	c5.205,29.376,10.404,58.753,15.538,88.142c1.339,7.667,2.693,15.332,3.977,23.008c2.362,14.121,15.918,20.661,29.028,18.913
	c0.184-0.471,0.686-0.879,1.417-0.869c0.997,0.014,1.999-0.008,3.001-0.042c0.44-0.125,0.877-0.257,1.313-0.401
	c0.726-0.24,1.212-0.062,1.431,0.259c4.143-0.279,8.3-0.814,12.382-1.188c11.82-1.084,23.631-2.267,35.438-3.483
	c31.481-3.243,63.005-6.47,94.366-10.75c11.91-1.625,24-3.005,29.064-16.262c2.854-7.472,0.22-15.925-0.994-23.557
	c-4.952-31.129-10.641-62.148-16.355-93.145c-2.675-14.512-5.378-29.02-8.187-43.506c-1.324-6.831-2.276-13.965-4.237-20.663
	c-0.01,0-0.021-0.002-0.031-0.002c-1.373-0.105-2.746-0.212-4.122-0.278c-0.524-0.025-1.051-0.052-1.576-0.05
	c-0.067,0-0.112,0-0.166-0.001c-0.175,0.067-0.358,0.123-0.54,0.165c-0.207,0.133-0.454,0.236-0.716,0.299
	c-1.664,1.381-3.577,2.411-5.609,3.028c0.272,0.113,0.479,0.32,0.542,0.648c0.285,1.502,0.575,3.005,0.87,4.506
	c0.175,0.039,0.345,0.096,0.486,0.205c0.205,0.157,0.394,0.359,0.33,0.646c-0.067,0.303-0.245,0.548-0.493,0.751
	c0.31,1.53,0.626,3.06,0.973,4.581c0.22,0.963,0.433,1.932,0.705,2.882c0.261,0.915,0.503,0.762-0.064,0.554
	c0.479,0.243,0.726,0.725,0.302,1.396c-0.009,0.014-0.018,0.027-0.026,0.041c-0.401,0.636-1.403,0.747-2.049,0.549
	c-0.303-0.093-0.533-0.34-0.717-0.657c-1.388,0.276-2.985,0.284-3.903,0.39c-5.246,0.604-10.505,1.101-15.764,1.59
	c-8.418,0.784-16.919,1.232-25.312,2.264c-0.113,0.028-0.226,0.052-0.337,0.07c-0.65,0.48-1.945,0.87-2.501,0.478
	c-1.283-0.908-1.497-6.068-1.77-7.442c-1.151-5.795-2.237-11.603-3.313-17.413c-1.559-8.426-3.033-16.869-4.605-25.293
	c0.066-0.002,0.131-0.003,0.197-0.005c-0.216-0.144-0.09-0.393,0.749-0.718c0.102-0.04,0.447-0.146,0.819-0.221
	c-0.437,0.004-0.777-0.107-0.807-0.378c0-0.001,0-0.001,0-0.002c-0.076-0.694,1.187-1.031,1.673-1.092
	c7.227-0.902,14.55-1.282,21.802-1.948c5.147-0.473,10.294-0.948,15.434-1.488c1.954-0.206,3.909-0.408,5.857-0.662
	c0.566-0.074,1.133-0.145,1.696-0.237c0.13-0.021,0.227-0.037,0.308-0.05c0.707-0.328,1.69-0.48,2.031-0.116
	c0.009,0.01,0.018,0.02,0.027,0.029c0.154,0.166,0.118,0.353-0.018,0.519c-1.142,1.404-4.606,1.285-6.164,1.465
	c-5.246,0.604-10.505,1.101-15.764,1.59c-5.415,0.504-10.863,0.87-16.295,1.34c2.788,13.348,4.718,26.931,7.047,40.37
	c5.725-0.455,11.449-0.929,17.169-1.438c4.496-0.399,8.992-0.804,13.48-1.281c1.777-0.189,3.556-0.375,5.327-0.618
	c0.183-0.025,0.367-0.048,0.551-0.072c-0.283-1.436-0.56-2.874-0.833-4.311c-0.071-0.376,0.077-0.704,0.336-0.959
	c-1.994,0.324-4.054,0.259-6.07-0.256c-0.258,0.103-0.515,0.208-0.784,0.293c-2.913,0.922-6.438,0.936-8.771-1.329
	c-3.552-3.45-3.878-8.968-3.725-13.649c-5.382-0.397-12.689-2.331-8.545-7.584c4.692-5.949,15.68-1.563,21.902-1.401
	c0.58,0.015,0.81,0.171,0.826,0.38c0.157-0.044,0.318-0.082,0.478-0.122c-0.462-2.548-0.924-5.096-1.383-7.644
	c-0.179-0.991-0.244-2.111-0.555-3.073c-0.177-0.545,2.698-1.393,2.897-0.776c0.369,1.141,0.446,2.468,0.658,3.645
	c0.442,2.455,0.887,4.909,1.332,7.363c3.695-0.318,7.622,0.31,10.413,1.463c0.768-0.438,1.665-0.479,2.646-0.419
	c-0.189-10.677-3.066-21.712-5.244-32.089c-2.949-14.057-6.079-28.239-10.664-41.868c-1.473-4.379-2.941-9.633-6.428-12.898
	c-7.356-6.888-17.747-7.301-27.304-7.233C235.201,194.235,221.86,194.191,208.537,194.549z M279.34,275.233
	c-0.175,0.153-0.255,0.34-0.057,0.553C279.121,275.612,279.168,275.418,279.34,275.233z M377.215,202.946
	c-1.234,0.707-2.516,1.347-3.88,1.876c-9.25,3.586-19.799,0.558-28.523-3.092c-10.89-4.557-20.801-11.006-30.028-18.326
	c-19.335-15.339-36.508-33.894-58.974-44.819c-48.183-23.43-101.069,17.918-126.278,57.387c15.073-0.661,30.175-0.711,45.293-0.702
	c0.412,0,0.653,0.089,0.779,0.226c10.273-1.13,20.58-1.76,30.9-2.11c7.475-12.051,24.555-18.959,38.037-19.977
	c18.097-1.366,30.59,10.933,42.594,22.783c6.987,6.897,14.529,13.259,22.212,19.37c8.083,6.429,18.313,14.433,29.176,14.691
	C356.383,230.678,366.661,215.509,377.215,202.946z M417.143,182.854c-10.031,1.292-19.611,4.495-27.587,9.664
	c-0.306,0.313-0.61,0.625-0.917,0.94c-1.064,1.092-2.138,2.166-3.236,3.205c-0.01,0.128-0.086,0.282-0.273,0.473
	c-8.633,8.796-15.749,20.579-25.963,27.866c1.618-0.796,3.284-1.513,4.792-2.278c6.669-3.385,13.359-6.736,19.964-10.246
	c6.844-3.637,13.749-7.314,19.398-12.721C408.607,194.695,412.823,188.728,417.143,182.854z M200.566,180.21
	c-8.185-0.232-15.244-3.972-22.136-8.034c-3.089-1.821-6.468-4.323-10.226-3.933c-1.304,0.135-2.492,1.554-0.466,1.344
	c1.936-0.201,4.507,1.638,6.063,2.526c2.508,1.432,4.974,2.932,7.514,4.309c5.648,3.063,11.621,5.016,18.061,5.198
	C200.314,181.647,202.513,180.265,200.566,180.21z M193.485,187.91c-8.102-0.049-16.179-0.723-24.25-1.375
	c-5.521-0.446-11.593-1.51-17.121-0.626c-1.541,0.246-2.258,2.329-0.286,2.014c5.275-0.842,11.101,0.199,16.379,0.624
	c8.071,0.648,16.147,1.326,24.25,1.375C193.783,189.928,195.445,187.921,193.485,187.91z M210.803,171.923
	c-7.429-2.197-13.592-6.36-19.683-11.006c-2.446-1.865-6.015-5.256-9.421-4.017c-1.716,0.624-1.217,2.671,0.544,2.03
	c2.589-0.942,8.454,5.067,10.331,6.453c5.062,3.737,10.517,6.736,16.565,8.524C210.411,174.284,212.562,172.442,210.803,171.923z
	 M222.514,166.015c-1.718-0.184-3.653-2.632-4.792-3.755c-2.287-2.254-4.385-4.705-6.447-7.162
	c-1.782-2.123-3.499-4.302-5.167-6.514c-0.399-0.53-2.841-3.393-2.681-3.826c0.404-1.086-2.521-0.731-2.91,0.314
	c-0.336,0.904,1.68,3.015,2.118,3.619c2.063,2.851,4.285,5.591,6.547,8.285c2.792,3.327,7.439,10.327,12.248,10.839
	C222.647,167.945,224.472,166.223,222.514,166.015z M223.42,138.527c-0.4-1.14-3.281-0.313-2.897,0.776
	c3.029,8.621,7.971,16.379,11,25c0.4,1.14,3.281,0.313,2.897-0.776C231.391,154.906,226.449,147.148,223.42,138.527z
	 M248.42,142.527c-0.129-0.841-3.045-0.178-2.897,0.776c1.053,6.825,3.092,13.38,5,20c0.256,0.888,3.148,0.092,2.897-0.776
	C251.512,155.907,249.473,149.351,248.42,142.527z M264.522,154.303c2.084,5.475,3.039,11.245,4,17
	c0.172,1.031,3.083,0.333,2.897-0.776c-0.961-5.755-1.916-11.525-4-17C267.02,152.475,264.151,153.329,264.522,154.303z
	 M283.508,166.043c-0.073,5.019-0.927,9.981-1,15c-0.021,1.45,2.909,0.961,2.927-0.256c0.073-5.019,0.927-9.981,1-15
	C286.456,164.337,283.526,164.826,283.508,166.043z M295.5,176.016c-1.059,5.377-1.916,10.829-0.978,16.288
	c0.239,1.392,3.143,0.649,2.897-0.776c-0.902-5.254,0.004-10.542,1.022-15.712C298.734,174.332,295.764,174.677,295.5,176.016z
	 M304.507,186.041c0,5.333,0,10.667,0,16c0,1.462,2.928,0.975,2.928-0.251c0-5.333,0-10.667,0-16
	C307.435,184.327,304.507,184.814,304.507,186.041z M315.509,194.046c0,6,0,12,0,18c0,1.44,2.925,0.937,2.925-0.262c0-6,0-12,0-18
	C318.434,192.344,315.509,192.847,315.509,194.046z M326.522,200.303c-0.002,5.287-0.036,10.583-0.999,15.799
	c-0.201,1.09,2.716,0.592,2.895-0.374c0.987-5.347,1-10.782,1.001-16.201C329.42,198.655,326.522,199.196,326.522,200.303z
	 M339.502,205.021c-0.978,6.299-1.15,12.685-2,19c-0.202,1.499,2.76,1.119,2.938-0.211c0.849-6.315,1.022-12.702,2-19
	C342.671,203.322,339.708,203.694,339.502,205.021z M351.533,208.138c-1.061,4.319-1.939,8.705-2.011,13.166
	c-0.011,0.656,2.882,0.195,2.897-0.776c0.07-4.346,0.956-8.627,1.989-12.834C354.616,206.85,351.738,207.304,351.533,208.138z
	 M473.448,159.505c-13.286,5.212-25.978,12.518-40.229,14.793c-1.229,0.196-2.524,1.557-0.495,1.233
	c14.817-2.366,27.959-9.789,41.771-15.207C476.406,159.575,474.61,159.049,473.448,159.505z M459.076,182.307
	c14.358-4.287,27.059-12.288,40.717-18.25c1.744-0.761-1.01-0.561-1.644-0.284c-13.167,5.747-25.447,13.62-39.283,17.75
	C457.209,182.019,457.404,182.806,459.076,182.307z M476.101,191.032c9.352-7.986,21.236-11.704,31.73-17.835
	c1.676-0.979-0.949-1.014-1.719-0.564c-10.679,6.24-22.752,10.038-32.27,18.165C472.653,191.813,475.538,191.513,476.101,191.032z
	 M493.138,198.17c7.557-8.23,18.12-12.535,27.738-17.804c1.715-0.94-0.843-1.431-1.81-0.901c-9.812,5.375-20.554,9.8-28.262,18.196
	C489.641,198.928,492.468,198.899,493.138,198.17z M497.811,210.123c11.832-6.329,25.144-10.475,35.475-19.307
	c0.644-0.55-2.092-0.261-2.629,0.198c-10.016,8.562-23.048,12.554-34.525,18.693C494.435,210.614,497.115,210.495,497.811,210.123z
	 M210.173,230.366c0.125-0.663,1.002-1.082,1.769-1.127c0.427-0.142,0.881-0.225,1.31-0.225c0.281,0,0.562,0,0.843,0
	c-0.188-0.796-0.377-1.59-0.572-2.378c-0.196-0.793,2.707-1.547,2.897-0.776c0.258,1.044,0.509,2.098,0.757,3.155
	c0.914,0,1.827,0,2.741,0c0.552,0,0.619,0.307,0.156,0.583c-0.594,0.356-1.358,0.549-2.049,0.549c-0.194,0-0.389,0-0.583,0
	c0.419,1.797,0.845,3.599,1.295,5.398c2.377-0.02,5.084-0.08,6.982,1.49c2.108,1.745,2.337,5.96-0.273,7.168
	c-1.054,0.488-2.294,1.006-3.604,1.424c0.386,0.979,0.796,1.949,1.246,2.899c0.292,0.619-2.513,1.591-2.897,0.776
	c-0.461-0.976-0.879-1.971-1.274-2.977c-1.799,0.263-3.576,0.172-5.065-0.59c-1.407-0.72,1.154-2.2,2.241-1.643
	c0.574,0.294,1.316,0.353,2.109,0.294c-0.78-2.22-1.442-4.49-2.038-6.782c-1.563-0.03-3.223-0.196-4.439-1.079
	C209.69,235.05,209.747,232.63,210.173,230.366z M219.264,237.602c0.554,2.079,1.174,4.134,1.887,6.149
	c0.734-0.24,1.413-0.501,1.932-0.718c1.098-0.458,1.284-0.525,1.241-1.77c-0.021-0.608-0.076-1.436-0.418-1.975
	C222.923,237.744,221.025,237.597,219.264,237.602z M213.102,230.147c-0.273,1.447-0.695,3.816,0.865,4.736
	c0.5,0.295,1.063,0.455,1.647,0.547c-0.431-1.763-0.84-3.527-1.251-5.283C213.942,230.147,213.522,230.147,213.102,230.147z
	 M184.193,231.107c0.053-0.281,0.351-0.521,0.734-0.694c0.001-0.596,0.572-1.26,1.498-1.26c0.514,0,1.029,0,1.543,0
	c-0.147-0.618-0.293-1.237-0.445-1.851c-0.354-1.432,2.544-2.203,2.897-0.776c0.215,0.871,0.424,1.748,0.632,2.627
	c0.68,0,1.359,0,2.039,0c1.963,0,1.441,2.188-0.239,2.188c-0.429,0-0.858,0-1.287,0c0.39,1.671,0.79,3.346,1.209,5.018
	c2.47,0.021,5.169-0.05,6.916,1.396c1.14,0.943,1.498,2.229,1.548,3.668c0.063,1.813-0.26,2.436-1.864,3.177
	c-1.025,0.474-2.284,1.001-3.627,1.436c0.414,1.067,0.852,2.123,1.34,3.156c0.607,1.284-2.266,2.113-2.897,0.776
	c-0.497-1.051-0.94-2.125-1.361-3.211c-1.808,0.289-3.587,0.236-5.016-0.496c-1.16-0.594,1.515-1.772,2.317-1.361
	c0.614,0.314,1.361,0.399,2.148,0.364c-0.841-2.366-1.546-4.79-2.177-7.239c-1.536-0.034-3.101-0.199-4.415-0.974
	C183.595,235.819,183.805,233.167,184.193,231.107z M193.197,238.031c0.594,2.249,1.267,4.469,2.048,6.643
	c0.705-0.227,1.366-0.479,1.909-0.705c1.289-0.536,1.323-0.81,1.168-2.275c-0.058-0.554-0.121-1.145-0.374-1.652
	C197.063,238.265,195.051,238.046,193.197,238.031z M186.988,231.342c-0.44,3.192,0.754,4.349,2.629,4.77
	c-0.389-1.591-0.76-3.184-1.131-4.77C187.987,231.342,187.487,231.342,186.988,231.342z M238.846,228.393
	c0.066-0.35,0.385-0.632,0.789-0.821c0.409-0.542,1.27-0.767,1.912-0.767c0.388,0,0.775,0,1.164,0
	c-0.172-0.725-0.344-1.45-0.521-2.168c-0.243-0.982,2.659-1.741,2.897-0.776c0.241,0.976,0.476,1.958,0.708,2.944
	c0.807,0,1.613,0,2.419,0c0.42,0,1.176,0.229,0.767,0.781c-0.407,0.547-1.273,0.772-1.918,0.772c-0.302,0-0.603,0-0.905,0
	c0.41,1.756,0.827,3.517,1.268,5.273c2.366-0.02,5.091-0.104,6.973,1.453c2.115,1.75,2.286,5.825-0.311,7.027
	c-1.044,0.483-2.291,1.004-3.612,1.427c0.396,1.01,0.816,2.009,1.278,2.988c0.386,0.817-2.44,1.745-2.897,0.776
	c-0.473-1.001-0.9-2.024-1.304-3.058c-1.802,0.272-3.58,0.194-5.048-0.558c-1.332-0.682,1.281-2.051,2.268-1.546
	c0.592,0.303,1.335,0.372,2.124,0.323c-0.8-2.27-1.478-4.593-2.085-6.938c-1.563-0.022-3.235-0.18-4.432-1.048
	C238.355,233.01,238.421,230.648,238.846,228.393z M247.905,235.514c0.568,2.14,1.208,4.255,1.945,6.328
	c0.722-0.236,1.394-0.496,1.923-0.716c1.539-0.641,1.595-2.239,0.841-3.751C251.772,235.683,249.72,235.512,247.905,235.514z
	 M241.725,228.358c-0.51,3.042,0.4,4.488,2.542,5.02c-0.409-1.675-0.798-3.351-1.188-5.02
	C242.627,228.358,242.176,228.358,241.725,228.358z" fill="#1f2937"></path>
</svg>