<svg xmlns="http://www.w3.org/2000/svg" xml:space="preserve" width="595.279" height="595.281"><path fill="#fbbf24" d="M444.724 418.36c-4.758-4.023-8.214-10.38-11.223-15.762-3.027-5.417-5.886-10.928-8.888-16.359-3.351-6.061-6.695-12.281-10.879-17.821-3.691-4.887-8.37-8.874-10.179-14.957-1.939-6.521-.199-14.874-4.377-20.516-2.904-3.921-6.862-6.769-10.7-9.736-4.347-2.945-10.813-3.771-15.754-4.521-6.451-.979-13.562-1.972-20.026-.652-2.023.413-.646-.903.52-1.143 6.675-1.362 13.959-.567 20.619.443 3.28.498 7.163.965 10.78 1.973.453-.498 1.644-.87 2.362-.62 4.456-2.635 2.354-9.53.196-13.503-.03-.055-.038-.111-.035-.168-2.307-1.262-5.084-4.009-7.755-3.199-8.683 2.632-16.463 7.785-24.657 11.562-.064.029-.129.049-.193.069-.616.523-3.164.845-2.562.1.236-.293.454-.595.662-.9-.074-.344.096-.722.626-1.016 5.738-10.286-2.523-26.179 9.292-33.227-3.346-.148-6.598-1.395-6.735-4.253-.479.349-1.152.543-1.688.323-4.808-1.981-10.059 3.514-10.033 8.225.015 3.005.8 5.618 1.815 8.408 1.679 4.604 2.33 8.485.771 13.215-.424 1.287-3.321 1.249-2.783-.382 1.783-5.41-.167-9.306-1.704-14.375-.992-3.272-1.725-7.049-.097-10.266.022-.045.05-.089.073-.134-.291.04-.553.031-.716-.054-3.916-2.034-8.017-3.391-12.2-4.462-.315.017-.547-.058-.707-.175-6.858-1.702-13.927-2.701-20.76-4.695-.751-.219.312-.882 1.285-1.179-2.378.608-4.742 1.207-6.363 3.354-2.123 2.811-3.321 6.356-5.677 8.982-4.384 4.893-10.196 7.602-16.475 9.199-1.794.457-2.34-1.553-.539-2.012 7.542-1.92 13.41-5.434 17.262-12.324 2.033-3.638 4.058-6.568 7.972-8.303 3.222-1.426 6.364-1.537 9.279-3.954 2.507-2.079 5.101-4.571 6.188-7.745 1.167-3.406 1.427-6.802-.123-10.155-6.281-13.586-29.012-18.695-33.172-.954-.013.048-.033.093-.053.138-.041.119-.103.244-.208.382-6.195 8.113-16.223 10.661-23.976 16.772-5.407 4.262-8.271 9.894-8.189 16.867.055 4.572 1.188 12.822 6.215 14.805 10.828 4.27 23.443 5.251 34.812 8.866.157.02.271.059.351.112 4.94 1.599 9.638 3.707 13.84 6.817.826-1.638 1.416-3.355 1.619-5.162.123-1.088 3.056-1.596 2.91-.315-.285 2.534-1.301 4.925-2.675 7.154.096.417-.233.824-.709 1.093-1.706 2.502-3.81 4.789-5.757 6.829-2.217 2.323-4.488 4.688-6.93 6.779-2.627 2.25-5.747 4.134-8.058 6.713-3.64 4.065-6.787 8.702-10.263 12.923-3.611 4.387-7.443 8.708-10.564 13.47 1.353 1.334 2.636 2.76 3.853 4.256 4.027 4.954 7.684 9.839 10.935 15.114.257.021.48.096.637.237 7.654 7.014 15.8 13.772 24.827 18.958 7.329 4.209 18.372 9.678 25.943 4.414-.077-.039-.148-.084-.228-.123-.216-.106.646-.632 1.495-.899.586-.535 1.146-1.138 1.677-1.832.083-.108.21-.205.361-.289.113-.081.248-.162.425-.242 7.69-3.504 11.262-11.479 14.749-18.744-.699.37-1.75.511-2.161.057-8.128-8.976-10.87-19.651-6.751-31.19 3.179-8.905 10.599-18.171 10.275-27.92-.038-1.199 2.864-1.807 2.898-.775.286 8.648-5.383 16.463-8.617 24.131-5.327 12.632-4.617 24.103 4.873 34.583.006.006.008.013.014.02.123-.255.248-.512.371-.764 1.785-3.622 3.552-7.289 6.345-10.27.859-.918 1.986-1.758 3.131-2.611-.042-.698.924-1.439 1.79-1.385 1.509-1.24 2.8-2.604 3.208-4.347.232-.996 3.153-1.451 2.897-.358-.625 2.672-2.485 4.063-4.451 5.471 9.993 5.559 16.479 16.23 22.889 25.325 7.383 10.477 13.952 21.311 20.496 32.314 5.338 8.979 10.736 17.68 19.056 24.198 3.408 2.671 7.394 5.355 11.853 5.679 7.418.537 13.157-4.422 17.821-9.606.052-.058.109-.106.171-.154 5.489-9.193-10.11-18.968-15.849-23.822zm-93.645-113.889c-2.783 8.556-11.395 14.11-17.218 20.483-8.966 9.814-11.73 20.708-6.62 33.29.41 1.011-2.453 1.872-2.898.776-4.612-11.36-3.217-22.271 4.635-31.739 5.965-7.194 16.206-13.3 19.193-22.487.34-1.044 3.268-1.429 2.908-.323zm-41.12-36.101 5.438 1.46c-.004.002-.006.004-.01.007-1.763-.406-3.521-.845-5.264-1.354-.167-.049-.416-.031-.693.027.179-.045.353-.093.529-.14zm56.085 97.754c1.731.923 3.339 2.025 4.846 3.263-1.974-1.035-3.979-2.124-4.599-2.588-.228-.171-.516-.199-.833-.143.191-.183.386-.361.586-.532z"/><path fill="#1f2937" d="M407.974 278.572c.45.454-.448 1.011-.782 1.128-.628.22-1.206.484-1.554 1.114-.316.572-1.334.789-1.916.781-.506-.006-1.097-.233-.775-.813.609-1.1 1.975-1.818 3.114-2.218.517-.182 1.446-.461 1.913.008zm-.865-7.018c-.291.146-.963.628-.334.835 2.358.776 4.741 1.326 7.235 1.043.648-.074 1.455-.22 1.935-.714.459-.476-.397-.591-.707-.557-2.117.24-4.104-.301-6.099-.957-.616-.201-1.479.074-2.03.35zm-8.31 23.617c-.719-.245-1.53.03-2.049.549-.334.333-.668.666-1 1-.483.485-.235 1.167.367 1.373.718.246 1.531-.029 2.049-.549.334-.333.667-.667 1-1 .485-.485.236-1.168-.367-1.373zm-23.484-23.565c-.608-.607-3.313.452-2.713 1.051.657.657 1.257 1.304 1.573 2.195.298.833 3.164-.031 2.898-.775-.349-.986-1.031-1.743-1.758-2.471zm-27.144 33.189c-2.988 9.188-13.229 15.293-19.193 22.486-7.852 9.469-9.247 20.378-4.635 31.739.445 1.095 3.31.234 2.898-.775-5.11-12.581-2.346-23.476 6.62-33.29 5.823-6.374 14.435-11.93 17.218-20.484.36-1.106-2.568-.721-2.908.324zm-89.68 159.018c-.564-.228-1.317-.007-1.86.188-.061.021-1.34.596-.874.784 2.24.904 4.4 1.957 5.918 3.902.531.682 3.082-.541 2.898-.775-1.589-2.037-3.729-3.148-6.082-4.099zm272.655-54.268c-4.112 22.28-7.896 44.618-12.01 66.897-.038.207-.151.387-.306.543-.248.348-.699.621-1.292.622-24.35.011-48.697.397-73.046.407-.007 0-.012-.001-.02-.001-.855.483-2.313.437-2.313-.585v-7.5c0-.785 1.24-1.268 2.104-1.11.15-.043.313-.071.488-.071h22.334c-8.11-3.291-16.341-5.27-17.913-15.558-3.994 1.388-8.297 1.542-12.738-.364-7.977-3.424-14.861-10.227-19.728-17.287-7.832-11.369-13.978-23.795-21.735-35.213-4.484-6.601-8.994-13.244-13.834-19.592-3.061-4.013-6.317-8.118-10.252-11.346-1.506-1.236-3.112-2.339-4.845-3.263-.2.171-.396.349-.586.532-.14.135-.278.269-.411.41-3.66 3.906-5.843 8.56-8.135 13.33-3.659 7.619-7.619 15.188-15.447 19.038-.579.736-1.188 1.404-1.824 1.998 11.169 6.132 16.75 18.231 23.822 28.291 6.768 9.625 19.471 22.974 15.873 35.979-2.721 9.832-12.994 15.78-22.686 16.596-4.728.397-9.273-1.09-13.654-3.421-.003.004-.004.008-.007.012-5.484 7.564-17.266 4.256-24.906 2.924-4.149-.723-9.263-1.873-12.337-5.025-3.445-3.532-3.884-8.109-3.579-12.838.005-.078.026-.151.057-.224-.159-.147-.319-.296-.47-.451-8.922-9.251-1.423-21.382 8.332-26.112-2.245-1.797-4.652-3.438-7.32-4.845-8.316-4.383-14.759-10.573-23.48-13.592 1.96 8.188 3.739 16.414 4.831 24.769.696 5.328.778 11.475-4.933 14.021-1.889.842-3.831 1.332-5.808 1.613.116.063.192.154.197.279.225 6.25 6.995 15.574-2.568 17.539-11.269 2.316-23.913 1.849-35.286.517-3.051-.357-10.138-1.175-11.944-4.117-2.384-3.88.021-7.194 3.561-9.358 3.598-2.199 7.687-3.615 11.901-4.246-8.188-2.571-11.499-8.108-10.467-16.517 1.33-10.838 2.228-21.182-.239-31.817-4.147 9.563-10.654 17.297-18.497 24.346-.2.18-.757.34-1.312.435 5.839 4.156 11.678 8.313 17.517 12.47.188.134.297.276.354.422 3.188 4.104 2.194 9.216-1.711 12.504-4.397 3.703-10.498 3.477-15.391.982-.486-.248-.439-.587-.142-.894-7.127-5.073-14.253-10.146-21.38-15.22-40.59-28.894-81.181-57.787-121.771-86.682-.411-.292-.468-.631-.322-.941-2.435-3.303-2.569-7.371 1.038-10.391 3.926-3.282 9.403-4.218 14.275-2.841.091.025.183.046.271.073.075.021.134.05.193.077.027.016.057.025.082.044.078.056.156.11.234.167l17.763 12.645c3.279-7.551 7.014-14.994 11.893-21.646 12.357-16.848 29.536-25.251 49.32-30.544 18.995-5.082 45.899-9.254 54.815-29.59 4.8-10.947 1.998-24.236-.11-35.503-2.109-11.261-5.053-22.837-4.486-34.38 1.278-26.049 12.734-51.331 29.759-70.886-5.717-4.229-11.433-8.457-17.145-12.688-.364-.271-.038-.648.511-.932-3.979-9.474 9.249-13.243 16.888-9.296.385-.044.739-.007.965.159 1.594 1.181 3.187 2.362 4.777 3.544 23.361 17.339 46.678 34.74 69.912 52.249 21.437 16.154 43.812 31.76 63.993 49.505 6.672-3.757 18.842.078 20.147 8.408.378-.24.83-.414 1.203-.403 4.902.144 11.115 1.296 14.89 4.689 2.344 2.106 2.596 4.385 3.525 7.29 1.206 3.766 4.104 5.629 6.873 8.15 4.798-1.08 9.844-.998 13.19 2.968 4.188 4.962 5.73 14.883-.484 19.14-3.693 2.529-10.963 3.761-17.315 2.789-3.054 2.975-6.376 5.929-8.649 9.538-1.521 2.416-2.323 4.535-.915 7.195.646 1.219 1.374 2.313 1.449 3.712.16 2.978-5.46 3.249-8.504 3.241-2.896 3.958-6.645 9.26-11.726 10.329-1.172.246-2.429.396-3.669.341 2.333 5.247 2.369 11.006-2.532 13.734 4.828 3.964 11.201 7.485 14.197 13.044 3.355 6.224 1.64 13.36 3.945 19.919 2.434 6.918 7.964 11.349 11.906 17.31 3.984 6.024 7.49 12.353 10.926 18.701 3.246 6 6.271 12.206 10.033 17.906 3.63 5.5 6.932 9.585 11.965 13.688 5.138 4.189 14.557 11.464 13.23 18.982.089.016.173.039.242.075 5.674 2.969 9.63 6.998 13.998 11.584 2.952 3.101 6.333 5.414 9.689 8.039 1.128.881 6.351 4.244 5.486 6.297-.838 1.994-3.396 2.026-5.326 1.929-.172.046-.345.067-.51.057-3.473-.235-6.352-1.993-9.025-4.126-2.339-1.863-6.595-6.553-10.229-6.472 3.198 3.418 6.406 6.201 4.794 11.468-.07.23-.172.438-.296.624h36.042c3.665-19.479 8.152-38.793 11.785-58.28.154-.83 1.439-1.277 2.263-1.106.075-.004.152-.017.224-.017h4c.227 0 .455.077.633.207.519-1.101 3.121-1.355 2.871-.002zM293.153 304.186c-11.866 1.631-23.158 6.375-30.591 16.189-6.317 8.343-9.525 18.256-11.355 28.445 6.461 1.122 12.063 4.229 16.859 8.503 5.756-8.421 12.975-15.91 19.055-24.089 3.738-5.03 9.903-8.415 14.315-12.914 2.469-2.518 5.313-5.354 7.418-8.531-4.5-3.516-9.995-5.841-15.701-7.603zm-57.421-31.252c-.271 4.113-.571 8.227-.761 12.343-.103 2.233-1.104 6.954.618 8.764 3.866 4.059 10.428 2.571 15.354 1.854 2.523-.367 5.031-.718 7.555-.858-.712-.426-1.365-.949-1.912-1.65-6.054-7.761-6.214-20.165-.126-28.032-.009-.002-.021-.001-.029-.004-18.457-4.84-26.852-25.756-29.386-44.311-.08 9.055 2.568 18.081 5.078 26.9 2.42 8.498 4.185 16.199 3.609 24.994zm67.841-42.025c.017.037.014.076.001.117 7.074.75 14.469 4.914 18.258 10.795.308.477.576.951.826 1.424 2.4-2.398 4.785-4.82 6.975-7.414 1.716-2.031 6.418-6.927 5.968-10.379-4.161 2.467-8.115 5.265-13.11 3.112-.317-.137-.406-.32-.353-.513-2.332-7.543 7.441-12.847 4.812-20.19-3.874 1.791-6.399 6.252-8.997 9.386-.5.604-3.352.938-2.654.099.004-.005.009-.01.013-.015-.124-.07-.179-.175-.124-.319 1.749-4.658 2.322-9.813.255-14.358-2.812 3.369-3.668 8.642-3.366 12.756.071.969-2.842 1.54-2.898.776-.004-.058-.005-.119-.009-.177-.506.046-.932-.038-.991-.323-.689-3.272 4.149-15.526-.226-16.77-3.331-.947-4.591 13.089-4.376 14.994.088.779-2.063 1.332-2.713 1.003-.307.011-.561-.051-.686-.228-3.229-4.557 1.176-9.72-.862-14.351-7.258 7.213.836 23.233 4.257 30.575zm5.86 37.601c.276-.058.525-.076.692-.027 1.743.509 3.501.947 5.265 1.354.003-.002.006-.005.009-.007.131-.114.289-.212.382-.26.354-.18 2.198-1.055 1.359-1.621-.918-.62-2.397-.524-3.446-.53-.31-.001-.456-.116-.47-.265-1.019.565-2.133.914-3.265 1.216-.176.047-.35.095-.526.14zm41.2-6.292c-4.876 5.413-11.182 9.024-17.989 11.415 3.588.966 7.108 2.176 10.506 3.869 2.813-4.243 7.454-7.186 12.637-5.048.094.039.171.082.242.126.133-.455.32-.936.589-1.452.175-.337.808-.601 1.424-.697-3.548-1.299-6.129-4.573-7.409-8.213zm69.873 8.94c-4.385-1.117-7.991-3.452-9.109-7.355-5.317 2.842-11.974 3.066-16.906-.522-2.218 4.12-4.599 8.046-8.995 9.348-.832.417-1.617.629-2.238.733-.654.594-2.919.719-2.727.359 2.572-4.819-6.813-8.358-9.007-4.127-1.368 2.638-2.101 10.824 3.041 10.011 2.042-.323.611.87-.543 1.053-2.718.43-5.127-.395-6.054-2.9-.111.011-.281.027-.496.048-.653.218-1.404.381-2.201.486-.044.024-.079.048-.131.075-11.25 5.794-4.479 21.486-8.608 31.696 6.592-3.231 12.983-6.865 19.854-9.52 2.835-1.097 5.451-1.794 8.269-.123 4.343 2.576 8.354 5.045 12.914 1.08 2.531-2.201 4.523-4.818 6.501-7.507.506-.688 1.699-.746 2.319-.352 1.155.025 2.342.067 3.475-.117 3.506-.571 1.205-2.866.531-4.384-.953-2.151-1.223-3.874-.089-5.991 2.495-4.658 6.459-8.32 10.2-11.991zM243.89 135.182c.019.013.034.026.053.039 19.109 14.214 38.194 28.463 57.217 42.797 21.277 16.035 43.477 31.536 63.545 49.119 3.691-2.688 7.548-2.214 11.85-1.559.168-2.247.959-4.012 2.174-5.332-3.304-2.907-6.762-5.644-10.208-8.376-41.806-33.131-84.894-64.714-127.757-96.459-.213.004-.391-.031-.503-.122-2.854-2.306-8.041-3.984-11.409-1.738-3.666 2.444-2.742 6.594-.775 9.857.001.002 0 .005.001.007 1.058.784 2.115 1.568 3.172 2.353 4.215 3.133 8.424 6.279 12.64 9.414zM101.849 360.111c.873.622 1.746 1.243 2.619 1.865.271.192.54.384.811.577 3.868-20.242 26.916-24.361 44.266-26.067 9.967-.979 20.17-1.065 30.008-3.045 14.076-2.83 24.471-13.627 38.261-16.876 7.682-1.81 15.612-3.2 23.482-3.792 5.945-.446 13.45-1.335 16.288 5.165.685 1.565.907 3.053.786 4.463 1.334-1.917 2.818-3.73 4.479-5.41 7.527-7.615 17.043-11.785 27.32-13.683-4.205-1.162-8.442-2.087-12.402-3.024-4.819-1.143-9.694-2.134-14.462-3.48-.353.267-.8.446-1.243.415-8.714-.605-20.546 5.159-28.184-.914-2.087-1.66-2.037-3.643-2.001-6.078.063-4.225.347-8.443.622-12.657.274-4.162 1.122-8.776.481-12.929-1.007-6.532-2.893-12.837-4.687-19.185-3.439-12.169-6.256-24.492-2.061-36.842.36-1.063 2.454-1.215 2.796-.284.026.023.044.049.044.08.001.065.003.133.004.199 0 .01.001.02 0 .029.206 19.605 7.329 48.756 28.623 55.271.281-.296.552-.601.854-.879 7.883-7.255 19.311-9.855 26.02-18.433 1.973-7.945 7.516-13.257 15.752-13.662-4.137-8.831-12.213-25.704-1.311-32.184.489-.291 2.106-.979 2.56-.342.775 1.094 1.095 2.225 1.184 3.374 1.104-2.12 2.671-3.744 4.857-4.209 4.094-.871 4.972 1.942 4.812 5.598.723-.963 1.565-1.824 2.562-2.523.542-.382 2.115-1.018 2.587-.239 2.232 3.684 2.501 7.936 1.687 12.027 2.354-2.767 4.961-5.174 8.714-6.205.388-.106 1.37-.326 1.601.178 3.53 7.737-6.765 13.081-4.583 20.7 3.85 1.441 7.901-2.343 11.027-4.035.417-.226 1.643-.442 1.941.121 1.93 3.628-1.86 8.126-3.934 10.824-3.068 3.995-6.654 7.561-10.216 11.11-.063.063-.146.118-.231.169 2.982 8.14-1.854 15.812-9.06 20.998.341-.083.694-.122 1.036-.12.986.004 1.99.046 2.96.253.573.123 1.241.292 1.606.784.85 1.145-2.022 2.49-2.653 2.813-.13.065-.275.128-.429.184 4.268.932 8.559 1.705 12.782 2.708 6.965-2.136 13.601-5.619 18.448-11.163.333-.381 1.31-.604 2.029-.588-.312-1.119-.506-2.256-.563-3.37-.332-6.547 3.586-7.54 7.854-11.128 5.391-4.532 1.211-12.479 5.206-17.714-3.229-2.825-6.596-5.495-9.955-8.158-36.072-28.588-73.102-56.021-110.115-83.403-5.976 6.961-11.217 14.571-15.437 22.725-6.475 12.511-11.299 26.167-12.733 40.248-1.292 12.685 1.075 24.79 3.431 37.203 2.026 10.683 4.83 22.685 2.407 33.544-1.982 8.885-7.907 16.269-15.428 21.242-16.871 11.156-37.567 13.022-56.271 19.633-10.987 3.883-21.17 9.892-29.012 18.616-7.723 8.594-13.172 18.728-17.694 29.293-.033.074-.084.145-.142.212zm153.087-40.825c-3.73-8.543-16.477-5.089-23.759-3.935-3.793.601-7.564 1.303-11.331 2.059-6.863 1.378-12.8 4.973-18.739 8.481-7.97 4.708-16.235 8.229-25.436 9.53-8.454 1.194-16.999 1.525-25.49 2.36-16.658 1.639-38.235 4.827-42.007 24.285 7.482.02 14.819.206 22.172-1.516 5.816-1.362 11.531-3.06 17.248-4.784 11.427-3.448 22.339-5.597 34.243-6.553 14.268-1.146 28.101-2.901 41.854-6.905 7.664-2.227 36.932-9.997 31.245-23.022zM201.28 434.178c-40.55-28.865-81.102-57.731-121.65-86.598-3.558-1.021-8.302-.517-10.957 2.33-2.953 3.163-1.572 6.564 1.27 9.242 7.07 5.034 14.143 10.068 21.214 15.103 40.59 28.895 81.18 57.788 121.77 86.682.337.24.438.51.384.771 3.638 1.345 7.871 1.213 10.533-2.064 2.349-2.894 2.323-6.441.091-9.34-7.554-5.376-15.104-10.751-22.655-16.126zm26.257-26.447c-2.846-9.101-8.576-16.644-7.902-26.626 1.081-16.001 10.171-34.145 28.762-32.655.022.002.046.007.067.009 1.173-6.285 2.911-12.666 5.629-18.536-5.248 4.839-13.969 8.15-18.567 9.855-13.306 4.933-27.315 8.226-41.429 9.715-8.066.852-16.189 1.199-24.235 2.229-7.52.962-14.698 3.104-21.935 5.289-6.979 2.109-13.986 4.285-21.168 5.608-6.666 1.229-13.347.933-20.103.914 33.742 24.02 67.484 48.039 101.228 72.059 8.582-7.798 15.455-16.458 19.314-27.526.044-.127.169-.237.339-.335zm43.138 52.456c-.013-.347.302-.638.725-.845-1.315.096-2.644.118-3.978.086-.094.408-.77.979-1.511 1.115-3.117.573-6.422.968-9.768 1.11.382.155.768.306 1.143.478 1.136.521-1.531 1.696-2.324 1.334-1.812-.83-3.73-1.466-5.702-1.9-1.759-.127-3.502-.337-5.206-.646-1.714-.059-3.428.02-5.107.283-3.854.604-11.998 2.531-13.155 7.138-.108.434-.157.84-.161 1.228.027-.002.057-.007.081-.007 14.469.001 29.026-.003 43.319 2.521 1.589.279-1.002 1.58-1.812 1.438-13.643-2.408-27.517-2.477-41.331-2.48 1.854 4.892 13.282 5.197 17.346 5.422 8.534.474 19.108 1.556 27.42-.824 4.086-1.17 2.746-4.245 1.764-7.162-.924-2.737-1.639-5.391-1.743-8.289zm70.892 17.9c-2.992-1.725-5.906-3.793-8.745-5.876-5.487.649-10.927-.345-16.235-1.865-3.523-1.009-8.005-2.378-11.541-4.517.194 7.82 4.481 12.102 12.664 13.828 5.975 1.262 18.23 5.009 22.549-.948.227-.315.762-.529 1.308-.622zm-3.769-75.18c-6.83 4.693-16.008 2.986-23.674-.597-9.437-4.411-17.952-10.687-25.866-17.5.104.202.214.396.315.6.384.761-2.424 1.715-2.898.775-3.796-7.522-8.339-14.032-13.64-20.553-5.691-7-12.671-13.748-21.959-15.274-.813.272-1.834.271-1.893-.229-10.663-.916-18.305 5.396-22.146 15.101-2.754 6.955-4.554 15.095-3.171 22.571.826 4.461 3.221 8.499 5.057 12.597 2.021 4.512 3.461 9.196 4.301 14.076 1.421 8.256 1.172 16.433-.063 24.686-1.221 8.168-1.044 15.97 8.23 18.878 1.942.608 3.951 1.069 5.991 1.403 1.278.082 2.55.24 3.804.473 4.92.421 9.944.157 14.719-.613-.648-.211 1.664-1.07 2.17-1.044 4.078.226 10.393.854 12.882-3.12 1.55-2.475 1.89-5.154 1.593-8.018-.616-5.979-2.117-11.779-3.156-17.686-2.563-14.571-7.03-28.703-9.72-43.246-.114-.626 2.805-1.284 2.898-.775 1.939 10.496 4.687 20.844 7.21 31.237 9.96 2.461 16.256 9.129 25.209 13.846 6.566 3.46 12.201 7.586 17.071 13.231 4.714 5.463 8.979 11.281 13.919 16.554.571.612-2.147 1.647-2.718 1.041-7.353-7.851-13.229-16.697-21.309-23.447-8.392 4.824-15.621 17.679-5.86 24.956 6.885 5.132 17.588 8.988 26.613 8.564-3.603-2.657-7.084-5.26-10.451-7.102-.361-.197 1.991-1.391 2.73-.986 5.554 3.039 10.511 6.945 15.789 10.414 4.916 3.229 11.113 7.541 17.244 7.426 7.158-.133 15.196-4.89 18.235-11.586 2.284-5.03 1.837-10.558-.122-15.642-4.031-10.467-11.613-18.657-17.595-27.973-5.465-8.522-10.869-17.77-19.739-23.038zm53.379-13.158c7.384 10.477 13.952 21.311 20.496 32.314 5.338 8.979 10.737 17.68 19.057 24.198 3.407 2.671 7.394 5.354 11.852 5.678 7.418.537 13.158-4.422 17.822-9.605.051-.058.109-.106.171-.154 5.487-9.188-10.11-18.965-15.85-23.819-4.759-4.022-8.214-10.379-11.224-15.761-3.027-5.417-5.886-10.928-8.888-16.359-3.35-6.061-6.695-12.281-10.879-17.821-3.691-4.887-8.37-8.874-10.179-14.957-1.939-6.521-.199-14.874-4.377-20.516-2.904-3.921-6.862-6.769-10.7-9.736-4.346-2.945-10.813-3.771-15.754-4.521-6.451-.979-13.562-1.972-20.026-.652-2.022.413-.646-.903.521-1.143 6.674-1.362 13.958-.567 20.618.443 3.28.498 7.163.965 10.78 1.973.453-.498 1.644-.87 2.362-.62 4.456-2.635 2.354-9.53.196-13.503-.03-.055-.038-.111-.035-.168-2.306-1.262-5.084-4.009-7.755-3.199-8.683 2.632-16.462 7.785-24.657 11.562-.063.029-.129.049-.193.069-.615.523-3.163.845-2.562.1.237-.293.454-.595.662-.9-.074-.344.096-.722.626-1.016 5.739-10.286-2.523-26.179 9.292-33.227-3.346-.148-6.598-1.395-6.735-4.253-.479.349-1.151.543-1.688.323-4.809-1.981-10.06 3.514-10.034 8.225.015 3.005.8 5.618 1.815 8.408 1.68 4.604 2.33 8.485.771 13.215-.424 1.287-3.321 1.249-2.783-.382 1.783-5.41-.167-9.306-1.704-14.375-.992-3.272-1.725-7.049-.097-10.266.022-.045.05-.089.073-.134-.291.04-.553.031-.715-.054-3.916-2.034-8.018-3.391-12.201-4.462-.315.017-.547-.058-.706-.175-6.859-1.702-13.928-2.701-20.761-4.695-.751-.219.312-.882 1.285-1.179-2.378.608-4.742 1.207-6.363 3.354-2.123 2.811-3.321 6.356-5.677 8.982-4.384 4.893-10.196 7.602-16.475 9.199-1.794.457-2.34-1.553-.539-2.012 7.542-1.92 13.41-5.434 17.262-12.324 2.033-3.638 4.058-6.568 7.973-8.303 3.221-1.426 6.363-1.537 9.278-3.954 2.508-2.079 5.101-4.571 6.188-7.745 1.167-3.406 1.427-6.802-.123-10.155-6.281-13.586-29.012-18.695-33.172-.954-.012.048-.033.093-.053.138-.041.119-.103.244-.207.382-6.196 8.113-16.224 10.661-23.977 16.772-5.407 4.262-8.271 9.894-8.189 16.867.055 4.572 1.188 12.822 6.215 14.805 10.829 4.27 23.443 5.251 34.812 8.866.157.02.271.059.352.112 4.939 1.599 9.637 3.707 13.839 6.817.826-1.638 1.416-3.355 1.62-5.162.123-1.088 3.055-1.596 2.909-.315-.285 2.534-1.301 4.925-2.675 7.154.097.417-.233.824-.709 1.093-1.706 2.502-3.81 4.789-5.757 6.829-2.217 2.323-4.488 4.688-6.93 6.779-2.627 2.25-5.747 4.134-8.058 6.713-3.64 4.065-6.786 8.702-10.263 12.923-3.611 4.387-7.443 8.708-10.563 13.47 1.352 1.334 2.635 2.76 3.852 4.256 4.027 4.954 7.685 9.839 10.936 15.114.256.021.479.096.636.237 7.654 7.014 15.8 13.772 24.827 18.957 7.329 4.209 18.372 9.679 25.943 4.414-.077-.039-.148-.084-.228-.123-.216-.105.646-.631 1.495-.898.586-.535 1.146-1.138 1.677-1.832.083-.109.21-.205.361-.289.113-.081.249-.162.425-.242 7.69-3.504 11.262-11.479 14.749-18.744-.699.37-1.75.511-2.161.057-8.128-8.976-10.87-19.651-6.751-31.19 3.179-8.905 10.599-18.171 10.276-27.92-.039-1.199 2.863-1.807 2.897-.775.286 8.648-5.383 16.463-8.617 24.131-5.326 12.632-4.616 24.103 4.873 34.583.006.006.009.013.014.02.124-.255.248-.512.371-.764 1.785-3.622 3.552-7.289 6.345-10.27.859-.918 1.987-1.758 3.131-2.611-.042-.698.924-1.439 1.79-1.385 1.509-1.24 2.8-2.604 3.208-4.347.233-.996 3.154-1.451 2.897-.358-.625 2.672-2.485 4.063-4.451 5.471 9.996 5.552 16.483 16.225 22.891 25.321zm79.935 76.716c.152-4.486-3.147-6.537-5.823-9.56-.479-.541.306-1.141.724-1.351 8.942-4.509 14.828 9.224 23.141 9.789.229.017.405.058.541.114 1.328.063 1.755-.059.431-1.485-.9-.971-1.879-1.86-2.912-2.69-2.13-1.711-4.354-3.293-6.527-4.945-6.154-4.672-10.215-10.82-16.908-14.799-.177.369-.385.736-.622 1.104-.01.183-.098.39-.306.621-3.108 3.456-6.835 6.724-10.966 8.781.1.093.168.213.19.364 1.372 8.996 7.419 10.81 14.909 13.494 1.634.587 4.042 3.101 4.128.563zm56.898-55.577c-.413.264-.946.365-1.413.365h-2.69c-3.671 19.531-8.173 38.895-11.813 58.432-.038.203-.148.38-.299.534-.246.353-.701.631-1.3.631h-65.406v5.062c23.776-.014 47.552-.377 71.326-.4 3.96-21.525 7.632-43.101 11.595-64.624zM212.213 300.485c-.183-1.459 2.939-2.132 3.986-2.149.805-.016 1.563.226 2.325.459.701-.424 2.213-.901 2.549-.386 1.146 1.758 2.84 4.889.994 6.783-1.41 1.447-4.117 1.848-5.949 1.083-2.294-.958-3.608-3.413-3.905-5.79zm2.958-.849c-.007-.002-.015-.004-.021-.006-.017.081-.027.197.005.373.099.54.217 1.08.41 1.595.569 1.522 1.574 2.987 3.127 3.636.232.097.479.167.729.214.225-.249.373-.572.449-.892.333-1.409-.25-2.899-.974-4.188-.072.003-.146.014-.216.012-1.254-.038-2.32-.406-3.509-.744zm16.012 26.683c1.146 1.757 2.841 4.888.994 6.783-1.41 1.447-4.116 1.848-5.948 1.083-2.294-.958-3.608-3.413-3.905-5.79-.184-1.459 2.938-2.132 3.986-2.15.805-.015 1.563.227 2.324.459.701-.424 2.213-.899 2.549-.385zm-2.176 1.956c-.072.003-.146.013-.216.011-1.256-.035-2.321-.402-3.511-.741-.007-.002-.016-.004-.021-.007-.016.081-.026.198.006.373.099.54.217 1.08.409 1.596.57 1.522 1.574 2.986 3.127 3.636.233.097.479.167.729.214.224-.249.373-.573.449-.892.335-1.41-.248-2.902-.972-4.19zm-48.62-6.819c-.183-1.459 2.939-2.133 3.986-2.15.805-.015 1.563.227 2.325.459.701-.423 2.213-.899 2.549-.385 1.146 1.757 2.84 4.888.994 6.783-1.41 1.446-4.117 1.848-5.949 1.083-2.294-.959-3.607-3.413-3.905-5.79zm2.958-.852c-.007-.002-.015-.004-.021-.006-.017.081-.027.198.005.373.099.54.217 1.08.41 1.595.57 1.523 1.574 2.987 3.127 3.636.232.098.479.167.729.215.225-.249.373-.573.449-.893.333-1.409-.25-2.898-.974-4.188-.072.003-.146.013-.216.011-1.253-.035-2.32-.404-3.509-.743zm64.498-151.356c1.924-2.882 3.863-5.757 6.749-7.761 1.616-1.122-.74-2.206-1.936-1.376-3.079 2.138-5.198 5.162-7.251 8.239-1.03 1.544 1.675 2.039 2.438.898zm-12.755 31.426c1.082-6.066 2.972-11.9 4.915-17.735.519-1.556-2.373-1.436-2.758-.281-2 6.008-3.972 12.018-5.085 18.265-.249 1.395 2.707.989 2.928-.249zm-100.311 127.33c5.907-5.645 13.229-8.521 21.027-10.526 1.738-.447 1.368-1.803-.362-1.356-8.465 2.178-16.563 5.352-22.973 11.474-1.2 1.146 1.663 1.023 2.308.408zm198.699-73.399c-1.313.912 1.612.863 2.299.386 6.361-4.425 10.932-10.833 15.19-17.194.705-1.053-2.192-.727-2.682.003-4.163 6.216-8.59 12.48-14.807 16.805z"/></svg>