<?xml version="1.0" standalone="no"?>
<svg version="1.1" id="Layer_1" xmlns="http://www.w3.org/2000/svg" xmlns:xlink="http://www.w3.org/1999/xlink" x="0px" y="0px" width="595.279px" height="595.281px" viewBox="0 0 595.279 595.281" enable-background="new 0 0 595.279 595.281" xml:space="preserve">
<path id="color_x5F_2" fill="#f5a623" d="M444.724,418.36c-4.758-4.023-8.214-10.38-11.223-15.762
	c-3.027-5.417-5.886-10.928-8.888-16.359c-3.351-6.061-6.695-12.281-10.879-17.821c-3.691-4.887-8.37-8.874-10.179-14.957
	c-1.939-6.521-0.199-14.874-4.377-20.516c-2.904-3.921-6.862-6.769-10.7-9.736c-4.347-2.945-10.813-3.771-15.754-4.521
	c-6.451-0.979-13.562-1.972-20.026-0.652c-2.023,0.413-0.646-0.903,0.52-1.143c6.675-1.362,13.959-0.567,20.619,0.443
	c3.28,0.498,7.163,0.965,10.78,1.973c0.453-0.498,1.644-0.87,2.362-0.62c4.456-2.635,2.354-9.53,0.196-13.503
	c-0.03-0.055-0.038-0.111-0.035-0.168c-2.307-1.262-5.084-4.009-7.755-3.199c-8.683,2.632-16.463,7.785-24.657,11.562
	c-0.064,0.029-0.129,0.049-0.193,0.069c-0.616,0.523-3.164,0.845-2.562,0.1c0.236-0.293,0.454-0.595,0.662-0.9
	c-0.074-0.344,0.096-0.722,0.626-1.016c5.738-10.286-2.523-26.179,9.292-33.227c-3.346-0.148-6.598-1.395-6.735-4.253
	c-0.479,0.349-1.152,0.543-1.688,0.323c-4.808-1.981-10.059,3.514-10.033,8.225c0.015,3.005,0.8,5.618,1.815,8.408
	c1.679,4.604,2.33,8.485,0.771,13.215c-0.424,1.287-3.321,1.249-2.783-0.382c1.783-5.41-0.167-9.306-1.704-14.375
	c-0.992-3.272-1.725-7.049-0.097-10.266c0.022-0.045,0.05-0.089,0.073-0.134c-0.291,0.04-0.553,0.031-0.716-0.054
	c-3.916-2.034-8.017-3.391-12.2-4.462c-0.315,0.017-0.547-0.058-0.707-0.175c-6.858-1.702-13.927-2.701-20.76-4.695
	c-0.751-0.219,0.312-0.882,1.285-1.179c-2.378,0.608-4.742,1.207-6.363,3.354c-2.123,2.811-3.321,6.356-5.677,8.982
	c-4.384,4.893-10.196,7.602-16.475,9.199c-1.794,0.457-2.34-1.553-0.539-2.012c7.542-1.92,13.41-5.434,17.262-12.324
	c2.033-3.638,4.058-6.568,7.972-8.303c3.222-1.426,6.364-1.537,9.279-3.954c2.507-2.079,5.101-4.571,6.188-7.745
	c1.167-3.406,1.427-6.802-0.123-10.155c-6.281-13.586-29.012-18.695-33.172-0.954c-0.013,0.048-0.033,0.093-0.053,0.138
	c-0.041,0.119-0.103,0.244-0.208,0.382c-6.195,8.113-16.223,10.661-23.976,16.772c-5.407,4.262-8.271,9.894-8.189,16.867
	c0.055,4.572,1.188,12.822,6.215,14.805c10.828,4.27,23.443,5.251,34.812,8.866c0.157,0.02,0.271,0.059,0.351,0.112
	c4.94,1.599,9.638,3.707,13.84,6.817c0.826-1.638,1.416-3.355,1.619-5.162c0.123-1.088,3.056-1.596,2.91-0.315
	c-0.285,2.534-1.301,4.925-2.675,7.154c0.096,0.417-0.233,0.824-0.709,1.093c-1.706,2.502-3.81,4.789-5.757,6.829
	c-2.217,2.323-4.488,4.688-6.93,6.779c-2.627,2.25-5.747,4.134-8.058,6.713c-3.64,4.065-6.787,8.702-10.263,12.923
	c-3.611,4.387-7.443,8.708-10.564,13.47c1.353,1.334,2.636,2.76,3.853,4.256c4.027,4.954,7.684,9.839,10.935,15.114
	c0.257,0.021,0.48,0.096,0.637,0.237c7.654,7.014,15.8,13.772,24.827,18.958c7.329,4.209,18.372,9.678,25.943,4.414
	c-0.077-0.039-0.148-0.084-0.228-0.123c-0.216-0.106,0.646-0.632,1.495-0.899c0.586-0.535,1.146-1.138,1.677-1.832
	c0.083-0.108,0.21-0.205,0.361-0.289c0.113-0.081,0.248-0.162,0.425-0.242c7.69-3.504,11.262-11.479,14.749-18.744
	c-0.699,0.37-1.75,0.511-2.161,0.057c-8.128-8.976-10.87-19.651-6.751-31.19c3.179-8.905,10.599-18.171,10.275-27.92
	c-0.038-1.199,2.864-1.807,2.898-0.775c0.286,8.648-5.383,16.463-8.617,24.131c-5.327,12.632-4.617,24.103,4.873,34.583
	c0.006,0.006,0.008,0.013,0.014,0.02c0.123-0.255,0.248-0.512,0.371-0.764c1.785-3.622,3.552-7.289,6.345-10.27
	c0.859-0.918,1.986-1.758,3.131-2.611c-0.042-0.698,0.924-1.439,1.79-1.385c1.509-1.24,2.8-2.604,3.208-4.347
	c0.232-0.996,3.153-1.451,2.897-0.358c-0.625,2.672-2.485,4.063-4.451,5.471c9.993,5.559,16.479,16.23,22.889,25.325
	c7.383,10.477,13.952,21.311,20.496,32.314c5.338,8.979,10.736,17.68,19.056,24.198c3.408,2.671,7.394,5.355,11.853,5.679
	c7.418,0.537,13.157-4.422,17.821-9.606c0.052-0.058,0.109-0.106,0.171-0.154C466.062,432.989,450.463,423.214,444.724,418.36z
	 M351.079,304.471c-2.783,8.556-11.395,14.11-17.218,20.483c-8.966,9.814-11.73,20.708-6.62,33.29
	c0.41,1.011-2.453,1.872-2.898,0.776c-4.612-11.36-3.217-22.271,4.635-31.739c5.965-7.194,16.206-13.3,19.193-22.487
	C348.511,303.75,351.439,303.365,351.079,304.471z M309.959,268.37l5.438,1.46c-0.004,0.002-0.006,0.004-0.01,0.007
	c-1.763-0.406-3.521-0.845-5.264-1.354c-0.167-0.049-0.416-0.031-0.693,0.027C309.609,268.465,309.783,268.417,309.959,268.37z
	 M366.044,366.124c1.731,0.923,3.339,2.025,4.846,3.263c-1.974-1.035-3.979-2.124-4.599-2.588c-0.228-0.171-0.516-0.199-0.833-0.143
	C365.649,366.473,365.844,366.295,366.044,366.124z"></path>
<path id="color_x5F_1" d="M407.974,278.572c0.45,0.454-0.448,1.011-0.782,1.128c-0.628,0.22-1.206,0.484-1.554,1.114
	c-0.316,0.572-1.334,0.789-1.916,0.781c-0.506-0.006-1.097-0.233-0.775-0.813c0.609-1.1,1.975-1.818,3.114-2.218
	C406.578,278.382,407.507,278.103,407.974,278.572z M407.109,271.554c-0.291,0.146-0.963,0.628-0.334,0.835
	c2.358,0.776,4.741,1.326,7.235,1.043c0.648-0.074,1.455-0.22,1.935-0.714c0.459-0.476-0.397-0.591-0.707-0.557
	c-2.117,0.24-4.104-0.301-6.099-0.957C408.523,271.003,407.66,271.278,407.109,271.554z M398.799,295.171
	c-0.719-0.245-1.53,0.03-2.049,0.549c-0.334,0.333-0.668,0.666-1,1c-0.483,0.485-0.235,1.167,0.367,1.373
	c0.718,0.246,1.531-0.029,2.049-0.549c0.334-0.333,0.667-0.667,1-1C399.651,296.059,399.402,295.376,398.799,295.171z
	 M375.315,271.606c-0.608-0.607-3.313,0.452-2.713,1.051c0.657,0.657,1.257,1.304,1.573,2.195c0.298,0.833,3.164-0.031,2.898-0.775
	C376.724,273.091,376.042,272.334,375.315,271.606z M348.171,304.795c-2.988,9.188-13.229,15.293-19.193,22.486
	c-7.852,9.469-9.247,20.378-4.635,31.739c0.445,1.095,3.31,0.234,2.898-0.775c-5.11-12.581-2.346-23.476,6.62-33.29
	c5.823-6.374,14.435-11.93,17.218-20.484C351.439,303.365,348.511,303.75,348.171,304.795z M258.491,463.813
	c-0.564-0.228-1.317-0.007-1.86,0.188c-0.061,0.021-1.34,0.596-0.874,0.784c2.24,0.904,4.4,1.957,5.918,3.902
	c0.531,0.682,3.082-0.541,2.898-0.775C262.984,465.875,260.844,464.764,258.491,463.813z M531.146,409.545
	c-4.112,22.28-7.896,44.618-12.01,66.897c-0.038,0.207-0.151,0.387-0.306,0.543c-0.248,0.348-0.699,0.621-1.292,0.622
	c-24.35,0.011-48.697,0.397-73.046,0.407c-0.007,0-0.012-0.001-0.02-0.001c-0.855,0.483-2.313,0.437-2.313-0.585c0-2.5,0-5,0-7.5
	c0-0.785,1.24-1.268,2.104-1.11c0.15-0.043,0.313-0.071,0.488-0.071c7.444,0,14.89,0,22.334,0
	c-8.11-3.291-16.341-5.27-17.913-15.558c-3.994,1.388-8.297,1.542-12.738-0.364c-7.977-3.424-14.861-10.227-19.728-17.287
	c-7.832-11.369-13.978-23.795-21.735-35.213c-4.484-6.601-8.994-13.244-13.834-19.592c-3.061-4.013-6.317-8.118-10.252-11.346
	c-1.506-1.236-3.112-2.339-4.845-3.263c-0.2,0.171-0.396,0.349-0.586,0.532c-0.14,0.135-0.278,0.269-0.411,0.41
	c-3.66,3.906-5.843,8.56-8.135,13.33c-3.659,7.619-7.619,15.188-15.447,19.038c-0.579,0.736-1.188,1.404-1.824,1.998
	c11.169,6.132,16.75,18.231,23.822,28.291c6.768,9.625,19.471,22.974,15.873,35.979c-2.721,9.832-12.994,15.78-22.686,16.596
	c-4.728,0.397-9.273-1.09-13.654-3.421c-0.003,0.004-0.004,0.008-0.007,0.012c-5.484,7.564-17.266,4.256-24.906,2.924
	c-4.149-0.723-9.263-1.873-12.337-5.025c-3.445-3.532-3.884-8.109-3.579-12.838c0.005-0.078,0.026-0.151,0.057-0.224
	c-0.159-0.147-0.319-0.296-0.47-0.451c-8.922-9.251-1.423-21.382,8.332-26.112c-2.245-1.797-4.652-3.438-7.32-4.845
	c-8.316-4.383-14.759-10.573-23.48-13.592c1.96,8.188,3.739,16.414,4.831,24.769c0.696,5.328,0.778,11.475-4.933,14.021
	c-1.889,0.842-3.831,1.332-5.808,1.613c0.116,0.063,0.192,0.154,0.197,0.279c0.225,6.25,6.995,15.574-2.568,17.539
	c-11.269,2.316-23.913,1.849-35.286,0.517c-3.051-0.357-10.138-1.175-11.944-4.117c-2.384-3.88,0.021-7.194,3.561-9.358
	c3.598-2.199,7.687-3.615,11.901-4.246c-8.188-2.571-11.499-8.108-10.467-16.517c1.33-10.838,2.228-21.182-0.239-31.817
	c-4.147,9.563-10.654,17.297-18.497,24.346c-0.2,0.18-0.757,0.34-1.312,0.435c5.839,4.156,11.678,8.313,17.517,12.47
	c0.188,0.134,0.297,0.276,0.354,0.422c3.188,4.104,2.194,9.216-1.711,12.504c-4.397,3.703-10.498,3.477-15.391,0.982
	c-0.486-0.248-0.439-0.587-0.142-0.894c-7.127-5.073-14.253-10.146-21.38-15.22c-40.59-28.894-81.181-57.787-121.771-86.682
	c-0.411-0.292-0.468-0.631-0.322-0.941c-2.435-3.303-2.569-7.371,1.038-10.391c3.926-3.282,9.403-4.218,14.275-2.841
	c0.091,0.025,0.183,0.046,0.271,0.073c0.075,0.021,0.134,0.05,0.193,0.077c0.027,0.016,0.057,0.025,0.082,0.044
	c0.078,0.056,0.156,0.11,0.234,0.167c5.921,4.215,11.842,8.43,17.763,12.645c3.279-7.551,7.014-14.994,11.893-21.646
	c12.357-16.848,29.536-25.251,49.32-30.544c18.995-5.082,45.899-9.254,54.815-29.59c4.8-10.947,1.998-24.236-0.11-35.503
	c-2.109-11.261-5.053-22.837-4.486-34.38c1.278-26.049,12.734-51.331,29.759-70.886c-5.717-4.229-11.433-8.457-17.145-12.688
	c-0.364-0.271-0.038-0.648,0.511-0.932c-3.979-9.474,9.249-13.243,16.888-9.296c0.385-0.044,0.739-0.007,0.965,0.159
	c1.594,1.181,3.187,2.362,4.777,3.544c23.361,17.339,46.678,34.74,69.912,52.249c21.437,16.154,43.812,31.76,63.993,49.505
	c6.672-3.757,18.842,0.078,20.147,8.408c0.378-0.24,0.83-0.414,1.203-0.403c4.902,0.144,11.115,1.296,14.89,4.689
	c2.344,2.106,2.596,4.385,3.525,7.29c1.206,3.766,4.104,5.629,6.873,8.15c4.798-1.08,9.844-0.998,13.19,2.968
	c4.188,4.962,5.73,14.883-0.484,19.14c-3.693,2.529-10.963,3.761-17.315,2.789c-3.054,2.975-6.376,5.929-8.649,9.538
	c-1.521,2.416-2.323,4.535-0.915,7.195c0.646,1.219,1.374,2.313,1.449,3.712c0.16,2.978-5.46,3.249-8.504,3.241
	c-2.896,3.958-6.645,9.26-11.726,10.329c-1.172,0.246-2.429,0.396-3.669,0.341c2.333,5.247,2.369,11.006-2.532,13.734
	c4.828,3.964,11.201,7.485,14.197,13.044c3.355,6.224,1.64,13.36,3.945,19.919c2.434,6.918,7.964,11.349,11.906,17.31
	c3.984,6.024,7.49,12.353,10.926,18.701c3.246,6,6.271,12.206,10.033,17.906c3.63,5.5,6.932,9.585,11.965,13.688
	c5.138,4.189,14.557,11.464,13.23,18.982c0.089,0.016,0.173,0.039,0.242,0.075c5.674,2.969,9.63,6.998,13.998,11.584
	c2.952,3.101,6.333,5.414,9.689,8.039c1.128,0.881,6.351,4.244,5.486,6.297c-0.838,1.994-3.396,2.026-5.326,1.929
	c-0.172,0.046-0.345,0.067-0.51,0.057c-3.473-0.235-6.352-1.993-9.025-4.126c-2.339-1.863-6.595-6.553-10.229-6.472
	c3.198,3.418,6.406,6.201,4.794,11.468c-0.07,0.23-0.172,0.438-0.296,0.624c12.014,0,24.026,0,36.042,0
	c3.665-19.479,8.152-38.793,11.785-58.28c0.154-0.83,1.439-1.277,2.263-1.106c0.075-0.004,0.152-0.017,0.224-0.017
	c1.333,0,2.666,0,4,0c0.227,0,0.455,0.077,0.633,0.207C528.794,408.446,531.396,408.192,531.146,409.545z M293.153,304.186
	c-11.866,1.631-23.158,6.375-30.591,16.189c-6.317,8.343-9.525,18.256-11.355,28.445c6.461,1.122,12.063,4.229,16.859,8.503
	c5.756-8.421,12.975-15.91,19.055-24.089c3.738-5.03,9.903-8.415,14.315-12.914c2.469-2.518,5.313-5.354,7.418-8.531
	C304.354,308.273,298.859,305.948,293.153,304.186z M235.732,272.934c-0.271,4.113-0.571,8.227-0.761,12.343
	c-0.103,2.233-1.104,6.954,0.618,8.764c3.866,4.059,10.428,2.571,15.354,1.854c2.523-0.367,5.031-0.718,7.555-0.858
	c-0.712-0.426-1.365-0.949-1.912-1.65c-6.054-7.761-6.214-20.165-0.126-28.032c-0.009-0.002-0.021-0.001-0.029-0.004
	c-18.457-4.84-26.852-25.756-29.386-44.311c-0.08,9.055,2.568,18.081,5.078,26.9C234.543,256.438,236.308,264.139,235.732,272.934z
	 M303.573,230.909c0.017,0.037,0.014,0.076,0.001,0.117c7.074,0.75,14.469,4.914,18.258,10.795c0.308,0.477,0.576,0.951,0.826,1.424
	c2.4-2.398,4.785-4.82,6.975-7.414c1.716-2.031,6.418-6.927,5.968-10.379c-4.161,2.467-8.115,5.265-13.11,3.112
	c-0.317-0.137-0.406-0.32-0.353-0.513c-2.332-7.543,7.441-12.847,4.812-20.19c-3.874,1.791-6.399,6.252-8.997,9.386
	c-0.5,0.604-3.352,0.938-2.654,0.099c0.004-0.005,0.009-0.01,0.013-0.015c-0.124-0.07-0.179-0.175-0.124-0.319
	c1.749-4.658,2.322-9.813,0.255-14.358c-2.812,3.369-3.668,8.642-3.366,12.756c0.071,0.969-2.842,1.54-2.898,0.776
	c-0.004-0.058-0.005-0.119-0.009-0.177c-0.506,0.046-0.932-0.038-0.991-0.323c-0.689-3.272,4.149-15.526-0.226-16.77
	c-3.331-0.947-4.591,13.089-4.376,14.994c0.088,0.779-2.063,1.332-2.713,1.003c-0.307,0.011-0.561-0.051-0.686-0.228
	c-3.229-4.557,1.176-9.72-0.862-14.351C292.058,207.547,300.152,223.567,303.573,230.909z M309.433,268.51
	c0.276-0.058,0.525-0.076,0.692-0.027c1.743,0.509,3.501,0.947,5.265,1.354c0.003-0.002,0.006-0.005,0.009-0.007
	c0.131-0.114,0.289-0.212,0.382-0.26c0.354-0.18,2.198-1.055,1.359-1.621c-0.918-0.62-2.397-0.524-3.446-0.53
	c-0.31-0.001-0.456-0.116-0.47-0.265c-1.019,0.565-2.133,0.914-3.265,1.216C309.783,268.417,309.609,268.465,309.433,268.51z
	 M350.633,262.218c-4.876,5.413-11.182,9.024-17.989,11.415c3.588,0.966,7.108,2.176,10.506,3.869
	c2.813-4.243,7.454-7.186,12.637-5.048c0.094,0.039,0.171,0.082,0.242,0.126c0.133-0.455,0.32-0.936,0.589-1.452
	c0.175-0.337,0.808-0.601,1.424-0.697C354.494,269.132,351.913,265.858,350.633,262.218z M420.506,271.158
	c-4.385-1.117-7.991-3.452-9.109-7.355c-5.317,2.842-11.974,3.066-16.906-0.522c-2.218,4.12-4.599,8.046-8.995,9.348
	c-0.832,0.417-1.617,0.629-2.238,0.733c-0.654,0.594-2.919,0.719-2.727,0.359c2.572-4.819-6.813-8.358-9.007-4.127
	c-1.368,2.638-2.101,10.824,3.041,10.011c2.042-0.323,0.611,0.87-0.543,1.053c-2.718,0.43-5.127-0.395-6.054-2.9
	c-0.111,0.011-0.281,0.027-0.496,0.048c-0.653,0.218-1.404,0.381-2.201,0.486c-0.044,0.024-0.079,0.048-0.131,0.075
	c-11.25,5.794-4.479,21.486-8.608,31.696c6.592-3.231,12.983-6.865,19.854-9.52c2.835-1.097,5.451-1.794,8.269-0.123
	c4.343,2.576,8.354,5.045,12.914,1.08c2.531-2.201,4.523-4.818,6.501-7.507c0.506-0.688,1.699-0.746,2.319-0.352
	c1.155,0.025,2.342,0.067,3.475-0.117c3.506-0.571,1.205-2.866,0.531-4.384c-0.953-2.151-1.223-3.874-0.089-5.991
	C412.801,278.491,416.765,274.829,420.506,271.158z M243.89,135.182c0.019,0.013,0.034,0.026,0.053,0.039
	c19.109,14.214,38.194,28.463,57.217,42.797c21.277,16.035,43.477,31.536,63.545,49.119c3.691-2.688,7.548-2.214,11.85-1.559
	c0.168-2.247,0.959-4.012,2.174-5.332c-3.304-2.907-6.762-5.644-10.208-8.376c-41.806-33.131-84.894-64.714-127.757-96.459
	c-0.213,0.004-0.391-0.031-0.503-0.122c-2.854-2.306-8.041-3.984-11.409-1.738c-3.666,2.444-2.742,6.594-0.775,9.857
	c0.001,0.002,0,0.005,0.001,0.007c1.058,0.784,2.115,1.568,3.172,2.353C235.465,128.901,239.674,132.047,243.89,135.182z
	 M101.849,360.111c0.873,0.622,1.746,1.243,2.619,1.865c0.271,0.192,0.54,0.384,0.811,0.577
	c3.868-20.242,26.916-24.361,44.266-26.067c9.967-0.979,20.17-1.065,30.008-3.045c14.076-2.83,24.471-13.627,38.261-16.876
	c7.682-1.81,15.612-3.2,23.482-3.792c5.945-0.446,13.45-1.335,16.288,5.165c0.685,1.565,0.907,3.053,0.786,4.463
	c1.334-1.917,2.818-3.73,4.479-5.41c7.527-7.615,17.043-11.785,27.32-13.683c-4.205-1.162-8.442-2.087-12.402-3.024
	c-4.819-1.143-9.694-2.134-14.462-3.48c-0.353,0.267-0.8,0.446-1.243,0.415c-8.714-0.605-20.546,5.159-28.184-0.914
	c-2.087-1.66-2.037-3.643-2.001-6.078c0.063-4.225,0.347-8.443,0.622-12.657c0.274-4.162,1.122-8.776,0.481-12.929
	c-1.007-6.532-2.893-12.837-4.687-19.185c-3.439-12.169-6.256-24.492-2.061-36.842c0.36-1.063,2.454-1.215,2.796-0.284
	c0.026,0.023,0.044,0.049,0.044,0.08c0.001,0.065,0.003,0.133,0.004,0.199c0,0.01,0.001,0.02,0,0.029
	c0.206,19.605,7.329,48.756,28.623,55.271c0.281-0.296,0.552-0.601,0.854-0.879c7.883-7.255,19.311-9.855,26.02-18.433
	c1.973-7.945,7.516-13.257,15.752-13.662c-4.137-8.831-12.213-25.704-1.311-32.184c0.489-0.291,2.106-0.979,2.56-0.342
	c0.775,1.094,1.095,2.225,1.184,3.374c1.104-2.12,2.671-3.744,4.857-4.209c4.094-0.871,4.972,1.942,4.812,5.598
	c0.723-0.963,1.565-1.824,2.562-2.523c0.542-0.382,2.115-1.018,2.587-0.239c2.232,3.684,2.501,7.936,1.687,12.027
	c2.354-2.767,4.961-5.174,8.714-6.205c0.388-0.106,1.37-0.326,1.601,0.178c3.53,7.737-6.765,13.081-4.583,20.7
	c3.85,1.441,7.901-2.343,11.027-4.035c0.417-0.226,1.643-0.442,1.941,0.121c1.93,3.628-1.86,8.126-3.934,10.824
	c-3.068,3.995-6.654,7.561-10.216,11.11c-0.063,0.063-0.146,0.118-0.231,0.169c2.982,8.14-1.854,15.812-9.06,20.998
	c0.341-0.083,0.694-0.122,1.036-0.12c0.986,0.004,1.99,0.046,2.96,0.253c0.573,0.123,1.241,0.292,1.606,0.784
	c0.85,1.145-2.022,2.49-2.653,2.813c-0.13,0.065-0.275,0.128-0.429,0.184c4.268,0.932,8.559,1.705,12.782,2.708
	c6.965-2.136,13.601-5.619,18.448-11.163c0.333-0.381,1.31-0.604,2.029-0.588c-0.312-1.119-0.506-2.256-0.563-3.37
	c-0.332-6.547,3.586-7.54,7.854-11.128c5.391-4.532,1.211-12.479,5.206-17.714c-3.229-2.825-6.596-5.495-9.955-8.158
	c-36.072-28.588-73.102-56.021-110.115-83.403c-5.976,6.961-11.217,14.571-15.437,22.725c-6.475,12.511-11.299,26.167-12.733,40.248
	c-1.292,12.685,1.075,24.79,3.431,37.203c2.026,10.683,4.83,22.685,2.407,33.544c-1.982,8.885-7.907,16.269-15.428,21.242
	c-16.871,11.156-37.567,13.022-56.271,19.633c-10.987,3.883-21.17,9.892-29.012,18.616c-7.723,8.594-13.172,18.728-17.694,29.293
	C101.958,359.973,101.907,360.044,101.849,360.111z M254.936,319.286c-3.73-8.543-16.477-5.089-23.759-3.935
	c-3.793,0.601-7.564,1.303-11.331,2.059c-6.863,1.378-12.8,4.973-18.739,8.481c-7.97,4.708-16.235,8.229-25.436,9.53
	c-8.454,1.194-16.999,1.525-25.49,2.36c-16.658,1.639-38.235,4.827-42.007,24.285c7.482,0.02,14.819,0.206,22.172-1.516
	c5.816-1.362,11.531-3.06,17.248-4.784c11.427-3.448,22.339-5.597,34.243-6.553c14.268-1.146,28.101-2.901,41.854-6.905
	C231.355,340.081,260.623,332.311,254.936,319.286z M201.28,434.178c-40.55-28.865-81.102-57.731-121.65-86.598
	c-3.558-1.021-8.302-0.517-10.957,2.33c-2.953,3.163-1.572,6.564,1.27,9.242c7.07,5.034,14.143,10.068,21.214,15.103
	c40.59,28.895,81.18,57.788,121.77,86.682c0.337,0.24,0.438,0.51,0.384,0.771c3.638,1.345,7.871,1.213,10.533-2.064
	c2.349-2.894,2.323-6.441,0.091-9.34C216.381,444.928,208.831,439.553,201.28,434.178z M227.537,407.731
	c-2.846-9.101-8.576-16.644-7.902-26.626c1.081-16.001,10.171-34.145,28.762-32.655c0.022,0.002,0.046,0.007,0.067,0.009
	c1.173-6.285,2.911-12.666,5.629-18.536c-5.248,4.839-13.969,8.15-18.567,9.855c-13.306,4.933-27.315,8.226-41.429,9.715
	c-8.066,0.852-16.189,1.199-24.235,2.229c-7.52,0.962-14.698,3.104-21.935,5.289c-6.979,2.109-13.986,4.285-21.168,5.608
	c-6.666,1.229-13.347,0.933-20.103,0.914c33.742,24.02,67.484,48.039,101.228,72.059c8.582-7.798,15.455-16.458,19.314-27.526
	C227.242,407.939,227.367,407.829,227.537,407.731z M270.675,460.187c-0.013-0.347,0.302-0.638,0.725-0.845
	c-1.315,0.096-2.644,0.118-3.978,0.086c-0.094,0.408-0.77,0.979-1.511,1.115c-3.117,0.573-6.422,0.968-9.768,1.11
	c0.382,0.155,0.768,0.306,1.143,0.478c1.136,0.521-1.531,1.696-2.324,1.334c-1.812-0.83-3.73-1.466-5.702-1.9
	c-1.759-0.127-3.502-0.337-5.206-0.646c-1.714-0.059-3.428,0.02-5.107,0.283c-3.854,0.604-11.998,2.531-13.155,7.138
	c-0.108,0.434-0.157,0.84-0.161,1.228c0.027-0.002,0.057-0.007,0.081-0.007c14.469,0.001,29.026-0.003,43.319,2.521
	c1.589,0.279-1.002,1.58-1.812,1.438c-13.643-2.408-27.517-2.477-41.331-2.48c1.854,4.892,13.282,5.197,17.346,5.422
	c8.534,0.474,19.108,1.556,27.42-0.824c4.086-1.17,2.746-4.245,1.764-7.162C271.494,465.739,270.779,463.085,270.675,460.187z
	 M341.567,478.087c-2.992-1.725-5.906-3.793-8.745-5.876c-5.487,0.649-10.927-0.345-16.235-1.865
	c-3.523-1.009-8.005-2.378-11.541-4.517c0.194,7.82,4.481,12.102,12.664,13.828c5.975,1.262,18.23,5.009,22.549-0.948
	C340.486,478.394,341.021,478.18,341.567,478.087z M337.798,402.907c-6.83,4.693-16.008,2.986-23.674-0.597
	c-9.437-4.411-17.952-10.687-25.866-17.5c0.104,0.202,0.214,0.396,0.315,0.6c0.384,0.761-2.424,1.715-2.898,0.775
	c-3.796-7.522-8.339-14.032-13.64-20.553c-5.691-7-12.671-13.748-21.959-15.274c-0.813,0.272-1.834,0.271-1.893-0.229
	c-10.663-0.916-18.305,5.396-22.146,15.101c-2.754,6.955-4.554,15.095-3.171,22.571c0.826,4.461,3.221,8.499,5.057,12.597
	c2.021,4.512,3.461,9.196,4.301,14.076c1.421,8.256,1.172,16.433-0.063,24.686c-1.221,8.168-1.044,15.97,8.23,18.878
	c1.942,0.608,3.951,1.069,5.991,1.403c1.278,0.082,2.55,0.24,3.804,0.473c4.92,0.421,9.944,0.157,14.719-0.613
	c-0.648-0.211,1.664-1.07,2.17-1.044c4.078,0.226,10.393,0.854,12.882-3.12c1.55-2.475,1.89-5.154,1.593-8.018
	c-0.616-5.979-2.117-11.779-3.156-17.686c-2.563-14.571-7.03-28.703-9.72-43.246c-0.114-0.626,2.805-1.284,2.898-0.775
	c1.939,10.496,4.687,20.844,7.21,31.237c9.96,2.461,16.256,9.129,25.209,13.846c6.566,3.46,12.201,7.586,17.071,13.231
	c4.714,5.463,8.979,11.281,13.919,16.554c0.571,0.612-2.147,1.647-2.718,1.041c-7.353-7.851-13.229-16.697-21.309-23.447
	c-8.392,4.824-15.621,17.679-5.86,24.956c6.885,5.132,17.588,8.988,26.613,8.564c-3.603-2.657-7.084-5.26-10.451-7.102
	c-0.361-0.197,1.991-1.391,2.73-0.986c5.554,3.039,10.511,6.945,15.789,10.414c4.916,3.229,11.113,7.541,17.244,7.426
	c7.158-0.133,15.196-4.89,18.235-11.586c2.284-5.03,1.837-10.558-0.122-15.642c-4.031-10.467-11.613-18.657-17.595-27.973
	C352.072,417.423,346.668,408.175,337.798,402.907z M391.177,389.749c7.384,10.477,13.952,21.311,20.496,32.314
	c5.338,8.979,10.737,17.68,19.057,24.198c3.407,2.671,7.394,5.354,11.852,5.678c7.418,0.537,13.158-4.422,17.822-9.605
	c0.051-0.058,0.109-0.106,0.171-0.154c5.487-9.188-10.11-18.965-15.85-23.819c-4.759-4.022-8.214-10.379-11.224-15.761
	c-3.027-5.417-5.886-10.928-8.888-16.359c-3.35-6.061-6.695-12.281-10.879-17.821c-3.691-4.887-8.37-8.874-10.179-14.957
	c-1.939-6.521-0.199-14.874-4.377-20.516c-2.904-3.921-6.862-6.769-10.7-9.736c-4.346-2.945-10.813-3.771-15.754-4.521
	c-6.451-0.979-13.562-1.972-20.026-0.652c-2.022,0.413-0.646-0.903,0.521-1.143c6.674-1.362,13.958-0.567,20.618,0.443
	c3.28,0.498,7.163,0.965,10.78,1.973c0.453-0.498,1.644-0.87,2.362-0.62c4.456-2.635,2.354-9.53,0.196-13.503
	c-0.03-0.055-0.038-0.111-0.035-0.168c-2.306-1.262-5.084-4.009-7.755-3.199c-8.683,2.632-16.462,7.785-24.657,11.562
	c-0.063,0.029-0.129,0.049-0.193,0.069c-0.615,0.523-3.163,0.845-2.562,0.1c0.237-0.293,0.454-0.595,0.662-0.9
	c-0.074-0.344,0.096-0.722,0.626-1.016c5.739-10.286-2.523-26.179,9.292-33.227c-3.346-0.148-6.598-1.395-6.735-4.253
	c-0.479,0.349-1.151,0.543-1.688,0.323c-4.809-1.981-10.06,3.514-10.034,8.225c0.015,3.005,0.8,5.618,1.815,8.408
	c1.68,4.604,2.33,8.485,0.771,13.215c-0.424,1.287-3.321,1.249-2.783-0.382c1.783-5.41-0.167-9.306-1.704-14.375
	c-0.992-3.272-1.725-7.049-0.097-10.266c0.022-0.045,0.05-0.089,0.073-0.134c-0.291,0.04-0.553,0.031-0.715-0.054
	c-3.916-2.034-8.018-3.391-12.201-4.462c-0.315,0.017-0.547-0.058-0.706-0.175c-6.859-1.702-13.928-2.701-20.761-4.695
	c-0.751-0.219,0.312-0.882,1.285-1.179c-2.378,0.608-4.742,1.207-6.363,3.354c-2.123,2.811-3.321,6.356-5.677,8.982
	c-4.384,4.893-10.196,7.602-16.475,9.199c-1.794,0.457-2.34-1.553-0.539-2.012c7.542-1.92,13.41-5.434,17.262-12.324
	c2.033-3.638,4.058-6.568,7.973-8.303c3.221-1.426,6.363-1.537,9.278-3.954c2.508-2.079,5.101-4.571,6.188-7.745
	c1.167-3.406,1.427-6.802-0.123-10.155c-6.281-13.586-29.012-18.695-33.172-0.954c-0.012,0.048-0.033,0.093-0.053,0.138
	c-0.041,0.119-0.103,0.244-0.207,0.382c-6.196,8.113-16.224,10.661-23.977,16.772c-5.407,4.262-8.271,9.894-8.189,16.867
	c0.055,4.572,1.188,12.822,6.215,14.805c10.829,4.27,23.443,5.251,34.812,8.866c0.157,0.02,0.271,0.059,0.352,0.112
	c4.939,1.599,9.637,3.707,13.839,6.817c0.826-1.638,1.416-3.355,1.62-5.162c0.123-1.088,3.055-1.596,2.909-0.315
	c-0.285,2.534-1.301,4.925-2.675,7.154c0.097,0.417-0.233,0.824-0.709,1.093c-1.706,2.502-3.81,4.789-5.757,6.829
	c-2.217,2.323-4.488,4.688-6.93,6.779c-2.627,2.25-5.747,4.134-8.058,6.713c-3.64,4.065-6.786,8.702-10.263,12.923
	c-3.611,4.387-7.443,8.708-10.563,13.47c1.352,1.334,2.635,2.76,3.852,4.256c4.027,4.954,7.685,9.839,10.936,15.114
	c0.256,0.021,0.479,0.096,0.636,0.237c7.654,7.014,15.8,13.772,24.827,18.957c7.329,4.209,18.372,9.679,25.943,4.414
	c-0.077-0.039-0.148-0.084-0.228-0.123c-0.216-0.105,0.646-0.631,1.495-0.898c0.586-0.535,1.146-1.138,1.677-1.832
	c0.083-0.109,0.21-0.205,0.361-0.289c0.113-0.081,0.249-0.162,0.425-0.242c7.69-3.504,11.262-11.479,14.749-18.744
	c-0.699,0.37-1.75,0.511-2.161,0.057c-8.128-8.976-10.87-19.651-6.751-31.19c3.179-8.905,10.599-18.171,10.276-27.92
	c-0.039-1.199,2.863-1.807,2.897-0.775c0.286,8.648-5.383,16.463-8.617,24.131c-5.326,12.632-4.616,24.103,4.873,34.583
	c0.006,0.006,0.009,0.013,0.014,0.02c0.124-0.255,0.248-0.512,0.371-0.764c1.785-3.622,3.552-7.289,6.345-10.27
	c0.859-0.918,1.987-1.758,3.131-2.611c-0.042-0.698,0.924-1.439,1.79-1.385c1.509-1.24,2.8-2.604,3.208-4.347
	c0.233-0.996,3.154-1.451,2.897-0.358c-0.625,2.672-2.485,4.063-4.451,5.471C378.282,369.98,384.769,380.653,391.177,389.749z
	 M471.112,466.465c0.152-4.486-3.147-6.537-5.823-9.56c-0.479-0.541,0.306-1.141,0.724-1.351c8.942-4.509,14.828,9.224,23.141,9.789
	c0.229,0.017,0.405,0.058,0.541,0.114c1.328,0.063,1.755-0.059,0.431-1.485c-0.9-0.971-1.879-1.86-2.912-2.69
	c-2.13-1.711-4.354-3.293-6.527-4.945c-6.154-4.672-10.215-10.82-16.908-14.799c-0.177,0.369-0.385,0.736-0.622,1.104
	c-0.01,0.183-0.098,0.39-0.306,0.621c-3.108,3.456-6.835,6.724-10.966,8.781c0.1,0.093,0.168,0.213,0.19,0.364
	c1.372,8.996,7.419,10.81,14.909,13.494C468.618,466.489,471.026,469.003,471.112,466.465z M528.01,410.888
	c-0.413,0.264-0.946,0.365-1.413,0.365c-0.896,0-1.793,0-2.69,0c-3.671,19.531-8.173,38.895-11.813,58.432
	c-0.038,0.203-0.148,0.38-0.299,0.534c-0.246,0.353-0.701,0.631-1.3,0.631c-21.802,0-43.604,0-65.406,0c0,1.687,0,3.375,0,5.062
	c23.776-0.014,47.552-0.377,71.326-0.4C520.375,453.987,524.047,432.411,528.01,410.888z M212.213,300.485
	c-0.183-1.459,2.939-2.132,3.986-2.149c0.805-0.016,1.563,0.226,2.325,0.459c0.701-0.424,2.213-0.901,2.549-0.386
	c1.146,1.758,2.84,4.889,0.994,6.783c-1.41,1.447-4.117,1.848-5.949,1.083C213.824,305.317,212.51,302.862,212.213,300.485z
	 M215.171,299.636c-0.007-0.002-0.015-0.004-0.021-0.006c-0.017,0.081-0.027,0.197,0.005,0.373c0.099,0.54,0.217,1.08,0.41,1.595
	c0.569,1.522,1.574,2.987,3.127,3.636c0.232,0.097,0.479,0.167,0.729,0.214c0.225-0.249,0.373-0.572,0.449-0.892
	c0.333-1.409-0.25-2.899-0.974-4.188c-0.072,0.003-0.146,0.014-0.216,0.012C217.426,300.342,216.36,299.974,215.171,299.636z
	 M231.183,326.319c1.146,1.757,2.841,4.888,0.994,6.783c-1.41,1.447-4.116,1.848-5.948,1.083c-2.294-0.958-3.608-3.413-3.905-5.79
	c-0.184-1.459,2.938-2.132,3.986-2.15c0.805-0.015,1.563,0.227,2.324,0.459C229.335,326.28,230.847,325.805,231.183,326.319z
	 M229.007,328.275c-0.072,0.003-0.146,0.013-0.216,0.011c-1.256-0.035-2.321-0.402-3.511-0.741
	c-0.007-0.002-0.016-0.004-0.021-0.007c-0.016,0.081-0.026,0.198,0.006,0.373c0.099,0.54,0.217,1.08,0.409,1.596
	c0.57,1.522,1.574,2.986,3.127,3.636c0.233,0.097,0.479,0.167,0.729,0.214c0.224-0.249,0.373-0.573,0.449-0.892
	C230.314,331.055,229.731,329.563,229.007,328.275z M180.387,321.456c-0.183-1.459,2.939-2.133,3.986-2.15
	c0.805-0.015,1.563,0.227,2.325,0.459c0.701-0.423,2.213-0.899,2.549-0.385c1.146,1.757,2.84,4.888,0.994,6.783
	c-1.41,1.446-4.117,1.848-5.949,1.083C181.998,326.287,180.685,323.833,180.387,321.456z M183.345,320.604
	c-0.007-0.002-0.015-0.004-0.021-0.006c-0.017,0.081-0.027,0.198,0.005,0.373c0.099,0.54,0.217,1.08,0.41,1.595
	c0.57,1.523,1.574,2.987,3.127,3.636c0.232,0.098,0.479,0.167,0.729,0.215c0.225-0.249,0.373-0.573,0.449-0.893
	c0.333-1.409-0.25-2.898-0.974-4.188c-0.072,0.003-0.146,0.013-0.216,0.011C185.601,321.312,184.534,320.943,183.345,320.604z
	 M247.843,169.248c1.924-2.882,3.863-5.757,6.749-7.761c1.616-1.122-0.74-2.206-1.936-1.376c-3.079,2.138-5.198,5.162-7.251,8.239
	C244.375,169.894,247.08,170.389,247.843,169.248z M235.088,200.674c1.082-6.066,2.972-11.9,4.915-17.735
	c0.519-1.556-2.373-1.436-2.758-0.281c-2,6.008-3.972,12.018-5.085,18.265C231.911,202.318,234.867,201.912,235.088,200.674z
	 M134.777,328.004c5.907-5.645,13.229-8.521,21.027-10.526c1.738-0.447,1.368-1.803-0.362-1.356
	c-8.465,2.178-16.563,5.352-22.973,11.474C131.269,328.742,134.132,328.619,134.777,328.004z M333.476,254.605
	c-1.313,0.912,1.612,0.863,2.299,0.386c6.361-4.425,10.932-10.833,15.19-17.194c0.705-1.053-2.192-0.727-2.682,0.003
	C344.12,244.016,339.693,250.28,333.476,254.605z" fill="#4a4a4a"></path>
</svg>